<?xml version="1.0" encoding="UTF-8" standalone="no"?>
<!-- Created with Inkscape (http://www.inkscape.org/) -->
<svg id="svg3837" xmlns:rdf="http://www.w3.org/1999/02/22-rdf-syntax-ns#" xmlns="http://www.w3.org/2000/svg" height="256" width="256" version="1.1" xmlns:cc="http://creativecommons.org/ns#" xmlns:xlink="http://www.w3.org/1999/xlink" xmlns:dc="http://purl.org/dc/elements/1.1/">
 <defs id="defs3839">
  <linearGradient id="linearGradient4389" x1=".49805" gradientUnits="userSpaceOnUse" y1="924.36" gradientTransform="matrix(1.0039 0 0 1.0039 795.86 -1056)" x2="255.5" y2="924.36">
   <stop id="stop4393" offset="0"/>
   <stop id="stop4395" stop-color="#969696" offset="1"/>
  </linearGradient>
  <radialGradient id="radialGradient4421" gradientUnits="userSpaceOnUse" cy="208.25" cx="139" gradientTransform="matrix(1 0 0 .31871 0 141.88)" r="85.5">
   <stop id="stop4417" stop-opacity=".65179" offset="0"/>
   <stop id="stop4419" stop-opacity="0" offset="1"/>
  </radialGradient>
  <filter id="filter4515" y="-.25611" width="1.1632" x="-.081624" height="1.5122">
   <feGaussianBlur id="feGaussianBlur4517" stdDeviation="5.8157318"/>
  </filter>
 </defs>
 <metadata id="metadata3842">
  <rdf:RDF>
   <cc:Work rdf:about="">
    <dc:format>image/svg+xml</dc:format>
    <dc:type rdf:resource="http://purl.org/dc/dcmitype/StillImage"/>
    <dc:title/>
   </cc:Work>
  </rdf:RDF>
 </metadata>
 <g id="layer1" transform="translate(0 -796.36)">
  <rect id="rect3845" transform="rotate(90)" height="256" width="256" y="-256" x="796.36" fill="url(#linearGradient4389)"/>
  <path id="path4413" filter="url(#filter4515)" transform="matrix(1.1228 0 0 1 -28.07 806.86)" fill="url(#radialGradient4421)" d="m224.5 208.25a85.5 27.25 0 1 1 -171 0 85.5 27.25 0 1 1 171 0z"/>
  <g id="g4795" transform="matrix(1.1758 0 0 1.1758 15.953 849.26)">
   <path id="path4783" d="m0.872 66.178c3.614-1.382 9.707-5.208 13.176-8.848 3.233-4.018 6.125-8.997 9.024-15.505 4.642-10.345 14.739-23.553 35.722-32.284 14.058-6.97 40.905-12.636 72.516-5.362 15.041 2.797 45.316 15.627 53.66 36.879l-40.637 0.035c-9.977-9.416-37.781-19.951-68.44-8.655-28.18 10.722-40.75 41.938-1.905 61.5 18.853 8.39 42.09 6.862 58.655-0.227 8.566-4.213 19.613-12.063 22.467-23.592l34.658 0.042c-0.188 9.38-4.569 17.995-8.76 22.976-6.091 7.276-8.372 9.572-15.993 15.508-17.143 12.256-36.178 18.379-62.846 18.227-15.04-0.039-29.705-1.951-41.317-7.738-14.359-5.26-27.991-17.76-30.843-21.782-5.335-5.935-5.721-8.042-8.384-11.867-4.191-7.47-5.901-9.189-8.188-11.493-2.095-2.677-7.996-6.125-12.608-7.043l0.045-0.767z" stroke="#002350" stroke-miterlimit="2.6131" stroke-width="1.5735" fill="none"/>
   <path id="path4785" d="m3.343 66.329c2.141 0.907 11.045 3.499 17.783 15.896 5.375 9.38 9.486 14.552 15.086 19.718 9.216 8.616 16.45 11.873 21.253 14.323 22.089 11.719 60.514 12.482 85.842 2.606 16.376-6.015 24.276-13.908 29.822-18.88 11.812-11.499 14.168-19.684 15.313-28.683h-32.186c-2.856 9.19-10.571 17.04-21.517 22.785-16.189 7.748-40.56 9.572-58.846 1.95-7.981-3.29-13.886-7.5-19.331-12.828-11.956-12.633-10.166-27.604-1.673-37.947 4.649-4.977 8.453-8.042 15.311-11.872 15.994-7.85 49.867-13.339 74.989 6.552h38.008c-6.09-13.404-23.69-23.783-29.59-26.505-16.56-8.958-50.94-16.424-83.976-6.775-8.098 2.318-17.524 7.011-25.711 12.521-8.567 6.166-15.327 13.919-19.408 22.635-2.109 4.592-2.682 6.508-5.576 11.1-5.865 9.771-15.576 13.404-15.576 13.404z" fill-rule="evenodd" stroke="#002350" stroke-miterlimit="2.6131" clip-rule="evenodd" stroke-width="1.5735" fill="#fff"/>
   <path id="path4787" fill="#f37021" fill-rule="evenodd" clip-rule="evenodd" d="m21.057 59.055c3.614-4.023 6.472-14.362 12.182-22.211 8.117-11.498 18.861-17.527 26.852-21.364 18.281-9.003 44.559-11.563 70.269-5.364 9.332 2.219 18.66 5.55 25.324 9.917 6.668 3.987 14.476 9.729 18.857 15.319h-27.467c-8.14-6.548-17.095-9.723-25.092-11.453-8.95-2.295-23.044-3.52-39.804 0.503-9.897 2.486-16.754 5.934-23.418 10.723-13.141 9.376-27.615 34.038-1.906 55.486 8.379 7.122 15.427 9.418 23.233 12.135 14.47 4.218 32.564 3.413 43.036 0.54 15.811-4.216 21.709-9.767 26.85-14.172 4.758-4.592 8.759-10.148 9.865-13.015l22.547-0.045c-1.559 8.468-7.657 15.358-13.562 21.1-6.758 6.413-11.803 9.771-21.783 14.786-23.351 11.257-57.629 10.876-78.764 3.182-10.85-3.986-13.898-5.793-22.085-11.495-6.667-5.396-11.045-8.956-17.327-18.721-2.859-4.789-4.192-7.47-7.431-11.871-2.28-2.491-3.806-4.79-7.806-6.706 3.668-2.58 5.667-4.501 7.433-7.274z"/>
  </g>
 </g>
</svg>
