<?xml version="1.0" encoding="UTF-8" standalone="no"?>
<!-- Created with Inkscape (http://www.inkscape.org/) -->
<svg id="svg3837" xmlns:rdf="http://www.w3.org/1999/02/22-rdf-syntax-ns#" xmlns="http://www.w3.org/2000/svg" height="256" width="256" version="1.1" xmlns:cc="http://creativecommons.org/ns#" xmlns:xlink="http://www.w3.org/1999/xlink" xmlns:dc="http://purl.org/dc/elements/1.1/">
 <defs id="defs3839">
  <linearGradient id="linearGradient4389" y2="924.36" gradientUnits="userSpaceOnUse" x2="255.5" gradientTransform="matrix(1.0039 0 0 1.0039 795.86 -1056)" y1="924.36" x1=".49805">
   <stop id="stop4393" offset="0"/>
   <stop id="stop4395" stop-color="#969696" offset="1"/>
  </linearGradient>
  <radialGradient id="radialGradient4421" gradientUnits="userSpaceOnUse" cy="208.25" cx="139" gradientTransform="matrix(1 0 0 .31871 0 141.88)" r="85.5">
   <stop id="stop4417" stop-opacity=".65179" offset="0"/>
   <stop id="stop4419" stop-opacity="0" offset="1"/>
  </radialGradient>
  <filter id="filter4515" height="1.5122" width="1.1632" y="-.25611" x="-.081624">
   <feGaussianBlur id="feGaussianBlur4517" stdDeviation="5.8157318"/>
  </filter>
 </defs>
 <metadata id="metadata3842">
  <rdf:RDF>
   <cc:Work rdf:about="">
    <dc:format>image/svg+xml</dc:format>
    <dc:type rdf:resource="http://purl.org/dc/dcmitype/StillImage"/>
    <dc:title/>
   </cc:Work>
  </rdf:RDF>
 </metadata>
 <g id="layer1" transform="translate(0 -796.36)">
  <rect id="rect3845" transform="rotate(90)" height="256" width="256" y="-256" x="796.36" fill="url(#linearGradient4389)"/>
  <path id="path4413" d="m224.5 208.25c0 15.05-38.28 27.25-85.5 27.25s-85.5-12.2-85.5-27.25 38.28-27.25 85.5-27.25 85.5 12.2 85.5 27.25z" transform="matrix(1.1228 0 0 1 -28.07 806.86)" filter="url(#filter4515)" fill="url(#radialGradient4421)"/>
  <g id="g4676" transform="matrix(.80285 0 0 .68816 16 855.53)">
   <path id="path4678" fill="#fff" d="m276.51 33.534c-4.07-7.479-19.2-10.212-30.03-9.43-7.03-9.707-16.26-18.339-28.22-23.614-0.27 0.675-0.7 1.725-0.92 2.535-3.45-1.016-11.32-2.938-17.82-3.025l-0.043 2.242c-7.021 0.906-16.904 2.182-20.208 2.853 0.494 1.682 0.643 2.469 1.055 3.558-23.905 6.584-45.703 19.199-65.295 36.114 0.855 0.261 1.448 0.639 1.75 0.673-21.353 8.06-36.976 20.576-50.586 33.326-16.092 2.491-44.978 6.239-44.978 6.239l-21.216 42.025 56.114-11.83c-4.681 13.26-17.479 25.097-29.265 33.072-1.561 8.144-5.807 15.856-13.26 20.795 3.484 3.903-0.805 8.831-1.414 12.99 4.768 6.154 14.5 17.945 14.5 17.945l5.98-24.955 12.038-12.267c-0.769 2.063-0.485 4.406-0.25 5.308-1.077 2.233-4.072 4.982-4.298 8.851 4.557 5.918 13.308 16.655 13.308 16.655s6.326-16.817 9.186-25.392l48.61-44.909c3.679-0.54 12.661-0.43 19.163-0.247l2.772-2.686 13.69-1.039c1.13 1.839 1.771 3.001 2.517 4.42-2.48 1.423-4.63 2.539-6.996 3.71l-6.181 22.082s11.846-6.392 17.94-9.586c2.21 0.348 7.357 0.21 10.021-0.366-1.304 6.241-3.569 19.196-3.569 19.196s10.524-5.648 15.463-8.252c13.463 0.06 27.004-5.337 30.704-7.206 10.325-4.109 7.28-29.709 7.28-29.709 2.077-0.266 4.665-0.888 6.662-0.27 5.84 1.492 2.004 23.472 2.004 23.472l13.516-12.88 1.459 1.896s8.149-10.155 11.784-15.536c9.94 0.094 12.269-6.202 13.507-10.473 4.976-17.135 10.752-15.941 12.919-25.3 1.312-3.803 5.913-31.955 0.605-40.983zm-269.59 88.126 16.447-33.174 222.27-32.514c-6.891 3.596-7.495 11.393-4.203 15.511-58.46 12.784-234.51 50.177-234.51 50.177zm54.075 43.417c-3.118 7.106-8.43 22.004-8.43 22.004s-6.129-7.099-8.641-10.565c-0.045-2.608 2.773-5.285 4.159-7.888-0.258-0.778-0.345-1.821-0.171-2.512 4.939-3.64 8.06-8.84 9.098-14.559 16.806-26.396 48.491-27.65 48.491-27.65l-44.509 41.17zm143.64-24.73c-13.653 6.776-29.754 6.877-29.754 6.877l-9.559 5.061s1.862-8.895 2.643-13.054c10.549-1.766 25.364-4.548 30.953-12.939 1.826-2.741 3.065-7.349 4.29-10.883 2.425-0.346 4.507-0.707 7.021-1.053 0-0.001 2.807 21.79-5.594 25.991zm70.413-84.649c-0.604 8.689-1.814 19.379-6.347 24.545-4.395 5.015-7.75 12.322-10.265 19.921-1.324 4.502-3.063 6.566-11.191 6.928-3.034 4.422-5.969 9.11-9.62 13.088l-1.039-1.476c-3.555 3.37-5.39 5.326-9.201 8.771 0.407-4.425 0.618-10.469-0.837-13.64-2.169-3.555-5.82-4.404-9.462-3.88l-16.982 2.594c-1.075 3.553-2.18 8.574-4.784 12.212-3.887 9.105-35.643 12.308-41.324 11.453-3.987 1.99-7.886 4.507-12.045 6.413 1.142-4.258 3.761-13.244 3.761-13.244s5.568-2.832 8.236-4.319c-0.403-0.885-0.581-1.263-1.165-2.631 4.939-1.212 10.517-3.619 14.42-7.348 0 0-24.559 1.629-36.085 2.411-0.702 0.879-1.389 1.734-2.253 2.251-26.259-1.125-51.131 2.425-69.504 20.974-5.893 5.893-12.306 12.26-16.119 19.02-4.695 4.875-8.714 9.009-13.605 13.91l-5.2 18.847-8.156-10.698c-1.098-1.514 3.839-8.245 1.309-11.704 5.893-4.244 10.661-12.525 12.052-19.432 11.906-8.025 26.652-22.168 31.027-36.425 0 0 182.25-39.564 184.85-40.077-1.212 3.468-0.521 8.233 3.379 10.052 1.906 0.435 3.988-0.174 5.633-1.297-0.854-0.798-2.515-1.906-2.944-3.553-0.783-2.082 0.345-3.9 1.647-5.376-2.343-5.2-0.435-11.178 2.686-15.424 2.164-2.86 5.623-6.136 8.05-8.735l-191.75 27.914s25.094-23.454 52.925-31.825c-0.837-0.355-2.896-1.215-4.402-1.759 19.814-16.19 42.049-28.121 63.899-33.319-0.323-1.094-0.634-1.922-1.014-3.162 0.664-0.082 18.623-2.733 18.623-2.733-0.053-0.556-0.042-0.634-0.107-1.455 4.354-0.021 13.537 2.372 17.009 3.534 0.233-0.549 0.517-1.169 0.668-1.533 13.429 5.985 24.396 22.049 24.396 22.049 8.838-0.965 18.096 0.11 25.2 3.839 6.598 3.444 6.214 15.782 5.617 24.345z"/>
   <path id="path4680" fill="#bf2026" d="m245.63 55.972-222.27 32.514-16.444 33.174s176.05-37.396 234.51-50.179c-3.293-4.119-2.689-11.916 4.202-15.512z"/>
   <g id="g4682" fill="#194787">
    <path id="path4684" d="m269.43 31.36c-7.104-3.729-16.362-4.804-25.2-3.839 0 0-10.967-16.064-24.396-22.049-0.151 0.364-0.435 0.984-0.668 1.533-3.473-1.162-12.656-3.555-17.009-3.534 0.066 0.821 0.055 0.899 0.107 1.455 0 0-17.959 2.651-18.623 2.733 0.38 1.24 0.691 2.068 1.014 3.162-21.851 5.198-44.085 17.128-63.899 33.319 1.505 0.544 3.564 1.404 4.402 1.759-27.837 8.371-52.931 31.825-52.931 31.825l191.73-27.888c-2.427 2.599-5.886 5.875-8.05 8.735-3.121 4.246-5.029 10.224-2.686 15.424-1.302 1.476-2.43 3.294-1.647 5.376 0.43 1.647 2.091 2.755 2.944 3.553-1.645 1.123-3.727 1.732-5.633 1.297-3.9-1.819-4.591-6.584-3.379-10.052-2.599 0.513-184.85 40.077-184.85 40.077-4.375 14.257-19.121 28.4-31.027 36.425-1.391 6.907-6.159 15.188-12.052 19.432 2.53 3.459-2.407 10.19-1.309 11.704l8.156 10.698 5.2-18.847c4.891-4.9 8.911-9.034 13.605-13.91 3.813-6.76 10.226-13.127 16.119-19.02 18.373-18.549 43.246-22.1 69.504-20.974 0.865-0.517 1.551-1.373 2.253-2.251 11.526-0.782 36.085-2.411 36.085-2.411-3.903 3.729-9.48 6.136-14.42 7.348 0.583 1.368 0.762 1.746 1.165 2.631-2.667 1.487-8.236 4.319-8.236 4.319s-2.62 8.986-3.761 13.244c4.159-1.906 8.058-4.422 12.045-6.413 5.681 0.855 37.437-2.347 41.324-11.453 2.604-3.638 3.708-8.659 4.784-12.212l16.982-2.594c3.642-0.524 7.293 0.325 9.462 3.88 1.455 3.171 1.245 9.215 0.837 13.64 3.811-3.445 5.646-5.401 9.201-8.771l1.039 1.476c3.651-3.978 6.586-8.666 9.62-13.088 8.128-0.362 9.867-2.425 11.191-6.928 2.515-7.6 5.871-14.907 10.265-19.921 4.532-5.166 5.743-15.856 6.347-24.545 0.6-8.563 0.984-20.901-5.614-24.345z"/>
    <path id="path4686" d="m203.2 115.42c-1.224 3.534-2.464 8.142-4.29 10.883-5.589 8.392-20.404 11.173-30.953 12.939-0.78 4.159-2.643 13.054-2.643 13.054l9.559-5.061s16.101-0.101 29.754-6.877c8.4-4.2 5.593-25.991 5.593-25.991-2.514 0.346-4.595 0.707-7.02 1.053z"/>
    <path id="path4688" d="m57.006 151.56c-1.039 5.719-4.159 10.919-9.098 14.559-0.174 0.691-0.087 1.734 0.171 2.512-1.386 2.604-4.205 5.28-4.159 7.888 2.512 3.466 8.641 10.565 8.641 10.565s5.312-14.898 8.43-22.004l44.506-41.17s-31.685 1.254-48.491 27.65z"/>
   </g>
  </g>
 </g>
</svg>
