<?xml version="1.0" encoding="UTF-8" standalone="no"?>
<!-- Created with Inkscape (http://www.inkscape.org/) -->
<svg id="svg3837" xmlns:rdf="http://www.w3.org/1999/02/22-rdf-syntax-ns#" xmlns="http://www.w3.org/2000/svg" height="256" width="256" version="1.1" xmlns:cc="http://creativecommons.org/ns#" xmlns:xlink="http://www.w3.org/1999/xlink" xmlns:dc="http://purl.org/dc/elements/1.1/">
 <defs id="defs3839">
  <linearGradient id="linearGradient4389" y2="924.36" gradientUnits="userSpaceOnUse" x2="255.5" gradientTransform="matrix(1.0039 0 0 1.0039 795.86 -1056)" y1="924.36" x1=".49805">
   <stop id="stop4393" offset="0"/>
   <stop id="stop4395" stop-color="#969696" offset="1"/>
  </linearGradient>
  <radialGradient id="radialGradient4421" gradientUnits="userSpaceOnUse" cy="208.25" cx="139" gradientTransform="matrix(1 0 0 .31871 0 141.88)" r="85.5">
   <stop id="stop4417" stop-opacity=".65179" offset="0"/>
   <stop id="stop4419" stop-opacity="0" offset="1"/>
  </radialGradient>
  <filter id="filter4515" height="1.5122" width="1.1632" y="-.25611" x="-.081624">
   <feGaussianBlur id="feGaussianBlur4517" stdDeviation="5.8157318"/>
  </filter>
 </defs>
 <metadata id="metadata3842">
  <rdf:RDF>
   <cc:Work rdf:about="">
    <dc:format>image/svg+xml</dc:format>
    <dc:type rdf:resource="http://purl.org/dc/dcmitype/StillImage"/>
    <dc:title/>
   </cc:Work>
  </rdf:RDF>
 </metadata>
 <g id="layer1" transform="translate(0 -796.36)">
  <rect id="rect3845" transform="rotate(90)" height="256" width="256" y="-256" x="796.36" fill="url(#linearGradient4389)"/>
  <path id="path4413" d="m224.5 208.25a85.5 27.25 0 1 1 -171 0 85.5 27.25 0 1 1 171 0z" transform="matrix(1.1228 0 0 1 -28.07 806.86)" filter="url(#filter4515)" fill="url(#radialGradient4421)"/>
  <g id="g4990" transform="matrix(.65197 0 0 .65197 16 859.16)">
   <g id="g4992">
    <path id="path4994" fill="#13264b" d="m0.013 53.873s-1.803 33.656 37.487 55.053c0 0 15.819 8.43 53.049 15.278 32.702 6.022 50.264 18.751 57.233 26.75 8.911 10.225 17.652 28.759 21.584 45.009 0 0 0 4.221 3.029 4.031 0 0 2.652 0.189 2.462-3.598 0 0-0.948-25.559 6.435-37.864 5.654-10.107 15.792-18.846 32.566-24.994 0 0 11.172 8.522 27.075 8.522 11.547 0 21.773-4.925 21.773-4.925s20.257 7.006 22.532 17.984c0 0 0.19 2.654-0.568 4.546l25.369 1.327 13.822-12.497s-25.748-1.894-26.316-9.279c0 0-0.4-3.426 6.55-3.426 0 0 16.02-0.266 30.937 22.042l8.543-22.441s-6.552-3.275-6.419-9.292c0 0-0.133-3.674 2.745-11.023l-10.622-4.825s-5.755-5.399-40.233-26.908l4.469-2.875-38.15-16.512s-12.217-19.252-46.293-19.386c0 0-26.601-43.639-69.049-43.639 0 0-15.666-0.93-33.591 8.498 0 0-7.173 3.275-14.12 7.216 0 0-14.562 10.089-31.203-11.908 0 0-6.063 25.979 12.172 37.092 0 0-17.438 3.672-23.59-11.285 0 0-5.622-11.42-4.071-30.542 0 0-13.366 12.084-13.366 35.275 0 0-0.133 14.783 9.691 24.875 0 0-4.956-0.754-12.835 4.205 0.005-0.012-13.758 9.948-29.087-10.493z"/>
    <path id="path4996" fill="#de6226" d="m65.037 16.248s2.56 22.913 22.064 22.913c0 0 7.665 0 14.668-2.654 7.006-2.654 17.23-7.866 30.862-7.866 0 0 17.794-1.697 27.734 17.998 0 0 22.724-1.241 44.021 2.745 0 0-24.233-42.7-66.354-42.039 0 0-12.312-0.661-28.693 7.57l-6.626 3.124c-4.821 2.277-6.721 3.408-6.721 3.408s-6.816 4.083-13.337 3.882c0-0.001-8.524 0.671-17.618-9.081zm-24.12 0.765s-11.285 31.124 13.42 45.037c4.6 2.993 11.944 5.767 20.237 5.979 0 0 33.765-16.09 70.513-20.342 0 0-4.25-9.064-20.868-9.064 0 0-10.152-0.598-28.565 4.496 0 0-4.988 1.264-10.84 3.266-8.364 2.049-22.315 4.11-31.32-1.578-0.001-0.001-12.262-6.081-12.577-27.794zm-31.729 52.385s3.058 16.616 22.137 16.616c0 0 13.35 0.318 32.18-11.172 0 0-6.5-2.528-9.8-4.672 0 0-6.922-5.236-14.264-3.196 0 0-1.266 0.244-7.976 3.092 0 0-4.708 3.056-11.418 3.056-0.001 0.001-6.818-0.105-10.859-3.724z"/>
    <path id="path4998" fill="#fff" d="m112.3 123.08s38.008-40.202 92.885-26.224c0 0 2.713 31.474 36.623 33.388 0 0 11.547 0.695 22.461-6.992l21.32 7.967-22.362-14.086s-7.162 6.988-20.099 6.988c-12.938 0-28.653-13.111-27.263-31.718 0 0-23.509-11.786-49.731-17.907l7.859 12.416s-50.945-3.234-92.711 29.176c0 0-39.852-8.834-44.651-16.517 0 0 82.042-66.688 187.05-39.638 0 0 1.228-1.801-1.824-4.315 0 0-3.94-2.952-9.789-4.706 0 0 25.687-1.372 39.089 18.108l29.526 12.414-3.101 2.185s45.14 28.066 48.16 31.991l6.297 2.632s-4.478 13.113 4.708 20.187l-3.408 9.023s-15.095-16.262-30.154-16.909c0 0-11.131-0.262-11.131 8.667 0 0-1.332 9.538 20.837 12.296l-4.578 4.225-16.909-1.074s0.39-13.761-29.116-24.504c0 0-24.218 14.404-47.16-3.365 0 0-41.807 10.044-45.581 48.53 0 0-4.595-14.544-14.817-26.953 0 0 5.505-19.627 35.266-29.488 0 0-26.718-1.37-45.492 19.993 0.001-0.002-12.444-10.134-32.206-15.79z"/>
   </g>
   <path id="path5000" fill="#13264b" d="m248.89 77.564s20.83 3.105 56.64 32.352l-33.851-18.49s-2.189 1.12-3.562 2.338c0.001 0.001-7.655-8.848-19.227-16.2z"/>
   <path id="path5002" fill="#de6226" d="m265.87 83.762s-1.742 1.44-1.038 3.954c0 0 0.853 2.37 3.539 2.424 0 0 3.036 0.041 3.568-3.275l-1.438-0.774-3.742 2.799 1.052-4.183-1.941-0.945z"/>
   <path id="path5004" fill="#13264b" d="m326.03 119.15s-2.873 1.067-2.873 3.643c0 0-0.693 2.681 5.083 8.455 0 0-8.583-6.277-10.19-10.057 0 0-1.48-2.772 2.7-2.772-0.001 0 2.54 0 5.28 0.731z"/>
   <path id="path5006" fill="#13264b" d="m228.52 61.896s5.293 0.077 5.905-1.219c0 0 1.295-1.35-5.828-4.681 0 0 10.987 2.244 15.973 11.118 0 0-7.121-3.257-16.05-5.218z"/>
  </g>
 </g>
</svg>
