<?xml version="1.0" encoding="UTF-8" standalone="no"?>
<!-- Created with Inkscape (http://www.inkscape.org/) -->
<svg id="svg3837" xmlns:rdf="http://www.w3.org/1999/02/22-rdf-syntax-ns#" xmlns="http://www.w3.org/2000/svg" height="256" width="256" version="1.1" xmlns:cc="http://creativecommons.org/ns#" xmlns:xlink="http://www.w3.org/1999/xlink" xmlns:dc="http://purl.org/dc/elements/1.1/">
 <defs id="defs3839">
  <linearGradient id="linearGradient4389" y2="924.36" gradientUnits="userSpaceOnUse" x2="255.5" gradientTransform="matrix(1.0039 0 0 1.0039 795.86 -1056)" y1="924.36" x1=".49805">
   <stop id="stop4393" offset="0"/>
   <stop id="stop4395" stop-color="#969696" offset="1"/>
  </linearGradient>
  <radialGradient id="radialGradient4421" gradientUnits="userSpaceOnUse" cy="208.25" cx="139" gradientTransform="matrix(1 0 0 .31871 0 141.88)" r="85.5">
   <stop id="stop4417" stop-opacity=".65179" offset="0"/>
   <stop id="stop4419" stop-opacity="0" offset="1"/>
  </radialGradient>
  <filter id="filter4515" height="1.5122" width="1.1632" y="-.25611" x="-.081624">
   <feGaussianBlur id="feGaussianBlur4517" stdDeviation="5.8157318"/>
  </filter>
 </defs>
 <metadata id="metadata3842">
  <rdf:RDF>
   <cc:Work rdf:about="">
    <dc:format>image/svg+xml</dc:format>
    <dc:type rdf:resource="http://purl.org/dc/dcmitype/StillImage"/>
    <dc:title/>
   </cc:Work>
  </rdf:RDF>
 </metadata>
 <g id="layer1" transform="translate(0 -796.36)">
  <rect id="rect3845" transform="rotate(90)" height="256" width="256" y="-256" x="796.36" fill="url(#linearGradient4389)"/>
  <path id="path4413" d="m224.5 208.25c0 15.05-38.28 27.25-85.5 27.25s-85.5-12.2-85.5-27.25 38.28-27.25 85.5-27.25 85.5 12.2 85.5 27.25z" transform="matrix(1.1228 0 0 1 -28.07 806.86)" filter="url(#filter4515)" fill="url(#radialGradient4421)"/>
  <g id="g3610" transform="matrix(-.37814 0 0 .37814 240 839.21)">
   <g id="#ffffffff" fill="#fff" transform="matrix(-1 0 0 1 601.71 -11.417)">
    <path id="path5" d="m188.77 21.65c17-4.52 34.66-6.21 52.2-6.66 36.8-0.46 73.88 7.51 106.64 24.44 31.31 15.87 58.36 39.79 78.52 68.47 3.9 5.94 8.07 11.74 11.01 18.24-2.52-2.84-4.75-6.35-8.58-7.52-3.89-1.46-7.98-0.17-11.75 0.99l-0.17-0.27c-19.4-31.8-47.66-58.06-80.7-75.23-44.83-23.5-97.44-29.99-147.17-22.46z"/>
    <path id="path7" d="m391.58 137.49c-1.15-3.25-0.45-6.72 1.11-9.7 0.12 2.94-0.1 5.95 0.83 8.79 3.05 9.75 7.08 19.16 10.48 28.79-0.58 0.07-1.74 0.21-2.31 0.28-3.33-9.4-6.89-18.72-10.11-28.16z"/>
    <path id="path9" d="m395.5 132.01c-1.31-4.87 4.74-4.23 7.81-4.09-1.52 3.8-1.92 8.02-0.77 11.98 2.33 8.18 5.21 16.2 8.45 24.07-1.42 0.26-2.84 0.53-4.25 0.8-3.44-11.02-8.7-21.48-11.24-32.76z"/>
    <path id="path11" d="m437.7 129.21c1.71 0.1 3.43 0.22 5.15 0.32 3.86 10.16 7.27 20.5 10.57 30.85-3.18 0.19-3.64-3.03-4.67-5.24-3.57-8.69-7.49-17.23-11.05-25.93z"/>
    <path id="path13" d="m444.99 185.98c4.47-0.9 7.99-4.29 9.63-8.47 1.47 0.15 2.95 0.28 4.43 0.42 1.94 8.65 2.5 18.63-2.79 26.26-2.88 4.33-7.83 6.44-12.58 8.01 1.56-1.26 3.23-2.42 4.5-4-1.14-2.79-4.42-3.35-7.05-3.78-10.64-1.57-21.45-0.94-32.14-0.33-6.06 0.3-12.16 1.19-18.21 0.25 6.11-1.37 13.12-1.97 17.51-7.02 3.81-4.09 3.45-10.04 2.93-15.19 1.81-0.36 3.61-0.73 5.42-1.13 1.54 2.76 3.65 5.83 7.2 5.83 7.03 0.2 14.23 0.71 21.15-0.85z"/>
    <path id="path15" d="m406.21 183.37c0.55-0.27 1.64-0.8 2.18-1.07 0.41 3.75 0.85 7.78-0.9 11.27-1.23 2.65-3.72 4.46-6.34 5.58-7.65 3.12-16.02 4.25-24.24 3.47 8.03-2.19 17.16-1.38 24.21-6.45 4.12-2.89 4.85-8.16 5.09-12.8z"/>
    <path id="path17" d="m329.93 224.95c5.63-4.84 11.48-9.65 18.4-12.52-3.56 2.8-7.4 5.21-10.82 8.18-3.45 2.71-6.3 6.09-9.75 8.79-0.25-1.88 0.79-3.36 2.17-4.45z"/>
    <path id="path19" d="m411.33 229.39c2.35-3.5 6.07-5.85 10.17-6.77-8.69 7.69-11.7 19.51-13.41 30.54-1.45 9.66-1.35 19.52 0.32 29.16-5.38-7.26-5.67-16.75-5.34-25.41 0.67-9.59 2.72-19.49 8.26-27.52z"/>
    <path id="path21" d="m309.17 298.88c-3.37-17.85-3.23-37.1 5.01-53.67 0.71 1.56 1.42 3.12 2.12 4.68-6.21 17.2-5.17 35.96-1.67 53.62-1.84-1.52-3.67-3.06-5.46-4.63z"/>
    <path id="path23" d="m364.07 282.14c8.08-7.02 20.88-8.02 29.76-1.93 6.47 4.12 10.12 11.24 12.7 18.22 2.03 5.21 3.62 10.58 5.06 15.98-14.11 1.39-28.26 2.24-42.43 2.64-3.53-8.11-7.54-16.02-10.91-24.19 0.1-4.21 2.79-7.98 5.82-10.72z"/>
    <path id="path25" d="m316.18 325.26c1.36 0.63 2.75 1.29 4.13 1.93 2.73 11.05 6.25 21.98 7.64 33.31-3.22-11.97-7.83-23.5-11.77-35.24z"/>
    <path id="path27" d="m377.53 335.59c12.5-0.68 24.98-1.86 37.43-3.1 1.5 13.65 1.14 27.66-2.73 40.91-5.94 0.58-11.88 1.12-17.84 1.47-5.41-13.19-11.07-26.26-16.86-39.28z"/>
    <path id="path29" d="m356.39 337.12c5.81 12.82 11.73 25.58 17.58 38.38-14.08-1.98-28.02-4.76-42.06-6.98 11.3-7.5 19.29-19.04 24.48-31.4z"/>
    <path id="path31" d="m48.66 379.26c6.37 10.51 12.44 21.26 19.79 31.14 2.68 3.05 2.58 7.8 5.99 10.29 3.67 3.09 8.73 2.59 13.19 2.51-4.05 6.75-14.84 6.46-19 0.02-1.76-2.34-1.38-5.39-1.25-8.11-3.04-4.19-5.57-8.73-8.67-12.88 1.24 4.97 4.26 9.2 6.07 13.94 0.14 3.16-0.12 6.59 1.73 9.37 5.18 8.57 21.04 7.62 23.28-2.91 0.66-0.15 2-0.45 2.67-0.6-1.05 3.13-2.07 6.59-4.86 8.64-2.19 1.78-5.3 2.71-6.53 5.45-0.85 2.88 3.1 2.89 4.99 2.87 15.75-1.34 31.12-6.38 44.99-13.87-4.64-2.66-9.76-4.56-15.1-5.16-5.64-0.73-11.28 0.32-16.91 0.68 9.16-2.89 19.19-3.94 28.49-1.09 3.85 1.08 7.35 3.04 11.03 4.53-1.16 1.35-2.26 2.84-3.87 3.7-15.54 8.69-32.99 13.96-50.74 15.4-6.96 0.39-14.42-1.74-19.18-7.05-3.54-3.88-4.78-9.48-3.37-14.52-4.63-10.5-9.55-20.98-12.16-32.21-0.8-3.32-0.87-6.76-0.58-10.14z"/>
    <path id="path33" d="m253.42 385.34c2.45-6.24 11.71-7.83 16.27-3.03 3.56 3.36 3.69 9.31 1 13.19-0.89 0.13-1.78 0.25-2.67 0.36-0.17 4.27-5.25 6.91-8.98 5.14-4.45-1.71-5.37-8.5-1.56-11.36 1.8-1.6 4.28-1.51 6.52-1.19 0.56-0.5 1.13-1.01 1.7-1.51-3.13-0.71-6.26-0.24-9.31 0.55 2.1-5.58 10.49-4.48 12.54 0.64-1.15 0.49-2.27 0.99-3.4 1.51 1.62 0.96 2.29 2.71 2.83 4.42 0.54 0.8 1.13 1.07 1.75 0.82 0.73-2.99 0.87-6.35-0.95-8.98-2.83-4.67-10.35-4.64-13.52-0.36-2.09 2.49-1.76 5.93-2.36 8.94-0.72-2.99-1.27-6.26 0.14-9.14m2.49 10.01c0.69-0.03 2.05-0.1 2.73-0.14 2.02 2.21 5.05 1.76 7.26 0.09l-0.51 1.19c0.52-0.15 1.54-0.44 2.05-0.59-0.61-2.82-1.87-6.36-5.31-6.44-3.57-0.55-5.72 2.82-6.22 5.89m0.64 2.11c1.64 1.11 3.21 2.99 5.43 2.57 1.66-0.09 2.98-1.28 4.45-1.93-0.39-0.47-0.78-0.94-1.17-1.39-1.52 3.43-7.37 2.46-7.43-1.43-0.43 0.72-0.86 1.45-1.28 2.18z"/>
    <path id="path35" d="m331.82 387.25c17.1 2.83 34.13 6.26 51.43 7.62 2.07 3.64 3.44 7.65 5.46 11.33-18.64 12.14-41.92 13.6-63.48 11.58 4.53-9.52 6.41-20.04 6.59-30.53z"/>
    <path id="path37" d="m152.27 401.92c1.41-2.76 3.25-6.13 6.81-6.16 6.48 0.27 11.91 6.95 11.09 13.33-0.26 2.61-2.34 4.4-3.96 6.26 1.04-2.62 2.84-5.25 2.21-8.2-0.78-5.13-6.06-9.66-11.34-8.51-1.84 0.7-3.25 2.13-4.81 3.28z"/>
    <path id="path39" d="m158.86 399.91c3.9 0.29 7.74 3.68 7.3 7.83-2.35-2.09-4.56-4.34-7.18-6.1-0.03-0.43-0.09-1.3-0.12-1.73z"/>
    <path id="path41" d="m153.03 403.98c6.01-3.49 13.91 4.74 10.41 10.66-1.73 2.37-5.08 1.47-7.5 1.29 1.93-1.33 4.47-0.63 6.45-1.79 1.77-4.58-2.3-10.38-7.23-9.83-2.6 0.34-3.26 3.47-2.56 5.59 0.94 1.99 2.56 3.51 3.83 5.29-4.29-1.13-7.23-8.02-3.4-11.21z"/>
    <path id="path43" d="m161.73 413.37c-4.22 1.54-9.71-3.15-6.77-7.34 1.26 3.27 3.91 5.5 6.77 7.34z"/>
   </g>
   <g id="#000000ff" transform="matrix(-1 0 0 1 601.71 -11.417)">
    <path id="path46" d="m103.61 54.52c59.26-40.6 136.68-53.73 205.87-34.2 35.18 9.87 67.86 28.62 93.83 54.36 15.43 15.18 28.47 32.71 39.07 51.57 7.62-1.41 14.33-5.7 21.6-8.26 8.41 15.27 16.8 30.55 25.19 45.83 3.07 5.51 4.57 13.18 0.09 18.37-4.79 6.51-13.96 7.22-21.17 5.05-1.26 0.58-2.52 1.16-3.76 1.76-0.03 5.83-0.87 12.02-4.58 16.75-3.7 5.34-9.75 8.48-16.01 9.75 10.88 25.72 21.53 51.54 32.34 77.3 23.88 3.72 48.12 1.39 72.02-0.9 6.73-0.53 14.06-2.58 20.38 0.82 4.69 2.54 6.31 7.99 8.21 12.6 13.02 36.3 22.15 74.17 25 112.69 0.19 5.96-0.86 12.31-4.45 17.22-2.98 3.69-7.43 5.86-11.86 7.29-10.28 3.36-20.89 5.56-31.36 8.19-3.94 2.06-8.38 4.16-12.82 2.18-19.52 5.51-39.96 8.1-60.24 6.65-18.89-1.32-37.85-5.76-54.46-15.08-13.71-7.6-25.49-18.62-33.98-31.79-11.73 7.58-25.56 11.36-39.39 12.46-10.46 1.13-21.09 1.6-31.49-0.23-10.16 15.55-26.49 26.24-44.06 31.6-24.17 7.4-50.27 6.51-74.63 0.49-22.3-5.59-43.52-15.81-61.31-30.45-5.18 3.15-9.63 7.41-15.4 9.59-12.07 5.57-25.2 8.34-38.31 10.14-7.49 0.81-15.64 0.16-21.95-4.36-6.33-4.22-9.72-12.28-8.09-19.76-4.73-10.38-9.41-20.89-12.14-32.01-1.15-4.66-0.82-9.5 0.04-14.17-18-34.59-30.06-72.37-34.67-111.12-4.43-37.52-0.78-76.31 13.09-111.61 15.5-40.05 43.98-74.62 79.4-98.72m85.16-32.87c-2.55 0.5-5.09 1.06-7.63 1.57l0.05 1.3c-6.97 1.03-13.89 2.56-20.45 5.19-38.5 13.93-73.69 37.69-99.69 69.45-23.22 28.05-38.61 62.39-44.5 98.29-7.07 42.65-1.6 86.8 12.39 127.51 9.51 29.45 23.41 57.48 41.36 82.71 3.17 3.64 3.39 9.87 8.5 11.6 5.87 2.24 12.16 0.03 17.88-1.63 10.09-3.19 21.13-4.84 31.44-1.71 9.54 2.65 17.49 8.78 25.24 14.67 21.12 14.71 46.23 23.22 71.7 26.14 21.5 2.32 44.04 0.43 63.74-9.02 15.66-7.45 28.81-20.64 34.98-36.97 2.95-7.7 3.69-16.02 3.8-24.2-2.57-0.46-5.15-0.9-7.71-1.33-1.25 18.13-11.67 34.8-26.34 45.21-18.25 13.22-41.43 17.67-63.59 17.06-25.43-0.21-49.77-9.6-71.9-21.49-12.45-7.76-25.44-14.78-39.32-19.66 15.57 3.1 29.23 11.65 43.15 18.85 24.51 11.89 51.65 19.77 79.11 18.12 19.76-1.39 39.67-8.33 54.42-21.88 10.59-9.57 17.4-23 19.17-37.14-32.49-5.44-64.96-10.95-97.42-16.5-3.66-0.92-7.14 1.74-10.79 0.74-3.82-0.85-7.54-3.58-8.51-7.52-0.84-3.63 1.84-6.63 3.64-9.46 5.38-7.68 10.44-15.59 15.77-23.3 2.37-3.19 0.78-7.66 3.11-10.88 4.63-6.53 8.73-13.41 12.66-20.38 1.38-2.89 4.46-4.11 7.31-5.04 4.5-6.79 8.61-13.81 12.99-20.68 2.06-2.89 1.6-6.68 3.15-9.78 1.8-2.85 5.19-4.24 6.87-7.19 6.32-10.29 12.76-20.5 19.26-30.68 5.61-8.8 12.06-17.24 20.24-23.81 6.77-4.73 13.54-9.62 21.28-12.66 23.7-9.78 48.84-15.41 73.84-20.71-3.08-8.69-5.99-17.45-9.22-26.09-1.38-3.97-2.41-8.78 0.03-12.56 1.74-2.79 5.27-3.11 8.22-3.55l-0.07-0.1c3.4 0.38 6.99 1.14 10.3-0.1 3.27-1.27 6.3-3.09 9.41-4.7l0.17 0.27c3.77-1.16 7.86-2.45 11.75-0.99 3.83 1.17 6.06 4.68 8.58 7.52-2.94-6.5-7.11-12.3-11.01-18.24-20.16-28.68-47.21-52.6-78.52-68.47-32.76-16.93-69.84-24.9-106.64-24.44-17.54 0.45-35.2 2.14-52.2 6.66m231.39 101.58c-1.8 2.78-0.54 6.2 0.59 8.98 2.97 7.04 5.8 14.13 8.84 21.13 2.74 6.56 5.97 12.96 7.6 19.92 4.84-0.02 9.68 0.01 14.53-0.04-2.52-11.65-8.2-22.24-12.68-33.2-2.78-5.75-4.41-12.41-9.25-16.88-2.49-2.51-7.35-2.84-9.63 0.09m33.12 3.37c5.27 11.63 10.27 23.39 15.67 34.98 3.49 0.46 7.09 0.76 10.38 2.14 5.71 2.63 6.1 12.1 0.4 14.96-4.94 2.53-10.28-0.83-15.45-0.48 2.68 3.22 6.33 5.92 10.64 6.24 4.8 0.65 10.5-1.21 12.59-5.9 2.1-4.62 0.38-9.84-1.96-14.01-7.81-13.93-15.23-28.07-23.07-41.98-3.07 1.35-6.14 2.68-9.2 4.05m-42.32 0.76c-0.65 3.71-0.65 7.56 0.55 11.17 2.45 7.93 5.33 15.72 8.35 23.45 2.54 0.09 5.29 0.12 7.43 1.71 3.65 2.43 5.99 7.94 3.2 11.82-2.58 3.78-7.44 4.33-11.52 5.34 1.34 1.35 2.45 3.27 4.46 3.68 4.25 1.12 9.01-1.74 10.1-5.99 1.54-5.26-0.61-10.59-2.68-15.37-4.2-9.8-8.42-19.6-12.67-29.37-1.31-2.87-1.91-5.97-2.19-9.09-1.68 0.88-3.36 1.77-5.03 2.65m-19.38 10.13c3.22 9.44 6.78 18.76 10.11 28.16 0.57-0.07 1.73-0.21 2.31-0.28-3.4-9.63-7.43-19.04-10.48-28.79-0.93-2.84-0.71-5.85-0.83-8.79-1.56 2.98-2.26 6.45-1.11 9.7m3.92-5.48c2.54 11.28 7.8 21.74 11.24 32.76 1.41-0.27 2.83-0.54 4.25-0.8-3.24-7.87-6.12-15.89-8.45-24.07-1.15-3.96-0.75-8.18 0.77-11.98-3.07-0.14-9.12-0.78-7.81 4.09m50.94-2.72c3.73 10.26 7.01 20.73 11.17 30.82 2.57 0.68 5.23 0.88 7.87 1.25-4.76-11.33-9.84-22.53-14.66-33.83-1.46 0.58-2.93 1.17-4.38 1.76m-41.6 0.91c-0.68 3.49-0.82 7.12 0.36 10.52 2.48 7.71 5.28 15.31 8.02 22.92 1.38-0.3 2.77-0.6 4.17-0.9-2.73-7.38-5.38-14.79-8.01-22.21-1.42-3.92-1.5-8.16-0.86-12.25-1.23 0.65-2.45 1.29-3.68 1.92m32.86-0.99c3.56 8.7 7.48 17.24 11.05 25.93 1.03 2.21 1.49 5.43 4.67 5.24-3.3-10.35-6.71-20.69-10.57-30.85-1.72-0.1-3.44-0.22-5.15-0.32m14.3 33.71c1.34 3.65 2.39 7.4 3.01 11.25 5.69 0.19 11.39 0.68 16.99 1.81 2.13 0.31 4.61 1.09 6.51-0.38 2.24-1.56 2.2-4.93 1.08-7.14-0.93-2-3.33-2.2-5.2-2.66-7.42-1.31-14.91-2.05-22.39-2.88m-99.9 18.16c-13.71 4.02-27.39 8.64-39.8 15.83 3.1 3.05 4.51 7.25 6.26 11.13 5.12-3.74 10.78-6.67 16.74-8.82 27.97-11.2 57.67-17.01 87.11-22.91 2.13-0.44 4.67-1.25 5.35-3.6 1.05-2.8-1.06-5.89-3.73-6.77-1.95-0.66-4.01-0.19-5.97 0.09-22.23 3.88-44.3 8.71-65.96 15.05m92.89 4.9c-6.92 1.56-14.12 1.05-21.15 0.85-3.55 0-5.66-3.07-7.2-5.83-1.81 0.4-3.61 0.77-5.42 1.13 0.52 5.15 0.88 11.1-2.93 15.19-4.39 5.05-11.4 5.65-17.51 7.02 6.05 0.94 12.15 0.05 18.21-0.25 10.69-0.61 21.5-1.24 32.14 0.33 2.63 0.43 5.91 0.99 7.05 3.78-1.27 1.58-2.94 2.74-4.5 4 4.75-1.57 9.7-3.68 12.58-8.01 5.29-7.63 4.73-17.61 2.79-26.26-1.48-0.14-2.96-0.27-4.43-0.42-1.64 4.18-5.16 7.57-9.63 8.47m-11.9-1.62c6.18 0.09 13.29-0.21 17.46-5.5-4.5-0.18-9-0.13-13.5-0.09-1.24 1.92-2.57 3.78-3.96 5.59m-26.88-0.99c-0.24 4.64-0.97 9.91-5.09 12.8-7.05 5.07-16.18 4.26-24.21 6.45 8.22 0.78 16.59-0.35 24.24-3.47 2.62-1.12 5.11-2.93 6.34-5.58 1.75-3.49 1.31-7.52 0.9-11.27-0.54 0.27-1.63 0.8-2.18 1.07m-71.07 19.72c-5.3 2.15-10.15 5.21-14.96 8.26 1.82 3.92 3.65 7.83 5.48 11.74 15.65-14.49 36.28-22.55 57.23-25.33 5.54-0.94 11.61-1.08 16.35-4.46 2.94-2.14 2.8-6.12 3.22-9.35-22.84 4.78-45.7 10.2-67.32 19.14m-33.27 5.84c0.8 3.52 2.75 6.63 4.22 9.89 15.3 32.3 30.58 64.61 45.38 97.14 4.6 0.77 9.27 0.92 13.93 0.75-17.71-38-35.39-76.02-53.08-114.02-0.54-1.03-1.1-2.31-2.42-2.45-4.43 0.08-8.21 4.32-8.03 8.69m-35.73 47.18c4.49 1.27 7.34 5.05 10.37 8.29 9.11-14.26 17.1-29.29 27.39-42.76-2.04-4.69-5.41-9.09-5.21-14.44-12.53 15.11-21.87 32.51-32.55 48.91m63.79-31.16c-1.38 1.09-2.42 2.57-2.17 4.45 3.45-2.7 6.3-6.08 9.75-8.79 3.42-2.97 7.26-5.38 10.82-8.18-6.92 2.87-12.77 7.68-18.4 12.52m99.07-4.92c12.52 29.21 24.89 58.49 37.48 87.67 3.95-0.51 7.9-1.04 11.84-1.69-12.73-30.21-25.38-60.45-38.49-90.49-3.92 0.64-7.67 2.06-10.83 4.51m-17.67 9.36c-5.54 8.03-7.59 17.93-8.26 27.52-0.33 8.66-0.04 18.15 5.34 25.41-1.67-9.64-1.77-19.5-0.32-29.16 1.71-11.03 4.72-22.85 13.41-30.54-4.1 0.92-7.82 3.27-10.17 6.77m4.34 20.45c9.69 14.33 22.59 26.48 37.22 35.67-8.63-20.58-17.37-41.11-26.06-61.67-5.83 7.49-9.97 16.66-11.16 26m-136.96 17.19c8.55 9.35 17.22 18.57 26.03 27.67-2.41-15.4-2.33-31.69 3.67-46.3 1.02-2.75 2.75-5.24 3.37-8.12-1.92-5.16-4.6-10-6.79-15.05-9.02 13.76-17.56 27.84-26.28 41.8m30.46 31.85c1.79 1.57 3.62 3.11 5.46 4.63-3.5-17.66-4.54-36.42 1.67-53.62-0.7-1.56-1.41-3.12-2.12-4.68-8.24 16.57-8.38 35.82-5.01 53.67m103.67-31.9c-0.31 1.96 1.37 3.31 2.41 4.72 12.55 14.29 27.9 26.79 46.12 32.94-1.9-4.8-3.93-9.55-5.77-14.37-16.53-8.55-30.42-21.55-41.37-36.49-0.71 4.37-1.31 8.77-1.39 13.2m-153.82-2.95c-1.31 2.74 0.01 5.8 2.04 7.77 11.08 11.6 22.81 22.57 34.21 33.86 11.41 11.88 26.35 20.46 42.59 23.54 13.56 2.55 27.44 2.6 41.19 2.81 15.44-0.55 30.82-2.31 46.18-3.91 27.08-3.09 54.14-6.64 80.91-11.83 2.69-0.19 4.37-2.37 5.96-4.27-0.07 0.76-0.22 2.27-0.29 3.02 5.76 3.02 6.56 9.94 8.76 15.4 3.3 10.28 7.55 20.41 8.48 31.28-2.07-1.09-4.33-2.19-6.72-1.45-45.44 8.4-91.15 16.15-137.35 18.75-8.59-0.06-17.16-0.86-25.62-2.31-45.65-7.81-91.28-15.71-136.93-23.45-0.91 3.39-2.09 7.25-0.43 10.6 0.62 1.65 2.45 2.01 3.98 2.3 47.4 7.77 94.82 15.49 142.2 23.34 21.59 3.14 43.26-0.42 64.73-2.78 30.82-3.72 61.67-7.87 91.95-14.83 2.3-0.35 3.92-2.05 5.22-3.84 0.82 3.77 3.99 6.43 4.75 10.22 2.65 10.74 4 21.74 4.91 32.75 0.67 9.83 1.67 19.77-0.14 29.54-4.3-2.4-8.96-0.33-13.34 0.54-12.87 2.74-26.06 4.04-39.21 3.66-20.27-0.59-40.88-5.48-57.91-16.82-12.7-8.29-22.75-20.35-29.11-34.08-4.2 0.5-8.16 2.16-11.25 5.08 5.66 12.5 13.83 23.98 24.48 32.72 16.21 13.58 36.97 20.61 57.71 23.39 21.36 2.69 43.22 1.26 64.11-3.9 2.23-0.39 4.09-1.69 5.54-3.39 2.03 1.51 4.52 3.38 7.18 2.18 3.01-0.78 4.8-3.71 4.73-6.73 1.29-24.57-2.16-49.15-7.55-73.07-5.09-21.76-11.83-43.25-21.58-63.4-0.89-1.77-1.7-3.6-2.91-5.18-3.59-3.66-13.36-1.1-10.4 5.09-2.15-0.99-4.44-2.04-6.86-1.45-32.73 5.53-65.64 10.13-98.72 13.03-20.97 1.71-42.25 3.16-63.11-0.48-15.53-2.71-30.36-10.49-40.77-22.42-10.5-11.15-21.22-22.11-31.16-33.76-2.72-3.79-9-1.37-10.45 2.48m-2.41 7.9c-4.49 7.44-9.08 14.82-13.63 22.22-0.66 1.26-1.6 2.49-1.56 3.98 1.24 3.6 4.92 6.07 8.64 6.37 1.53 0.17 2.25-1.42 3.04-2.4 4.28-6.76 8.5-13.55 12.81-20.28-3.21-3.2-6.37-6.44-9.3-9.89m162.98 41.66c14.11-1.42 28.19-3.18 42.24-5.12-18.89-6.66-35.8-18.57-48.6-33.95-0.18 13.29 2.3 26.45 6.36 39.07m-55.52-31.45c-3.03 2.74-5.72 6.51-5.82 10.72 3.37 8.17 7.38 16.08 10.91 24.19 14.17-0.4 28.32-1.25 42.43-2.64-1.44-5.4-3.03-10.77-5.06-15.98-2.58-6.98-6.23-14.1-12.7-18.22-8.88-6.09-21.68-5.09-29.76 1.93m-106.21 18.76c7.88 5.19 15.8 10.32 23.67 15.53 4.17 2.77 8.5 6.41 9.29 11.66 0.89 6.24-2.34 12.1-5.61 17.15-3.78 5.78-8.92 11.89-16.36 12.32 15.07 2.79 30.2 5.23 45.3 7.86-1.69-12.99-6.42-25.28-9.19-38.01 6.06 12.22 10.24 25.34 13.07 38.67 2.3 0.4 4.59 0.8 6.89 1.21-2.53-15.44-9.35-29.66-13.63-44.62-5.87-3.6-11.43-7.71-16.4-12.48-8.76-8.81-17.76-17.37-26.66-26.04-3.44 5.59-6.86 11.2-10.37 16.75m302.18-7.94c2 2.06 4.63 4.01 4.88 7.12 0.59 3.66-2.17 6.52-4.4 9.02 3.82 10.37 7.08 20.95 9.53 31.73 4.07 0.54 8.6 1.42 11.23 4.92 4.74 5.54 3.39 15.16-3.41 18.41 3.27 18.17 7.3 36.33 8.21 54.81 4.77 1.32 9.04 4.23 11.26 8.76 1.14-16.54-1.59-33.02-4.58-49.24-4.54-23.35-10.62-46.42-18.37-68.91-1.56-4.68-2.85-9.81-6.63-13.25-2.06-2.08-5.04-2.57-7.72-3.37m-41.17 4.24c1.49 0.58 3 1.18 4.48 1.8 6.37-0.9 12.8-1.69 18.97-3.59-7.79 0.93-15.62 1.33-23.45 1.79m6.75 4.84c1.68 3.55 3.25 7.16 4.7 10.82 8.68-1.59 17.38-3.2 25.87-5.65 1.94-0.75 4.52-1.36 5.22-3.6 0.71-2.66-0.05-6.11-2.67-7.46-2.34-1.24-5.01-0.14-7.43 0.25-8.5 2.16-17.08 4-25.69 5.64m-289.65 0.84c0.91 2.35 3.28 3.59 5.27 4.9 10.64 6.37 21.27 12.77 31.98 19.02 4.58 2.48 8.1 6.57 9.85 11.48 1.25-5.05-0.67-10.51-5.03-13.42-7.47-5.22-15.19-10.08-22.69-15.25-3.21-2.64-7.72-1.68-11.18-3.77-3.71-1.7-5.82-5.32-7.1-9.02-0.64 1.94-1.9 3.97-1.1 6.06m241.45-6.2c1.23 2.89 2.49 5.77 3.75 8.66 8.29-1.07 16.62-1.97 24.78-3.82 1.15-1.51 2.44-2.9 3.85-4.16-10.71 1.85-21.66 0.37-32.38-0.68m-244.12 7.65c-2.85 5.33-6.76 9.99-9.79 15.19-2.12 3.49-1.32 8.47 2.3 10.63 10.88 6.87 21.96 13.42 32.86 20.26 2.38 1.43 4.73 3.15 7.56 3.52 8.11 0.78 16.18-7.75 13.77-15.83-1.63-4.94-6.08-8.22-10.46-10.62-10.17-5.75-20.06-11.96-30.05-18.01-2.33-1.37-4.36-3.17-6.19-5.14m20.74 1.49c6.71 4.72 13.62 9.16 20.44 13.72 3.73 2.5 7.87 4.89 10.1 8.95 1.43 2.44 1.26 5.36 1.44 8.08 0.75-2.76 1.76-5.64 0.98-8.51-0.85-3.95-4.15-6.62-7.29-8.82-7.1-4.95-14.3-9.76-21.62-14.36-1.38-1.4-2.77 0.37-4.05 0.94m277.4 10.25c4.09 9.78 7.56 19.81 10.62 29.95 8.31-0.85 16.59-2.04 24.76-3.86-2.34-10.87-5.59-21.52-9.59-31.89-8.47 2.46-17.12 4.19-25.79 5.8m-22.26 3.13c-6.82 1.34-13.64 2.68-20.5 3.77 3.39 8.16 6.79 16.32 10.19 24.47 7.94 0.57 15.89 0 23.84-0.15-2.96-8.63-5.72-17.34-9.05-25.84-0.51-1.97-2.63-2.87-4.48-2.25m-36 5.32c5.36 12.75 10.42 25.63 16.31 38.14 3.97-0.65 7.95-1.29 11.89-2.13-5.46-12.51-10.81-25.06-15.8-37.76-4.14 0.57-8.27 1.17-12.4 1.75m-157 0.74c3.94 11.74 8.55 23.27 11.77 35.24-1.39-11.33-4.91-22.26-7.64-33.31-1.38-0.64-2.77-1.3-4.13-1.93m106.57 6.41c0.16 1.54 0.33 3.1 0.51 4.65 18.43 3.21 36.86 6.47 55.29 9.68-2.91-6.7-5.68-13.45-8.58-20.14-15.71 2.18-31.45 4.16-47.22 5.81m-219.52 23.61c-1.01 1.69-2.49 3.72-1.48 5.76 1.72 3.13 5.67 4.62 9.09 3.91 1.65-0.63 2.59-2.25 3.61-3.59 5.44-8.11 10.89-16.22 16.37-24.31-3.73-2.31-7.37-4.76-10.58-7.76-5.61 8.7-11.29 17.36-17.01 25.99m174.3-19.69c5.79 13.02 11.45 26.09 16.86 39.28 5.96-0.35 11.9-0.89 17.84-1.47 3.87-13.25 4.23-27.26 2.73-40.91-12.45 1.24-24.93 2.42-37.43 3.1m-15.95 4.27c5.47 11.89 10.82 23.82 16.15 35.76 4.41 0.25 8.84 0.18 13.24-0.37-5.85-13.37-11.81-26.7-17.7-40.06-4.42-0.21-8.78 1.22-11.69 4.67m-5.19-2.74c-5.19 12.36-13.18 23.9-24.48 31.4 14.04 2.22 27.98 5 42.06 6.98-5.85-12.8-11.77-25.56-17.58-38.38m-130.39 13.17c12.35 2.15 24.72 4.2 37.07 6.4-9.82-5.88-19.49-12.01-29.35-17.83-2.61 3.79-5.13 7.63-7.72 11.43m197.5-10.99c0.04 3.83-0.09 7.66-0.28 11.48 20.65 3.38 41.28 6.87 61.92 10.27-1.58-3.78-3.14-7.58-4.69-11.37-18.99-3.43-37.96-6.95-56.95-10.38m143.19 5.57c-7.72 1.83-15.54 3.2-23.32 4.78 0.25 0.83 0.75 2.5 1 3.33 7.95-1.2 15.68-3.46 23.52-5.21 1.91-0.76 3.48 0.7 4.9 1.74-8.85 3.21-18.15 4.94-27.3 7.04 0.94 3.65 1.91 7.3 2.8 10.97 9.34-1.7 18.78-3.32 27.75-6.48 5.95-1.95 6.08-10.38 2.41-14.48-3.1-3.04-7.87-2.56-11.76-1.69m-67.03 5.5c1.24 3.39 2.53 6.82 4.49 9.87 6.77-1.21 13.6-2.43 20.19-4.43-0.05-1.81-0.08-3.61-0.09-5.4-8.2-0.12-16.4-0.07-24.59-0.04m-79.18 22.23c20.79-2.3 41.55-5.15 62.13-8.89-19.72-3.34-39.45-6.65-59.18-9.97-0.44 6.36-1.43 12.67-2.95 18.86m128.1-1.62c2.87 13.21 5.14 26.55 6.49 40.01 8.94 3.71 18.37 6.37 28.03 7.21-1.52-17.94-5.48-35.59-8.52-53.32-8.65 2.13-17.28 4.32-26 6.1m-35.25 6.68c5.97 8.46 13.41 15.83 21.74 21.96-1.15-8.56-2.37-17.18-5.01-25.44-5.61 1-11.12 2.47-16.73 3.48m-15.07 3c9.87 15.53 22.61 29.86 39.05 38.57-0.22-4.96-0.6-9.92-0.97-14.87-10.01-7.23-19.15-15.77-26.18-25.98-3.98 0.72-7.95 1.48-11.9 2.28m-449.6-1.4c-0.29 3.38-0.22 6.82 0.58 10.14 2.61 11.23 7.53 21.71 12.16 32.21-1.41 5.04-0.17 10.64 3.37 14.52 4.76 5.31 12.22 7.44 19.18 7.05 17.75-1.44 35.2-6.71 50.74-15.4 1.61-0.86 2.71-2.35 3.87-3.7-3.68-1.49-7.18-3.45-11.03-4.53-9.3-2.85-19.33-1.8-28.49 1.09 5.63-0.36 11.27-1.41 16.91-0.68 5.34 0.6 10.46 2.5 15.1 5.16-13.87 7.49-29.24 12.53-44.99 13.87-1.89 0.02-5.84 0.01-4.99-2.87 1.23-2.74 4.34-3.67 6.53-5.45 2.79-2.05 3.81-5.51 4.86-8.64-0.67 0.15-2.01 0.45-2.67 0.6-2.24 10.53-18.1 11.48-23.28 2.91-1.85-2.78-1.59-6.21-1.73-9.37-1.81-4.74-4.83-8.97-6.07-13.94 3.1 4.15 5.63 8.69 8.67 12.88-0.13 2.72-0.51 5.77 1.25 8.11 4.16 6.44 14.95 6.73 19-0.02-4.46 0.08-9.52 0.58-13.19-2.51-3.41-2.49-3.31-7.24-5.99-10.29-7.35-9.88-13.42-20.63-19.79-31.14m363.7 13.3c-2.08 2.1-3.49 4.76-5.33 7.06 6.21 10.25 14.69 19.13 24.77 25.63 15.48 10.11 33.95 14.77 52.26 15.84 17.16 0.84 34.48-1.05 51.02-5.71 4.25-2.55 2.07-8.41 2.12-12.45-17.74-9.67-32.17-24.68-42.73-41.78-27.23 4.76-54.68 8.12-82.11 11.41m-80.54-5.31c-0.18 10.49-2.06 21.01-6.59 30.53 21.56 2.02 44.84 0.56 63.48-11.58-2.02-3.68-3.39-7.69-5.46-11.33-17.3-1.36-34.33-4.79-51.43-7.62m224.15 27.66c0.26 4.14 0.46 8.29 0.61 12.45 3.57 0.9 7.2 1.58 10.9 1.66-1.67-2.03-3.67-3.71-5.74-5.29 4.47 0.7 9.14 1.4 12.84 4.25-5.05 4.28-11.82 5.15-18.01 6.73-0.08 4.2-0.4 8.4-0.93 12.56 9.32-2.59 18.76-4.78 28.01-7.62 4-1.52 8.88-3.41 10.32-7.85 0.82-3.97-2.9-6.46-5.39-8.8-0.89 2.1-1.78 4.4-3.82 5.65-5.22 3.49-11.43 5.17-17.6 6.01 6.16-1.51 13.21-3.18 17.09-8.65 1.46-3.16-2.56-4.75-4.92-5.36-7.79-1.93-16.03-2.16-23.36-5.74m-0.45 15.9c0.8 1.45 1.58 1.46 2.34 0.04-0.78-1.56-1.56-1.57-2.34-0.04z"/>
    <path id="path48" d="m421.99 128.04c-0.07-2.5 2.83-4.67 5.09-3.09 5.02 2.8 6.53 8.97 6.58 14.33 3.28 3.48 6.6 7.88 5.77 12.99-0.33 2.67-3.7 3.53-5.64 1.97-4.5-3.14-5.53-8.96-5.98-14.05-2.91-3.42-6.14-7.38-5.82-12.15m1.26-0.56c0.67 4.3 2.39 8.53 5.84 11.35 0.93-4.64-0.43-10.46-5.84-11.35m6.28 14.41c0.3 4.05 1.95 7.85 4.77 10.79 0.42-2.27 1.23-4.76 0.07-6.94-0.88-2.02-3.11-2.79-4.84-3.85z"/>
    <path id="path50" d="m174.48 305.53c14.31-2.84 28.84 7.71 32.53 21.43 0.74 3.15 1.98 6.92-0.26 9.75-4.45 6.55-8.88 13.12-13.31 19.68-1.78 3.42-6.12 3.16-9.42 3.33-15.83-0.09-29.37-15.04-28.56-30.72-0.15-11.01 8.03-21.6 19.02-23.47z"/>
    <path id="path52" d="m244.14 325.17c3.17-3.19 8.42-3.37 12.41-1.76 3.12 1.25 4.78 4.32 6.31 7.1 4.49 0.24 9.38 1.79 11.68 5.98 2.75 3.93 1.4 9.93-2.97 12.06-6.21 3.72-14.4-0.21-17.1-6.5-3.36-0.14-7.1-0.37-9.58-2.96-3.98-3.44-4.37-10.09-0.75-13.92m1.43 0.43c-0.48 4.42 0.51 9.34 4.96 11.42-0.39-1.89-0.78-3.74-1.24-5.6 0.8-2.61 1.48-5.25 2.24-7.87-2.01 0.6-4 1.3-5.96 2.05m6.86 6.08c1.27 0.71 2.54 1.43 3.81 2.17-0.89 0.02-2.67 0.07-3.56 0.1 0.07 0.89 0.21 2.66 0.28 3.55 3.26-0.1 7.35-0.86 8.3-4.57 0.01-4.25-3.21-7.29-6.69-9.15-0.95 2.56-1.65 5.21-2.14 7.9m-7.27 5.11c2.46 3.22 6.74 3.65 10.49 3.41 1.24 2.63 2.57 5.54 5.37 6.83 2.94 1.66 6.41 1.23 9.61 0.79-2.65-0.91-5.57-1.05-8.01-2.48-2.37-1.47-3.21-4.26-4.24-6.66-3.77 0.69-8.12 0.85-11.19-1.84-2.68-2.05-2.79-5.69-3.6-8.68-0.3 2.93-0.7 6.32 1.57 8.63m18.52-4.85c-1.09 2.16-2.33 4.24-3.73 6.2 0.97 2.13 1.64 4.71 3.8 5.98 2.82 1.86 6.33 1.27 9.51 1.24 0.48-2.46 1.37-5.2-0.05-7.53-1.66-3.74-5.79-5.21-9.53-5.89z"/>
    <path id="path54" d="m145.57 375.02c9.74 8.53 21.02 15.88 33.94 18.3 10.4 1.98 21.27 0.93 31.23-2.59 6.09-1.93 11.6-5.22 17.42-7.78-10.1 10.96-25.49 16.08-40.18 15.09-16.61-0.92-32.55-9.63-42.41-23.02z"/>
    <path id="path56" d="m257.52 378.5c5.13-2.39 11.91-0.78 15.03 4.07 3.83 5.24 2.29 13.36-3.19 16.84-3.24 2.67-8.07 4.92-11.95 2.17-3.54-3.22-7.06-7.52-6.71-12.61-0.05-4.46 2.9-8.55 6.82-10.47m-4.1 6.84c-1.41 2.88-0.86 6.15-0.14 9.14 0.6-3.01 0.27-6.45 2.36-8.94 3.17-4.28 10.69-4.31 13.52 0.36 1.82 2.63 1.68 5.99 0.95 8.98-0.62 0.25-1.21-0.02-1.75-0.82-0.54-1.71-1.21-3.46-2.83-4.42 1.13-0.52 2.25-1.02 3.4-1.51-2.05-5.12-10.44-6.22-12.54-0.64 3.05-0.79 6.18-1.26 9.31-0.55-0.57 0.5-1.14 1.01-1.7 1.51-2.24-0.32-4.72-0.41-6.52 1.19-3.81 2.86-2.89 9.65 1.56 11.36 3.73 1.77 8.81-0.87 8.98-5.14 0.89-0.11 1.78-0.23 2.67-0.36 2.69-3.88 2.56-9.83-1-13.19-4.56-4.8-13.82-3.21-16.27 3.03z"/>
    <path id="path58" d="m255.91 395.35c0.5-3.07 2.65-6.44 6.22-5.89 3.44 0.08 4.7 3.62 5.31 6.44-0.51 0.15-1.53 0.44-2.05 0.59l0.51-1.19c-2.21 1.67-5.24 2.12-7.26-0.09-0.68 0.04-2.04 0.11-2.73 0.14z"/>
    <path id="path60" d="m156.45 393.48c11.25-3.56 21.56 12.81 13.35 21.33-2.48 2.18-6.01 2.32-9.13 2.82-6.05 0.68-11.5-5.52-10.43-11.44 0.11-4.79 0.92-10.95 6.21-12.71m-4.18 8.44c1.56-1.15 2.97-2.58 4.81-3.28 5.28-1.15 10.56 3.38 11.34 8.51 0.63 2.95-1.17 5.58-2.21 8.2 1.62-1.86 3.7-3.65 3.96-6.26 0.82-6.38-4.61-13.06-11.09-13.33-3.56 0.03-5.4 3.4-6.81 6.16m6.59-2.01c0.03 0.43 0.09 1.3 0.12 1.73 2.62 1.76 4.83 4.01 7.18 6.1 0.44-4.15-3.4-7.54-7.3-7.83m-5.83 4.07c-3.83 3.19-0.89 10.08 3.4 11.21-1.27-1.78-2.89-3.3-3.83-5.29-0.7-2.12-0.04-5.25 2.56-5.59 4.93-0.55 9 5.25 7.23 9.83-1.98 1.16-4.52 0.46-6.45 1.79 2.42 0.18 5.77 1.08 7.5-1.29 3.5-5.92-4.4-14.15-10.41-10.66m8.7 9.39c-2.86-1.84-5.51-4.07-6.77-7.34-2.94 4.19 2.55 8.88 6.77 7.34z"/>
    <path id="path62" d="m256.55 397.46c0.42-0.73 0.85-1.46 1.28-2.18 0.06 3.89 5.91 4.86 7.43 1.43 0.39 0.45 0.78 0.92 1.17 1.39-1.47 0.65-2.79 1.84-4.45 1.93-2.22 0.42-3.79-1.46-5.43-2.57z"/>
   </g>
   <g id="#3f230eff" transform="matrix(-1 0 0 1 601.71 -11.417)">
    <path id="path65" d="m188.77 21.65c49.73-7.53 102.34-1.04 147.17 22.46 33.04 17.17 61.3 43.43 80.7 75.23-3.11 1.61-6.14 3.43-9.41 4.7-3.31 1.24-6.9 0.48-10.3 0.1-33.09-56.25-93.94-95.27-158.96-101.49-18.91-1.99-38.02-1.05-56.78 1.87l-0.05-1.3c2.54-0.51 5.08-1.07 7.63-1.57z" fill="#3f230e"/>
   </g>
   <g id="#f36523ff" fill="#f36523" transform="matrix(-1 0 0 1 601.71 -11.417)">
    <path id="path68" d="m181.19 24.52c18.76-2.92 37.87-3.86 56.78-1.87 65.02 6.22 125.87 45.24 158.96 101.49l0.07 0.1c-2.95 0.44-6.48 0.76-8.22 3.55-2.44 3.78-1.41 8.59-0.03 12.56 3.23 8.64 6.14 17.4 9.22 26.09-25 5.3-50.14 10.93-73.84 20.71-7.74 3.04-14.51 7.93-21.28 12.66-8.18 6.57-14.63 15.01-20.24 23.81-6.5 10.18-12.94 20.39-19.26 30.68-1.68 2.95-5.07 4.34-6.87 7.19-1.55 3.1-1.09 6.89-3.15 9.78-4.38 6.87-8.49 13.89-12.99 20.68-2.85 0.93-5.93 2.15-7.31 5.04-3.93 6.97-8.03 13.85-12.66 20.38-2.33 3.22-0.74 7.69-3.11 10.88-5.33 7.71-10.39 15.62-15.77 23.3-1.8 2.83-4.48 5.83-3.64 9.46 0.97 3.94 4.69 6.67 8.51 7.52 3.65 1 7.13-1.66 10.79-0.74 32.46 5.55 64.93 11.06 97.42 16.5-1.77 14.14-8.58 27.57-19.17 37.14-14.75 13.55-34.66 20.49-54.42 21.88-27.46 1.65-54.6-6.23-79.11-18.12-13.92-7.2-27.58-15.75-43.15-18.85 13.88 4.88 26.87 11.9 39.32 19.66 22.13 11.89 46.47 21.28 71.9 21.49 22.16 0.61 45.34-3.84 63.59-17.06 14.67-10.41 25.09-27.08 26.34-45.21 2.56 0.43 5.14 0.87 7.71 1.33-0.11 8.18-0.85 16.5-3.8 24.2-6.17 16.33-19.32 29.52-34.98 36.97-19.7 9.45-42.24 11.34-63.74 9.02-25.47-2.92-50.58-11.43-71.7-26.14-7.75-5.89-15.7-12.02-25.24-14.67-10.31-3.13-21.35-1.48-31.44 1.71-5.72 1.66-12.01 3.87-17.88 1.63-5.11-1.73-5.33-7.96-8.5-11.6-17.95-25.23-31.85-53.26-41.36-82.71-13.99-40.71-19.46-84.86-12.39-127.51 5.89-35.9 21.28-70.24 44.5-98.29 26-31.76 61.19-55.52 99.69-69.45 6.56-2.63 13.48-4.16 20.45-5.19m-6.71 281.01c-10.99 1.87-19.17 12.46-19.02 23.47-0.81 15.68 12.73 30.63 28.56 30.72 3.3-0.17 7.64 0.09 9.42-3.33 4.43-6.56 8.86-13.13 13.31-19.68 2.24-2.83 1-6.6 0.26-9.75-3.69-13.72-18.22-24.27-32.53-21.43m-28.91 69.49c9.86 13.39 25.8 22.1 42.41 23.02 14.69 0.99 30.08-4.13 40.18-15.09-5.82 2.56-11.33 5.85-17.42 7.78-9.96 3.52-20.83 4.57-31.23 2.59-12.92-2.42-24.2-9.77-33.94-18.3m111.95 3.48c-3.92 1.92-6.87 6.01-6.82 10.47-0.35 5.09 3.17 9.39 6.71 12.61 3.88 2.75 8.71 0.5 11.95-2.17 5.48-3.48 7.02-11.6 3.19-16.84-3.12-4.85-9.9-6.46-15.03-4.07m-101.07 14.98c-5.29 1.76-6.1 7.92-6.21 12.71-1.07 5.92 4.38 12.12 10.43 11.44 3.12-0.5 6.65-0.64 9.13-2.82 8.21-8.52-2.1-24.89-13.35-21.33z"/>
    <path id="path70" d="m335.14 203.09c21.62-8.94 44.48-14.36 67.32-19.14-0.42 3.23-0.28 7.21-3.22 9.35-4.74 3.38-10.81 3.52-16.35 4.46-20.95 2.78-41.58 10.84-57.23 25.33-1.83-3.91-3.66-7.82-5.48-11.74 4.81-3.05 9.66-6.11 14.96-8.26z"/>
    <path id="path72" d="m278.71 267.03c8.72-13.96 17.26-28.04 26.28-41.8 2.19 5.05 4.87 9.89 6.79 15.05-0.62 2.88-2.35 5.37-3.37 8.12-6 14.61-6.08 30.9-3.67 46.3-8.81-9.1-17.48-18.32-26.03-27.67z"/>
    <path id="path74" d="m257.86 300.9c3.51-5.55 6.93-11.16 10.37-16.75 8.9 8.67 17.9 17.23 26.66 26.04 4.97 4.77 10.53 8.88 16.4 12.48 4.28 14.96 11.1 29.18 13.63 44.62-2.3-0.41-4.59-0.81-6.89-1.21-2.83-13.33-7.01-26.45-13.07-38.67 2.77 12.73 7.5 25.02 9.19 38.01-15.1-2.63-30.23-5.07-45.3-7.86 7.44-0.43 12.58-6.54 16.36-12.32 3.27-5.05 6.5-10.91 5.61-17.15-0.79-5.25-5.12-8.89-9.29-11.66-7.87-5.21-15.79-10.34-23.67-15.53z"/>
    <path id="path76" d="m226 350.29c2.59-3.8 5.11-7.64 7.72-11.43 9.86 5.82 19.53 11.95 29.35 17.83-12.35-2.2-24.72-4.25-37.07-6.4z"/>
   </g>
   <g id="#b1b7bbff" fill="#b1b7bb" transform="matrix(-1 0 0 1 601.71 -11.417)">
    <path id="path79" d="m420.16 123.23c2.28-2.93 7.14-2.6 9.63-0.09 4.84 4.47 6.47 11.13 9.25 16.88 4.48 10.96 10.16 21.55 12.68 33.2-4.85 0.05-9.69 0.02-14.53 0.04-1.63-6.96-4.86-13.36-7.6-19.92-3.04-7-5.87-14.09-8.84-21.13-1.13-2.78-2.39-6.2-0.59-8.98m1.83 4.81c-0.32 4.77 2.91 8.73 5.82 12.15 0.45 5.09 1.48 10.91 5.98 14.05 1.94 1.56 5.31 0.7 5.64-1.97 0.83-5.11-2.49-9.51-5.77-12.99-0.05-5.36-1.56-11.53-6.58-14.33-2.26-1.58-5.16 0.59-5.09 3.09z"/>
    <path id="path81" d="m453.28 126.6c3.06-1.37 6.13-2.7 9.2-4.05 7.84 13.91 15.26 28.05 23.07 41.98 2.34 4.17 4.06 9.39 1.96 14.01-2.09 4.69-7.79 6.55-12.59 5.9-4.31-0.32-7.96-3.02-10.64-6.24 5.17-0.35 10.51 3.01 15.45 0.48 5.7-2.86 5.31-12.33-0.4-14.96-3.29-1.38-6.89-1.68-10.38-2.14-5.4-11.59-10.4-23.35-15.67-34.98z"/>
    <path id="path83" d="m410.96 127.36c1.67-0.88 3.35-1.77 5.03-2.65 0.28 3.12 0.88 6.22 2.19 9.09 4.25 9.77 8.47 19.57 12.67 29.37 2.07 4.78 4.22 10.11 2.68 15.37-1.09 4.25-5.85 7.11-10.1 5.99-2.01-0.41-3.12-2.33-4.46-3.68 4.08-1.01 8.94-1.56 11.52-5.34 2.79-3.88 0.45-9.39-3.2-11.82-2.14-1.59-4.89-1.62-7.43-1.71-3.02-7.73-5.9-15.52-8.35-23.45-1.2-3.61-1.2-7.46-0.55-11.17z"/>
    <path id="path85" d="m423.25 127.48c5.41 0.89 6.77 6.71 5.84 11.35-3.45-2.82-5.17-7.05-5.84-11.35z"/>
    <path id="path87" d="m446.44 129.29c1.45-0.59 2.92-1.18 4.38-1.76 4.82 11.3 9.9 22.5 14.66 33.83-2.64-0.37-5.3-0.57-7.87-1.25-4.16-10.09-7.44-20.56-11.17-30.82z"/>
    <path id="path89" d="m404.84 130.2c1.23-0.63 2.45-1.27 3.68-1.92-0.64 4.09-0.56 8.33 0.86 12.25 2.63 7.42 5.28 14.83 8.01 22.21-1.4 0.3-2.79 0.6-4.17 0.9-2.74-7.61-5.54-15.21-8.02-22.92-1.18-3.4-1.04-7.03-0.36-10.52z"/>
    <path id="path91" d="m429.53 141.89c1.73 1.06 3.96 1.83 4.84 3.85 1.16 2.18 0.35 4.67-0.07 6.94-2.82-2.94-4.47-6.74-4.77-10.79z"/>
    <path id="path93" d="m452 162.92c7.48 0.83 14.97 1.57 22.39 2.88 1.87 0.46 4.27 0.66 5.2 2.66 1.12 2.21 1.16 5.58-1.08 7.14-1.9 1.47-4.38 0.69-6.51 0.38-5.6-1.13-11.3-1.62-16.99-1.81-0.62-3.85-1.67-7.6-3.01-11.25z"/>
    <path id="path95" d="m352.1 181.08c21.66-6.34 43.73-11.17 65.96-15.05 1.96-0.28 4.02-0.75 5.97-0.09 2.67 0.88 4.78 3.97 3.73 6.77-0.68 2.35-3.22 3.16-5.35 3.6-29.44 5.9-59.14 11.71-87.11 22.91-5.96 2.15-11.62 5.08-16.74 8.82-1.75-3.88-3.16-8.08-6.26-11.13 12.41-7.19 26.09-11.81 39.8-15.83z"/>
    <path id="path97" d="m433.09 184.36c1.39-1.81 2.72-3.67 3.96-5.59 4.5-0.04 9-0.09 13.5 0.09-4.17 5.29-11.28 5.59-17.46 5.5z"/>
    <path id="path99" d="m301.87 208.93c-0.18-4.37 3.6-8.61 8.03-8.69 1.32 0.14 1.88 1.42 2.42 2.45 17.69 38 35.37 76.02 53.08 114.02-4.66 0.17-9.33 0.02-13.93-0.75-14.8-32.53-30.08-64.84-45.38-97.14-1.47-3.26-3.42-6.37-4.22-9.89z"/>
    <path id="path101" d="m266.14 256.11c10.68-16.4 20.02-33.8 32.55-48.91-0.2 5.35 3.17 9.75 5.21 14.44-10.29 13.47-18.28 28.5-27.39 42.76-3.03-3.24-5.88-7.02-10.37-8.29z"/>
    <path id="path103" d="m429 220.03c3.16-2.45 6.91-3.87 10.83-4.51 13.11 30.04 25.76 60.28 38.49 90.49-3.94 0.65-7.89 1.18-11.84 1.69-12.59-29.18-24.96-58.46-37.48-87.67z"/>
    <path id="path105" d="m412.84 266.98c0.08-4.43 0.68-8.83 1.39-13.2 10.95 14.94 24.84 27.94 41.37 36.49 1.84 4.82 3.87 9.57 5.77 14.37-18.22-6.15-33.57-18.65-46.12-32.94-1.04-1.41-2.72-2.76-2.41-4.72z"/>
    <path id="path107" d="m259.02 264.03c1.45-3.85 7.73-6.27 10.45-2.48 9.94 11.65 20.66 22.61 31.16 33.76 10.41 11.93 25.24 19.71 40.77 22.42 20.86 3.64 42.14 2.19 63.11 0.48 33.08-2.9 65.99-7.5 98.72-13.03 2.42-0.59 4.71 0.46 6.86 1.45-2.96-6.19 6.81-8.75 10.4-5.09 1.21 1.58 2.02 3.41 2.91 5.18 9.75 20.15 16.49 41.64 21.58 63.4 5.39 23.92 8.84 48.5 7.55 73.07 0.07 3.02-1.72 5.95-4.73 6.73-2.66 1.2-5.15-0.67-7.18-2.18-1.45 1.7-3.31 3-5.54 3.39-20.89 5.16-42.75 6.59-64.11 3.9-20.74-2.78-41.5-9.81-57.71-23.39-10.65-8.74-18.82-20.22-24.48-32.72 3.09-2.92 7.05-4.58 11.25-5.08 6.36 13.73 16.41 25.79 29.11 34.08 17.03 11.34 37.64 16.23 57.91 16.82 13.15 0.38 26.34-0.92 39.21-3.66 4.38-0.87 9.04-2.94 13.34-0.54 1.81-9.77 0.81-19.71 0.14-29.54-0.91-11.01-2.26-22.01-4.91-32.75-0.76-3.79-3.93-6.45-4.75-10.22-1.3 1.79-2.92 3.49-5.22 3.84-30.28 6.96-61.13 11.11-91.95 14.83-21.47 2.36-43.14 5.92-64.73 2.78-47.38-7.85-94.8-15.57-142.2-23.34-1.53-0.29-3.36-0.65-3.98-2.3-1.66-3.35-0.48-7.21 0.43-10.6 45.65 7.74 91.28 15.64 136.93 23.45 8.46 1.45 17.03 2.25 25.62 2.31 46.2-2.6 91.91-10.35 137.35-18.75 2.39-0.74 4.65 0.36 6.72 1.45-0.93-10.87-5.18-21-8.48-31.28-2.2-5.46-3-12.38-8.76-15.4 0.07-0.75 0.22-2.26 0.29-3.02-1.59 1.9-3.27 4.08-5.96 4.27-26.77 5.19-53.83 8.74-80.91 11.83-15.36 1.6-30.74 3.36-46.18 3.91-13.75-0.21-27.63-0.26-41.19-2.81-16.24-3.08-31.18-11.66-42.59-23.54-11.4-11.29-23.13-22.26-34.21-33.86-2.03-1.97-3.35-5.03-2.04-7.77z"/>
    <path id="path109" d="m256.61 271.93c2.93 3.45 6.09 6.69 9.3 9.89-4.31 6.73-8.53 13.52-12.81 20.28-0.79 0.98-1.51 2.57-3.04 2.4-3.72-0.3-7.4-2.77-8.64-6.37-0.04-1.49 0.9-2.72 1.56-3.98 4.55-7.4 9.14-14.78 13.63-22.22z"/>
    <path id="path111" d="m560.04 292.96c2.68 0.8 5.66 1.29 7.72 3.37 3.78 3.44 5.07 8.57 6.63 13.25 7.75 22.49 13.83 45.56 18.37 68.91 2.99 16.22 5.72 32.7 4.58 49.24-2.22-4.53-6.49-7.44-11.26-8.76-0.91-18.48-4.94-36.64-8.21-54.81 6.8-3.25 8.15-12.87 3.41-18.41-2.63-3.5-7.16-4.38-11.23-4.92-2.45-10.78-5.71-21.36-9.53-31.73 2.23-2.5 4.99-5.36 4.4-9.02-0.25-3.11-2.88-5.06-4.88-7.12z"/>
    <path id="path113" d="m518.87 297.2c7.83-0.46 15.66-0.86 23.45-1.79-6.17 1.9-12.6 2.69-18.97 3.59-1.48-0.62-2.99-1.22-4.48-1.8z"/>
    <path id="path115" d="m525.62 302.04c8.61-1.64 17.19-3.48 25.69-5.64 2.42-0.39 5.09-1.49 7.43-0.25 2.62 1.35 3.38 4.8 2.67 7.46-0.7 2.24-3.28 2.85-5.22 3.6-8.49 2.45-17.19 4.06-25.87 5.65-1.45-3.66-3.02-7.27-4.7-10.82z"/>
    <path id="path117" d="m235.97 302.88c-0.8-2.09 0.46-4.12 1.1-6.06 1.28 3.7 3.39 7.32 7.1 9.02 3.46 2.09 7.97 1.13 11.18 3.77 7.5 5.17 15.22 10.03 22.69 15.25 4.36 2.91 6.28 8.37 5.03 13.42-1.75-4.91-5.27-9-9.85-11.48-10.71-6.25-21.34-12.65-31.98-19.02-1.99-1.31-4.36-2.55-5.27-4.9z"/>
    <path id="path119" d="m477.42 296.68c10.72 1.05 21.67 2.53 32.38 0.68-1.41 1.26-2.7 2.65-3.85 4.16-8.16 1.85-16.49 2.75-24.78 3.82-1.26-2.89-2.52-5.77-3.75-8.66z"/>
    <path id="path121" d="m233.3 304.33c1.83 1.97 3.86 3.77 6.19 5.14 9.99 6.05 19.88 12.26 30.05 18.01 4.38 2.4 8.83 5.68 10.46 10.62 2.41 8.08-5.66 16.61-13.77 15.83-2.83-0.37-5.18-2.09-7.56-3.52-10.9-6.84-21.98-13.39-32.86-20.26-3.62-2.16-4.42-7.14-2.3-10.63 3.03-5.2 6.94-9.86 9.79-15.19m10.84 20.84c-3.62 3.83-3.23 10.48 0.75 13.92 2.48 2.59 6.22 2.82 9.58 2.96 2.7 6.29 10.89 10.22 17.1 6.5 4.37-2.13 5.72-8.13 2.97-12.06-2.3-4.19-7.19-5.74-11.68-5.98-1.53-2.78-3.19-5.85-6.31-7.1-3.99-1.61-9.24-1.43-12.41 1.76z"/>
    <path id="path123" d="m254.04 305.82c1.28-0.57 2.67-2.34 4.05-0.94 7.32 4.6 14.52 9.41 21.62 14.36 3.14 2.2 6.44 4.87 7.29 8.82 0.78 2.87-0.23 5.75-0.98 8.51-0.18-2.72-0.01-5.64-1.44-8.08-2.23-4.06-6.37-6.45-10.1-8.95-6.82-4.56-13.73-9-20.44-13.72z"/>
    <path id="path125" d="m473.18 324.52c4.13-0.58 8.26-1.18 12.4-1.75 4.99 12.7 10.34 25.25 15.8 37.76-3.94 0.84-7.92 1.48-11.89 2.13-5.89-12.51-10.95-25.39-16.31-38.14z"/>
    <path id="path127" d="m245.57 325.6c1.96-0.75 3.95-1.45 5.96-2.05-0.76 2.62-1.44 5.26-2.24 7.87 0.46 1.86 0.85 3.71 1.24 5.6-4.45-2.08-5.44-7-4.96-11.42z"/>
    <path id="path129" d="m252.43 331.68c0.49-2.69 1.19-5.34 2.14-7.9 3.48 1.86 6.7 4.9 6.69 9.15-0.95 3.71-5.04 4.47-8.3 4.57-0.07-0.89-0.21-2.66-0.28-3.55 0.89-0.03 2.67-0.08 3.56-0.1-1.27-0.74-2.54-1.46-3.81-2.17z"/>
    <path id="path131" d="m245.16 336.79c-2.27-2.31-1.87-5.7-1.57-8.63 0.81 2.99 0.92 6.63 3.6 8.68 3.07 2.69 7.42 2.53 11.19 1.84 1.03 2.4 1.87 5.19 4.24 6.66 2.44 1.43 5.36 1.57 8.01 2.48-3.2 0.44-6.67 0.87-9.61-0.79-2.8-1.29-4.13-4.2-5.37-6.83-3.75 0.24-8.03-0.19-10.49-3.41z"/>
    <path id="path133" d="m203.23 355.28c5.72-8.63 11.4-17.29 17.01-25.99 3.21 3 6.85 5.45 10.58 7.76-5.48 8.09-10.93 16.2-16.37 24.31-1.02 1.34-1.96 2.96-3.61 3.59-3.42 0.71-7.37-0.78-9.09-3.91-1.01-2.04 0.47-4.07 1.48-5.76z"/>
    <path id="path135" d="m263.68 331.94c3.74 0.68 7.87 2.15 9.53 5.89 1.42 2.33 0.53 5.07 0.05 7.53-3.18 0.03-6.69 0.62-9.51-1.24-2.16-1.27-2.83-3.85-3.8-5.98 1.4-1.96 2.64-4.04 3.73-6.2z"/>
    <path id="path137" d="m361.58 339.86c2.91-3.45 7.27-4.88 11.69-4.67 5.89 13.36 11.85 26.69 17.7 40.06-4.4 0.55-8.83 0.62-13.24 0.37-5.33-11.94-10.68-23.87-16.15-35.76z"/>
    <path id="path139" d="m423.5 339.3c18.99 3.43 37.96 6.95 56.95 10.38 1.55 3.79 3.11 7.59 4.69 11.37-20.64-3.4-41.27-6.89-61.92-10.27 0.19-3.82 0.32-7.65 0.28-11.48z"/>
    <path id="path141" d="m566.69 344.87c3.89-0.87 8.66-1.35 11.76 1.69 3.67 4.1 3.54 12.53-2.41 14.48-8.97 3.16-18.41 4.78-27.75 6.48-0.89-3.67-1.86-7.32-2.8-10.97 9.15-2.1 18.45-3.83 27.3-7.04-1.42-1.04-2.99-2.5-4.9-1.74-7.84 1.75-15.57 4.01-23.52 5.21-0.25-0.83-0.75-2.5-1-3.33 7.78-1.58 15.6-2.95 23.32-4.78z"/>
    <path id="path143" d="m499.66 350.37c8.19-0.03 16.39-0.08 24.59 0.04 0.01 1.79 0.04 3.59 0.09 5.4-6.59 2-13.42 3.22-20.19 4.43-1.96-3.05-3.25-6.48-4.49-9.87z"/>
    <path id="path145" d="m498.26 380.66c3.95-0.8 7.92-1.56 11.9-2.28 7.03 10.21 16.17 18.75 26.18 25.98 0.37 4.95 0.75 9.91 0.97 14.87-16.44-8.71-29.18-23.04-39.05-38.57z"/>
    <path id="path147" d="m555.97 414.91c7.33 3.58 15.57 3.81 23.36 5.74 2.36 0.61 6.38 2.2 4.92 5.36-3.88 5.47-10.93 7.14-17.09 8.65 6.17-0.84 12.38-2.52 17.6-6.01 2.04-1.25 2.93-3.55 3.82-5.65 2.49 2.34 6.21 4.83 5.39 8.8-1.44 4.44-6.32 6.33-10.32 7.85-9.25 2.84-18.69 5.03-28.01 7.62 0.53-4.16 0.85-8.36 0.93-12.56 6.19-1.58 12.96-2.45 18.01-6.73-3.7-2.85-8.37-3.55-12.84-4.25 2.07 1.58 4.07 3.26 5.74 5.29-3.7-0.08-7.33-0.76-10.9-1.66-0.15-4.16-0.35-8.31-0.61-12.45z"/>
   </g>
  </g>
 </g>
</svg>
