<?xml version="1.0" encoding="UTF-8" standalone="no"?>
<!-- Created with Inkscape (http://www.inkscape.org/) -->
<svg id="svg3837" xmlns:rdf="http://www.w3.org/1999/02/22-rdf-syntax-ns#" xmlns="http://www.w3.org/2000/svg" height="256" width="256" version="1.1" xmlns:cc="http://creativecommons.org/ns#" xmlns:xlink="http://www.w3.org/1999/xlink" xmlns:dc="http://purl.org/dc/elements/1.1/">
 <defs id="defs3839">
  <linearGradient id="linearGradient4389" y2="924.36" gradientUnits="userSpaceOnUse" x2="255.5" gradientTransform="matrix(1.0039 0 0 1.0039 795.86 -1056)" y1="924.36" x1=".49805">
   <stop id="stop4393" offset="0"/>
   <stop id="stop4395" stop-color="#969696" offset="1"/>
  </linearGradient>
  <radialGradient id="radialGradient4421" gradientUnits="userSpaceOnUse" cy="208.25" cx="139" gradientTransform="matrix(1 0 0 .31871 0 141.88)" r="85.5">
   <stop id="stop4417" stop-opacity=".65179" offset="0"/>
   <stop id="stop4419" stop-opacity="0" offset="1"/>
  </radialGradient>
  <filter id="filter4515" height="1.5122" width="1.1632" y="-.25611" x="-.081624">
   <feGaussianBlur id="feGaussianBlur4517" stdDeviation="5.8157318"/>
  </filter>
 </defs>
 <metadata id="metadata3842">
  <rdf:RDF>
   <cc:Work rdf:about="">
    <dc:format>image/svg+xml</dc:format>
    <dc:type rdf:resource="http://purl.org/dc/dcmitype/StillImage"/>
    <dc:title/>
   </cc:Work>
  </rdf:RDF>
 </metadata>
 <g id="layer1" transform="translate(0 -796.36)">
  <rect id="rect3845" transform="rotate(90)" height="256" width="256" y="-256" x="796.36" fill="url(#linearGradient4389)"/>
  <path id="path4413" d="m224.5 208.25c0 15.05-38.28 27.25-85.5 27.25s-85.5-12.2-85.5-27.25 38.28-27.25 85.5-27.25 85.5 12.2 85.5 27.25z" transform="matrix(1.1228 0 0 1 -28.07 806.86)" filter="url(#filter4515)" fill="url(#radialGradient4421)"/>
  <g id="g4451" transform="matrix(.71573 .19178 -.19178 .71573 20.197 828.36)">
   <path id="path4453" d="m0 0s5.164 17.84 25.039 31.768l-11.581-1.252s12.207 17.214 34.271 28.012l-12.049-1.096s16.118 25.665 48.825 38.341c0 0 3.286 20.97 31.61 39.905 0 0 26.917 15.495 30.046 29.735 0 0 51.833-3.428 108.58 34.587 0 0 13.392-54.792 82.811-61.403 0 0 0.059-29.743-39.29-49.448 0 0-16.135-61.715-113.79-68.426l-82.323 0.259c0-0.002-62.814-4.145-102.15-20.984z"/>
   <path id="path4455" fill="#84161c" d="m23.709 16.063s16.827 22.005 64.46 33.136l-42.973-3.883s16.051 15.403 63.684 27.053l-43.103-3.753s24.204 23.039 61.742 29.252l-23.039 3.625s2.071 11.649 41.679 37.278c0 0 13.073 11.001 10.355 13.72 0 0 21.487 0.26 59.025 17.864 0 0 35.984-18.381-14.237-71.969 0 0-23.041-25.369-48.928-41.938 0 0 39.09-9.319 87.759 18.64 0 0 24.852 18.638 47.633 9.319 0 0-9.32-47.116-97.079-54.624h-95.261c0 0.001-40.386-3.106-71.71-13.72z"/>
   <path id="path4457" fill="none" stroke="#000" d="m23.709 16.063s16.827 22.005 64.46 33.136l-42.973-3.883s16.051 15.403 63.684 27.053l-43.103-3.753s24.204 23.039 61.742 29.252l-23.039 3.625s2.071 11.649 41.679 37.278c0 0 13.073 11.001 10.355 13.72 0 0 21.487 0.26 59.025 17.864 0 0 35.984-18.381-14.237-71.969 0 0-23.041-25.369-48.928-41.938 0 0 39.09-9.319 87.759 18.64 0 0 24.852 18.638 47.633 9.319 0 0-9.32-47.116-97.079-54.624h-95.261c0 0.001-40.386-3.106-71.71-13.72z"/>
   <path id="path4459" fill="#fff" d="m209.07 72.498s5.177 40.644 45.044 38.572c0 0 13.979-3.365 16.827-17.862h-5.436s-4.659 14.755-18.639 11.908c0 0-8.414-0.13-16.568-12.426l13.203-1.812s-23.299-7.249-34.431-18.38z"/>
   <path id="path4461" fill="none" stroke="#000" d="m209.07 72.498s5.177 40.644 45.044 38.572c0 0 13.979-3.365 16.827-17.862h-5.436s-4.659 14.755-18.639 11.908c0 0-8.414-0.13-16.568-12.426l13.203-1.812s-23.299-7.249-34.431-18.38z"/>
   <path id="path4463" fill="#fdbd12" d="m262.45 129.37s40.488-7.414 67.801 5.958c0 0-34.627 1.43-57.767 20.989 0 0 2.12-14.793-10.034-26.947z"/>
   <path id="path4465" fill="none" stroke="#000" d="m262.45 129.37s40.488-7.414 67.801 5.958c0 0-34.627 1.43-57.767 20.989 0 0 2.12-14.793-10.034-26.947z"/>
   <path id="path4467" fill="#fdbd12" d="m263.01 119.56s44.351-1.928 67.49 12.672c-5.467-21.58-42.689-38.389-39.667-36.913 0-0.001-7.438 17.354-27.823 24.241z"/>
   <path id="path4469" fill="none" stroke="#000" d="m263.01 119.56s44.351-1.928 67.49 12.672c-5.467-21.58-42.689-38.389-39.667-36.913 0-0.001-7.438 17.354-27.823 24.241z"/>
  </g>
 </g>
</svg>
