<?xml version="1.0" encoding="UTF-8" standalone="no"?>
<!-- Created with Inkscape (http://www.inkscape.org/) -->
<svg id="svg3837" xmlns:rdf="http://www.w3.org/1999/02/22-rdf-syntax-ns#" xmlns="http://www.w3.org/2000/svg" height="256" width="256" version="1.1" xmlns:cc="http://creativecommons.org/ns#" xmlns:xlink="http://www.w3.org/1999/xlink" xmlns:dc="http://purl.org/dc/elements/1.1/">
 <defs id="defs3839">
  <linearGradient id="linearGradient4389" y2="924.36" gradientUnits="userSpaceOnUse" x2="255.5" gradientTransform="matrix(1.0039 0 0 1.0039 795.86 -1056)" y1="924.36" x1=".49805">
   <stop id="stop4393" offset="0"/>
   <stop id="stop4395" stop-color="#969696" offset="1"/>
  </linearGradient>
  <radialGradient id="radialGradient4421" gradientUnits="userSpaceOnUse" cy="208.25" cx="139" gradientTransform="matrix(1 0 0 .31871 0 141.88)" r="85.5">
   <stop id="stop4417" stop-opacity=".65179" offset="0"/>
   <stop id="stop4419" stop-opacity="0" offset="1"/>
  </radialGradient>
  <filter id="filter4515" height="1.5122" width="1.1632" y="-.25611" x="-.081624">
   <feGaussianBlur id="feGaussianBlur4517" stdDeviation="5.8157318"/>
  </filter>
 </defs>
 <metadata id="metadata3842">
  <rdf:RDF>
   <cc:Work rdf:about="">
    <dc:format>image/svg+xml</dc:format>
    <dc:type rdf:resource="http://purl.org/dc/dcmitype/StillImage"/>
    <dc:title/>
   </cc:Work>
  </rdf:RDF>
 </metadata>
 <g id="layer1" transform="translate(0 -796.36)">
  <rect id="rect3845" transform="rotate(90)" height="256" width="256" y="-256" x="796.36" fill="url(#linearGradient4389)"/>
  <path id="path4413" d="m224.5 208.25a85.5 27.25 0 1 1 -171 0 85.5 27.25 0 1 1 171 0z" transform="matrix(1.1228 0 0 1 -28.07 806.86)" filter="url(#filter4515)" fill="url(#radialGradient4421)"/>
  <g id="g5871" transform="matrix(.71463 0 0 .71463 16 852.9)">
   <g id="g5873">
    <path id="path5875" fill="#fff" d="m298.31 93.655c-5.577-4.769-12.747-5.087-16.939-13.388-3.186-6.324-10.241-8.722-16.734-9.737-5.071-1.217-8.012-6.085-11.46-9.737-4.465-7.708-13.49-7.81-21.401-8.722-8.621 0.306-13.991-10.099-22.934-12.475-3.309-0.878-12.217-0.226-17.983-4.44-5.251-3.839-11.837-7.706-25.111-6.006-9.941-1.622-17.04-10.142-27.183-11.463-6.897-2.13-13.083 1.015-19.879 0.712-4.766-1.32-8.725-4.666-13.589-5.683-7.307-1.283-9.165 1.582-27.678-2.377-8.711-1.875-19.605-4.665-14.009 13.486 2.457 7.957 8.181 27.749-10.449 29.667-6.711 0.66-12.881-5.477-18.966-0.508-2.063 1.488-5.979-1.885-8.52-1.115-8.116 2.331-4.87 11.764-5.577 18.257-0.202 7.301-5.175 12.677-7.607 19.069-5.782 11.662-3.344 27.584 0.71 39.25 1.115 6.083-0.609 12.373 0.607 18.36 0.344 1.044 1.623 2.435 3.246 1.621 12.31-6.001 15.419 1.448 19.603-0.268 11.545-5.063 19.516-2.792 21.983 3.11 4.26 12.271-4.869 22.923-2.435 34.992 2.317 8.116 17.652 1.025 24.852 0.719 10.039-0.754 19.772 2.121 29.306 0.295 8.285-4.219 17.548-6.591 27.593-6.388 6.689 0.104 11.865-3.35 17.237-6.493 9.842-6.899 24.751-1.825 34.282-9.537 5.175-4.055 12.783-2.432 18.359-5.58 8.523-7.602 18.663-11.66 29.722-13.283 5.776-2.23 10.239-8.219 15.717-11.059 4.87-3.041 10.651-3.648 15.318-7.102 7.4-9.733 17.242-17.745 29.006-19.778 11.241-4.388 7.195-10.732 0.913-14.399zm-72.12 43.342c-8.982 8.405-25.934 14.441-41.985 16.097-19.294 1.976-38.441-0.814-53.757-10.856-9.126-6.695-14.906-17.04-13.793-28.601 0.609-11.261 7.632-20.919 16.66-27.615-0.697-0.76-1.266-1.394-2.107-2.319l-22.035 13.454c-0.011 1.163-0.021 2.722-0.021 3.839 2.295-0.014 2.863-0.014 5.555-0.041v12.378l-4.134 4.667-40.635-0.033-0.038-9.608 5.03-7.364c0.825-0.014 1.208-0.014 1.563-0.041v-42.461l-6.593 0.025 0.024-8.607 5.492-6.098h39.236l0.041 9.139-5.52 6.517-0.011 16.457c21.25-11.968 38-21.412 38-21.412v-7.279l3.399-3.435h40.346c-0.014 4.183-0.014 5.261 0 9.292l-5.009 5.416-11.919 0.011c-6.921 4.299-8.064 4.932-15.111 9.166 0.771 1.029 1.404 1.726 3.145 3.552 18.963-4.566 41.99-4.16 59.129 3.954l5.984-4.563c5.033-0.014 6.493-0.014 11.272-0.027-0.025 9.08-0.025 13.832-0.014 28.325l-5.271 6.085-10.187 0.038c-8.924-15.011-25.718-22.048-43.269-19.209-1.109 0.306-2.227 0.407-3.241 0.916 6.299 6.868 7.121 7.697 13.261 14.25 1.216-0.027 1.596-0.027 2.626-0.027l-0.027 11.739-4.069 5.263h-41.056v-9.952l2.645-4.596c-0.36-0.423-0.617-0.612-1.175-1.161-3.648 2.741-5.271 7.2-4.459 11.665 1.929 10.138 12.07 15.521 20.994 17.649 14.807 3.246 31.948 1.921 45.032-3.959 11.706-6.81 12.528-12.958 12.985-13.488h15.534c-0.334 7.44-4.837 15.682-12.499 22.852z"/>
   </g>
   <g id="g5877">
    <g id="g5879">
     <path id="path5881" d="m286.44 74.08c-7.279-4.684-5.481-14.017-22.516-16.207-8.886-1.27-9.104-14.172-29.109-17.975-9.457-1.796-15.72-11.157-25.56-11.967-8.924 0.202-17.95-0.101-24.644-5.58-6.695-6.389-17.04-2.941-25.664-4.868-7.017-2.465-10.525-7.181-17.83-9.31-8.08-2.558-14.62 0.385-21.01-1.34-8.22-0.911-14.51-6.996-23.534-5.577-8.825 2.434-18.558 0.203-27.382-0.507-5.279-0.608-20.925-4.022-18.158 11.258 1.725 7.203 3.348 14.403 5.173 21.503 3.438 11.367-0.224 12.221-5.58 12.679-5.173 0.405-6.389-6.39-11.056-6.896-3.771-0.6-9.378 3.459-13.895 4.969-4.566 1.42-6.49-3.349-10.446-3.65-8.396-0.082-8.825 11.054-7.303 12.879 2.842 5.577 3.451 13.185 1.32 19.372-3.041 5.375-5.782 10.853-7.405 16.94-3.247 15.212-2.23 32.76 3.246 46.655 1.825 7.708-4.87 16.635 2.027 22.516 6.291 4.159 11.247-1.896 17.144-3.246 4.325-0.989 11.52 2.028 15.1 0.03 8.329-4.126 13.154-0.618 12.182 4.938-2.23 9.233-4.257 18.564-7.203 27.483-1.76 6.553 6.241 12.436 10.351 11.769 5.574-1.008 11.154-2.03 16.633-3.041 12.78-1.927 24.543 4.768 36.613 0.306 8.115-3.957 16.22-7.973 26.576-6.596 6.998 0.913 12.373-2.333 17.646-5.58 6.493-3.853 18.641-5.465 22.557-5.372 7.203 0.3 11.725-4.872 18.015-6.793 4.788-1.596 13.144-1.665 14.906-2.943 4.364-3.55 9.889-8.845 13.843-9.444 11.564-2.232 21.354-7.392 30.481-15.608 1.241-1.257 10.914-3.156 13.796-4.257 5.981-2.339 10.037-8.219 13.182-13.493 3.148-4.263 7.711-6.998 12.479-8.416 8.214-1.323 16.428-8.37 19.977-15.723 3.238-6.689 1.891-7.835 1.02-8.924-7.914-7.61-16.942-14.406-25.97-19.984zm10.955 33.974c-11.764 2.033-21.606 10.044-29.006 19.778-4.667 3.454-10.449 4.061-15.318 7.102-5.479 2.839-9.941 8.829-15.717 11.059-11.059 1.623-21.199 5.681-29.722 13.283-5.577 3.148-13.184 1.525-18.359 5.58-9.531 7.711-24.44 2.637-34.282 9.537-5.372 3.143-10.547 6.596-17.237 6.493-10.044-0.203-19.308 2.169-27.593 6.388-9.534 1.826-19.267-1.049-29.306-0.295-7.2 0.306-22.535 7.397-24.852-0.719-2.435-12.069 6.695-22.721 2.435-34.992-2.467-5.902-10.438-8.173-21.983-3.11-4.184 1.716-7.293-5.733-19.603 0.268-1.623 0.814-2.902-0.577-3.246-1.621-1.216-5.987 0.508-12.277-0.607-18.36-4.055-11.665-6.492-27.587-0.71-39.25 2.432-6.392 7.405-11.768 7.607-19.069 0.708-6.494-2.539-15.926 5.577-18.257 2.541-0.771 6.457 2.603 8.52 1.115 6.085-4.969 12.255 1.168 18.966 0.508 18.624-1.914 12.9-21.705 10.443-29.663-5.597-18.151 5.298-15.361 14.009-13.487 18.513 3.959 20.371 1.094 27.678 2.377 4.864 1.017 8.823 4.363 13.589 5.683 6.795 0.303 12.982-2.842 19.879-0.712 10.143 1.321 17.242 9.841 27.183 11.463 13.274-1.7 19.86 2.167 25.111 6.006 5.766 4.215 14.674 3.562 17.983 4.44 8.943 2.376 14.313 12.781 22.934 12.475 7.911 0.913 16.936 1.014 21.401 8.722 3.448 3.652 6.389 8.52 11.46 9.737 6.493 1.015 13.548 3.413 16.734 9.737 4.192 8.301 11.362 8.62 16.939 13.388 6.282 3.668 10.328 10.012-0.913 14.4z"/>
     <path id="path5883" d="m210.17 127.63c-13.083 5.88-30.225 7.206-45.032 3.959-8.924-2.129-19.065-7.512-20.994-17.649-0.812-4.465 0.812-8.924 4.459-11.665 0.558 0.549 0.814 0.738 1.175 1.161l-2.645 4.596v9.952h41.056l4.069-5.263 0.027-11.739c-1.03 0-1.41 0-2.626 0.027-6.14-6.553-6.962-7.382-13.261-14.25 1.014-0.508 2.132-0.609 3.241-0.916 17.551-2.839 34.345 4.198 43.269 19.209l10.187-0.038 5.271-6.085c-0.011-14.493-0.011-19.245 0.014-28.325-4.779 0.014-6.239 0.014-11.272 0.027l-5.984 4.563c-17.139-8.114-40.166-8.52-59.129-3.954-1.741-1.827-2.375-2.523-3.145-3.552 7.047-4.234 8.189-4.867 15.111-9.166l11.919-0.011 5.009-5.416c-0.014-4.031-0.014-5.109 0-9.292h-40.346l-3.399 3.435v7.279s-16.745 9.444-37.982 21.412l0.011-16.457 5.52-6.517-0.041-9.139h-39.251l-5.492 6.098-0.024 8.607 6.593-0.025v42.457c-0.355 0.027-0.738 0.027-1.563 0.041l-5.03 7.364 0.038 9.608 40.635 0.034 4.134-4.667v-12.378c-2.692 0.027-3.26 0.027-5.555 0.041 0-1.118 0.011-2.677 0.021-3.839l22.035-13.454c0.841 0.925 1.41 1.559 2.107 2.319-9.028 6.696-16.051 16.354-16.66 27.615-1.112 11.561 4.667 21.906 13.793 28.601 15.316 10.042 34.462 12.832 53.757 10.856 16.051-1.656 33.003-7.692 41.985-16.097 7.662-7.17 12.165-15.411 12.499-22.854h-15.534c-0.457 0.529-1.279 6.677-12.985 13.487zm2.943-53.044s6.353 2.18 8.443 3.359l5.957-4.778c3.486-0.014 5.011-0.014 8.219-0.014v25.177c-3.273-0.012-4.162-0.012-8.318-0.012-12.77-15.923-34.25-19.08-53.97-14.718l-9.34-10.054c15.239-4.638 34.612-4.335 49.016 1.04zm-106.72 21.427c-0.011 3.198-0.011 4.338-0.024 8.09l5.795-0.022-0.041 7.345c-16.392 0.011-17.912 0.011-34.938 0.041l-0.014-7.377h6.427v-51.909h-6.427v-5.959c16.275 0 19.953 0 34.951-0.011 0.027 2.612 0.027 2.991 0.041 5.996-2.232-0.026-2.232-0.026-5.809-0.04l0.038 28.362 50.816-28.349s-3.729 0-5.528-0.024c0.022-2.448 0.022-3.146 0.014-5.921l36.525-0.037 0.011 5.983h-8.889c-10.08 6.087-24.923 15.075-24.923 15.075l34.342 36.843 0.929-0.008c0 2.732-0.016 4.448 0 7.386l-36.703-0.03-0.014-7.356 5.337-0.014c-14.78-16.207-23.29-25.436-23.29-25.436-9.329 5.579-12.029 7.202-28.626 17.382zm129.35 21.184c-5.175 19.603-26.413 28.287-44.731 30.823-17.149 2.372-34.686 0.202-49.393-6.088-10.247-3.954-19.226-13.903-20.084-25.153-0.885-11.616 4.41-22.158 13.947-28.448l11.004 11.611c-3.55 4.058-5.681 8.927-4.665 14.507 1.722 10.75 13.286 18.155 23.024 20.185 17.545 2.839 37.122 1.721 51.727-7.003 7.214-5.159 10.129-10.444 10.129-10.444 3.935 0.026 5.195 0.026 9.042 0.01z"/>
    </g>
   </g>
   <g id="g5885" fill="#b21e35">
    <path id="path5887" d="m158.31 104.07-5.337 0.014 0.014 7.356 36.703 0.03c-0.016-2.938 0-4.653 0-7.386l-0.929 0.008-34.342-36.843s14.843-8.988 24.923-15.075h8.889l-0.011-5.983-36.525 0.037c0.008 2.775 0.008 3.473-0.014 5.921 1.798 0.024 5.528 0.024 5.528 0.024l-50.817 28.35-0.038-28.362c3.577 0.014 3.577 0.014 5.809 0.04-0.014-3.005-0.014-3.384-0.041-5.996-14.999 0.011-18.676 0.011-34.951 0.011v5.959h6.427v51.918h-6.427l0.014 7.377c17.026-0.03 18.545-0.03 34.938-0.041l0.041-7.345-5.795 0.022c0.014-3.752 0.014-4.892 0.024-8.09 16.597-10.18 19.297-11.803 28.628-17.381 0 0 8.509 9.229 23.289 25.435z"/>
    <path id="path5889" d="m227.42 98.319c4.156 0 5.044 0 8.318 0.012v-25.177c-3.208 0-4.733 0-8.219 0.014l-5.957 4.778c-2.09-1.179-8.443-3.359-8.443-3.359-14.403-5.375-33.777-5.678-49.016-1.04l9.345 10.055c19.715-4.362 41.195-1.206 53.972 14.717z"/>
    <path id="path5891" d="m216.56 127.63c-14.605 8.725-34.181 9.842-51.727 7.003-9.738-2.03-21.302-9.436-23.024-20.185-1.017-5.58 1.115-10.449 4.665-14.507l-11-11.611c-9.537 6.291-14.832 16.833-13.947 28.448 0.858 11.25 9.837 21.199 20.084 25.153 14.707 6.29 32.244 8.46 49.393 6.088 18.319-2.536 39.556-11.22 44.731-30.823-3.848 0.017-5.107 0.017-9.042-0.011 0 0.001-2.915 5.286-10.129 10.445z"/>
   </g>
  </g>
 </g>
</svg>
