<?xml version="1.0" encoding="UTF-8" standalone="no"?>
<!-- Created with Inkscape (http://www.inkscape.org/) -->
<svg id="svg3837" xmlns:rdf="http://www.w3.org/1999/02/22-rdf-syntax-ns#" xmlns="http://www.w3.org/2000/svg" height="256" width="256" version="1.1" xmlns:cc="http://creativecommons.org/ns#" xmlns:xlink="http://www.w3.org/1999/xlink" xmlns:dc="http://purl.org/dc/elements/1.1/">
 <defs id="defs3839">
  <linearGradient id="linearGradient4389" y2="924.36" gradientUnits="userSpaceOnUse" x2="255.5" gradientTransform="matrix(1.0039 0 0 1.0039 795.86 -1056)" y1="924.36" x1=".49805">
   <stop id="stop4393" offset="0"/>
   <stop id="stop4395" stop-color="#969696" offset="1"/>
  </linearGradient>
  <radialGradient id="radialGradient4421" gradientUnits="userSpaceOnUse" cy="208.25" cx="139" gradientTransform="matrix(1 0 0 .31871 0 141.88)" r="85.5">
   <stop id="stop4417" stop-opacity=".65179" offset="0"/>
   <stop id="stop4419" stop-opacity="0" offset="1"/>
  </radialGradient>
  <filter id="filter4515" height="1.5122" width="1.1632" y="-.25611" x="-.081624">
   <feGaussianBlur id="feGaussianBlur4517" stdDeviation="5.8157318"/>
  </filter>
 </defs>
 <metadata id="metadata3842">
  <rdf:RDF>
   <cc:Work rdf:about="">
    <dc:format>image/svg+xml</dc:format>
    <dc:type rdf:resource="http://purl.org/dc/dcmitype/StillImage"/>
    <dc:title/>
   </cc:Work>
  </rdf:RDF>
 </metadata>
 <g id="layer1" transform="translate(0 -796.36)">
  <rect id="rect3845" transform="rotate(90)" height="256" width="256" y="-256" x="796.36" fill="url(#linearGradient4389)"/>
  <path id="path4413" d="m224.5 208.25c0 15.05-38.28 27.25-85.5 27.25s-85.5-12.2-85.5-27.25 38.28-27.25 85.5-27.25 85.5 12.2 85.5 27.25z" transform="matrix(1.1228 0 0 1 -28.07 806.86)" filter="url(#filter4515)" fill="url(#radialGradient4421)"/>
  <g id="g3748" transform="matrix(0.96 0 0 0.96 38.221 828.36)">
   <g id="g3750">
    <path id="path3752" fill="#023a79" d="m157.71 28.834c-3.548-4.967-2.133-7.601 0.34-7.951 1.716-0.244 3.767 0.014 4.832 0.014 1.884 0 5.483 0.231 5.181-3.451-0.348-4.14-1.207-8.11-2.246-12.94-1.034-4.831-1.381-4.486-7.938-4.486 0 0-1.205-0.172-11.213 0.517-10.008 0.691-17.944 2.07-18.293 15.527-0.343 13.46 2.765 17.947 8.286 26.573 5.517 8.63 22.086 35.2 22.086 59.359 0 44.4-38.998 63.496-65.223 63.496-26.229 0-65.227-19.096-65.227-63.496 0-24.159 16.566-50.729 22.089-59.359 5.522-8.626 8.628-13.113 8.286-26.573-0.344-13.46-8.281-14.839-18.287-15.53-10.01-0.689-11.218-0.517-11.218-0.517-6.559 0-6.901-0.345-7.94 4.486-1.034 4.83-1.896 8.8-2.24 12.94-0.306 3.682 3.299 3.451 5.177 3.451 1.067 0 3.119-0.257 4.833-0.014 2.47 0.351 3.886 2.984 0.338 7.951-14.259 19.97-29.329 44.68-29.329 74.197 0 48.66 41.756 96.97 93.522 96.97s93.517-48.313 93.517-96.973c0-29.514-15.064-54.224-29.327-74.193zm-13.98 3.497c-1.551 0-2.806-1.257-2.806-2.808 0-1.548 1.255-2.806 2.806-2.806 1.547 0 2.808 1.257 2.808 2.806 0 1.551-1.261 2.808-2.808 2.808zm-100.42-5.613c1.548 0 2.805 1.257 2.805 2.806 0 1.55-1.257 2.808-2.805 2.808s-2.805-1.257-2.805-2.808c0-1.549 1.257-2.806 2.805-2.806zm-27.953 71.527c-1.545 0-2.806-1.257-2.806-2.806 0-1.552 1.26-2.808 2.806-2.808 1.553 0 2.805 1.256 2.805 2.808 0 1.548-1.252 2.806-2.805 2.806zm13.805 55.56c-1.548 0-2.808-1.26-2.808-2.808s1.259-2.806 2.808-2.806c1.551 0 2.805 1.258 2.805 2.806s-1.254 2.808-2.805 2.808zm64.361 31.748c-1.551 0-2.805-1.257-2.805-2.808 0-1.548 1.254-2.806 2.805-2.806 1.548 0 2.802 1.256 2.802 2.806 0.001 1.551-1.254 2.808-2.802 2.808zm64.358-31.748c-1.551 0-2.805-1.26-2.805-2.808s1.254-2.806 2.805-2.806c1.548 0 2.806 1.258 2.806 2.806s-1.256 2.808-2.806 2.808zm13.808-55.56c-1.554 0-2.811-1.257-2.811-2.806 0-1.552 1.257-2.808 2.811-2.808 1.543 0 2.806 1.256 2.806 2.808 0 1.548-1.264 2.806-2.806 2.806z"/>
   </g>
   <g id="g3754" fill="#fff">
    <g id="g3756">
     <circle id="circle3758" d="m 146.53999,29.524 c 0,1.549711 -1.25629,2.806 -2.806,2.806 -1.54971,0 -2.806,-1.256289 -2.806,-2.806 0,-1.549711 1.25629,-2.806 2.806,-2.806 1.54971,0 2.806,1.256289 2.806,2.806 z" cy="29.524" cx="143.73" r="2.806"/>
     <path id="path3760" d="m143.73 29.524"/>
    </g>
    <circle id="circle3762" d="m 46.115998,29.524 c 0,1.550263 -1.256737,2.807 -2.807,2.807 -1.550263,0 -2.807,-1.256737 -2.807,-2.807 0,-1.550263 1.256737,-2.807 2.807,-2.807 1.550263,0 2.807,1.256737 2.807,2.807 z" cy="29.524" cx="43.309" r="2.807"/>
    <g id="g3764">
     <path id="path3766-1" d="m12.55 95.437c0-1.549 1.26-2.805 2.806-2.805 1.553 0 2.805 1.256 2.805 2.805 0 1.551-1.252 2.808-2.805 2.808-1.545 0-2.806-1.258-2.806-2.808z"/>
     <path id="path3768" d="m15.356 95.437"/>
    </g>
    <circle id="circle3770" d="m 31.966999,150.99899 c 0,1.54971 -1.256289,2.806 -2.806,2.806 -1.549711,0 -2.806,-1.25629 -2.806,-2.806 0,-1.54971 1.256289,-2.806 2.806,-2.806 1.549711,0 2.806,1.25629 2.806,2.806 z" cy="151" cx="29.161" r="2.806"/>
    <circle id="circle3772" d="m 96.328003,182.74699 c 0,1.54972 -1.256289,2.806 -2.806,2.806 -1.549711,0 -2.806,-1.25628 -2.806,-2.806 0,-1.54971 1.256289,-2.806 2.806,-2.806 1.549711,0 2.806,1.25629 2.806,2.806 z" cy="182.75" cx="93.522" r="2.806"/>
    <g id="g3774">
     <circle id="circle3776" d="m 160.685,150.99699 c 0,1.54916 -1.25584,2.805 -2.805,2.805 -1.54915,0 -2.805,-1.25584 -2.805,-2.805 0,-1.54915 1.25585,-2.805 2.805,-2.805 1.54916,0 2.805,1.25585 2.805,2.805 z" cy="151" cx="157.88" r="2.805"/>
     <path id="path3778" d="m157.88 151"/>
    </g>
    <g id="g3780">
     <path id="path3782" d="m168.88 95.437c0-1.549 1.257-2.805 2.812-2.805 1.547 0 2.805 1.256 2.805 2.805 0 1.551-1.258 2.808-2.805 2.808-1.555 0-2.812-1.258-2.812-2.808z"/>
     <path id="path3784" d="m171.69 95.437"/>
    </g>
   </g>
  </g>
 </g>
</svg>
