<?xml version="1.0" encoding="UTF-8" standalone="no"?>
<!-- Created with Inkscape (http://www.inkscape.org/) -->
<svg id="svg3837" xmlns:rdf="http://www.w3.org/1999/02/22-rdf-syntax-ns#" xmlns="http://www.w3.org/2000/svg" height="256" width="256" version="1.1" xmlns:cc="http://creativecommons.org/ns#" xmlns:xlink="http://www.w3.org/1999/xlink" xmlns:dc="http://purl.org/dc/elements/1.1/">
 <defs id="defs3839">
  <linearGradient id="linearGradient4389" y2="924.36" gradientUnits="userSpaceOnUse" x2="255.5" gradientTransform="matrix(1.0039 0 0 1.0039 795.86 -1056)" y1="924.36" x1=".49805">
   <stop id="stop4393" offset="0"/>
   <stop id="stop4395" stop-color="#969696" offset="1"/>
  </linearGradient>
  <radialGradient id="radialGradient4421" gradientUnits="userSpaceOnUse" cy="208.25" cx="139" gradientTransform="matrix(1 0 0 .31871 0 141.88)" r="85.5">
   <stop id="stop4417" stop-opacity=".65179" offset="0"/>
   <stop id="stop4419" stop-opacity="0" offset="1"/>
  </radialGradient>
  <filter id="filter4515" height="1.5122" width="1.1632" y="-.25611" x="-.081624">
   <feGaussianBlur id="feGaussianBlur4517" stdDeviation="5.8157318"/>
  </filter>
 </defs>
 <metadata id="metadata3842">
  <rdf:RDF>
   <cc:Work rdf:about="">
    <dc:format>image/svg+xml</dc:format>
    <dc:type rdf:resource="http://purl.org/dc/dcmitype/StillImage"/>
    <dc:title/>
   </cc:Work>
  </rdf:RDF>
 </metadata>
 <g id="layer1" transform="translate(0 -796.36)">
  <rect id="rect3845" transform="rotate(90)" height="256" width="256" y="-256" x="796.36" fill="url(#linearGradient4389)"/>
  <path id="path4413" d="m224.5 208.25a85.5 27.25 0 1 1 -171 0 85.5 27.25 0 1 1 171 0z" transform="matrix(1.1228 0 0 1 -28.07 806.86)" filter="url(#filter4515)" fill="url(#radialGradient4421)"/>
  <g id="XMLID_2_" transform="matrix(.47027 0 0 .47027 24.903 828.24)">
   <g id="g4942">
    <path id="path4944" fill="#0d254c" d="m437.69 157.22c2.28 1.569-3.479 4.189-6 6-41.59 29.84-88.03 61.18-129.52 91.78 16.42 50.761 33.32 101.05 49.75 151.81-44.61-30.58-88.88-61.5-132.95-92.63-45.81 30.81-89.88 63.369-135.52 94.35 17-50.48 33.05-101.9 49.75-152.67-42.39-34.24-92.27-65.55-132.95-98.64h163.83c18.55-51.49 35.24-104.86 53.17-156.97 18.42 51.63 34.72 105.38 53.18 156.97 55.759-0.001 111.51-0.001 167.26-0.001zm-36.019 10.29c-46.62-0.011-97.77 0.01-141.53 0-13.39-43.79-27.81-86.561-43.74-127.8-14.25 43.22-27.9 87.04-43.75 128.66h-134.66c33.04 27.86 75.1 54.13 109.79 83.2-13.61 41.28-26.95 82.83-40.31 124.37 37.87-24.74 73.65-51.58 111.5-76.34 37.05 24.699 72.41 51.1 109.79 75.479-13.609-41.58-27.57-82.8-41.17-124.37 35.75-30.009 77.62-53.889 114.08-83.199z"/>
    <path id="path4946" fill="#fff" d="m260.14 167.51c43.76 0.01 94.91-0.011 141.53 0-36.46 29.31-78.33 53.189-114.08 83.199 13.6 41.57 27.561 82.79 41.17 124.37-37.38-24.38-72.74-50.78-109.79-75.479-37.85 24.76-73.63 51.6-111.5 76.34 13.36-41.54 26.7-83.09 40.31-124.37-34.69-29.07-76.75-55.34-109.79-83.2h134.66c15.85-41.62 29.5-85.44 43.75-128.66 15.93 41.24 30.35 84.01 43.74 127.8zm114.08 9.43c-39.97 2.2-79.79-0.771-120.94 0-11.36-36.95-23.08-73.55-36.03-108.93-13.96 35.5-21.04 77.89-38.59 109.79h-110.65c26.88 23.15 62.84 44.66 90.92 69.48-11.86 35.03-23.1 70.67-35.17 105.5 32.28-21.2 63.03-43.91 95.21-65.19 30.63 21.4 60.72 43.351 91.78 64.33-10.51-36.1-23.16-70.04-33.45-106.36 31.66-23.521 65.85-44.501 96.92-68.621z"/>
    <path id="path4948" fill="#0d254c" d="m253.28 176.94c41.15-0.771 80.97 2.2 120.94 0-31.069 24.12-65.26 45.1-96.92 68.62 10.29 36.319 22.94 70.26 33.45 106.36-31.06-20.979-61.15-42.93-91.78-64.33-32.18 21.28-62.93 43.99-95.21 65.19 12.07-34.83 23.31-70.47 35.17-105.5-28.08-24.82-64.04-46.33-90.92-69.48h110.65c17.55-31.899 24.63-74.29 38.59-109.79 12.95 35.381 24.67 71.981 36.03 108.93z"/>
   </g>
  </g>
 </g>
</svg>
