<?xml version="1.0" encoding="UTF-8" standalone="no"?>
<!-- Created with Inkscape (http://www.inkscape.org/) -->
<svg id="svg3837" xmlns:rdf="http://www.w3.org/1999/02/22-rdf-syntax-ns#" xmlns="http://www.w3.org/2000/svg" height="256" width="256" version="1.1" xmlns:cc="http://creativecommons.org/ns#" xmlns:xlink="http://www.w3.org/1999/xlink" xmlns:dc="http://purl.org/dc/elements/1.1/">
 <defs id="defs3839">
  <linearGradient id="linearGradient4389" y2="924.36" gradientUnits="userSpaceOnUse" x2="255.5" gradientTransform="matrix(1.0039 0 0 1.0039 795.86 -1056)" y1="924.36" x1=".49805">
   <stop id="stop4393" offset="0"/>
   <stop id="stop4395" stop-color="#969696" offset="1"/>
  </linearGradient>
  <radialGradient id="radialGradient4421" gradientUnits="userSpaceOnUse" cy="208.25" cx="139" gradientTransform="matrix(1 0 0 .31871 0 141.88)" r="85.5">
   <stop id="stop4417" stop-opacity=".65179" offset="0"/>
   <stop id="stop4419" stop-opacity="0" offset="1"/>
  </radialGradient>
  <filter id="filter4515" height="1.5122" width="1.1632" y="-.25611" x="-.081624">
   <feGaussianBlur id="feGaussianBlur4517" stdDeviation="5.8157318"/>
  </filter>
 </defs>
 <metadata id="metadata3842">
  <rdf:RDF>
   <cc:Work rdf:about="">
    <dc:format>image/svg+xml</dc:format>
    <dc:type rdf:resource="http://purl.org/dc/dcmitype/StillImage"/>
    <dc:title/>
   </cc:Work>
  </rdf:RDF>
 </metadata>
 <g id="layer1" transform="translate(0 -796.36)">
  <rect id="rect3845" transform="rotate(90)" height="256" width="256" y="-256" x="796.36" fill="url(#linearGradient4389)"/>
  <path id="path4413" d="m224.5 208.25a85.5 27.25 0 1 1 -171 0 85.5 27.25 0 1 1 171 0z" transform="matrix(1.1228 0 0 1 -28.07 806.86)" filter="url(#filter4515)" fill="url(#radialGradient4421)"/>
  <g id="g5968" fill-rule="evenodd" clip-rule="evenodd" transform="matrix(.95998 0 0 .95998 44.513 828.36)">
   <path id="path5970" d="m157.07 76.773c-6.94-1.455-8.997-9.253-9.082-9.596v-0.084c-2.144-7.797 4.712-13.538 5.055-13.795 1.028-0.857 1.371-2.313 0.772-3.511-0.602-1.202-1.886-1.885-3.257-1.629-8.739 1.798-13.967-4.797-14.823-5.998-4.454-9.424 0.515-14.994 0.686-15.165 1.028-1.112 1.115-2.741 0.171-3.941-0.94-1.114-2.655-1.37-3.854-0.514-7.625 4.97-14.31 0.087-14.565-0.171h-0.086c-7.539-5.397-5.826-12.937-5.739-13.193 0.342-1.543-0.429-3.086-1.886-3.515-1.457-0.514-3.084 0.258-3.684 1.629-0.601 1.37-5.998 5.482-11.909 5.311-5.4-0.085-9.598-3.769-12.425-10.795-0.515-1.115-1.714-1.885-2.999-1.8-1.285 0.171-2.313 1.113-2.57 2.313-1.028 4.884-5.228 9.082-10.196 10.368-4.971 1.285-10.024-0.771-14.137-5.654-0.857-1.028-2.314-1.286-3.513-0.771-1.199 0.6-1.885 1.884-1.627 3.17 0.941 5.482-1.199 10.88-5.484 13.879-4.369 2.999-9.852 2.999-15.165-0.085-1.115-0.687-2.656-0.429-3.513 0.514-0.941 1.028-1.114 2.483-0.342 3.599 2.655 4.027 2.74 9.767 0.256 14.05-1.799 3.171-5.74 6.77-14.221 6.255-1.286-0.085-2.401 0.601-2.915 1.8-0.427 1.199-0.085 2.485 0.858 3.341 5.139 4.283 7.023 9.254 5.396 14.393-1.713 5.398-6.939 9.425-9.595 9.596-1.371 0.171-2.484 1.201-2.655 2.572-0.172 1.37 0.685 2.654 1.971 3.17 6.338 2.056 10.195 6.082 10.88 11.224 0.685 4.884-1.629 10.282-5.655 13.024-1.115 0.771-1.543 2.228-1.028 3.513 0.514 1.199 1.798 1.97 3.17 1.712 5.912-0.941 10.966 1.199 13.879 5.827 2.913 4.625 2.828 10.538-0.085 14.651-0.856 1.285-0.601 2.913 0.514 3.941 1.114 0.941 2.743 0.941 3.855-0.087 2.229-2.057 7.97-2.656 12.766-0.258 3.685 1.801 7.883 5.656 7.284 14.226-0.085 1.282 0.686 2.481 1.885 2.91 1.114 0.516 2.485 0.174 3.342-0.771 3.255-3.941 8.909-6.084 13.708-5.228 4.712 0.773 8.312 4.37 10.455 10.284 0.513 1.283 1.798 2.141 3.255 1.883 1.37-0.255 2.398-1.457 2.398-2.827 0.086-2.568 3.6-7.625 9.082-9.511 3.856-1.369 9.682-1.54 15.422 5.398 0.857 1.112 2.399 1.37 3.599 0.771 1.284-0.687 1.885-2.056 1.458-3.426-0.944-3.429 1.026-9.682 5.312-13.194 4.199-3.343 9.51-3.514 15.336-0.429 1.113 0.6 2.483 0.429 3.427-0.516 0.857-0.854 1.114-2.228 0.515-3.339-2.313-4.457-1.971-10.626 0.685-14.822 2.569-3.941 7.026-5.914 12.937-5.656 1.286 0.084 2.572-0.771 2.914-2.143 0.343-1.283-0.171-2.656-1.37-3.34-2.999-1.63-5.914-7.37-5.228-12.853 0.429-3.77 2.572-8.739 10.539-11.051 1.286-0.343 2.227-1.542 2.142-2.914-0.09-1.37-1.031-2.484-2.317-2.742z" fill="#fff"/>
   <path id="path5972" d="m156.47 79.602c-18.593 5.398-13.623 25.019-5.998 29.302-17.223-0.857-20.992 15.592-16.279 24.677-17.393-9.169-27.245 8.566-24.846 17.05-13.112-15.94-29.562-1.97-29.649 5.82-6.082-16.96-22.362-14.05-29.216-5.91 1.286-19.02-18.678-22.02-24.932-16.36 7.197-10.2-0.428-27.67-16.62-25.02 8.908-6.17 11.564-23.56-5.998-29.472 7.281-0.6 21.333-16.193 5.826-29.13 18.506 1.198 22.447-15.938 16.535-24.848 14.137 8.225 27.332-3.342 25.019-16.794 11.48 13.71 27.074 4.971 29.387-5.998 8.911 21.591 28.017 9.854 29.816 5.485 0 0-2.483 9.596 6.854 16.364 0 0 8.397 6.426 17.907 0.171 0 0-6.683 7.026-1.113 18.678 0 0 6.427 9.767 17.993 7.369 0 0-8.654 7.026-5.998 16.878-0.001 0.001 2.398 9.94 11.309 11.739z" fill="#de6226"/>
   <path id="path5974" d="m21.783 79.687c0-31.958 25.96-57.918 57.918-57.918s57.918 25.96 57.918 57.918c0 32.042-25.96 57.918-57.918 57.918s-57.918-25.876-57.918-57.918z" fill="#fff"/>
   <path id="path5976" d="m20.926 198.78s-2.227-1.37-3.855-3.426c-2.827-3.6-2.485-13.452-2.056-16.366 0.771-8.225 5.655-14.136 8.911-17.564 3.255-3.339 8.053-5.91 10.281-7.367-2.229-12.853-4.113-25.361-1.028-48.408 1.969-14.737 8.995-33.243 11.222-36.842 0.345-0.771 0.43-1.37 0.258-1.628-0.171-0.427-1.199-1.113-3.169-1.455-0.598 0-3.084-0.087-5.826 0.429h-0.429c-0.514 0-2.485-0.172-3.684-1.542-0.687-0.858-1.028-1.885-1.028-2.913v-0.17c0.084-0.514 0.6-5.055 5.74-9.509 1.199-1.286 13.708-13.367 36.841-9.34 7.71-5.226 16.279-9.167 25.704-11.738 2.229-7.625 8.311-11.738 9.339-12.337 12.166-8.397 29.131-5.655 35.385-1.885 5.484 3.255 12.168 8.825 10.882 22.362 5.569 4.969 7.968 12.081 8.396 13.28 0.258 0.771 1.714 4.456 1.627 8.568 2.314 2.227 6.685 5.911 7.798 8.225 1.542 3 1.97 6.254 1.542 8.826-0.6 3.255-3.171 5.567-6.168 6.51-3.343 0.942-12.167-1.199-13.538-1.713-2.399-0.772-7.454-1.799-8.996-1.971-5.398-0.514-7.026-0.599-13.195 0.258-1.285 0.171-2.056 0.258-2.826 0.514 1.628 8.054-1.457 16.964-2.057 17.734-1.714 2.229-3.685 3.686-5.741 3.77-2.57 0.174-4.197-1.628-4.37-1.885h-0.09c-1.799-2.227-3.341-4.283-4.712-6.082-1.028-1.458-2.144-2.914-3.085-4.027-1.285 5.654-4.37 13.45-10.195 19.02-3.255 3.857-11.053 9.768-17.735 9.424-1.885-0.085-3.17-0.854-4.111-2.653-0.773-1.631-0.857-3.944-0.172-5.656 0.085-0.171 0.6-1.714 1.113-4.199-4.541 2.656-9.51 6.685-13.88 11.31-3.513 3.771-13.024 20.906-13.794 35.045 9.339 1.283 14.309 4.367 16.794 9.508 1.713 3.513 1.969 7.367 0.941 11.911-0.941 3.854-4.454 5.138-4.454 5.138s-0.085-1.54-0.857-2.311c-2.056-1.715-4.628-0.773-5.226-0.516-0.942 0.429-2.143 1.028-4.371 1.115-1.884 0.086-3.426-0.429-4.54-1.028-1.113 1.199-2.828 2.655-5.14 3.168-6.512 1.715-13.193 5.743-14.137 6.942 0 0-3.77 3.255-2.485 10.709 0 0 0.342 2.228-1.627 1.97-0.002-0.003-2.916-0.258-4.201-1.203z" fill="#fff"/>
   <path id="path5978" d="m125.8 78.746c2.739 4.796 0 18.077-0.857 19.276-3.255 4.542-6.343 1.457-6.343 1.457-5.311-6.254-8.225-12.081-11.222-12.595-0.515 4.456-3.17 14.735-10.281 21.42-0.6 0.771-8.569 9.169-16.28 8.74-0.427-0.087-1.284-0.432-1.713-1.373-0.771-1.627-0.171-3.168 0-3.684 0.085-0.342 1.457-6.684 1.971-11.995-30.416 15.594-34.1 55.433-34.1 55.433 5.827 0.6 14.908 2.4 17.906 8.569 1.543 3.255 1.714 7.283 0.771 10.023-0.427 1.198-0.684 1.885-1.283 2.484-0.171-1.799-2.913-2.911-5.656-2.398-1.885 0.342-2.656 1.457-5.74 1.541-2.999 0.087-5.056-1.798-5.056-1.798-1.198 3.597-5.054 4.028-5.054 4.028-10.967 2.826-14.994 7.625-14.994 7.625-4.712 5.225-3.255 11.394-3.255 11.394s-4.626 1.027-6.683-4.883c0 0-2.056-5.998-1.115-12.425 0.857-6.597 4.456-11.737 8.655-16.021 4.284-4.454 11.395-8.225 11.395-8.225-2.228-13.195-4.541-25.619-1.37-49.353 2.056-14.906 9.338-33.414 10.966-35.984 1.884-4.027-0.428-6.083-4.797-6.855 0 0-2.913-0.085-6.426 0.43 0 0-2.399 0-2.314-1.8 0 0 0.343-3.942 4.883-7.882 0 0 11.996-12.767 35.129-8.655l0.857 0.087c9.082-6.426 18.677-10.197 26.988-12.339 1.628-8.312 9.34-12.68 9.34-12.68 0.599-0.171-0.174 0.772 0.428 0.514-4.627 3.941-9.853 12.166-3.77 27.674 0 0-0.087-1.8 0.429-3.513 0 0 2.227 13.107 13.878 11.823 0 0 8.396-0.085 11.225-10.539 0 0 1.028-5.226 4.883-7.455 0.687-0.684 1.115-0.856 2.401-1.884 1.284-1.372 1.456-2.399 1.026-5.397-0.514-5.142-2.655-12.424-12.594-14.31 0.086-0.171 0.171-0.429 0.171-0.6 6.769 0.6 16.021 4.198 15.936 19.105 0.086 0.087 0.257 0.172 0.344 0.258 0 0 1.714-0.258 3.084 0.258 0 0 0.171-0.087 0.258-0.258 1.799-14.823-11.481-19.192-11.481-19.192 3.941 1.285 5.654 2.143 5.654 2.143s11.825 4.284 10.195 21.419c6.171 4.797 8.739 12.766 8.739 12.766s1.457 4.198 1.715 9.338c0 0 5.312 4.541 6.768 6.94 0 0 1.371 1.971 1.715 5.226 0 0 0.342 1.713-0.6 4.114 0 0-1.457 4.197-8.397 2.912-3.514-0.342-6.17-1.2-6.17-1.2-3.684-1.112-8.138-1.884-10.88-2.313-5.569-0.857-10.623-0.685-13.623-0.342-0.003 0.008-4.63 0.692-5.656 0.951z" fill="#13264b"/>
   <path id="path5980" d="m106.78 48.5s-0.087-1.8 0.429-3.513c0 0 2.227 13.107 13.878 11.823 0 0 8.396-0.085 11.225-10.539 0 0 1.028-5.226 4.883-7.455 0.687-0.684 1.115-0.856 2.401-1.884 1.284-1.372 1.456-2.399 1.026-5.397-0.601-6.084-3.512-15.337-19.363-14.738 0 0 22.962-4.541 22.876 18.935 0.086 0.087 0.257 0.172 0.344 0.258 0 0 1.714-0.258 3.084 0.258 0 0 0.171-0.087 0.258-0.258 1.799-14.823-11.481-19.192-11.481-19.192s0.771 0.172 1.885 0.514c-4.884-1.971-10.109-1.713-10.109-1.713-5.313 0.085-9.513 0.943-12.768 2.227h0.173c-0.001 0.001-18.251 6.342-8.741 30.674z" fill="#fff"/>
   <path id="path5982" d="m169.41 75.746c0.772 4.627-4.97 4.627-4.97 4.627-6.94-0.601-7.625-1.286-12.937-4.199 0 0-18.764-11.395-40.611 0 0 0-0.343 0.429-0.771 1.114 6.082-10.194 18.848-10.023 18.848-10.023-4.37-7.797-31.271 2.999-31.271 2.999 11.737-2.486 14.394-1.371 14.394-1.371h-0.087c-6.853 1.885-8.995 15.765-8.995 15.765-2.228 11.567-2.828 14.479-6.511 19.963-1.457 2.143-4.884 6.426-11.567 7.796h0.514-0.601c-0.258 0-0.513-0.171-0.513-0.171s-1.457-0.516-0.687-3.255c0 0 2.998-8.312 2.743-17.393-0.258-5.655-1.373-8.655-2.056-10.882-0.172-0.428-0.343-0.857-0.516-1.457 0 0 1.885-4.456 4.028-5.998 0 0-13.881 5.485-24.505 18.936 0 0 4.369-14.822 29.303-24.676 0 0-27.503 1.457-46.181 42.069 0 0-10.795 22.447-3.684 47.295 0 0-1.029-9.939 4.369-15.424 0 0-4.883 12.424 1.028 22.705 0 0 2.056 5.655 8.141 5.739 0 0 6.252-0.599 6.681 2.914-0.256-0.258-0.6-0.513-0.856-0.6-0.43-0.258-0.857-0.6-2.655-0.6-2.057 0-2.57 0.857-5.571 1.112-1.798 0.174-5.569 0.687-7.967-4.625 0 0 1.37 5.911-4.626 7.454 0 0-7.883 2.742-11.396 4.796 0 0-6.854 3.6-7.453 11.567 0 0 0.171 1.114-0.771 1.114 0 0-0.773 0.087-1.286-1.714 0 0-5.655-15.164 8.225-26.988 1.714-1.541 3.684-2.74 5.569-3.855 5.911-2.397 8.31 2.398 8.31 2.398-3.341-6.511-5.055-16.878-5.654-20.305 0-0.344 0-0.686-0.085-1.027-2.741-25.448 4.198-50.294 7.024-57.491 1.543-4.112 3.342-7.883 5.313-11.396l-0.085 0.171c2.399-3.769 2.656-5.911 2.656-5.911 0.6-2.828-1.969-5.055-1.969-5.055-2.486-2.741-9.082-1.8-9.082-1.8s-1.714 0.257-1.373-1.112v-0.087c0.857-1.285 2.4-2.57 4.114-3.685 15.336-8.995 14.137 3.513 14.137 3.513 5.998-7.368 13.537-10.366 13.537-10.366-25.96 20.307-27.16 51.15-27.16 51.15 11.567-51.234 51.235-61.088 56.976-59.203 0.256 0.342 1.371 1.627 1.971 2.227-0.771-4.112-1.028-9.511 1.199-14.479 0 0 2.655-7.797 11.481-10.197 0 0-2.485 0.857-5.143 3.17-1.199 1.029-2.484 2.399-3.597 4.199-0.258 0.514-0.601 1.026-0.857 1.627-0.429 0.771-0.771 1.713-1.028 2.743-0.514 1.627-0.856 3.513-0.856 5.567-0.087 3.684 0.686 8.14 2.742 13.367 0 0-0.087-1.8 0.429-3.513 0 0 2.227 13.107 13.878 11.823 0 0 8.396-0.085 11.225-10.539 0 0 1.114-5.569 4.883-7.455 0.687-0.684 1.115-0.856 2.401-1.884 1.112-1.114 1.198-2.057 1.198-2.057 0.258-1.457-0.172-3.34-0.172-3.34-0.601-6.084-3.512-15.337-19.363-14.738 0 0 22.962-4.541 22.876 18.935 0.086 0.087 0.257 0.172 0.344 0.258 0 0 1.714-0.258 3.084 0.258 0 0 0.171-0.087 0.258-0.258 1.799-14.823-11.481-19.192-11.481-19.192s16.106 2.314 13.708 22.362c-1.971-1.027-5.912-1.37-9.595 0.172-4.371 2.142-6.256 6.854-6.256 6.854 4.713-6.341 10.54-6.341 14.137-5.484 3.771 2.227 9.511 7.198 11.224 17.136 0 0 0.087 0.085 0.087 0.172-1.113-2.913-4.885-10.882-13.109-14.052 0 0 6.082 4.113 9.253 12.852 0.429 1.2 1.628 4.285 0.344 4.626-2.229 0.857-8.997 1.286-13.367 0-1.284-0.429-1.884-0.685-2.483-1.114-0.259-0.086-0.601-0.257-0.601-0.257-1.37 0.942-2.569 0.686-2.569 0.686 1.285-0.343 1.713-1.457 1.713-1.457-1.113-0.085-1.885-1.285-1.885-1.285-1.629-1.971-2.999-2.486-2.999-2.486-3.17-1.199-4.628 0.857-4.799 1.2-0.427 1.028 0.087 2.741 3.429 5.313-0.857-1.801-1.372-3.771 0.6-4.37 0.084 0 0.171-0.085 0.171-0.085 1.115-0.086 2.228 0.685 2.741 1.199-0.256 0.085-0.514 0.343-0.598 0.685-0.345 0.771 0.171 1.8 1.111 2.229 0.344 0.171 0.772 0.171 1.199 0.085 0.516 0 1.115-0.172 1.802-0.514 2.997 1.542 7.282 2.314 10.709 2.483 0 0 7.539 0.43 9.682-0.342 6.511 3.598 8.653 7.797 8.739 8.225 1.026 3.084-3.428 3.084-3.428 3.084-6.255-0.171-8.653-2.398-12.937-4.37-4.799-2.227-3.084-1.542-7.712-3.083 0 0-4.712-1.542-5.998 0.171 0 0 0.087-0.085 0.258-0.258 0 0 1.799-0.256 4.97 1.286 3.513 1.8 6.768 3.342 10.195 4.97 0 0 5.055 4.283 10.624 3.771l2.057 0.171 2.653-1.625z" fill="#015e6a"/>
   <path id="path5984" d="m108.75 36.763s-2.057-0.171-2.912-1.886c0 0-0.086-9.596 8.995-14.309 0 0-8.053 4.885-6.083 16.195z" fill="#015e6a"/>
   <path id="path5986" d="m106.35 37.448s0.941 0.771 1.457 0.771c0 0 0.171 2.57 1.456 5.142 0-0.001-3.085-2.572-2.913-5.913z" fill="#015e6a"/>
   <path id="path5988" d="m122.03 47.558c-1.886 0.942-2.057 2.912-2.057 2.912-0.258 1.8 0.429 3.169 0.513 3.342 0.258 0.087 0.516 0.171 0.857 0.171 1.37 0 2.484-1.455 2.571-3.255 0.001-1.542-0.856-2.743-1.884-3.17z" fill="#015e6a"/>
   <path id="path5990" d="m119.97 50.47s0.171-1.97 2.057-2.912c-0.258-0.085-0.429-0.085-0.687-0.085-1.37 0-2.57 1.455-2.57 3.255 0 1.37 0.771 2.655 1.713 3.084-0.085-0.172-0.771-1.542-0.513-3.342z" fill="#13264b"/>
   <path id="path5992" d="m115 26.653c0.687 0.256 0.771 0.685 0.687 1.199l-0.771 8.653c-0.087 0.429-0.344 0.942-0.943 0.942h-0.258s-0.256 0.085-0.256 0.171v0.6s0.085 0.172 0.172 0.258c0.084 0.085 4.026 0.514 4.026 0.514s0.171-0.085 0.257-0.172l0.08-0.684-0.17-0.172c-1.028-0.171-0.686-0.942-0.771-1.199l0.514-5.398 3.083 7.968 1.715 0.256 3.771-7.282-0.515 5.483c-0.087 0.771-0.429 0.943-0.601 0.943h-0.256s-0.257-0.087-0.344 0.256v0.343s-0.084 0.343 0.171 0.427l5.228 0.601s0.171 0 0.258-0.172l0.085-0.6s-0.172-0.256-0.258-0.256c0 0-0.771-0.086-0.855-1.199l0.685-8.655s0-0.856 1.028-0.943c0 0 0.257-0.085 0.344-0.256l0.084-0.686s-0.084-0.256-0.255-0.256c-0.087 0-4.541-0.514-4.541-0.514l-3.942 6.768-2.827-7.625-4.799-0.514s-0.257 0-0.257 0.257c0 0.172-0.085 0.6-0.085 0.6s0 0.256 0.085 0.256c0.083 0.001 0.428 0.088 0.428 0.088z" fill="#de6226"/>
   <path id="path5994" d="m147.22 36.162c0.17-15.421-10.2-17.735-10.2-17.735 8.397 4.542 8.397 13.966 8.055 17.479 0.514 0 1.368 0 2.141 0.256z" fill="#de6226"/>
   <path id="path5996" d="m140.36 60.409c0.171-0.172 0.428-0.942 0.342-1.627-0.171-1.028-1.37-4.541-5.997-4.883-4.713-0.429-5.57 2.827-5.57 2.827s1.457-2.485 4.799-1.2c0 0 1.37 0.515 2.999 2.486 0 0 0.771 1.199 1.885 1.285 0 0-0.428 1.113-1.713 1.457 0 0 1.199 0.256 2.569-0.686 0-0.002 0.513 0.256 0.686 0.341z" fill="#fff"/>
   <path id="path5998" d="m137.79 61.781c-0.427 0.085-0.855 0.085-1.199-0.085-0.94-0.429-1.456-1.458-1.111-2.229 0.084-0.342 0.342-0.6 0.598-0.685-0.514-0.514-1.626-1.286-2.741-1.199 0 0-0.514 1.971 0.258 3.084 0 0 1.284 2.227 4.369 1.542 0 0 0.856-0.171 1.8-0.857-0.087-0.085-0.171-0.085-0.171-0.085-0.688 0.341-1.287 0.514-1.803 0.514z" fill="#fff"/>
   <path id="path6000" d="m161.7 76.432s6.854 2.483 7.711-1.8c1.628 7.026-8.312 3.171-8.312 3.171-2.912-0.772-16.021-8.74-16.021-8.74-2.741-1.628-4.284-1.713-4.284-1.713-0.514-0.085-1.885-0.172-1.885-0.172 0.857-0.514 3.513-0.171 6.684 1.372 0.001-0.001 13.194 7.367 16.107 7.882z" fill="#fff"/>
   <path id="path6002" d="m155.53 78.573c-7.198-2.828-12.51-3.084-12.51-3.084-21.505-1.971-34.957 6.683-34.957 6.683 0.601-3.084 2.828-5.998 2.828-5.998 22.447-12.251 41.553 0.6 41.553 0.6s3.771 1.972 4.37 2.142c0.001-0.001-0.77-0.17-1.284-0.343z" fill="#fff"/>
   <path id="path6004" d="m112.18 68.892s-4.97 3.084-6.514 15.508c-0.684 6.425-2.056 14.222-8.653 21.589-2.227 2.485-5.825 6.34-12.08 6.427 6.683-1.37 10.11-5.653 11.567-7.796 3.683-5.485 4.283-8.396 6.511-19.963 0 0 2.142-14.051 9.169-15.765z" fill="#fff"/>
   <path id="path6006" d="m81.844 96.137s1.113-5.569-0.857-10.109c0 0-27.588 11.652-30.244 43.782 0 0 3.684-18.422 31.101-33.673z" fill="#fff"/>
   <path id="path6008" d="m44.831 50.899c13.28-8.053 27.502-4.456 27.502-4.456s-1.542 0.771-2.827 1.629c0.001 0-11.395-3.427-24.675 2.827z" fill="#fff"/>
   <path id="path6010" d="m31.722 175.3c-6.855 1.199-9.769 8.482-9.682 12.509 0 0-3.771-16.963 11.48-24.162 0 0 6.597-2.911 7.197 4.199 0.087 1.028 1.544 5.482-8.995 7.454z" fill="#fff"/>
   <path id="path6012" d="m164.52 67.864s6.853 4.968 0.084 5.569c0 0 3.343-2.227-0.084-5.569z" fill="#fff"/>
   <path id="path6014" d="m124 81.4-2.568 0.6s2.741 1.714 1.884 14.224c0 0 3.427-8.483 0.684-14.824z" fill="#015e6a"/>
   <path id="path6016" d="m51.343 158.51s11.567 0.345 12.167 7.883c0 0-1.028-3.084-5.656-3.342-0.001 0-7.111-0.684-6.511-4.541z" fill="#015e6a"/>
  </g>
 </g>
</svg>
