<?xml version="1.0" encoding="UTF-8" standalone="no"?>
<!-- Created with Inkscape (http://www.inkscape.org/) -->
<svg id="svg3837" xmlns:rdf="http://www.w3.org/1999/02/22-rdf-syntax-ns#" xmlns="http://www.w3.org/2000/svg" height="256" width="256" version="1.1" xmlns:cc="http://creativecommons.org/ns#" xmlns:xlink="http://www.w3.org/1999/xlink" xmlns:dc="http://purl.org/dc/elements/1.1/">
 <defs id="defs3839">
  <linearGradient id="linearGradient4389" y2="924.36" gradientUnits="userSpaceOnUse" x2="255.5" gradientTransform="matrix(1.0039 0 0 1.0039 795.86 -1056)" y1="924.36" x1=".49805">
   <stop id="stop4393" offset="0"/>
   <stop id="stop4395" stop-color="#969696" offset="1"/>
  </linearGradient>
  <radialGradient id="radialGradient4421" gradientUnits="userSpaceOnUse" cy="208.25" cx="139" gradientTransform="matrix(1 0 0 .31871 0 141.88)" r="85.5">
   <stop id="stop4417" stop-opacity=".65179" offset="0"/>
   <stop id="stop4419" stop-opacity="0" offset="1"/>
  </radialGradient>
  <filter id="filter4515" height="1.5122" width="1.1632" y="-.25611" x="-.081624">
   <feGaussianBlur id="feGaussianBlur4517" stdDeviation="5.8157318"/>
  </filter>
 </defs>
 <metadata id="metadata3842">
  <rdf:RDF>
   <cc:Work rdf:about="">
    <dc:format>image/svg+xml</dc:format>
    <dc:type rdf:resource="http://purl.org/dc/dcmitype/StillImage"/>
    <dc:title/>
   </cc:Work>
  </rdf:RDF>
 </metadata>
 <g id="layer1" transform="translate(0 -796.36)">
  <rect id="rect3845" transform="rotate(90)" height="256" width="256" y="-256" x="796.36" fill="url(#linearGradient4389)"/>
  <path id="path4413" d="m224.5 208.25a85.5 27.25 0 1 1 -171 0 85.5 27.25 0 1 1 171 0z" transform="matrix(1.1228 0 0 1 -28.07 806.86)" filter="url(#filter4515)" fill="url(#radialGradient4421)"/>
  <g id="g8851" transform="matrix(.93333 0 0 .93333 11.333 840.36)">
   <path id="path8853" fill="#bacad3" d="m144.57 22.2-11.68 12.46c19.215-8.691 61.042-24.085 61.042-24.085l-13.37 13.403c36.66-12.375 64.44-18.782 64.44-18.782s-7.933 18.625-19.837 37.444c2.304-0.379 17.468-2.91 17.468-2.91s-13.534 22.696-29.253 39.346l8.829 1.666s-13.65 19.98-31.817 36.598c-25.995 23.969-39.528 21.146-39.528 21.146-19.386 14.656-34.983 8.507-34.983 8.507s6.559-16.826-0.335-18.127c-6.372-1.315-15.874 3.938-17.034 5.946-1.159 4.208-6.334 14.979-11.665 21.637-10.24 12.783-21.708 18.355-21.708 18.355s-9.072-7.044-9.254-19.676c0 0-6.112 6.627-16.201 9.219-7.082 1.878-16.736 1.147-26.605-6.273-6.736-5.04-8.09-23.03-8.09-23.03s6.145-11.803 18.099-22.484c-2.704-2.098-4.348-4.788-4.829-6.482 31.809-15.103 31.79-28.004 57.03-44.942 24.95-16.695 40.62-24.628 69.27-38.928"/>
   <path id="path8855" fill="#004d55" d="m129.08 33.901-9.98 10.656c19.791-9.455 61.548-25.411 61.548-25.411l-12.1 12.144c42.853-15.02 70.102-20.781 70.102-20.781s-8.773 19.615-20.516 36.549c5.67-0.868 17.67-2.784 17.67-2.784s-11.877 19.989-29.372 37.323c1.914 0.171 9.978 1.513 9.978 1.513s-10.572 15.868-28.983 32.498c-23.475 21.231-34.054 19.363-34.054 19.363s0.265-0.785 0.167-2.01c0.046-0.67-0.108-1.285-0.127-1.345-18.062 17.56-33.267 12.663-33.267 12.663s6.596-16.083-3.791-18.727c-7.991-2.075-20.154 4.877-21.141 8.301-0.991 3.771-6.076 14.262-11.044 20.505-8.705 10.88-18.345 16.136-18.345 16.136s-8.794-6.103-5.854-25.413c0.599-4.217-0.277-5.824-0.735-6.442-1.506-2.069-12.725 0.807-15.42 7.011-1.883 4.418 9.327 7.445 9.327 7.445s-5.148 5.805-14.173 8.08c-5.655 1.326-14.462 1.429-23.704-5.808-5.47-4.278-6.718-19.688-6.718-19.688s6.673-12.306 19.707-23.267c-2.585-1.559-4.588-4.227-5.061-5.276 26.412-12.339 29.895-28.135 59.669-47.09 13.842-8.812 28.476-17.59 46.213-26.145"/>
   <path id="path8857" fill="#000114" d="m199.75 84.122c1.061 0.147 5.379 0.67 7.836 1.53-9.005 14.712-36.051 44.08-51.17 46.033-0.224-2.521-1.169-4.509-2.4-5.863-5.596 10.36-22.963 17.407-30.223 16.203 8.593-31.618-28.548-17.836-31.362-9.166-7.166 22.555-25.968 33.857-25.968 33.857s-6.065-6.283-3.593-21.303c1.852-11.067-5.31-10.331-5.31-10.331-2.906-0.071-13.768 1.786-17.174 9.305-2.717 6.029 6.966 9.73 6.966 9.73s-13.853 11.479-30.151-1.047c-3.977-3.13-5.577-16.899-5.577-16.899 7.721-12.871 17.926-21.33 22.171-24.493-4.515-1.486-5.922-3.629-5.922-3.629 21.675-10.799 30.04-27.261 48.481-40.068 20.321-14.147 35.859-21.448 35.859-21.448l-5.814 7.537s4.898-2.298 6.998-3.473c19.388-10.172 52.243-21.881 52.243-21.881l-10.193 10.098s16.951-6.485 38.358-11.984c11.382-2.935 35.216-8.995 35.216-8.995s-5.519 16.176-17.3 32.991c7.196-0.869 14.938-1.65 14.938-1.65s-8.244 16.657-26.913 34.945"/>
   <path id="path8859" fill="#000114" d="m111.21 67.017c-0.263 0.115-0.428 0.2-0.702 0.342 0.228-0.142 0.41-0.235 0.639-0.331l0.063-0.011"/>
   <path id="path8861" fill="#000114" d="m110.34 67.333c0.11 0.035 0.11 0.035 0.175 0.026-0.065 0.009-0.065 0.009-0.175-0.026"/>
   <path id="path8863" fill="#fff" d="m136.28 103.29s-10.428-4.379-26.826 1.633c0 0 22.517-14.147 51.182-10.111-18.59-4.979-35.332-1.311-45.158 2.421-5.787 2.455-9.248 4.356-9.248 4.356s1.457-1.074 4.211-2.777c6.647-5.095 15.824-10.712 24.89-14.836 6.309-2.793 18.882-6.716 23.996-7.251 0 0-13.157-1.467-25.184 2.037 0 0 18.953-8.143 37.425-9.49 6.22-0.364 20.351-0.418 20.351-0.418-20.426-4.793-41.593-4.879-56.036-2.004-8.172 2.321-14.696 4.649-14.696 4.649s1.178-0.562 3.353-1.592c5.153-3.262 26.455-15.484 66.088-23.474 0 0-5.032-0.317-11.243-0.002-6.321 0.324-18.865 3.029-18.865 3.029 9.065-4.424 26.086-9.208 47.146-12.215 0 0-32.241-2.071-71.139 11.693-0.366 0.141-0.494 0.253-0.494 0.253s4.043-3.035 8.746-6.227c3.353-2.425 8.297-6.088 8.297-6.088s-19.97 5.568-46.96 19.455c-7.59 3.894-11.616 6.135-11.616 6.135 1.177-1.302 6.558-6.255 7.84-7.936-20.029 10.59-27.326 17.201-39.149 30.061-10.618 11.474-10.116 13.387-26.223 22.649 0 0 11.93 4.111 23.943-4.081 2.088-1.378 4.01-3.389 5.88-5.416 4.255-4.974 2.815-9.829 8.486-13.634-0.832 1.886-2.136 4.202-2.251 6.62 2.7-3.776 8.014-8.81 13.96-12.617 15.221-9.504 25.316-11.546 25.316-11.546-0.449 0.117-0.748 0.341-1.151 0.458-20.721 9.423-24.053 20.538-24.158 21.725-0.198 2.482 7.496-3.453 13.778-4.545-6.649 2.623-12.285 8.378-14.998 14.865-1.15 2.746-1.486 5.813-4.801 8.355-0.926 0.896-2.109 1.783-3.746 2.56-4.331 2.142-7.384 1.291-8.43 0.697-0.621-0.352-0.961-1.056-0.961-1.056 2.111 0.507 5-0.172 7.607-1.889 1.932-1.278 3.365-2.896 4.115-4.532 0.4-0.925 1.218-2.616 0.021-4.661-0.6-0.985-1.83-1.53-3.257-1.649 0.116-0.268 0.764-2.105 3.1-4.886-3.104 2.366-5.046 5.057-6.087 6.313 1.435 0.092 2.721 0.655 3.442 1.738 1.407 2.188 0.099 5.571-2.865 7.356-2.99 1.96-6.635 1.711-7.987-0.458-0.198-0.338-0.302-0.54-0.426-0.869-0.126 0.065-0.327 0.169-0.501 0.236-0.914 0.52-2.813 1.362-2.813 1.362 0.865 0.199 2.062 0.184 2.85 0.054 0.289 3.158 2.368 8.217 13.982 4.766-3.315 3.216-11.284 3.465-16.138 1.229 0.686 0.479 1.427 0.928 2.305 1.422 14.63 7.994 31.303-1.075 35.361-3.609 1.048-0.61 2.071-1.232 3.066-1.767 0 0-4.207 3.813-7.048 9.606 5.037-6.601 19.828-17.429 39.714-16.103"/>
   <path id="path8865" fill="#bacad3" d="m82.962 92.105c0.57 2.042 4.235-0.267 4.235-0.267s-4.99 4.358-6.917 8.915c-0.072 0.268-0.07 1.123-0.723 2.455 0.525 0.077 1.03 0.116 1.426 0.074 1.303-0.258 2.853-1.195 2.853-1.195s0.063 2.627-2.864 5.341c3.315-2.543 3.65-5.609 4.801-8.355 2.713-6.487 8.349-12.243 14.998-14.865-6.283 1.092-13.976 7.027-13.778 4.545 0.105-1.187 3.437-12.302 24.158-21.725-0.229 0.096-0.704 0.34-0.814 0.305-18.968 7.848-28.906 19.339-27.375 24.772"/>
   <path id="path8867" fill="#004d55" d="m75.059 100.95c0.996 1.571 0.042 3.935-2.164 5.353-2.198 1.343-4.794 1.247-5.751-0.34-0.187-0.229-0.281-0.503-0.313-0.786-0.429 0.337-0.911 0.608-1.332 0.917 0.124 0.329 0.228 0.531 0.426 0.869 1.352 2.169 4.997 2.418 7.987 0.458 2.964-1.785 4.272-5.168 2.865-7.356-0.721-1.083-2.007-1.646-3.442-1.738-0.344 0.408-0.752 0.873-1.16 1.386 1.268-0.057 2.341 0.364 2.884 1.237"/>
   <path id="path8869" fill="#000114" d="m72.896 106.3c2.205-1.418 3.159-3.781 2.164-5.353-0.543-0.873-1.616-1.294-2.884-1.238-0.804 1.039-1.773 2.257-2.98 3.364-0.014 0.957 0.183 2.058 1.369 2.835 0 0-1.359 0.145-2.211-0.388-0.464-0.316-0.708-0.744-0.786-0.981-0.264 0.206-0.509 0.491-0.736 0.635 0.032 0.283 0.127 0.558 0.313 0.786 0.956 1.587 3.553 1.683 5.751 0.34"/>
   <path id="path8871" fill="#fff" d="m68.353 105.52c0.852 0.532 2.211 0.388 2.211 0.388-1.187-0.777-1.383-1.878-1.369-2.835-0.5 0.512-1.044 1.025-1.627 1.466 0.076 0.237 0.321 0.665 0.785 0.981"/>
   <path id="path8873" fill="#bacad3" d="m191.92 68.851s-14.131 0.054-20.351 0.418c-18.472 1.348-37.425 9.49-37.425 9.49 12.026-3.504 25.184-2.037 25.184-2.037-5.114 0.535-17.688 4.458-23.996 7.251-9.066 4.124-18.243 9.741-24.89 14.836 10.652-6.653 41.028-22.705 79.866-16.704 0 0 2.529-1.977 9.255-9.498 7.078-7.934 8.534-12.688 8.534-12.688s-32.872-1.768-56.662 2.995c-5.125 1.07-10.66 2.448-15.551 3.931 14.443-2.873 35.61-2.788 56.036 2.006"/>
   <path id="path8875" fill="#bacad3" d="m116.25 110.48c26.829-7.856 45.554-0.959 47.894 7.202 0 0 0.117-0.083 0.271-0.21 1.07-0.619 5.246-2.547 11.499-8.804 6.525-6.653 10.642-11.925 12.262-15.422-27.563-11.915-57.863-2.354-72.703 3.987 9.826-3.731 26.568-7.4 45.158-2.421-28.665-4.036-51.182 10.111-51.182 10.111 16.398-6.012 26.826-1.633 26.826-1.633-19.886-1.326-34.678 9.502-39.713 16.104-0.403 0.785-0.761 1.618-1.09 2.413 4.595-4.407 9.448-8.045 20.778-11.327"/>
   <path id="path8877" fill="#bacad3" d="m207.66 37.241c-21.061 3.007-38.081 7.791-47.146 12.215 0 0 12.544-2.705 18.865-3.029 6.211-0.315 11.243 0.002 11.243 0.002-39.633 7.99-60.935 20.212-66.088 23.474 5.265-2.417 16.632-7.221 33.013-11.164 15.351-3.715 33.294-5.366 40.535-6.397 10.211-10.154 14.143-22.547 14.143-22.547s-17.861 2.326-38.202 6.974c-21.11 4.974-34.794 10.976-37.501 12.166 38.897-13.765 71.138-11.694 71.138-11.694"/>
   <path id="path8879" fill="#bacad3" d="m101.2 121.7s6.745-5.311 18.243-4.098c17.023 1.783 16.632 12.187 16.632 12.187s7.595-3.571 11.452-10.329c0 0-4.807-4.136-13.538-5.226-22.641-2.724-32.789 7.466-32.789 7.466"/>
   <path id="path8881" fill="#bacad3" d="m55.159 117.65c-3.478-0.102-4.765-0.755-6.007-1.642-2.884 1.583-5.083 2.834-5.083 2.834-1.705 2.569 1.917 1.923 3.593 1.359 1.373-0.475 7.497-2.551 7.497-2.551m37.732 1.528c-1.052 1.862-1.521 3.907-2.261 6.373-5.189 24.679-23.374 36.196-23.374 36.196-3.42-7.212-1.538-14.315-1.026-16.961 1.3-6.084-1.754-10.431-1.754-10.431 12.006-0.092 0.303 15.019 4.859 21.064 8.008-4.967 12.792-21.198 13.96-26.961 0.05-0.212-1.172-1.016-2.151-1.296-11.642-3.06-31.062 1.045-38.029 5.474-21.977 14.072-1.298 21.861-1.298 21.861s-13.524 5.087-21.322-6.391c-1.98-3.072-2.475-8.739-2.958-13.212 7.99-13.607 20.695-19.519 24.192-22.063 3.034 0.68 8.596 0.744 12.971-0.775 0.001 0.001 14.813 17.224 38.191 7.122z"/>
   <path id="path8883" fill="#000114" d="m44.068 118.85c-1.705 2.569 1.917 1.923 3.593 1.359 1.374-0.476 7.498-2.552 7.498-2.552-3.478-0.102-4.765-0.755-6.007-1.642-2.884 1.584-5.084 2.835-5.084 2.835"/>
  </g>
 </g>
</svg>
