<?xml version="1.0" encoding="UTF-8" standalone="no"?>
<!-- Created with Inkscape (http://www.inkscape.org/) -->
<svg id="svg3837" xmlns:rdf="http://www.w3.org/1999/02/22-rdf-syntax-ns#" xmlns="http://www.w3.org/2000/svg" height="256" width="256" version="1.1" xmlns:cc="http://creativecommons.org/ns#" xmlns:xlink="http://www.w3.org/1999/xlink" xmlns:dc="http://purl.org/dc/elements/1.1/">
 <defs id="defs3839">
  <linearGradient id="linearGradient4389" y2="924.36" gradientUnits="userSpaceOnUse" x2="255.5" gradientTransform="matrix(1.0039 0 0 1.0039 795.86 -1056)" y1="924.36" x1=".49805">
   <stop id="stop4393" offset="0"/>
   <stop id="stop4395" stop-color="#969696" offset="1"/>
  </linearGradient>
  <radialGradient id="radialGradient4421" gradientUnits="userSpaceOnUse" cy="208.25" cx="139" gradientTransform="matrix(1 0 0 .31871 0 141.88)" r="85.5">
   <stop id="stop4417" stop-opacity=".65179" offset="0"/>
   <stop id="stop4419" stop-opacity="0" offset="1"/>
  </radialGradient>
  <filter id="filter4515" height="1.5122" width="1.1632" y="-.25611" x="-.081624">
   <feGaussianBlur id="feGaussianBlur4517" stdDeviation="5.8157318"/>
  </filter>
 </defs>
 <metadata id="metadata3842">
  <rdf:RDF>
   <cc:Work rdf:about="">
    <dc:format>image/svg+xml</dc:format>
    <dc:type rdf:resource="http://purl.org/dc/dcmitype/StillImage"/>
    <dc:title/>
   </cc:Work>
  </rdf:RDF>
 </metadata>
 <g id="layer1" transform="translate(0 -796.36)">
  <rect id="rect3845" transform="rotate(90)" height="256" width="256" y="-256" x="796.36" fill="url(#linearGradient4389)"/>
  <path id="path4413" d="m224.5 208.25a85.5 27.25 0 1 1 -171 0 85.5 27.25 0 1 1 171 0z" transform="matrix(1.1228 0 0 1 -28.07 806.86)" filter="url(#filter4515)" fill="url(#radialGradient4421)"/>
  <g id="layer1-6" fill-rule="evenodd" transform="matrix(.92539 0 0 .92539 11.665 674.96)">
   <g id="g8" fill="#dce0e5" transform="matrix(1.25 0 0 1.25 15.869 165.77)">
    <path id="path10" d="m163.15 66.457s10.395-1.5752 12.285-11.339c1.88-9.764-4.76-17.566-16.7-22.992-17.32-7.874-38.11-15.433-81.889-25.196-23.641-5.2738-30.237-6.93-30.237-6.93s-46.614 49.764-46.614 49.764l40-1.2598s-13.228 20.157-11.023 53.228c2.2041 33.071 16.28 49.593 27.401 57.008 7.5596 5.039 17.953 7.244 17.953 7.244s-5.3545-7.559-3.7803-17.008c1.5752-9.449 5.3545-14.488 8.1894-19.528 2.835-5.039 21.103-40.944 21.103-40.944s6.6139 0 9.4479 0.314c2.835 0.316 4.725 1.575 4.725 3.151 0 1.574-1.89 3.779-1.89 3.779s9.449 0.63 21.732-4.095c12.284-4.723 16.378-12.598 16.378-12.598s-5.354-6.6133-11.653-11.653c-6.3-5.0391-11.339-8.1885-11.339-8.1885h27.717s5.354 0 7.244 1.5742c1.89 1.5752 0.944 5.6699 0.944 5.6699z"/>
   </g>
   <g id="g12" fill="#fff" transform="matrix(1.25 0 0 1.25 35.16 174.43)">
    <path id="path14" d="m150.71 55.59s5.985-1.8896 6.773-8.0312c0.787-6.1416-2.678-10.551-4.567-12.441-1.89-1.8897-10.237-7.8741-24.883-13.07-12.06-4.281-30.392-9.135-63.305-16.536-21.365-4.805-30.394-5.512-30.394-5.512s-34.331 37.008-34.331 37.008l35.434-0.1582s-14.649 17.97-15.905 53.543c-1.8896 53.544 34.331 64.882 34.331 64.882s-3.4648-6.299-2.5205-13.543c0.9453-7.244 4.0947-12.913 7.5596-19.213 3.4648-6.299 22.362-43.778 22.362-43.778h13.228c2.362 0 5.6705 1.2602 6.9285 2.9912 1.261 1.732 0.63 3.149 0.63 3.149s9.141 0.645 15.276-2.046c8.976-3.937 13.702-9.9213 13.702-9.9213s-6.3-7.5586-15.591-13.386c-9.291-5.8271-17.166-9.7637-17.166-9.7637h43.938s5.353 0 6.929 1.417c1.574 1.417 1.574 4.4092 1.574 4.4092z"/>
   </g>
   <g id="g16" fill="#161413" transform="matrix(1.25 0 0 1.25 54.452 181.12)">
    <path id="path18" d="m137.16 46.3s2.835-1.5723 2.835-6.2998c0-3.6221-3.465-7.874-6.299-9.9209-2.835-2.0469-8.976-5.8272-19.055-9.1338-10.07-3.307-31.333-8.504-49.601-12.283-18.267-3.7802-48.031-8.662-48.031-8.662s2.6778 3.9375 2.6778 3.9375-19.686 21.102-19.686 21.102l69.921 5.5117s-0.63 0.7872-0.63 0.7872h-46.771l3.4649 3.4648-7.5596 13.386 39.37-8.1894-1.1015 1.1025-45.984 15.591 3.9365 2.5196s-1.417 2.6767-2.3623 8.3467c-0.9443 5.6689-1.5742 11.023-1.5742 11.023l39.37-24.095s-0.1582 0.9453-0.1582 0.9453l-43.464 34.645 4.0938 1.102s0.1582 7.402 0.9453 11.811 2.0469 9.449 2.0469 9.449 35.591-41.889 35.591-41.889v1.417s-35.118 51.653-35.118 51.653h3.4649s1.8896 5.512 6.2988 11.181c4.4102 5.67 10.866 10.236 10.866 10.236s-2.3916-4.946-1.417-13.227c0.6299-5.355 5.9844-14.174 8.5039-19.213 2.5196-5.04 34.646-68.504 34.646-68.504l-6.142-3.3076h59.686s3.622 0.4727 5.354 1.8906c1.732 1.417 1.889 3.6221 1.889 3.6221z"/>
   </g>
   <g id="g20" fill="#fff" transform="matrix(1.25 0 0 1.25 199.53 221.87)">
    <path id="path22" d="m21.574 9.7637s0.788-2.9922-0.63-5.5117c-1.417-2.5196-4.567-4.252-4.567-4.252l0.63 3.1494-16.378 2.0479s-0.629 0.9443-0.629 0.9443h15.905s1.653 0.0791 3.465 1.1817c1.533 0.9336 2.204 2.4404 2.204 2.4404z"/>
   </g>
   <g id="g24" fill="#fff" transform="matrix(1.25 0 0 1.25 201.3 213.4)">
    <path id="path26" d="m12.441 8.1895s-1.732-2.3623-4.567-4.0947c-2.835-1.7325-7.874-4.0948-7.874-4.0948s3.464 2.9131 5.196 4.961c1.732 2.0468 2.205 3.0703 2.205 3.0703l5.04 0.1582z"/>
   </g>
   <g id="g28" fill="#b01742" transform="matrix(1.25 0 0 1.25 76.893 194.7)">
    <path id="path30" d="m93.229 17.953s-21.002-5.6806-45.355-10.394c-24.41-4.724-42.362-7.559-42.362-7.559-0.0002 0-5.512 6.457-5.512 6.457l93.071 12.599 0.158-1.1026z"/>
   </g>
   <g id="g32" fill="#b01742" transform="matrix(1.25 0 0 1.25 87.228 226)">
    <path id="path34" d="m28.425 0l-25.196 0.4726-3.2285 5.6699s28.11-5.3545 28.11-5.3545 0.3144-0.788 0.3144-0.788z"/>
   </g>
   <g id="g36" fill="#b01742" transform="matrix(1.25 0 0 1.25 75.613 244.41)">
    <path id="path38" d="m29.135 0s-27.323 9.8427-27.323 9.8427l-1.8116 7.2442 28.662-15.984 0.4727-1.1025z"/>
   </g>
   <g id="g40" fill="#b01742" transform="matrix(1.25 0 0 1.25 74.038 267.44)">
    <path id="path42" d="m26.536 0l-26.536 22.44s0.0791 2.913 0.3154 4.331c0.2363 1.417 0.6299 3.15 0.6299 3.15l25.669-28.662-0.0781-1.2597z"/>
   </g>
   <g id="g44" fill="#b01742" transform="matrix(1.25 0 0 1.25 84.275 289.98)">
    <path id="path46" d="m23.149 0s-7.6377 11.261-12.834 19.214c-5.1968 7.952-10.315 15.59-10.315 15.59s1.1807 2.362 1.9688 3.622c0.7871 1.26 2.0468 2.835 2.0468 2.835s19.686-40.552 19.686-40.552-0.5518-0.709-0.5518-0.709z"/>
   </g>
   <g id="g48" fill="#161413" transform="matrix(1.25 0 0 1.25 139.59 237.81)">
    <path id="path50" d="m10.473 0s13.937 6.8506 21.417 11.891c7.481 5.0391 12.599 10.472 12.599 10.472s-1.575 2.3623-5.355 4.8027c-3.779 2.4414-7.717 3.0714-7.717 3.0714s2.993-2.6769 3.229-4.0157c0.236-1.3389-0.314-1.6533-1.103-1.6533h-8.661s-1.417 1.0234-1.339 3.1494c0.08 2.1256 1.103 3.4636 1.103 3.4636s-2.756-0.393-4.725-2.6765c-1.968-2.2832-1.968-3.9365-1.968-3.9365h-17.953l11.26-22.126c0-0.0006-0.787-2.442-0.787-2.442z"/>
   </g>
   <g id="g52" fill="#b01742" transform="matrix(1.25 0 0 1.25 147.56 259.76)">
    <path id="path54" d="m2.205 0s20.079 3.0704 20.079 3.0704-0.473 0.9453-0.473 0.9453h-21.811l2.205-4.0157z"/>
   </g>
  </g>
 </g>
</svg>
