<?xml version="1.0" encoding="UTF-8" standalone="no"?>
<!-- Created with Inkscape (http://www.inkscape.org/) -->
<svg id="svg3837" xmlns:rdf="http://www.w3.org/1999/02/22-rdf-syntax-ns#" xmlns="http://www.w3.org/2000/svg" height="256" width="256" version="1.1" xmlns:cc="http://creativecommons.org/ns#" xmlns:xlink="http://www.w3.org/1999/xlink" xmlns:dc="http://purl.org/dc/elements/1.1/">
 <defs id="defs3839">
  <linearGradient id="linearGradient4389" y2="924.36" gradientUnits="userSpaceOnUse" x2="255.5" gradientTransform="matrix(1.0039 0 0 1.0039 795.86 -1056)" y1="924.36" x1=".49805">
   <stop id="stop4393" offset="0"/>
   <stop id="stop4395" stop-color="#969696" offset="1"/>
  </linearGradient>
  <radialGradient id="radialGradient4421" gradientUnits="userSpaceOnUse" cy="208.25" cx="139" gradientTransform="matrix(1 0 0 .31871 0 141.88)" r="85.5">
   <stop id="stop4417" stop-opacity=".65179" offset="0"/>
   <stop id="stop4419" stop-opacity="0" offset="1"/>
  </radialGradient>
  <filter id="filter4515" height="1.5122" width="1.1632" y="-.25611" x="-.081624">
   <feGaussianBlur id="feGaussianBlur4517" stdDeviation="5.8157318"/>
  </filter>
 </defs>
 <metadata id="metadata3842">
  <rdf:RDF>
   <cc:Work rdf:about="">
    <dc:format>image/svg+xml</dc:format>
    <dc:type rdf:resource="http://purl.org/dc/dcmitype/StillImage"/>
    <dc:title/>
   </cc:Work>
  </rdf:RDF>
 </metadata>
 <g id="layer1" transform="translate(0 -796.36)">
  <rect id="rect3845" transform="rotate(90)" height="256" width="256" y="-256" x="796.36" fill="url(#linearGradient4389)"/>
  <path id="path4413" d="m224.5 208.25a85.5 27.25 0 1 1 -171 0 85.5 27.25 0 1 1 171 0z" transform="matrix(1.1228 0 0 1 -28.07 806.86)" filter="url(#filter4515)" fill="url(#radialGradient4421)"/>
  <g id="layer1-3" transform="matrix(1.9526 0 0 1.9526 -959.57 96.371)">
   <g id="g6594" transform="matrix(1.25 0 0 -1.25 557.28 458.19)">
    <path id="path6596" d="m0 0c15.645 0 31.058 5.305 39.27 13.517 4.168 4.169 6.372 8.985 6.372 13.927 0 4.907-2.174 9.675-6.288 13.788-8.146 8.147-23.594 13.411-39.354 13.411-11.035 0-22.296-2.597-30.896-7.127-9.825-5.174-15.235-12.302-15.235-20.072 0-4.872 2.183-9.63 6.313-13.759 4.127-4.127 10.126-7.6 17.344-10.042 7.047-2.383 14.819-3.643 22.474-3.643" fill="#fff"/>
   </g>
   <g id="g6598" transform="matrix(1.25 0 0 -1.25 519.51 400.41)">
    <path id="path6600" d="m0 0c-9.32-4.909-14.454-11.578-14.454-18.778 0-4.476 2.035-8.876 5.885-12.727 3.969-3.968 9.771-7.318 16.779-9.689 6.898-2.332 14.507-3.566 22.005-3.566 15.276 0 30.283 5.137 38.235 13.088 3.889 3.888 5.944 8.347 5.944 12.894 0 4.51-2.026 8.921-5.86 12.755-7.885 7.886-22.927 12.981-38.319 12.981-10.806 0-21.819-2.536-30.215-6.958" fill="#0a0a09"/>
   </g>
   <g id="g6602" transform="matrix(1.25 0 0 -1.25 557.24 453.12)">
    <path id="path6604" d="m0 0c13.486 0 26.264 4.401 33.348 11.485 3.573 3.574 5.462 7.653 5.462 11.799 0 4.142-1.889 8.222-5.462 11.796-7.084 7.084-19.862 11.485-33.348 11.485-9.902 0-19.759-2.445-27.044-6.708-7.588-4.44-11.767-10.327-11.767-16.573 0-4.146 1.889-8.225 5.463-11.799 7.084-7.084 19.862-11.485 33.348-11.485" fill="#c6a463"/>
   </g>
   <g id="g6606" transform="matrix(1.25 0 0 -1.25 557.33 452.09)">
    <path id="path6608" d="m0 0c19.766 0 35.791 10.242 35.791 22.581s-16.025 22.342-35.791 22.342c-19.767 0-35.791-10.003-35.791-22.342s16.024-22.581 35.791-22.581" fill="#c81d3c"/>
   </g>
   <g id="g6610" transform="matrix(1.25 0 0 -1.25 592.32 420.35)">
    <path id="path6612" d="m0 0h-0.098v0.815h-0.716-13.484c-0.305 1.598-1.224 3.08-2.535 4.237-1.292 1.485-3.169 2.602-5.305 3.026l-0.886 0.182c-2.05 0.431-3.668 0.772-10.181 0.739 0 0-1.253 0.043-2.469 0.204-0.308 0.078-0.578 0.171-0.81 0.271 0.09 0.542 1.082 1.289 2.2 1.434 0.116 0.021 7.165 1.318 14.42-3.381l0.178-0.115h4.768v7.297h-0.815v0.815h-6.544s-0.777-0.593-1.102-0.842c-1.884 0.472-11.112 2.491-19.079-0.997-3.349-1.384-5.427-3.996-5.28-6.648 0.075-1.337 0.716-2.503 1.822-3.408 0.814-1.016 2.094-1.809 3.761-2.289 2.359-0.68 4.356-0.96 6.293-1.071v-0.234-3.093h0.816v-0.815h2.488c1.03 0 1.295-0.571 1.358-0.784-3.175 0.208-8.004 1.112-11.558 4.402l-0.134 0.144h-0.025c-0.196 0.187-0.389 0.381-0.577 0.584l-0.213 0.231h-3.579v-10.387h0.816v-0.814h2.918c0.428-0.03 1.784 0.121 2.72 2.855 1.518-0.529 5.259-1.655 9.866-1.78v-6.462c-0.161-2.17-4.941-2.849-6.606-2.915l-0.688-0.027v-3.212h0.815v-0.814h20.985v3.074l-0.535 0.142c-0.096 0.024-0.187 0.049-0.28 0.075v0.703l-0.655 0.056c-1.18 0.105-2.088 0.309-2.792 0.56-1.319 0.74-1.545 1.34-1.573 1.437v3.445h6.151c0.649-0.098 1.205-0.383 1.677-0.753 0.886-1.09 1.289-2.337 1.296-2.358l0.157-0.505 0.528-0.002h0.017c0.073-0.185 0.112-0.302 0.113-0.308l0.157-0.506 0.528-0.001h2.777v12.498h-0.717-0.098v0.816h-0.718-2.572l-0.119-0.572c-0.862-4.153-5.664-4.092-9.933-3.469 0.836 0.227 1.677 0.503 2.516 0.836 2.286 0.909 4.001 2.145 5.071 3.592h9.217c0.643-0.021 1.189-0.181 1.648-0.482 0.967-1.418 0.87-3.505 0.869-3.529l-0.04-0.756h0.756 0.102c-0.001-0.034-0.002-0.056-0.002-0.058l-0.041-0.757 0.758-0.001h2.915v9.675h-0.718z" fill="#0a0a09"/>
   </g>
   <g id="g6614" transform="matrix(1.25 0 0 -1.25 573.95 423.55)">
    <path id="path6616" d="m0 0h7.639c4.363-0.139 4.048-5.583 4.048-5.583h2.2v8.24h-13.185s-0.031-1.844-0.702-2.657" fill="#fff"/>
   </g>
   <g id="g6618" transform="matrix(1.25 0 0 -1.25 554.51 432.35)">
    <path id="path6620" d="m0 0v-6.328c-0.226-3.316-7.293-3.591-7.293-3.591v-1.805h19.551v1.805c-5.81 0.503-5.836 3.464-5.836 3.464v4.224h6.945c3.176-0.453 4.397-4.433 4.397-4.433h2.059v11.064h-1.989c-1.383-6.665-11.596-3.666-12.352-3.834 0 0-2.515-0.628-5.482-0.566" fill="#fff"/>
   </g>
   <g id="g6622" transform="matrix(1.25 0 0 -1.25 562.14 418.74)">
    <path id="path6624" d="m0 0c2.654-0.778 2.901-2.803 1.347-4.699-1.988-1.877-5.025-1.954-5.025-1.954s-10.225-1.105-16.192 5.35h-2.548v-8.952h2.233s1.361-0.209 2.234 3.072c0 0 10.499-4.273 20.486-0.308 9.672 3.842 5.991 12.257-0.664 13.576-2.56 0.507-3.578 0.945-10.923 0.907 0 0-1.326 0.042-2.617 0.217-4.049 1.012-1.746 3.629 0.628 3.936 0 0 7.294 1.438 14.902-3.49h3.839v5.863h-5.585l-1.186-0.907s-10.353 2.891-18.95-0.872c-5.778-2.389-6.911-8.365-0.6-10.184 5.558-1.602 9.101-0.931 14.733-1.146 1.574-0.06 2.942-0.122 3.888-0.409" fill="#fff"/>
   </g>
   <g id="g6626" transform="matrix(1.25 0 0 -1.25 551.71 423.28)">
    <path id="path6628" d="m0 0h-2.653v2.376c2.056 0 6.25-0.017 9.217 0 2.986 0 3.384-1.726 2.126-2.893-1.186-1.101-3.67-1.884-6.611-1.349 0 0-0.242 1.866-2.079 1.866" fill="#fff"/>
   </g>
  </g>
 </g>
</svg>
