<?xml version="1.0" encoding="UTF-8" standalone="no"?>
<!-- Created with Inkscape (http://www.inkscape.org/) -->
<svg id="svg3837" xmlns:rdf="http://www.w3.org/1999/02/22-rdf-syntax-ns#" xmlns="http://www.w3.org/2000/svg" height="256" width="256" version="1.1" xmlns:cc="http://creativecommons.org/ns#" xmlns:xlink="http://www.w3.org/1999/xlink" xmlns:dc="http://purl.org/dc/elements/1.1/">
 <defs id="defs3839">
  <linearGradient id="linearGradient4389" y2="924.36" gradientUnits="userSpaceOnUse" x2="255.5" gradientTransform="matrix(1.0039 0 0 1.0039 795.86 -1056)" y1="924.36" x1=".49805">
   <stop id="stop4393" offset="0"/>
   <stop id="stop4395" stop-color="#969696" offset="1"/>
  </linearGradient>
  <radialGradient id="radialGradient4421" gradientUnits="userSpaceOnUse" cy="208.25" cx="139" gradientTransform="matrix(1 0 0 .31871 0 141.88)" r="85.5">
   <stop id="stop4417" stop-opacity=".65179" offset="0"/>
   <stop id="stop4419" stop-opacity="0" offset="1"/>
  </radialGradient>
  <filter id="filter4515" height="1.5122" width="1.1632" y="-.25611" x="-.081624">
   <feGaussianBlur id="feGaussianBlur4517" stdDeviation="5.8157318"/>
  </filter>
 </defs>
 <metadata id="metadata3842">
  <rdf:RDF>
   <cc:Work rdf:about="">
    <dc:format>image/svg+xml</dc:format>
    <dc:type rdf:resource="http://purl.org/dc/dcmitype/StillImage"/>
    <dc:title/>
   </cc:Work>
  </rdf:RDF>
 </metadata>
 <g id="layer1" transform="translate(0 -796.36)">
  <rect id="rect3845" transform="rotate(90)" height="256" width="256" y="-256" x="796.36" fill="url(#linearGradient4389)"/>
  <path id="path4413" d="m224.5 208.25c0 15.05-38.28 27.25-85.5 27.25s-85.5-12.2-85.5-27.25 38.28-27.25 85.5-27.25 85.5 12.2 85.5 27.25z" transform="matrix(1.1228 0 0 1 -28.07 806.86)" filter="url(#filter4515)" fill="url(#radialGradient4421)"/>
  <g id="g3690" transform="matrix(.87958 0 0 .87958 16 836.4)" stroke="#fff" stroke-width="3.4107">
   <g id="g3692" fill="#b21e35">
    <path id="path3695" d="m247.56 2.627h-38.005l0.071 89.827c-0.022 2.156-0.593 13.096-9.642 13.101-3.347 0.004-4.875-1.155-5.734-2.026-2.838-2.883-3.377-8.428-3.347-10.321l-0.065-90.58h-61.656l0.022 36.604 7-0.003c6.399-0.002 8.502 1.636 9.109 2.341 0.599 0.695 0.7 1.582 0.7 2.108 0 0.257-0.025 0.428-0.027 0.448-0.039 0.194-0.093 0.48-0.093 0.48l-0.027 0.817 0.036 60.281c0.008 11.715 3.883 21.767 11.201 29.071 7.616 7.604 18.576 11.783 30.859 11.772 9.046-0.006 16.304-2.199 21.775-4.795 0.005 0.87 0.017 1.763 0.017 2.607 0 6.158-0.189 11.421-1.138 12.568-0.246 0.19-1.611 0.938-8.021 0.943h-182.51v42.13h196.32c14.375-0.01 25.246-4.18 32.306-12.244 7.047-8.049 7.933-17.798 7.933-22.84 0-1.275 0.052-2.207 0-2.777-0.003-0.646 0-159.51 0-159.51h-7.088z"/>
    <path id="path3697" d="m18.083 143.95 43.666-0.03-0.065-93.65-0.054-0.482c-0.004-0.038-0.388-3.794 1.728-6.155 1.949-2.176 5.722-2.636 8.543-2.638 3.048-0.001 5.223 0.699 6.65 2.142 2.04 2.063 2.45 5.571 2.436 6.749l-0.002 0.176 0.061 70.619 0.004-0.251c-0.038 1.083-0.185 10.777 6.321 17.513 3.76 3.894 8.957 5.951 15.03 5.949 0.005 0 37.437-0.032 37.437-0.032l-0.022-36.933-7.991 1.042c-0.918 0.12-3.891 0.158-5.43-1.192-1.251-1.098-1.649-3.364-1.65-5.071v-66.601 0.284c0.02-0.6 0.55-14.802-9.39-25.137-6.55-6.813-15.772-10.262-27.408-10.253-11.994 0.012-20.675 3.342-26.869 7.445-0.001-2.073-0.003-4.817-0.003-4.817h-61.08l0.023 38.335 8.507-1.804c1.703-0.361 5.836-0.551 7.742 1.165 1.385 1.246 1.812 3.733 1.812 5.937v97.687z"/>
   </g>
   <g id="g3699" fill="#25316a">
    <path id="path3701" d="m149.76 105.7c0.008 10.67 3.479 19.78 10.055 26.347 6.891 6.876 16.883 10.658 28.139 10.647 11.988-0.007 20.525-4.079 25.584-7.476 0.008 1.188 0.019 2.829 0.019 2.829 0.022 2.392 0.044 4.593 0.044 6.605 0 8.042-0.339 13.045-2.248 14.975-1.419 1.434-4.537 2.021-10.76 2.026l-178.66 0.128v34.436l192.47-0.146c13.219-0.01 23.115-3.662 29.41-10.854 6.227-7.114 7.146-15.73 7.146-20.188 0-1.37-0.084-2.323-0.131-2.743 0-0.353-0.117-155.81-0.117-155.81h-37.305l0.068 85.973c-0.002 0.685-0.219 16.946-13.489 16.954-3.612 0.004-6.396-1.043-8.507-3.202-4.569-4.676-4.427-12.99-4.427-13.074 0.003-0.085-0.063-86.651-0.063-86.651h-53.95l0.021 28.902 3.147-0.001c5.882-0.003 10.072 1.306 12.117 3.784 2.04 2.47 1.471 5.495 1.446 5.623v60.919z"/>
    <path id="path3703" d="m21.935 140.1 35.962-0.027-0.063-89.612-0.027-0.214c-0.007-0.054-0.642-5.401 2.63-9.119 2.321-2.636 6.177-3.975 11.461-3.979 4.103-0.003 7.279 1.119 9.438 3.333 3.606 3.697 3.501 9.423 3.5 9.48-0.001 0.099 0.06 70.718 0.06 70.718-0.011 0.251-0.25 8.9 5.245 14.59 3.06 3.169 7.185 4.774 12.26 4.773 0.001 0 33.586-0.028 33.586-0.028l-0.019-28.754-3.615 0.525c-0.052 0.007-5.223 0.719-8.46-2.08-1.899-1.642-2.863-4.333-2.864-7.996 0-0.001-0.046-66.601-0.046-66.601 0.019-0.405 0.417-13.021-8.396-22.186-5.8-6.023-14.087-9.075-24.636-9.067-15.799 0.016-25.327 6.141-30.716 11.673-0.002-2.718-0.006-9.045-0.006-9.045h-53.38l0.019 29.772 3.842-0.854c0.07-0.016 7.104-1.528 11.108 2.04 2.023 1.804 3.114 4.752 3.114 8.787v93.872z"/>
   </g>
  </g>
  <g id="g8470" transform="matrix(.87958 0 0 .87958 16 836.4)">
   <g id="g8472" fill="#b21e35">
    <path id="path8474" d="m247.56 2.627h-38.005l0.071 89.827c-0.022 2.156-0.593 13.096-9.642 13.101-3.347 0.004-4.875-1.155-5.734-2.026-2.838-2.883-3.377-8.428-3.347-10.321l-0.065-90.58h-61.656l0.022 36.604 7-0.003c6.399-0.002 8.502 1.636 9.109 2.341 0.599 0.695 0.7 1.582 0.7 2.108 0 0.257-0.025 0.428-0.027 0.448-0.039 0.194-0.093 0.48-0.093 0.48l-0.027 0.817 0.036 60.281c0.008 11.715 3.883 21.767 11.201 29.071 7.616 7.604 18.576 11.783 30.859 11.772 9.046-0.006 16.304-2.199 21.775-4.795 0.005 0.87 0.017 1.763 0.017 2.607 0 6.158-0.189 11.421-1.138 12.568-0.246 0.19-1.611 0.938-8.021 0.943h-182.51v42.13h196.32c14.375-0.01 25.246-4.18 32.306-12.244 7.047-8.049 7.933-17.798 7.933-22.84 0-1.275 0.052-2.207 0-2.777-0.003-0.646 0-159.51 0-159.51h-7.088z"/>
    <path id="path8476" d="m18.083 143.95 43.666-0.03-0.065-93.65-0.054-0.482c-0.004-0.038-0.388-3.794 1.728-6.155 1.949-2.176 5.722-2.636 8.543-2.638 3.048-0.001 5.223 0.699 6.65 2.142 2.04 2.063 2.45 5.571 2.436 6.749l-0.002 0.176 0.061 70.619 0.004-0.251c-0.038 1.083-0.185 10.777 6.321 17.513 3.76 3.894 8.957 5.951 15.03 5.949 0.005 0 37.437-0.032 37.437-0.032l-0.022-36.933-7.991 1.042c-0.918 0.12-3.891 0.158-5.43-1.192-1.251-1.098-1.649-3.364-1.65-5.071v-66.601 0.284c0.02-0.6 0.55-14.802-9.39-25.137-6.55-6.813-15.772-10.262-27.408-10.253-11.994 0.012-20.675 3.342-26.869 7.445-0.001-2.073-0.003-4.817-0.003-4.817h-61.08l0.023 38.335 8.507-1.804c1.703-0.361 5.836-0.551 7.742 1.165 1.385 1.246 1.812 3.733 1.812 5.937v97.687z"/>
   </g>
   <g id="g8478" fill="#25316a">
    <path id="path8480" d="m149.76 105.7c0.008 10.67 3.479 19.78 10.055 26.347 6.891 6.876 16.883 10.658 28.139 10.647 11.988-0.007 20.525-4.079 25.584-7.476 0.008 1.188 0.019 2.829 0.019 2.829 0.022 2.392 0.044 4.593 0.044 6.605 0 8.042-0.339 13.045-2.248 14.975-1.419 1.434-4.537 2.021-10.76 2.026l-178.66 0.128v34.436l192.47-0.146c13.219-0.01 23.115-3.662 29.41-10.854 6.227-7.114 7.146-15.73 7.146-20.188 0-1.37-0.084-2.323-0.131-2.743 0-0.353-0.117-155.81-0.117-155.81h-37.305l0.068 85.973c-0.002 0.685-0.219 16.946-13.489 16.954-3.612 0.004-6.396-1.043-8.507-3.202-4.569-4.676-4.427-12.99-4.427-13.074 0.003-0.085-0.063-86.651-0.063-86.651h-53.95l0.021 28.902 3.147-0.001c5.882-0.003 10.072 1.306 12.117 3.784 2.04 2.47 1.471 5.495 1.446 5.623v60.919z"/>
    <path id="path8482" d="m21.935 140.1 35.962-0.027-0.063-89.612-0.027-0.214c-0.007-0.054-0.642-5.401 2.63-9.119 2.321-2.636 6.177-3.975 11.461-3.979 4.103-0.003 7.279 1.119 9.438 3.333 3.606 3.697 3.501 9.423 3.5 9.48-0.001 0.099 0.06 70.718 0.06 70.718-0.011 0.251-0.25 8.9 5.245 14.59 3.06 3.169 7.185 4.774 12.26 4.773 0.001 0 33.586-0.028 33.586-0.028l-0.019-28.754-3.615 0.525c-0.052 0.007-5.223 0.719-8.46-2.08-1.899-1.642-2.863-4.333-2.864-7.996 0-0.001-0.046-66.601-0.046-66.601 0.019-0.405 0.417-13.021-8.396-22.186-5.8-6.023-14.087-9.075-24.636-9.067-15.799 0.016-25.327 6.141-30.716 11.673-0.002-2.718-0.006-9.045-0.006-9.045h-53.38l0.019 29.772 3.842-0.854c0.07-0.016 7.104-1.528 11.108 2.04 2.023 1.804 3.114 4.752 3.114 8.787v93.872z"/>
   </g>
  </g>
 </g>
</svg>
