<?xml version="1.0" encoding="UTF-8" standalone="no"?>
<!-- Created with Inkscape (http://www.inkscape.org/) -->
<svg id="svg3837" xmlns:rdf="http://www.w3.org/1999/02/22-rdf-syntax-ns#" xmlns="http://www.w3.org/2000/svg" height="256" width="256" version="1.1" xmlns:cc="http://creativecommons.org/ns#" xmlns:xlink="http://www.w3.org/1999/xlink" xmlns:dc="http://purl.org/dc/elements/1.1/">
 <defs id="defs3839">
  <linearGradient id="linearGradient4389" y2="924.36" gradientUnits="userSpaceOnUse" x2="255.5" gradientTransform="matrix(1.0039 0 0 1.0039 795.86 -1056)" y1="924.36" x1=".49805">
   <stop id="stop4393" offset="0"/>
   <stop id="stop4395" stop-color="#969696" offset="1"/>
  </linearGradient>
  <radialGradient id="radialGradient4421" gradientUnits="userSpaceOnUse" cy="208.25" cx="139" gradientTransform="matrix(1 0 0 .31871 0 141.88)" r="85.5">
   <stop id="stop4417" stop-opacity=".65179" offset="0"/>
   <stop id="stop4419" stop-opacity="0" offset="1"/>
  </radialGradient>
  <filter id="filter4515" height="1.5122" width="1.1632" y="-.25611" x="-.081624">
   <feGaussianBlur id="feGaussianBlur4517" stdDeviation="5.8157318"/>
  </filter>
 </defs>
 <metadata id="metadata3842">
  <rdf:RDF>
   <cc:Work rdf:about="">
    <dc:format>image/svg+xml</dc:format>
    <dc:type rdf:resource="http://purl.org/dc/dcmitype/StillImage"/>
    <dc:title/>
   </cc:Work>
  </rdf:RDF>
 </metadata>
 <g id="layer1" transform="translate(0 -796.36)">
  <rect id="rect3845" transform="rotate(90)" height="256" width="256" y="-256" x="796.36" fill="url(#linearGradient4389)"/>
  <path id="path4413" d="m224.5 208.25a85.5 27.25 0 1 1 -171 0 85.5 27.25 0 1 1 171 0z" transform="matrix(1.1228 0 0 1 -28.07 806.86)" filter="url(#filter4515)" fill="url(#radialGradient4421)"/>
  <g id="g5721" transform="matrix(.93333 0 0 .93333 10.334 829.56)">
   <g id="g5723">
    <path id="path5725" fill="#fff" d="m245.15 81.455c-2.827-5.184-5.995-8.732-10.185-11.678-3.85-8.248-12.961-17.202-21.261-22.871 0.471-2.919 0.34-5.485 0.053-8.588l-0.184-1.885-1.31-1.349c-19.93-20.723-44.09-29.69-78.34-29.075-66.617 1.204-101 33.383-123.51 61.307l-4.346 5.394 6.284 2.919c0.249 0.104 4.255 1.951 8.758 3.771-5.289 15.461-0.419 40.191 15.906 53.557 14.387 11.756 24.69 15.71 36.604 20.266l1.427 0.55c10.447 4.006 19.218 10.944 27.702 17.635l3.43 2.696c3.711 3.051 6.618 5.721 9.708 8.549l5.603 5.054c7.881 6.349 14.322 9.661 26.445 9.452 14.505-0.275 27.466-6.965 35.557-18.354 4.607-6.192 6.807-11.966 8.482-17.281 2.933-9.19 0.498-17.936-2.173-21.811l1.335-0.104 0.236-0.013 0.235-0.04c11.494-1.897 21.051-6.925 28.461-14.911 5.263-5.668 7.331-9.714 8.902-13.248 5.629-3.562 10.159-9.229 12.123-13.354 1.676-3.521 3.849-8.627 4.634-13.026l0.341-1.885-0.917-1.677"/>
   </g>
   <path id="path5727" d="m208.37 38.829c-19.17-19.938-42.31-28.003-74.34-27.427-59.635 1.087-93.699 27.44-119.4 59.305 0 0 7.816 3.626 13.786 5.682-0.563 0.942-1.047 1.885-1.453 2.802-5.59 12.633-1.925 36.957 13.497 49.564 14.244 11.664 23.905 15.12 36.539 19.978 12.646 4.856 22.517 13.301 32.5 21.104 6.101 5.001 9.845 8.771 15.553 13.824 7.07 5.682 12.227 8.274 22.805 8.078 14.375-0.249 25.058-7.371 31.21-16.077 3.823-5.118 5.892-9.91 7.751-15.774 2.88-8.994-0.864-16.889-1.676-17.504-4.269 5.643-10.29 9.544-16.601 12.019-1.021-1.087-2.146-3.339-2.696-5.08s-1.781-6.166-0.419-9.033c8.012-2.71 14.636-5.8 17.123-7.056 2.462-1.244 4.739-3.194 6.258-3.613l-0.864 4.804 2.802-0.209c13.223-2.199 20.921-8.457 25.372-13.262 5.394-5.826 6.938-9.544 8.613-13.288 5.473-2.933 9.897-8.614 11.495-11.952 1.597-3.338 3.508-7.973 4.189-11.665-2.566-4.661-5.315-7.907-9.715-10.709-3.272-8.483-14.819-19.035-23.146-23.944 1.336-4.047 1.178-6.6 0.811-10.567"/>
   <path id="path5729" fill="#d2a941" d="m200.3 41.958c-20.66-19.297-40.14-23.067-66.14-22.596-42.222 0.759-57.958 15.265-75.906 28.395 15.317-4.935 32.99-6.166 40.178-6.349 9.308-0.236 14.708 0.079 20.416 0.798 0.026 0.026 0.105 0.053 0 0-7.619 4.176-18.361 8.994-25.64 13.812-14.021 8.392-27.256 17.897-39.13 28.762 0 0-10.997-2.958-18.132-4.674-1.702 4.713-3.037 13.903-1.636 20.462 12.895-5.838 36.053-10.996 55.18-11.572 24.042 0.053 39.621 2.356 61.274 7.776 7.096 4.792 14.558 10.015 22.937 12.49 6.415 2.565 13.799 0.196 19.82-1.637 4.399-1.283 8.641-3.548 12.07-6.297-9.714-9.531-23.093-14.191-36.734-16.273-0.341-0.406-1.519-0.196-0.969-0.956 3.43-0.288 5.708-0.576 10.971-0.327 5.315 0.249 15.448 0.812 24.167 2.121 8.692 1.296 11.651 4.346 15.238-0.301 1.859-3.116 4.32-6.545 5.185-8.85-2.33-4.805-5.656-9.544-10.5-13.104 0 0-0.419 5.708-1.754 7.567l-0.393-0.157c-1.598-4.883-3.954-10.971-8.169-14.767-0.629 2.631-1.545 5.184-3.09 7.436-0.262 0.118-0.393-0.105-0.576-0.209 0.341-4.7-1.31-8.955-3.037-12.987 2.566-1.494 4.556-5.434 4.373-8.563"/>
   <path id="path5731" fill="#d2a941" d="m232.74 84.636 0.026 0.563c-2.069 5.996-5.892 12.241-12.045 16.024-1.964-0.34-4.791 0.118-4.477-1.584 5.367-5.931 9.688-12.123 12.148-19.153 1.861 0.943 3.431 2.449 4.348 4.15"/>
   <path id="path5733" fill="#fff" d="m166.48 113.06c2.985 1.283 7.331 3.574 11.363 3.509 10.893 0.065 20.345-3.771 29.299-7.711l4.53-2.657 5.053 1.558c-2.827 8.457-11.86 17.739-20.527 19.31 3.666-3.783 6.467-7.292 7.829-12.122 0.209-0.772 0.288-2.54-0.131-2.828-0.419 0.772-2.487 5.367-4.635 6.559-0.314-0.641 0.235-3.914-0.497-4.438-0.157 0.824-3.09 5.485-4.582 6.231-0.498-0.812-0.367-4.137-1.101-4.478-0.262 0.825-2.304 4.032-4.006 4.975-0.209-0.327-0.288-4.137-0.732-4.123-4.189 7.448-12.62 14.047-21.575 15.422 2.802-3.823 5.577-7.999 6.074-12.869-13.458-7.41-28.88-11.01-37.651-11.508 1.598-0.864 3.901-2.33 7.148-3.247 1.44-0.497 5.158-1.335 5.158-1.335l3.115 1.99c4.766 2.826 12.857 6.492 15.868 7.762"/>
   <path id="path5735" fill="#fff" d="m105.16 98.081c-25.947-0.523-51.738 4.046-66.767 12.712 23.237-8.326 46.082-9.818 65.929-8.889 4.962 0.235 11.461 0.995 15.939 1.558 2.095-1.322 4.137-2.514 6.022-3.548-6.86-0.969-15.344-1.715-21.123-1.833"/>
   <path id="path5737" fill="#fff" d="m44.167 120.39c15.801-4.557 43.804-6.86 60.601-5.381 1.388-1.296 3.325-2.658 4.759-3.836-12.876-1.126-44.361-0.445-65.36 9.217"/>
   <path id="path5739" fill="#00839b" d="m128.06 120.85s1.466 5.263 3.221 8.862c1.78 3.613 3.142 7.711 7.069 9.871 0.523 0.458 1.151 0.668 1.807 0.825 0.131-0.484-0.891-1.375-1.388-2.605-3.063-6.088-3.247-10.525-3.535-15.265 3.509 0.55 8.169 2.317 10.447 3.705-0.707 4.464-0.733 8.68 0.812 13.301 0.838 2.436 2.226 4.792 3.194 6.401-2.33 2.16-4.87 4.661-7.776 6.441-10.447-4.608-18.511-13.772-21.994-23.303-3.273-1.179-8.667-1.218-11.003-1.165 1.918-2.854 7.914-7.384 10.061-8.444 0 0-0.393-0.078 1.519 0.104 1.911 0.172 7.566 1.272 7.566 1.272"/>
   <path id="path5741" fill="#fff" d="m64.97 67.5c-0.825 1.021-10.211 8.418-11.926 10.094l-26.55-7.449c21.103-5.238 38.476-2.645 38.476-2.645"/>
   <path id="path5743" d="m201.17 75.524v0.288c-4.084-0.039-10.237 0.524-12.829 1.152-2.566 0.641-5.682 1.532-8.013 3.063 0 0-1.832-0.445-2.984-0.668-1.545-0.314-5.42-0.825-6.52-0.694 6.336-4.176 16.548-5.472 23.25-4.674 2.043 0.251 4.897 0.539 7.096 1.533"/>
   <path id="path5745" d="m172.08 94.651 8.143 3.574c-0.419 0.969-2.042 2.029-3.168 2.802l-1.335 0.419c-17.1-6.772-34.9-12.087-53.89-14.588-12.3-1.532-23.646-1.741-36.542-1.283-4.373 0.104-13.235 1.125-17.66 1.885l-0.144-0.589c12.253-2.919 24.246-3.81 36.578-4.242 23.898 0.616 46.834 4.543 68.016 12.018"/>
   <path id="path5747" d="m156.94 57.092c4.503 3.024 8.641 6.69 13.379 9.504 4.713 1.034 10.002 1.034 14.061 3.155-1.78 0.34-10.421-0.458-18.563 3.521-3.352 1.649-9.374 4.752-11.39 8.117-9.92-10.264-24.27-14.217-38.7-13.196v-0.301c12.018-3.417 25.214-4.137 38.568-4.634-1.073-1.427-2.775-2.343-4.242-3.273-6.414-0.798-13.17-0.917-19.506-0.484 1.519-1.649 3.09-1.833 5.891-2.291 3.953-0.616 14.453-1.388 20.501-0.118"/>
   <path id="path5749" fill="#fff" d="m161.19 69.149c0.236 2.579-2.121 4.582-3.953 5.093-1.859 0.511-4.923 0.039-6.101-0.812-1.179-0.851-1.964-1.715-2.487-2.75 3.665 0.079 6.048 2.736 8.85 0.694 0.838-0.746 0.969-1.78 1.414-2.631l2.277 0.406"/>
   <path id="path5751" d="m123.06 22.766c1.073 0.131 2.042 0.956 2.54 2.042 0.602 4.647-3.168 8.47-6.022 9.989s-10.519 2.697-12.862 0.38c-1.938-1.938-0.576-4.818 2.068-5.368 1.42-0.301 4.091-0.38 6.264-1.375 1.78-0.825 3.744-3.456 4.059-4.189 0.314-0.733 2.566-1.676 3.953-1.479"/>
   <path id="path5753" d="m153.96 27.806c0.498 1.623-0.313 2.147-1.126 2.684-3.849 1.1-3.718-1.78-10.237-1.571-6.52 0.183-8.745 5.407-11.259 0.903-1.702-3.024 4.582-5.983 7.069-6.716 4.269-1.256 13.904-0.707 15.553 4.7"/>
   <path id="path5755" d="m165.87 26.667c0.184 0.969-0.052 1.833-0.419 3.168-0.34 1.335-1.388 2.932-3.089 3.521-0.76 0.249-3.456-0.026-3.901-1.401-1.073-3.208 1.754-4.517 0.995-7.03 2.016 0.25 4.66 0.983 6.414 1.742"/>
   <path id="path5757" d="m86.584 33.475c-1.178 1.728-3.05 6.598-7.829 7.672-0.89 0.209-1.571-0.092-1.95-0.288-0.419-0.209-0.445-2.998 0.681-3.482 1.989-1.153 6.859-3.051 9.098-3.902"/>
   <path id="path5759" d="m190.3 38.921c0.655 2.055 1.231 3.011 0.891 5.315-0.472 1.218-1.309 1.898-2.697 2.003-1.361 0.092-3.063-0.694-3.534-2.226-0.21-3.587-1.466-8.169-3.509-10.839 0.472 0.078 2.566 1.322 3.325 1.78 0.759 0.471 3.849 2.448 5.524 3.967"/>
   <path id="path5761" d="m152.39 37.952c0.025 1.519-3.797 3.639-7.829 3.535-2.017-0.052-6.624-1.362-6.467-3.928 0.183-2.579 5.001-3.705 7.069-3.613 3.299 0.118 7.2 1.885 7.227 4.006"/>
   <path id="path5763" d="m110.89 67.644c-0.183 1.519-4.235 3.168-8.228 2.553-1.977-0.314-6.402-2.173-5.917-4.713 0.498-2.527 5.42-3.037 7.449-2.71 3.273 0.523 6.906 2.762 6.696 4.87"/>
   <path id="path5765" d="m130.68 77.567c-0.157 1.493-4.189 3.168-8.222 2.592-1.963-0.288-6.389-2.121-5.917-4.661 0.471-2.54 5.367-3.077 7.41-2.762 3.273 0.511 6.938 2.723 6.729 4.831"/>
   <path id="path5767" d="m180.06 41.722c-0.864 1.244-5.21 0.772-8.457-1.663-1.571-1.204-4.582-4.936-2.959-6.938 1.624-1.99 6.206-0.118 7.829 1.126 2.645 2.029 4.793 5.721 3.587 7.475"/>
   <path id="path5769" d="m130.4 33.344c1.388 0.615 2.068 4.569-0.026 8.051-1.021 1.715-4.215 5.957-6.467 4.661-2.619-1.479-0.838-6.755 0.235-8.497 1.518-2.435 4.346-5.092 6.258-4.215"/>
   <path id="path5771" d="m167.94 43.228c2.696 1.872 6.702 1.165 7.409 3.993 0.733 2.828-1.309 3.94-2.984 3.888-5.813-0.157-10.997-2.631-13.327-8.784-0.341-0.903-0.445-3.457 0.89-4.006 4.268-1.781 4.974 2.84 8.012 4.909"/>
   <path id="path5773" d="m148.56 46.2c1.859-0.105 3.718-0.681 5.08 0.72 0.654 0.262 0.681 1.034 0.628 1.702-2.173 3.496-7.515 3.757-11.835 3.391-2.539-0.667-5.577-1.375-6.886-3.836-0.21-1.047 0.445-1.819 1.152-2.54 2.016-1.309 4.503 0.275 6.781 0.798 2.279 0.537 5.08-0.235 5.08-0.235"/>
   <path id="path5775" d="m128.54 49.931c3.482-0.798 4.688 1.086 5.027 1.689 0.341 0.589 0.55 2.435-1.178 3.666-4.085 2.906-11.181 0.772-12.725 0.327-1.519-0.445-5.42-3.129-5.944-6.271-0.262-1.532 0.131-3.011 1.99-3.587 2.67-0.825 4.844 2.579 5.577 3.208 1.179 0.981 3.798 1.779 7.253 0.968"/>
   <path id="path5777" d="m193.86 53.701c0.393 0.72 0.366 1.885-0.131 2.762-0.498 0.877-1.624 1.283-2.724 1.217-0.838-0.039-1.989-0.235-2.906-0.118-1.282 0.184-3.037 0.746-4.634 2.16-1.649 1.401-4.138 3.561-6.284 0.17-0.472-0.864-0.026-2.527 0.393-3.482 2.356-2.933 7.306-4.752 9.505-4.857 2.199-0.077 5.341-0.195 6.781 2.148"/>
   <path id="path5779" d="m169.64 54.094c1.859 1.061 4.688 3.757 3.692 5.381-0.864 1.466-5.473 0.759-7.331-0.197-1.859-0.969-5.133-4.019-3.613-5.891 1.204-1.479 6.021-0.026 7.252 0.707"/>
   <path id="path5781" d="m118.19 60.378c-0.026 1.361-1.309 2.801-2.566 3.011-2.514 0.065-3.404-1.951-5.158-2.945-3.502-2.069-6.932-1.414-9.995-0.603-0.655 0.157-2.448-0.235-2.684-1.191-0.419-0.707-0.55-2.645 0.969-3.745 3.98-2.854 10.316-2.173 13.988-0.641 3.666 1.545 5.446 4.726 5.446 6.114"/>
   <path id="path5783" d="m111.78 76.611c0.576-0.982 0.052-3.286-1.152-3.81-2.481-0.694-4.484 1.086-6.579 1.571-5.407 0.864-6.493-0.825-9.452-2.212-1.021-0.209-2.789-0.052-3.783 0.798-0.982 0.851-1.414 2.134-0.131 3.653 3.037 3.561 9.111 4.084 13.288 3.561 4.19-0.484 7.233-2.579 7.809-3.561"/>
   <path id="path5785" d="m87.094 67.905c-0.51-0.995-1.505-1.859-3.823-1.571-3.691 0.458-2.958 3.495-5.027 5.943-1.44 1.702-3.823 2.906-5.721 3.312-1.859 0.419-1.898 2.579-1.754 3.365 0.131 0.798 0.864 2.265 3.038 2.37 5.132 0.235 9.53-3.286 11.73-6.441 2.199-3.142 2.081-5.969 1.557-6.978"/>
   <path id="path5787" d="m36.797 85.657c1.558 1.061 3.81 1.768 5.25 1.741 1.466-0.026 5.237-1.767 6.192 0.668 0.524 1.283-0.379 3.495-1.584 4.084-3.221 1.951-7.528 2.212-10.669 0.379l0.811-6.872"/>
   <path id="path5789" d="m64.721 85.147c1.204 3.312-1.44 3.6-1.872 4.726 0 0-3.587 0.484-4.962 0.89-0.681 0.209-4.49 1.139-4.988 1.27 0.511-3.116 3.43-5.459 5.38-6.886 2.489-1.793 6.036-1.074 6.442 0"/>
   <path id="path5791" d="m102.45 30.83c0.786 1.296-1.427 5.08-4.961 7.043-1.741 0.956-6.402 2.186-7.554-0.131-1.165-2.304 2.422-5.708 4.229-6.69 2.918-1.557 7.173-2.015 8.286-0.222"/>
   <path id="path5793" fill="#d2a941" d="m168.8 175.56c-3.587 4.202-12.07 7.737-16.704 8.34-5.708 0.746-13.877-0.026-20.135-4.072-8.274-5.367-28.363-35.478-62.584-43.424 12.921-1.061 42.764 14.897 58.107 33.095 2.173 2.278 5.577 7.672 12.882 7.318 6.389-0.484 8.98-2.356 12.438-3.482 7.854-3.103 11.441-2.369 12.96-0.981 3.01 2.76 3.036 3.206 3.036 3.206"/>
   <path id="path5795" fill="#fff" d="m167.13 165.22c2.436 1.636 5.473 4.307 5.473 4.307s1.492-0.89 2.356-1.95c0.838-1.048 4.687-7.58 5.027-12.843-3.535 3.6-5.996 6.035-9.086 8.038-0.523 0.301-1.283 0.642-1.283 0.642-0.025-0.825 0.105-3.352-0.602-4.647 0 0-2.724 3.548-3.273 3.836-0.078-1.82-0.313-3.823-0.759-4.451 0 0-3.928 3.77-4.373 3.861-0.078-1.073-0.628-3.613-0.942-4.084 0 0-3.115 3.927-4.137 4.582-0.707 0.458-0.838 0.196-0.785-0.196 0.732-3.26 1.361-8.117 1.047-11.6-1.283 1.257-3.456 3.587-5.105 5.211-1.676 1.636-6.834 5.629-10.29 7.121-1.99-0.432-3.272-1.662-4.817-2.657-1.755-1.637-3.325-2.959-4.923-4.543-1.571-1.584-9.295-7.488-14.558-9.897 8.719 7.096 12.463 15.553 20.004 23.526 0 0 0.995 1.597 5.001 0.523 2.409-0.629 5.446-1.244 9.295-2.645 3.64-1.14 7.305-2.487 11.232-3.012 1.807-0.602 4.425 0.132 5.498 0.878"/>
  </g>
 </g>
</svg>
