<?xml version="1.0" encoding="UTF-8" standalone="no"?>
<!-- Created with Inkscape (http://www.inkscape.org/) -->
<svg id="svg3837" xmlns:rdf="http://www.w3.org/1999/02/22-rdf-syntax-ns#" xmlns="http://www.w3.org/2000/svg" height="256" width="256" version="1.1" xmlns:cc="http://creativecommons.org/ns#" xmlns:xlink="http://www.w3.org/1999/xlink" xmlns:dc="http://purl.org/dc/elements/1.1/">
 <defs id="defs3839">
  <linearGradient id="linearGradient4389" y2="924.36" gradientUnits="userSpaceOnUse" x2="255.5" gradientTransform="matrix(1.0039 0 0 1.0039 795.86 -1056)" y1="924.36" x1=".49805">
   <stop id="stop4393" offset="0"/>
   <stop id="stop4395" stop-color="#969696" offset="1"/>
  </linearGradient>
  <radialGradient id="radialGradient4421" gradientUnits="userSpaceOnUse" cy="208.25" cx="139" gradientTransform="matrix(1 0 0 .31871 0 141.88)" r="85.5">
   <stop id="stop4417" stop-opacity=".65179" offset="0"/>
   <stop id="stop4419" stop-opacity="0" offset="1"/>
  </radialGradient>
  <filter id="filter4515" height="1.5122" width="1.1632" y="-.25611" x="-.081624">
   <feGaussianBlur id="feGaussianBlur4517" stdDeviation="5.8157318"/>
  </filter>
 </defs>
 <metadata id="metadata3842">
  <rdf:RDF>
   <cc:Work rdf:about="">
    <dc:format>image/svg+xml</dc:format>
    <dc:type rdf:resource="http://purl.org/dc/dcmitype/StillImage"/>
    <dc:title/>
   </cc:Work>
  </rdf:RDF>
 </metadata>
 <g id="layer1" transform="translate(0 -796.36)">
  <rect id="rect3845" transform="rotate(90)" height="256" width="256" y="-256" x="796.36" fill="url(#linearGradient4389)"/>
  <path id="path4413" d="m224.5 208.25a85.5 27.25 0 1 1 -171 0 85.5 27.25 0 1 1 171 0z" transform="matrix(1.1228 0 0 1 -28.07 806.86)" filter="url(#filter4515)" fill="url(#radialGradient4421)"/>
  <g id="g3" fill-rule="evenodd" clip-rule="evenodd" transform="matrix(.896 0 0 .896 16 861.52)">
   <path id="path5" d="m250 70.141c0-33.859-55.5-70.141-125-70.141-66.535 0-125 36.504-125 70.141s58.465 70.142 125 70.142c69.497 0 125-36.283 125-70.142z" fill="#0c371d"/>
   <path id="path7" d="m173.35 33.65v7.369h11.74l0.074-0.005c0.631-0.042 1.661 0.124 1.893 0.502 0.203 0.354 0.139 1.627-1.48 4.157-0.019 0.034-11.307 18.829-15.496 25.809l-16.53-26.438c-1.372-2.105-1.211-2.943-1.048-3.25 0.298-0.558 0.76-0.712 1.716-0.774h0.03 0.045 8.467v-7.37l-63.665-0.008v7.338h8.05c1.636 0 2.769 0.329 3.442 1.005 1.125 1.124 1.356 3.504 1.356 6.726v27.036l-32.241-42.08h-31.798v7.708h10.442c1.108 0 1.892 0.21 2.3 0.627 0.809 0.8 0.809 2.845 0.809 4.817v42.45c0 7.027-0.75 8.955-3.506 8.978h-10.13v6.797h34.088v-6.871h-9.624c-1.618 0.014-2.776-0.063-3.195-0.472-0.895-0.891-0.971-4.816-0.971-8.428v-37.36l43.918 53.202h6.885s0.047-59.221 0-60.272c-0.078-1.61 0.363-3.45 3.235-3.819h6.841c3.167-0.014 5.237 3.819 7.368 7.436 0 0 16.446 27.959 18.635 31.66v13.493c0 4.577-2.034 4.577-2.896 4.577h-7.718v6.88h40.461v-6.94h-7.385c-2.863-0.154-3.858-0.977-3.748-5.227v-13.927l19.749-33.121c2.823-4.383 3.122-4.839 6.998-4.788h6.693v-7.407h-33.824z" fill="#fff"/>
   <path id="path9" d="m175.19 35.49v3.689h9.822s7.272-0.605 2.12 7.482l-17.03 28.342-18.12-28.985c-4.702-7.466 2.311-6.839 2.311-6.839h6.625v-3.689l-59.972-0.009v3.659h6.207c5.955 0 6.636 3.837 6.636 9.571v32.46l-34.993-45.664h-29.046v4.03h8.603c5.49-0.01 4.89 4.313 4.951 8.521v41.211c0 5.731-0.238 10.779-5.334 10.816h-8.304v3.118h30.409v-3.199h-7.786c-5.206 0.044-6.006-0.749-6.006-10.735v-42.923l46.634 56.929h3.808v-54.964c0-5.729 0.112-8.91 5.436-9.127h7.571c4.046 0.293 6.192 4.969 9.049 9.871l18.055 30.563v13.994c0 4.349-1.702 6.419-4.728 6.419h-5.875v3.197h36.78v-3.266h-5.605c-4.51-0.237-5.67-2.55-5.55-7.124v-14.382l18.604-31.422c4.157-6.239 4.387-7.896 10.007-7.819h4.832v-3.727h-30.147z" fill="#0c371d"/>
   <path id="path11" d="m153.3 104.14c0-8.325-12.57-17.24-28.3-17.24-15.065 0-28.307 8.97-28.307 17.236 0 8.262 13.241 17.23 28.307 17.23 15.731 0.001 28.303-8.912 28.303-17.23z" fill="#0c371d"/>
   <path id="path13" d="m151.4 103.21c-0.92-7.124-12.3-14.405-26.4-14.405-13.502 0-25.428 7.32-26.406 14.402h52.81z" fill="#fff"/>
   <path id="path15" d="m98.594 105.05c0.961 7.087 12.897 14.418 26.406 14.418 14.112 0 25.502-7.292 26.415-14.418h-52.826z" fill="#fff"/>
   <path id="path17" d="m115.45 110.29c-3.577 0-6.483-2.755-6.483-6.149 0-3.399 2.906-6.154 6.483-6.154h19.098c3.576 0 6.473 2.755 6.473 6.154 0 3.395-2.896 6.149-6.473 6.149h-19.098z" fill="#0c371d"/>
   <path id="path19" d="m135.54 101.39c-0.044-0.184-0.086-0.361-0.137-0.545h-1.806c0.071 0.192 0.118 0.387 0.169 0.584 0.146 0.579 0.248 1.175 0.299 1.785h-3.229c-0.047-0.568-0.136-1.126-0.264-1.642l-1.746 0.022c0.162 0.519 0.272 1.06 0.335 1.619h-3.265v-1.54h-1.806v1.54h-3.271c0.068-0.56 0.169-1.101 0.333-1.619l-1.74-0.022c-0.125 0.516-0.21 1.073-0.263 1.642h-3.236c0.059-0.61 0.152-1.206 0.308-1.785 0.049-0.197 0.101-0.392 0.16-0.584h-1.804c-0.044 0.184-0.087 0.361-0.129 0.545-0.204 0.898-0.307 1.831-0.307 2.794 0 1.118 0.144 2.202 0.408 3.241l1.818 0.021c-0.239-0.767-0.395-1.566-0.463-2.392h3.237c0.042 0.572 0.135 1.144 0.271 1.689l1.714-0.021c-0.161-0.538-0.265-1.099-0.317-1.668h3.281v1.592h1.806v-1.592h3.278c-0.051 0.569-0.159 1.13-0.32 1.668l1.718 0.021c0.137-0.546 0.23-1.117 0.272-1.689h3.237c-0.068 0.825-0.221 1.625-0.46 2.392l1.806-0.021c0.272-1.039 0.421-2.123 0.421-3.241 0.001-0.963-0.113-1.895-0.308-2.794z" fill="#fff"/>
   <path id="path21" d="m207.37 57.909c-1.871-3.539-6.82-5.558-14.302-5.842-5.5-0.18-9.812 0.105-13.229 0.983l-90.02 0.039c2.615-4.895 4.601-8.599 4.601-8.599h-22.199l-15.246 28.691c-1.236 1.811-1.407 1.917-2.675 1.781-0.363-0.035-0.61-0.09-0.774-0.137 0.229-0.787 1.132-2.313 1.465-2.867-0.009 0.017 5.306-8.729 5.306-8.729h-20.7l-0.621 0.856c-5.683 7.829-7.368 14.14-4.991 18.756 2.273 4.434 7.862 6.656 16.608 6.601 8.826-0.05 14.379-0.468 18.799-3.352h44.908l11.574-21.614h9.979l-11.519 21.576h22.922l7.205-13.518h9.704l-0.505 1.229c-1.771 4.354-0.817 7.238 0.288 8.89 2.174 3.236 6.841 4.881 13.869 4.897 11.839-0.025 19.396-1.11 23.014-6.619 2.998-4.552 3.441-8.695 1.261-11.678-0.597-0.842-1.548-1.575-2.675-2.206h6.525l0.613-0.979c2.293-3.691 1.706-6.472 0.81-8.159z" fill="#0c371d"/>
   <path id="path23" d="m56.61 65.299h-15.954c-10.726 14.757-5.461 22.168 9.932 22.073 14.011-0.085 18.936-0.982 24.777-11.661l15.598-29.151h-17.489l-14.728 27.695c-1.38 2.026-2.153 3.032-4.659 2.768-3.967-0.417-2.887-2.738-0.876-6.124l3.399-5.6z" fill="#fff"/>
   <polygon id="polygon25" points="133.03 55.12 129.1 62.407 139.3 62.407 127.79 83.978 127.79 83.978 146.01 83.978 157.5 62.584 165.89 62.584 169.92 55.12" fill="#fff"/>
   <path id="path27" d="m165.58 74.544c-2.784 6.844 1.431 10.911 12.248 10.934 11.706-0.022 18.263-1.101 21.279-5.687 2.055-3.118 3.228-6.725 1.31-9.326-1.31-1.875-6.028-3.507-10.492-4.375-2.845-0.554-3.843-1.236-3.647-2.913 0.18-1.524 2.079-1.879 3.503-1.461 1.149 0.337 1.651 1.768 1.465 3.262h13.554c3.668-5.907-0.582-10.414-11.817-10.839-13.901-0.456-19.199 2.104-21.998 9.183-1.398 3.279-1.169 5.805 0.866 7.143 2.54 1.664 9.565 2.721 11.661 3.496 1.269 0.473 1.447 2.03 0.733 2.951-0.835 1.057-2.829 1.56-4.09 0.58-0.867-0.673-0.723-1.508-1.015-2.948h-13.56z" fill="#fff"/>
   <polygon id="polygon29" points="116.69 73.234 120.67 65.801 104.72 65.801 106.32 62.444 123.57 62.444 127.45 55.157 93.638 55.157 78.186 84.02 78.186 84.02 113.06 84.02 116.97 76.729 97.887 76.729 99.718 73.234" fill="#fff"/>
  </g>
 </g>
</svg>
