<?xml version="1.0" encoding="UTF-8" standalone="no"?>
<!-- Created with Inkscape (http://www.inkscape.org/) -->
<svg id="svg3001" xmlns:rdf="http://www.w3.org/1999/02/22-rdf-syntax-ns#" xmlns="http://www.w3.org/2000/svg" xmlns:osb="http://www.openswatchbook.org/uri/2009/osb" height="1080" width="1920" version="1.1" xmlns:cc="http://creativecommons.org/ns#" xmlns:xlink="http://www.w3.org/1999/xlink" xmlns:dc="http://purl.org/dc/elements/1.1/">
 <defs id="defs3003">
  <radialGradient id="radialGradient3851" gradientUnits="userSpaceOnUse" cy="382.86" cx="940" gradientTransform="matrix(1.0826 0 0 1.0826 -77.689 -31.642)" r="961.43">
   <stop id="stop3847" offset="0"/>
   <stop id="stop3849" stop-opacity="0" offset="1"/>
  </radialGradient>
  <linearGradient id="linearGradient4063" y2="180.51" gradientUnits="userSpaceOnUse" x2="948.95" gradientTransform="translate(0,-15)" y1="844.96" x1="948.95">
   <stop id="stop4059" stop-color="#0b3b6f" offset="0"/>
   <stop id="stop4061" offset="1"/>
  </linearGradient>
  <pattern id="pattern3050" width="2000" patternUnits="userSpaceOnUse" patternTransform="translate(-1032.6 -17.209)" height="700">
   <g id="layer1-74" transform="translate(40 -367.36)">
    <path id="use4720" d="m1960 967.36-100 100h20l80-80zm-100 0h20l-20 20zm100-100-100 100h20l80-80zm-100 0h20l-20 20zm100-100-100 100h20l80-80zm-100 0h20l-20 20zm100-100-100 100h20l80-80zm-100 0h20l-20 20zm100-100-100 100h20l80-80zm-100 0h20l-20 20zm100-100-100 100h20l80-80zm-100 0h20l-20 20zm100-100-100 100h20l80-80zm-100 0h20l-20 20zm0 600-100 100h20l80-80zm-100 0h20l-20 20zm100-100-100 100h20l80-80zm-100 0h20l-20 20zm100-100-100 100h20l80-80zm-100 0h20l-20 20zm100-100-100 100h20l80-80zm-100 0h20l-20 20zm100-100-100 100h20l80-80zm-100 0h20l-20 20zm100-100-100 100h20l80-80zm-100 0h20l-20 20zm100-100-100 100h20l80-80zm-100 0h20l-20 20zm0 600-100 100h20l80-80zm-100 0h20l-20 20zm100-100-100 100h20l80-80zm-100 0h20l-20 20zm100-100-100 100h20l80-80zm-100 0h20l-20 20zm100-100-100 100h20l80-80zm-100 0h20l-20 20zm100-100-100 100h20l80-80zm-100 0h20l-20 20zm100-100-100 100h20l80-80zm-100 0h20l-20 20zm100-100-100 100h20l80-80zm-100 0h20l-20 20zm0 600-100 100h20l80-80zm-100 0h20l-20 20zm100-100-100 100h20l80-80zm-100 0h20l-20 20zm100-100-100 100h20l80-80zm-100 0h20l-20 20zm100-100-100 100h20l80-80zm-100 0h20l-20 20zm100-100-100 100h20l80-80zm-100 0h20l-20 20zm100-100-100 100h20l80-80zm-100 0h20l-20 20zm100-100-100 100h20l80-80zm-100 0h20l-20 20zm0 600-100 100h20l80-80zm-100 0h20l-20 20zm100-100-100 100h20l80-80zm-100 0h20l-20 20zm100-100-100 100h20l80-80zm-100 0h20l-20 20zm100-100-100 100h20l80-80zm-100 0h20l-20 20zm100-100-100 100h20l80-80zm-100 0h20l-20 20zm100-100-100 100h20l80-80zm-100 0h20l-20 20zm100-100-100 100h20l80-80zm-100 0h20l-20 20zm0 600-100 100h20l80-80zm-100 0h20l-20 20zm100-100-100 100h20l80-80zm-100 0h20l-20 20zm100-100-100 100h20l80-80zm-100 0h20l-20 20zm100-100-100 100h20l80-80zm-100 0h20l-20 20zm100-100-100 100h20l80-80zm-100 0h20l-20 20zm100-100-100 100h20l80-80zm-100 0h20l-20 20zm100-100-100 100h20l80-80zm-100 0h20l-20 20zm0 600-100 100h20l80-80zm-100 0h20l-20 20zm100-100-100 100h20l80-80zm-100 0h20l-20 20zm100-100-100 100h20l80-80zm-100 0h20l-20 20zm100-100-100 100h20l80-80zm-100 0h20l-20 20zm100-100-100 100h20l80-80zm-100 0h20l-20 20zm100-100-100 100h20l80-80zm-100 0h20l-20 20zm100-100-100 100h20l80-80zm-100 0h20l-20 20zm0 600-100 100h20l80-80zm-100 0h20l-20 20zm100-100-100 100h20l80-80zm-100 0h20l-20 20zm100-100-100 100h20l80-80zm-100 0h20l-20 20zm100-100-100 100h20l80-80zm-100 0h20l-20 20zm100-100-100 100h20l80-80zm-100 0h20l-20 20zm100-100-100 100h20l80-80zm-100 0h20l-20 20zm100-100-100 100h20l80-80zm-100 0h20l-20 20zm0 600-100 100h20l80-80zm-100 0h20l-20 20zm100-100-100 100h20l80-80zm-100 0h20l-20 20zm100-100-100 100h20l80-80zm-100 0h20l-20 20zm100-100-100 100h20l80-80zm-100 0h20l-20 20zm100-100-100 100h20l80-80zm-100 0h20l-20 20zm100-100-100 100h20l80-80zm-100 0h20l-20 20zm100-100-100 100h20l80-80zm-100 0h20l-20 20zm0 600-100 100h20l80-80zm-100 0h20l-20 20zm100-100-100 100h20l80-80zm-100 0h20l-20 20zm100-100-100 100h20l80-80zm-100 0h20l-20 20zm100-100-100 100h20l80-80zm-100 0h20l-20 20zm100-100-100 100h20l80-80zm-100 0h20l-20 20zm100-100-100 100h20l80-80zm-100 0h20l-20 20zm100-100-100 100h20l80-80zm-100 0h20l-20 20zm0 600-100 100h20l80-80zm-100 0h20l-20 20zm100-100-100 100h20l80-80zm-100 0h20l-20 20zm100-100-100 100h20l80-80zm-100 0h20l-20 20zm100-100-100 100h20l80-80zm-100 0h20l-20 20zm100-100-100 100h20l80-80zm-100 0h20l-20 20zm100-100-100 100h20l80-80zm-100 0h20l-20 20zm100-100-100 100h20l80-80zm-100 0h20l-20 20zm0 600-100 100h20l80-80zm-100 0h20l-20 20zm100-100-100 100h20l80-80zm-100 0h20l-20 20zm100-100-100 100h20l80-80zm-100 0h20l-20 20zm100-100-100 100h20l80-80zm-100 0h20l-20 20zm100-100-100 100h20l80-80zm-100 0h20l-20 20zm100-100-100 100h20l80-80zm-100 0h20l-20 20zm100-100-100 100h20l80-80zm-100 0h20l-20 20zm0 600-100 100h20l80-80zm-100 0h20l-20 20zm100-100-100 100h20l80-80zm-100 0h20l-20 20zm100-100-100 100h20l80-80zm-100 0h20l-20 20zm100-100-100 100h20l80-80zm-100 0h20l-20 20zm100-100-100 100h20l80-80zm-100 0h20l-20 20zm100-100-100 100h20l80-80zm-100 0h20l-20 20zm100-100-100 100h20l80-80zm-100 0h20l-20 20zm0 600-100 100h20l80-80zm-100 0h20l-20 20zm100-100-100 100h20l80-80zm-100 0h20l-20 20zm100-100-100 100h20l80-80zm-100 0h20l-20 20zm100-100-100 100h20l80-80zm-100 0h20l-20 20zm100-100-100 100h20l80-80zm-100 0h20l-20 20zm100-100-100 100h20l80-80zm-100 0h20l-20 20zm100-100-100 100h20l80-80zm-100 0h20l-20 20zm0 600-100 100h20l80-80zm-100 0h20l-20 20zm100-100-100 100h20l80-80zm-100 0h20l-20 20zm100-100-100 100h20l80-80zm-100 0h20l-20 20zm100-100-100 100h20l80-80zm-100 0h20l-20 20zm100-100-100 100h20l80-80zm-100 0h20l-20 20zm100-100-100 100h20l80-80zm-100 0h20l-20 20zm100-100-100 100h20l80-80zm-100 0h20l-20 20zm0 600-100 100h20l80-80zm-100 0h20l-20 20zm100-100-100 100h20l80-80zm-100 0h20l-20 20zm100-100-100 100h20l80-80zm-100 0h20l-20 20zm100-100-100 100h20l80-80zm-100 0h20l-20 20zm100-100-100 100h20l80-80zm-100 0h20l-20 20zm100-100-100 100h20l80-80zm-100 0h20l-20 20zm100-100-100 100h20l80-80zm-100 0h20l-20 20zm0 600-100 100h20l80-80zm-100 0h20l-20 20zm100-100-100 100h20l80-80zm-100 0h20l-20 20zm100-100-100 100h20l80-80zm-100 0h20l-20 20zm100-100-100 100h20l80-80zm-100 0h20l-20 20zm100-100-100 100h20l80-80zm-100 0h20l-20 20zm100-100-100 100h20l80-80zm-100 0h20l-20 20zm100-100-100 100h20l80-80zm-100 0h20l-20 20zm0 600-100 100h20l80-80zm-100 0h20l-20 20zm100-100-100 100h20l80-80zm-100 0h20l-20 20zm100-100-100 100h20l80-80zm-100 0h20l-20 20zm100-100-100 100h20l80-80zm-100 0h20l-20 20zm100-100-100 100h20l80-80zm-100 0h20l-20 20zm100-100-100 100h20l80-80zm-100 0h20l-20 20zm100-100-100 100h20l80-80zm-100 0h20l-20 20zm0 600-100 100h20l80-80zm-100 0h20l-20 20zm100-100-100 100h20l80-80zm-100 0h20l-20 20zm100-100-100 100h20l80-80zm-100 0h20l-20 20zm100-100-100 100h20l80-80zm-100 0h20l-20 20zm100-100-100 100h20l80-80zm-100 0h20l-20 20zm100-100-100 100h20l80-80zm-100 0h20l-20 20zm100-100-100 100h20l80-80zm-100 0h20l-20 20zm0 600-100 100h20l80-80zm-100 0h20l-20 20zm100-100-100 100h20l80-80zm-100 0h20l-20 20zm100-100-100 100h20l80-80zm-100 0h20l-20 20zm100-100-100 100h20l80-80zm-100 0h20l-20 20zm100-100-100 100h20l80-80zm-100 0h20l-20 20zm100-100-100 100h20l80-80zm-100 0h20l-20 20zm100-100-100 100h20l80-80zm-100 0h20l-20 20zm100 0-100 100h20l80-80zm-100 0h20l-20 20z"/>
   </g>
  </pattern>
 </defs>
 <metadata id="metadata3006">
  <rdf:RDF>
   <cc:Work rdf:about="">
    <dc:format>image/svg+xml</dc:format>
    <dc:type rdf:resource="http://purl.org/dc/dcmitype/StillImage"/>
    <dc:title/>
   </cc:Work>
  </rdf:RDF>
 </metadata>
 <g id="layer1" transform="translate(0 27.638)">
  <path id="path3835" d="m2115.7 382.86c0 649.33-526.39 1175.7-1175.7 1175.7-649.33 0-1175.7-526.39-1175.7-1175.7 0-649.33 526.39-1175.7 1175.7-1175.7 649.33 0 1175.7 526.39 1175.7 1175.7z" transform="translate(20 -27.638)" filter="url(#filter3869)" fill="url(#radialGradient3851)"/>
  <rect id="rect4055" height="670" width="1920" y="162.36" x="0" fill="url(#linearGradient4063)"/>
  <rect id="rect3032" opacity=".2" height="670" width="1920" y="162.36" x="0" fill="url(#pattern3050)"/>
  <rect id="rect4540" height="40" width="1920" y="831.36" x="0" fill="#b6061e"/>
  <g id="g4015">
   <g id="g3973" transform="matrix(4.0072 0 0 4.0072 -493.83 -1359.3)" stroke="#fff" fill="#fff">
    <path id="path3975" d="m273.33 527.41 0.43967-156.59c30.818 26.82 77.857-0.27694 89.251-21.983 22.184 39.472 77.194 37.772 88.812 21.543l0.43967 161.8c-0.22004 35.557-68.329 18.58-89.459 53.13-21.442-37.594-88.138-16.181-89.483-57.895z" fill-rule="evenodd" stroke-width="6.4882"/>
    <path id="path3977" d="m281.16 523.43 0.40116-78.46 162.47-0.042 0.40116 82.693c0.1091 32.496-62.346 16.341-81.626 46.729-19.565-33.065-81.349-13.276-81.648-50.92z" fill-rule="evenodd" stroke-width="6.4882"/>
    <path id="path3979" d="m341.83 436.06c2.0898-10.249 5.0266-19.368 8.7429-27.449l-3.4565-1.8299 1.2199-2.2366c8.4605 1.9968 7.8261 3.1588 10.369 4.6764l-1.6266 2.8465-4.0665-1.8299c-5.38 8.4584-7.0688 17.444-8.7429 26.432 22.168-1.1544 52.754-18.597 38.225-57.134-3.2892 1.4867-6.401 3.3282-9.1495 5.8964l2.8465 2.6432-2.0332 1.8299c-2.0558-2.2139-4.3465-4.193-8.5396-4.2698l2.6432-1.8299 3.4565 0.40664c1.6729-2.0332 4.563-4.0665 8.9462-6.0997-32.539-0.22718-47.638 22.864-38.835 57.947z" fill-rule="evenodd" stroke-width="6.4882"/>
    <path id="path3981" d="m225.8 340.77-22.721-16.118-22.577 16.318 8.3076-26.59-22.497-16.43 27.856-0.31563 8.6738-26.473 8.908 26.395 27.857 0.0688-22.35 16.628 8.5429 26.515z" transform="matrix(.32478 0 0 .32478 226.94 299.45)" stroke-width="19.977"/>
    <path id="path3983" d="m225.8 340.77-22.721-16.118-22.577 16.318 8.3076-26.59-22.497-16.43 27.856-0.31563 8.6738-26.473 8.908 26.395 27.857 0.0688-22.35 16.628 8.5429 26.515z" transform="matrix(.32478 0 0 .32478 258.08 299.45)" stroke-width="19.977"/>
    <path id="path3985" d="m225.8 340.77-22.721-16.118-22.577 16.318 8.3076-26.59-22.497-16.43 27.856-0.31563 8.6738-26.473 8.908 26.395 27.857 0.0688-22.35 16.628 8.5429 26.515z" transform="matrix(.32478 0 0 .32478 226.94 326.96)" stroke-width="19.977"/>
    <path id="path3987" d="m225.8 340.77-22.721-16.118-22.577 16.318 8.3076-26.59-22.497-16.43 27.856-0.31563 8.6738-26.473 8.908 26.395 27.857 0.0688-22.35 16.628 8.5429 26.515z" transform="matrix(.32478 0 0 .32478 258.08 326.96)" stroke-width="19.977"/>
    <path id="path3989" d="m225.8 340.77-22.721-16.118-22.577 16.318 8.3076-26.59-22.497-16.43 27.856-0.31563 8.6738-26.473 8.908 26.395 27.857 0.0688-22.35 16.628 8.5429 26.515z" transform="matrix(.32478 0 0 .32478 335.93 299.45)" stroke-width="19.977"/>
    <path id="path3991" d="m225.8 340.77-22.721-16.118-22.577 16.318 8.3076-26.59-22.497-16.43 27.856-0.31563 8.6738-26.473 8.908 26.395 27.857 0.0688-22.35 16.628 8.5429 26.515z" transform="matrix(.32478 0 0 .32478 367.07 299.45)" stroke-width="19.977"/>
    <path id="path3993" d="m225.8 340.77-22.721-16.118-22.577 16.318 8.3076-26.59-22.497-16.43 27.856-0.31563 8.6738-26.473 8.908 26.395 27.857 0.0688-22.35 16.628 8.5429 26.515z" transform="matrix(.32478 0 0 .32478 335.93 326.96)" stroke-width="19.977"/>
    <path id="path3995" d="m225.8 340.77-22.721-16.118-22.577 16.318 8.3076-26.59-22.497-16.43 27.856-0.31563 8.6738-26.473 8.908 26.395 27.857 0.0688-22.35 16.628 8.5429 26.515z" transform="matrix(.32478 0 0 .32478 367.07 326.96)" stroke-width="19.977"/>
    <path id="path3997" d="m350.78 400.68c4.9588 1.5566 7.4659 3.6035 9.7595 5.693l2.0332-2.8465c-2.4764-2.81-6.505-4.0678-10.573-5.2864l-1.2199 2.4399z" fill-rule="evenodd" stroke-width="6.4882"/>
    <path id="path3999" d="m354.84 395.6c4.9588 1.5565 7.4659 3.6034 9.7595 5.693l2.0332-2.8465c-2.4764-2.8099-6.505-4.0678-10.573-5.2864l-1.2199 2.4399z" fill-rule="evenodd" stroke-width="6.4882"/>
    <path id="path4001" d="m360.33 389.7c4.9588 1.5566 7.4659 3.6035 9.7595 5.693l2.0332-2.8465c-2.4764-2.8099-6.505-4.0678-10.573-5.2864l-1.2199 2.4399z" fill-rule="evenodd" stroke-width="6.4882"/>
    <path id="path4003" d="m291 452.53 0.20334 11.386 6.0997 2.6432 0.40666 54.897-6.7097 2.6432v8.5396l24.195 6.0997-0.20333-10.369-4.6764-4.8798-0.20333-29.075 16.266 46.764 12.403 3.8631 0.60996-78.483 4.0665-3.2532v-10.776h-22.975v10.776l5.2864 3.0498 0.20333 35.988-16.266-50.017-18.706 0.20332z" fill-rule="evenodd" stroke-width="6.4882"/>
    <path id="path4005" d="m348.13 538.54 0.20333 8.7429 23.585 8.7429v-10.166l-5.0831-5.4897v-39.241l7.523 0.20333 3.6598 4.6764 6.0997-0.20333 0.20332-21.552-6.913-0.20332-2.8465 4.6764-7.523 0.20332v-23.382l9.3528 0.40664 3.4565 7.9296 9.1495-0.20334 0.20332-20.739h-41.681l0.20333 10.573 5.2864 3.4565 0.60998 68.926-5.4897 2.6432z" fill-rule="evenodd" stroke-width="6.4882"/>
    <path id="path4007" d="m393.27 452.73v10.979l4.2698 2.4399 0.60997 62.42-4.8798 5.693 0.40666 9.3528 40.868-11.589-0.40665-25.822-9.9628-0.20334-1.4233 15.453-9.9628 3.2532 0.20332-57.947 5.0831-4.0665-0.20333-10.166-24.602 0.20332z" fill-rule="evenodd" stroke-width="6.4882"/>
   </g>
   <g id="layer1-7" stroke-width="0" transform="matrix(4.0072 0 0 4.0072 -493.83 -1359.3)">
    <path id="path2555" d="m273.33 527.41 0.43967-156.59c30.818 26.82 77.857-0.27694 89.251-21.983 22.184 39.472 77.194 37.772 88.812 21.543l0.43967 161.8c-0.22004 35.557-68.329 18.58-89.459 53.13-21.442-37.594-88.138-16.181-89.483-57.895z" fill-rule="evenodd" fill="#003a73"/>
    <path id="path3359" d="m281.16 523.43 0.40116-78.46 162.47-0.042 0.40116 82.693c0.1091 32.496-62.346 16.341-81.626 46.729-19.565-33.065-81.349-13.276-81.648-50.92z" fill-rule="evenodd" fill="#fff"/>
    <path id="path3345" d="m341.83 436.06c2.0898-10.249 5.0266-19.368 8.7429-27.449l-3.4565-1.8299 1.2199-2.2366c8.4605 1.9968 7.8261 3.1588 10.369 4.6764l-1.6266 2.8465-4.0665-1.8299c-5.38 8.4584-7.0688 17.444-8.7429 26.432 22.168-1.1544 52.754-18.597 38.225-57.134-3.2892 1.4867-6.401 3.3282-9.1495 5.8964l2.8465 2.6432-2.0332 1.8299c-2.0558-2.2139-4.3465-4.193-8.5396-4.2698l2.6432-1.8299 3.4565 0.40664c1.6729-2.0332 4.563-4.0665 8.9462-6.0997-32.539-0.22718-47.638 22.864-38.835 57.947z" fill-rule="evenodd" fill="#fff"/>
    <path id="path3327" d="m225.8 340.77-22.721-16.118-22.577 16.318 8.3076-26.59-22.497-16.43 27.856-0.31563 8.6738-26.473 8.908 26.395 27.857 0.0688-22.35 16.628 8.5429 26.515z" transform="matrix(.32478 0 0 .32478 226.94 299.45)" fill="#fff"/>
    <path id="path3329" d="m225.8 340.77-22.721-16.118-22.577 16.318 8.3076-26.59-22.497-16.43 27.856-0.31563 8.6738-26.473 8.908 26.395 27.857 0.0688-22.35 16.628 8.5429 26.515z" transform="matrix(.32478 0 0 .32478 258.08 299.45)" fill="#fff"/>
    <path id="path3333" d="m225.8 340.77-22.721-16.118-22.577 16.318 8.3076-26.59-22.497-16.43 27.856-0.31563 8.6738-26.473 8.908 26.395 27.857 0.0688-22.35 16.628 8.5429 26.515z" transform="matrix(.32478 0 0 .32478 226.94 326.96)" fill="#fff"/>
    <path id="path3335" d="m225.8 340.77-22.721-16.118-22.577 16.318 8.3076-26.59-22.497-16.43 27.856-0.31563 8.6738-26.473 8.908 26.395 27.857 0.0688-22.35 16.628 8.5429 26.515z" transform="matrix(.32478 0 0 .32478 258.08 326.96)" fill="#fff"/>
    <path id="path3337" d="m225.8 340.77-22.721-16.118-22.577 16.318 8.3076-26.59-22.497-16.43 27.856-0.31563 8.6738-26.473 8.908 26.395 27.857 0.0688-22.35 16.628 8.5429 26.515z" transform="matrix(.32478 0 0 .32478 335.93 299.45)" fill="#fff"/>
    <path id="path3339" d="m225.8 340.77-22.721-16.118-22.577 16.318 8.3076-26.59-22.497-16.43 27.856-0.31563 8.6738-26.473 8.908 26.395 27.857 0.0688-22.35 16.628 8.5429 26.515z" transform="matrix(.32478 0 0 .32478 367.07 299.45)" fill="#fff"/>
    <path id="path3341" d="m225.8 340.77-22.721-16.118-22.577 16.318 8.3076-26.59-22.497-16.43 27.856-0.31563 8.6738-26.473 8.908 26.395 27.857 0.0688-22.35 16.628 8.5429 26.515z" transform="matrix(.32478 0 0 .32478 335.93 326.96)" fill="#fff"/>
    <path id="path3343" d="m225.8 340.77-22.721-16.118-22.577 16.318 8.3076-26.59-22.497-16.43 27.856-0.31563 8.6738-26.473 8.908 26.395 27.857 0.0688-22.35 16.628 8.5429 26.515z" transform="matrix(.32478 0 0 .32478 367.07 326.96)" fill="#fff"/>
    <path id="path3347" d="m350.78 400.68c4.9588 1.5566 7.4659 3.6035 9.7595 5.693l2.0332-2.8465c-2.4764-2.81-6.505-4.0678-10.573-5.2864l-1.2199 2.4399z" fill-rule="evenodd" fill="#003a73"/>
    <path id="path3349" d="m354.84 395.6c4.9588 1.5565 7.4659 3.6034 9.7595 5.693l2.0332-2.8465c-2.4764-2.8099-6.505-4.0678-10.573-5.2864l-1.2199 2.4399z" fill-rule="evenodd" fill="#003a73"/>
    <path id="path3351" d="m360.33 389.7c4.9588 1.5566 7.4659 3.6035 9.7595 5.693l2.0332-2.8465c-2.4764-2.8099-6.505-4.0678-10.573-5.2864l-1.2199 2.4399z" fill-rule="evenodd" fill="#003a73"/>
    <path id="path3353" d="m291 452.53 0.20334 11.386 6.0997 2.6432 0.40666 54.897-6.7097 2.6432v8.5396l24.195 6.0997-0.20333-10.369-4.6764-4.8798-0.20333-29.075 16.266 46.764 12.403 3.8631 0.60996-78.483 4.0665-3.2532v-10.776h-22.975v10.776l5.2864 3.0498 0.20333 35.988-16.266-50.017-18.706 0.20332z" fill-rule="evenodd" fill="#da2127"/>
    <path id="path3355" d="m348.13 538.54 0.20333 8.7429 23.585 8.7429v-10.166l-5.0831-5.4897v-39.241l7.523 0.20333 3.6598 4.6764 6.0997-0.20333 0.20332-21.552-6.913-0.20332-2.8465 4.6764-7.523 0.20332v-23.382l9.3528 0.40664 3.4565 7.9296 9.1495-0.20334 0.20332-20.739h-41.681l0.20333 10.573 5.2864 3.4565 0.60998 68.926-5.4897 2.6432z" fill-rule="evenodd" fill="#da2127"/>
    <path id="path3357" d="m393.27 452.73v10.979l4.2698 2.4399 0.60997 62.42-4.8798 5.693 0.40666 9.3528 40.868-11.589-0.40665-25.822-9.9628-0.20334-1.4233 15.453-9.9628 3.2532 0.20332-57.947 5.0831-4.0665-0.20333-10.166-24.602 0.20332z" fill-rule="evenodd" fill="#da2127"/>
   </g>
  </g>
 </g>
</svg>
