<?xml version="1.0" encoding="UTF-8" standalone="no"?>
<!-- Created with Inkscape (http://www.inkscape.org/) -->
<svg id="svg3837" xmlns:rdf="http://www.w3.org/1999/02/22-rdf-syntax-ns#" xmlns="http://www.w3.org/2000/svg" height="256" width="256" version="1.1" xmlns:cc="http://creativecommons.org/ns#" xmlns:xlink="http://www.w3.org/1999/xlink" xmlns:dc="http://purl.org/dc/elements/1.1/">
 <defs id="defs3839">
  <linearGradient id="linearGradient4389" y2="924.36" gradientUnits="userSpaceOnUse" x2="255.5" gradientTransform="matrix(1.0039 0 0 1.0039 795.86 -1056)" y1="924.36" x1=".49805">
   <stop id="stop4393" offset="0"/>
   <stop id="stop4395" stop-color="#969696" offset="1"/>
  </linearGradient>
  <radialGradient id="radialGradient4421" gradientUnits="userSpaceOnUse" cy="208.25" cx="139" gradientTransform="matrix(1 0 0 .31871 0 141.88)" r="85.5">
   <stop id="stop4417" stop-opacity=".65179" offset="0"/>
   <stop id="stop4419" stop-opacity="0" offset="1"/>
  </radialGradient>
  <filter id="filter4515" height="1.5122" width="1.1632" y="-.25611" x="-.081624">
   <feGaussianBlur id="feGaussianBlur4517" stdDeviation="5.8157318"/>
  </filter>
 </defs>
 <metadata id="metadata3842">
  <rdf:RDF>
   <cc:Work rdf:about="">
    <dc:format>image/svg+xml</dc:format>
    <dc:type rdf:resource="http://purl.org/dc/dcmitype/StillImage"/>
    <dc:title/>
   </cc:Work>
  </rdf:RDF>
 </metadata>
 <g id="layer1" transform="translate(0 -796.36)">
  <rect id="rect3845" transform="rotate(90)" height="256" width="256" y="-256" x="796.36" fill="url(#linearGradient4389)"/>
  <path id="path4413" d="m224.5 208.25c0 15.05-38.28 27.25-85.5 27.25s-85.5-12.2-85.5-27.25 38.28-27.25 85.5-27.25 85.5 12.2 85.5 27.25z" transform="matrix(1.1228 0 0 1 -28.07 806.86)" filter="url(#filter4515)" fill="url(#radialGradient4421)"/>
  <g id="layer1-1" stroke-width="0" transform="matrix(.81195 0 0 .81195 -166.58 545.12)">
   <path id="path2555" d="m273.33 527.41 0.43967-156.59c30.818 26.82 77.857-0.27694 89.251-21.983 22.184 39.472 77.194 37.772 88.812 21.543l0.43967 161.8c-0.22004 35.557-68.329 18.58-89.459 53.13-21.442-37.594-88.138-16.181-89.483-57.895z" fill-rule="evenodd" fill="#003a73"/>
   <path id="path3359" d="m281.16 523.43 0.40116-78.46 162.47-0.042 0.40116 82.693c0.1091 32.496-62.346 16.341-81.626 46.729-19.565-33.065-81.349-13.276-81.648-50.92z" fill-rule="evenodd" fill="#fff"/>
   <path id="path3345" d="m341.83 436.06c2.0898-10.249 5.0266-19.368 8.7429-27.449l-3.4565-1.8299 1.2199-2.2366c8.4605 1.9968 7.8261 3.1588 10.369 4.6764l-1.6266 2.8465-4.0665-1.8299c-5.38 8.4584-7.0688 17.444-8.7429 26.432 22.168-1.1544 52.754-18.597 38.225-57.134-3.2892 1.4867-6.401 3.3282-9.1495 5.8964l2.8465 2.6432-2.0332 1.8299c-2.0558-2.2139-4.3465-4.193-8.5396-4.2698l2.6432-1.8299 3.4565 0.40664c1.6729-2.0332 4.563-4.0665 8.9462-6.0997-32.539-0.22718-47.638 22.864-38.835 57.947z" fill-rule="evenodd" fill="#fff"/>
   <path id="path3327" d="m225.8 340.77-22.721-16.118-22.577 16.318 8.3076-26.59-22.497-16.43 27.856-0.31563 8.6738-26.473 8.908 26.395 27.857 0.0688-22.35 16.628 8.5429 26.515z" transform="matrix(.32478 0 0 .32478 226.94 299.45)" fill="#fff"/>
   <path id="path3329" d="m225.8 340.77-22.721-16.118-22.577 16.318 8.3076-26.59-22.497-16.43 27.856-0.31563 8.6738-26.473 8.908 26.395 27.857 0.0688-22.35 16.628 8.5429 26.515z" transform="matrix(.32478 0 0 .32478 258.08 299.45)" fill="#fff"/>
   <path id="path3333" d="m225.8 340.77-22.721-16.118-22.577 16.318 8.3076-26.59-22.497-16.43 27.856-0.31563 8.6738-26.473 8.908 26.395 27.857 0.0688-22.35 16.628 8.5429 26.515z" transform="matrix(.32478 0 0 .32478 226.94 326.96)" fill="#fff"/>
   <path id="path3335" d="m225.8 340.77-22.721-16.118-22.577 16.318 8.3076-26.59-22.497-16.43 27.856-0.31563 8.6738-26.473 8.908 26.395 27.857 0.0688-22.35 16.628 8.5429 26.515z" transform="matrix(.32478 0 0 .32478 258.08 326.96)" fill="#fff"/>
   <path id="path3337" d="m225.8 340.77-22.721-16.118-22.577 16.318 8.3076-26.59-22.497-16.43 27.856-0.31563 8.6738-26.473 8.908 26.395 27.857 0.0688-22.35 16.628 8.5429 26.515z" transform="matrix(.32478 0 0 .32478 335.93 299.45)" fill="#fff"/>
   <path id="path3339" d="m225.8 340.77-22.721-16.118-22.577 16.318 8.3076-26.59-22.497-16.43 27.856-0.31563 8.6738-26.473 8.908 26.395 27.857 0.0688-22.35 16.628 8.5429 26.515z" transform="matrix(.32478 0 0 .32478 367.07 299.45)" fill="#fff"/>
   <path id="path3341" d="m225.8 340.77-22.721-16.118-22.577 16.318 8.3076-26.59-22.497-16.43 27.856-0.31563 8.6738-26.473 8.908 26.395 27.857 0.0688-22.35 16.628 8.5429 26.515z" transform="matrix(.32478 0 0 .32478 335.93 326.96)" fill="#fff"/>
   <path id="path3343" d="m225.8 340.77-22.721-16.118-22.577 16.318 8.3076-26.59-22.497-16.43 27.856-0.31563 8.6738-26.473 8.908 26.395 27.857 0.0688-22.35 16.628 8.5429 26.515z" transform="matrix(.32478 0 0 .32478 367.07 326.96)" fill="#fff"/>
   <path id="path3347" d="m350.78 400.68c4.9588 1.5566 7.4659 3.6035 9.7595 5.693l2.0332-2.8465c-2.4764-2.81-6.505-4.0678-10.573-5.2864l-1.2199 2.4399z" fill-rule="evenodd" fill="#003a73"/>
   <path id="path3349" d="m354.84 395.6c4.9588 1.5565 7.4659 3.6034 9.7595 5.693l2.0332-2.8465c-2.4764-2.8099-6.505-4.0678-10.573-5.2864l-1.2199 2.4399z" fill-rule="evenodd" fill="#003a73"/>
   <path id="path3351" d="m360.33 389.7c4.9588 1.5566 7.4659 3.6035 9.7595 5.693l2.0332-2.8465c-2.4764-2.8099-6.505-4.0678-10.573-5.2864l-1.2199 2.4399z" fill-rule="evenodd" fill="#003a73"/>
   <path id="path3353" d="m291 452.53 0.20334 11.386 6.0997 2.6432 0.40666 54.897-6.7097 2.6432v8.5396l24.195 6.0997-0.20333-10.369-4.6764-4.8798-0.20333-29.075 16.266 46.764 12.403 3.8631 0.60996-78.483 4.0665-3.2532v-10.776h-22.975v10.776l5.2864 3.0498 0.20333 35.988-16.266-50.017-18.706 0.20332z" fill-rule="evenodd" fill="#da2127"/>
   <path id="path3355" d="m348.13 538.54 0.20333 8.7429 23.585 8.7429v-10.166l-5.0831-5.4897v-39.241l7.523 0.20333 3.6598 4.6764 6.0997-0.20333 0.20332-21.552-6.913-0.20332-2.8465 4.6764-7.523 0.20332v-23.382l9.3528 0.40664 3.4565 7.9296 9.1495-0.20334 0.20332-20.739h-41.681l0.20333 10.573 5.2864 3.4565 0.60998 68.926-5.4897 2.6432z" fill-rule="evenodd" fill="#da2127"/>
   <path id="path3357" d="m393.27 452.73v10.979l4.2698 2.4399 0.60997 62.42-4.8798 5.693 0.40666 9.3528 40.868-11.589-0.40665-25.822-9.9628-0.20334-1.4233 15.453-9.9628 3.2532 0.20332-57.947 5.0831-4.0665-0.20333-10.166-24.602 0.20332z" fill-rule="evenodd" fill="#da2127"/>
  </g>
 </g>
</svg>
