<?xml version="1.0" encoding="UTF-8" standalone="no"?>
<!-- Created with Inkscape (http://www.inkscape.org/) -->
<svg id="svg3837" xmlns:rdf="http://www.w3.org/1999/02/22-rdf-syntax-ns#" xmlns="http://www.w3.org/2000/svg" height="256" width="256" version="1.1" xmlns:cc="http://creativecommons.org/ns#" xmlns:xlink="http://www.w3.org/1999/xlink" xmlns:dc="http://purl.org/dc/elements/1.1/">
 <defs id="defs3839">
  <linearGradient id="linearGradient4389" y2="924.36" gradientUnits="userSpaceOnUse" x2="255.5" gradientTransform="matrix(1.0039 0 0 1.0039 795.86 -1056)" y1="924.36" x1=".49805">
   <stop id="stop4393" offset="0"/>
   <stop id="stop4395" stop-color="#969696" offset="1"/>
  </linearGradient>
  <radialGradient id="radialGradient4421" gradientUnits="userSpaceOnUse" cy="208.25" cx="139" gradientTransform="matrix(1 0 0 .31871 0 141.88)" r="85.5">
   <stop id="stop4417" stop-opacity=".65179" offset="0"/>
   <stop id="stop4419" stop-opacity="0" offset="1"/>
  </radialGradient>
  <filter id="filter4515" height="1.5122" width="1.1632" y="-.25611" x="-.081624">
   <feGaussianBlur id="feGaussianBlur4517" stdDeviation="5.8157318"/>
  </filter>
 </defs>
 <metadata id="metadata3842">
  <rdf:RDF>
   <cc:Work rdf:about="">
    <dc:format>image/svg+xml</dc:format>
    <dc:type rdf:resource="http://purl.org/dc/dcmitype/StillImage"/>
    <dc:title/>
   </cc:Work>
  </rdf:RDF>
 </metadata>
 <g id="layer1" transform="translate(0 -796.36)">
  <rect id="rect3845" transform="rotate(90)" height="256" width="256" y="-256" x="796.36" fill="url(#linearGradient4389)"/>
  <path id="path4413" d="m224.5 208.25a85.5 27.25 0 1 1 -171 0 85.5 27.25 0 1 1 171 0z" transform="matrix(1.1228 0 0 1 -28.07 806.86)" filter="url(#filter4515)" fill="url(#radialGradient4421)"/>
  <g id="g4704" transform="matrix(.60880 0 0 .60880 16 863.45)">
   <path id="path4706" fill="#fff" d="m354.83 52.161c-5.396-2.391-11.161-5.195-26.565-7.47-0.251-1.226-0.654-2.546-1.214-3.981 0 0 8.278-7.576 9.542-17.314 0.255-1.956-1.853-8.087-7.055-7.912-4.969 0.167-9.986-0.523-14.218-2.079-34.407-14.252-80.816-17.113-124.79-8.711-10.615 1.885-27.222 7.74-36.923 8.092-1.793 0.064-8.856-1.032-13.576 1.523-3.187 1.728-5.974 5.927-4.214 9.785 2.816 6.163 6.679 11.48 11.733 16.665-83.16 34.994-147.55 121.67-147.55 121.67 72.211-16.709 121.9-12.591 183.39 15.476 64.351 28.317 98.959 21.333 98.959 21.333-0.155-4.649-2.654-20.592-5.244-29.58 11.073-2.074 13.879-11.52 13.719-15.933-0.007-0.255-1.447-27.133-1.609-30.045 12.625-8.126 28.47-36.306 33.758-51.308 19.125 0.956 34.262 4.937 44.965 11.515-1.814-5.99-7.716-25.233-13.107-31.725z"/>
   <g id="g4708">
    <path id="path4710" d="m321.25 64.226c0.472-1.263 1.283-4.047 1.602-5.205 10.323-0.391 23.356 0.769 33.657 5.167 0 0-13.368-7.745-33.117-7.782 0.172-0.634 0.688-3.479 0.855-5.126 9.089 0.359 17.984 1.194 26.059 4.389-8.133-4.396-17.048-5.603-26.025-6.807-0.059-3.013-0.723-6.871-2.772-9.701 0 0 7.229-4.231 10.144-16.012 0.364-2.049-0.929-2.835-2.01-2.782-5.814 0.224-15.727-2.147-19.884-3.71-35.48-14.219-81.29-14.568-120.39-6.977-8.04 1.42-24.157 7.064-35.397 7.976-3.919 0.315-7.418-0.747-11.222 0.659-1.315 0.482-3.072 2.251-2.251 4.256 3.494 7.353 9.055 15.294 14.739 19.668-37.52 13.996-97.549 56.301-141.4 111.87 89.563-17.869 136.77 5.131 164.3 16.272 31.44 12.977 67.773 26.531 98.595 24.211 0 0-1.668-15.486-5.654-29.249 0 0 15.146 0.759 14.881-11.476-0.546-11.507-1.207-21.69-1.75-32.109 16.523-10.996 30.942-42.294 36.004-54.645 13.611 0.423 27.244 2.458 39.604 7.549 0.001 0.002-14.458-9.633-38.576-10.437z"/>
    <g id="g4712" fill="#2186c8">
     <path id="path4714" d="m169.08 78.704c2.108-0.936 4.266-1.826 6.455-2.678-0.676-3.155-1.04-6.49-1.079-10.07-2.192 0.521-4.401 1.091-6.625 1.715 0.064 3.949 0.487 7.618 1.249 11.033z"/>
     <path id="path4716" d="m175.74 51.532c-2.244 0.408-4.5 0.875-6.772 1.396-0.737 4.688-1.113 9.067-1.14 13.161 2.192-0.855 4.406-1.676 6.645-2.448 0.097-3.759 0.52-7.774 1.267-12.109z"/>
     <path id="path4718" d="m204.84 112.22c-15.792-10.913-25.238-20.877-28.777-34.025-2.221 0.661-4.42 1.376-6.595 2.143 4.059 15.477 15.687 25.496 35.372 31.882z"/>
     <path id="path4720" d="m312.71 64.054c1.932-0.064 3.996-0.066 6.011 0.039 0.531-1.661 0.998-3.283 1.391-4.865-1.096 0.047-3.455 0.147-5.863 0.292-0.477 1.512-0.988 3.025-1.539 4.534z"/>
     <path id="path4722" d="m315.91 51.36c0 1.479-0.182 3.037-0.599 4.654-0.025 0.074-0.044 0.138-0.064 0.209 2.143-0.046 3.14-0.007 5.553-0.069 0.329-1.7 0.57-3.337 0.693-4.897-1.602-0.032-3.529 0-5.583 0.103z"/>
     <path id="path4724" d="m327.95 22.379c-5.303 0.182-10.537-0.386-15.658-2.01-28.136-11.448-68.007-16.736-112.84-9.61-31.529 4.853-30.696 9.562-54.542 9.281-1.548 0.118-2.255 1.381-1.248 3.231 3.991 7.325 9.563 14.79 16.387 19.506-75.44 28.457-139.1 107-139.1 107 72.646-12.699 115.5-0.442 166.1 21.012 0 0 58.557 24.826 87.046 21.098-0.904-10.303-3.735-19.641-5.905-29.101 15.552 0.757 15.326-7.868 15.144-12.488-0.398-10.242-1.214-19.486-1.831-29.438 9.694-4.668 28.167-31.372 36.203-53.789-1.538 0.039-3.882 0.231-6.335 0.499-9.244 23.339-25.545 45.152-35.36 50.632 0.197 2.003 1.396 19.165 1.998 29.406 0.012 2.659-2.146 6.957-5.456 7.708-9.035 1.99-17.56 1.873-26.777-0.479-9.578-2.581-10.755-16.324-10.841-28.917-1.671-0.169-2.423 22.558 0.855 28.247 5.183 8.615 18.786 8.315 24.025 8.502 2.528 7.106 4.337 15.304 5.182 23.015-24.101-0.481-45.848-11.448-67.958-19.702-1.926-11.866 3.615-21.747 9.097-31.084 0 0-13.333 11.382-16.625 28.072-36.29-15.3-56.22-25.31-102.35-28.62 10.42-16.39 23.61-31.93 39.64-43.676-12.66 4.266-37.699 27.066-52.352 42.956l-20.965 0.121c29.209-35.955 80.704-80.311 116.81-87.896-0.447 2.069-0.828 4.079-1.155 6.038 2.293-0.715 4.588-1.378 6.893-1.985 0.417-2.234 0.909-4.539 1.489-6.944-14.328-1.877-22.042-11.286-23.752-14.641-0.673-1.7 0.32-2.469 1.224-2.587 17.211 0.482 26.853-5.581 43.327-8.345 33.557-5.667 71.993-6.337 107.59 7.799 4.458 1.718 9.559 2.261 14.621 2.501 1.46 0.226 1.18 1.511 0.556 2.378-2.934 3.6-8.173 6.328-12.287 6.387 2.595 2.211 5.961 6.433 6.875 11.984 2.089-0.01 4.104 0.064 5.927 0.236-0.005-4.271-0.983-7.814-3.224-10.229 4.684-1.84 8.679-7.735 10.557-13.004 0.372-1.127 0.559-3.009-0.984-3.063z"/>
    </g>
    <g id="g4726" fill="#d8d8d7">
     <path id="path4728" d="m305.91 34.405c-4.885-3.494-10.729-6.025-16.449-3.615-4.281 3.315-9.34 5.359-14.338 6.084 1.625 0.422 4.155 0.422 6.205 0 5.48 3.012 10.242-1.748 15.363-2.59-2.712-0.543-5.907-0.784-8.436-0.904 5.359-3.133 12.168-1.025 17.655 1.025z"/>
     <path id="path4730" d="m168.97 52.928c2.273-0.521 4.529-0.988 6.772-1.396 20.184-3.696 39.518-2.968 64.557 0.944 1.543-1.789 2.988-2.836 5.119-3.313-23.438-5.75-46.752-5.219-69.386 0.74-2.305 0.607-4.6 1.271-6.893 1.985-3.693 1.157-7.364 2.459-11.016 3.899 3.687-1.095 7.289-2.044 10.847-2.859z"/>
     <path id="path4732" d="m160.3 28.198c2.951 3.558 7.649 5.484 12.048 6.207-2.772-0.845-5.18-2.772-7.229-4.88-1.062-0.158-3.753-0.853-4.819-1.327z"/>
     <path id="path4734" d="m258.19 36.149c-4.152-0.541-8.431-1.627-12.107-3.612l-5.664-3.917c-8.193-3.976-18.012-1.626-25.303 3.072 8.075-2.349 18.014-4.396 25.725-0.182-3.794-0.3-7.347 0.481-11.144 1.027 3.374 0.782 6.504 2.049 9.396 3.735 3.615 1.506 7.17 0.963 10.603-0.123 0.002 0 6.32 1.317 8.494 0z"/>
     <path id="path4736" d="m276.36 58.21c2.921 0.163 1.958-3.081 3.403-4.408 2.472-3.735 6.507-6.143 10.844-6.686-8.73-6.949-22.501-5.919-29.64-0.241 4.517 1.083 8.854 3.418 11.5 7.047 1.625 1.296 1.355 4.549 3.893 4.288z"/>
     <path id="path4738" d="m252.71 72.418c0.423 9.76 0.963 16.628 5.18 25.3 0.728-4.757 2.266-21.604 3.794-24.578 1.027 2.108 1.258 5.671 2.027 5.733 1.732 0.224 2.529-2.33 3.335-3.986 3.015-0.784 8.89-0.747 11.939-0.16 0.627 1.725 1.447 4.684 3.064 4.394 0.648-0.057 0.919-3.696 1.745-6.099 1.868 8.615 2.442 16.137 3.224 24.509 0 0 6.46-11.407 5.332-25.536-13.131-4.336-27.172-3.675-39.64 0.423z"/>
     <path id="path4740" d="m266.45 144.71-0.123-1.145c-4.389 0.85-8.375 0.857-12.771 0 0 0.422-0.076 0.688-0.16 1.207 0 0-3.514-2.249-3.877-12.594-2.167 3.917-2.408 8.256-1.985 12.532 3.322 4.958 20.201 4.983 24.7 1.027 0.762-2.938 1.143-9.819-1.75-13.559-0.117 4.46-1.115 10.21-4.034 12.532z"/>
     <path id="path4742" d="m153.79 72.296c4.71-1.799 9.401-3.327 14.041-4.625 2.224-0.625 4.433-1.194 6.625-1.715 24.75-5.868 47.273-5.431 61.326-4.502 0.221-2.771 1.325-4.458 1.325-4.458-18.685-4.059-41.602-0.622-62.631 6.645-2.239 0.771-4.453 1.592-6.645 2.448-4.847 1.897-9.56 3.978-14.041 6.207z"/>
     <path id="path4744" d="m151.42 88.523c5.686-3.268 11.758-5.961 18.046-8.188 2.175-0.767 4.374-1.482 6.595-2.143 21.403-6.377 44.531-7.888 62.916-8.183-1.002-1.447-1.607-2.57-2.167-4.221-13.92-2.418-39.316 1.698-61.272 10.237-2.189 0.853-4.347 1.742-6.455 2.678-6.497 2.896-12.533 6.189-17.663 9.82z"/>
     <path id="path4746" d="m301.57 49.765 3.074 2.892c3.426-0.693 7.559-1.111 11.269-1.297 2.055-0.103 3.981-0.135 5.583-0.103 0.074-0.887 0.108-1.75 0.108-2.581v-0.005c-1.824-0.172-3.838-0.246-5.927-0.236-4.92 0.021-10.208 0.512-14.107 1.33z"/>
     <path id="path4748" d="m306.33 60.309c1.327-0.327 4.752-0.595 7.922-0.789 2.487-0.15 4.821-0.253 5.868-0.297 0.255-1.03 0.481-2.04 0.678-3.027-1.823 0.015-3.661-0.02-5.548 0.027-3.317 0.086-6.581 0.31-9.038 0.774-0.001 0 0.452 2.86 0.118 3.312z"/>
     <path id="path4750" d="m312.71 64.054c-2.806 0.093-5.317 0.329-6.924 0.592l-2.551 4.099c2.064-0.42 5.185-0.858 8.138-1.18 2.453-0.268 4.797-0.459 6.335-0.499 0.359-1.003 0.698-1.993 1.013-2.974-2.015-0.104-4.079-0.102-6.011-0.038z"/>
    </g>
   </g>
  </g>
 </g>
</svg>
