<?xml version="1.0" encoding="UTF-8" standalone="no"?>
<!-- Created with Inkscape (http://www.inkscape.org/) -->
<svg id="svg3837" xmlns:rdf="http://www.w3.org/1999/02/22-rdf-syntax-ns#" xmlns="http://www.w3.org/2000/svg" height="256" width="256" version="1.1" xmlns:cc="http://creativecommons.org/ns#" xmlns:xlink="http://www.w3.org/1999/xlink" xmlns:dc="http://purl.org/dc/elements/1.1/">
 <defs id="defs3839">
  <linearGradient id="linearGradient4389" y2="924.36" gradientUnits="userSpaceOnUse" x2="255.5" gradientTransform="matrix(1.0039 0 0 1.0039 795.86 -1056)" y1="924.36" x1=".49805">
   <stop id="stop4393" offset="0"/>
   <stop id="stop4395" stop-color="#969696" offset="1"/>
  </linearGradient>
  <radialGradient id="radialGradient4421" gradientUnits="userSpaceOnUse" cy="208.25" cx="139" gradientTransform="matrix(1 0 0 .31871 0 141.88)" r="85.5">
   <stop id="stop4417" stop-opacity=".65179" offset="0"/>
   <stop id="stop4419" stop-opacity="0" offset="1"/>
  </radialGradient>
  <filter id="filter4515" height="1.5122" width="1.1632" y="-.25611" x="-.081624">
   <feGaussianBlur id="feGaussianBlur4517" stdDeviation="5.8157318"/>
  </filter>
 </defs>
 <metadata id="metadata3842">
  <rdf:RDF>
   <cc:Work rdf:about="">
    <dc:format>image/svg+xml</dc:format>
    <dc:type rdf:resource="http://purl.org/dc/dcmitype/StillImage"/>
    <dc:title/>
   </cc:Work>
  </rdf:RDF>
 </metadata>
 <g id="layer1" transform="translate(0 -796.36)">
  <rect id="rect3845" transform="rotate(90)" height="256" width="256" y="-256" x="796.36" fill="url(#linearGradient4389)"/>
  <path id="path4413" d="m224.5 208.25a85.5 27.25 0 1 1 -171 0 85.5 27.25 0 1 1 171 0z" transform="matrix(1.1228 0 0 1 -28.07 806.86)" filter="url(#filter4515)" fill="url(#radialGradient4421)"/>
  <g id="g6281" transform="matrix(.89491 0 0 .89491 15.999 872.08)">
   <g id="g6283" fill="#fff">
    <path id="path6285" d="m243.58 8.86c-23.29 6.748-42.47-9.324-71.38-8.835l-0.04-0.002s-39.721-1.171-77.909 13.173c-38.47 13.731-64.834 24.147-89.731 27.134-5.85 0.917-6.4 9.814 0.597 10.275 23.028 0.869 38.594-0.754 53.813-3.794-2.167 6.679 4.568 7.352 4.668 7.357 18.078 2.263 32.745 0.403 47.033-2.567-3.647 4.401-0.694 8.346 2.45 9.011 53.907 9.533 74.438 36.833 94.162 56.234 5.535-0.725 17.355-7.755 13.547-21.981 0 0 1.453-3.156 1.451-5.646l6.81-4.068s-2.881-14.371-3.236-16.024c3.734-1.946 10.513-5.337 10.513-5.337s12.284-43.263 13.765-48.832c1.324-4.997-3.852-6.87-6.518-6.098zm-238.36 36.584c43.061-5.866 78.601-26.311 115.18-34.575 1.15 4.465 3.235 13.38 3.235 13.38-52.342 11.011-57.871 23.124-118.42 21.195zm58.393 3.55c28.614-4.172 45.907-14.83 62.116-18.235 0.958 3.991 2.2 8.089 3.007 11.324-42.55 11.58-65.123 6.911-65.123 6.911zm168.35 11.229c-4.086 1.958-8.1 4.02-12.074 6.218 1.389 5.28 2.143 10.965 3.395 16.217l-6.223 3.632 0.021 3.823-1.958 5.109c2.297 3.04 1.651 7.44-0.151 10.509-1.516 2.476-3.953 4.334-6.375 5.707 0 0-34.997-47.564-94.616-55.909 16.782-2.656 23.144-10.328 52.13-10.249-10.291-5.67-23.465-6.123-35.51-3.422-0.646-2.54-2.895-11.693-2.895-11.693 7.76-2.215 15.781-3.132 23.986-3.713-7.838-2.981-16.529-3.311-25.556-2.524-1.081-4.502-2.007-8.869-3.213-13.574 15.421-3.531 32.647-5.285 49.142-5.167 19.316 0.137 45.176 8.876 45.176 8.876 8.744 2.426 18.902 2.419 27.814-0.256-1.283 5.595-13.093 46.416-13.093 46.416z"/>
    <path id="path6287" d="m220.36 31.875c-0.578-2.352-1.719-9.056-2.055-9.697l-5.881 7.614s-7.938-2.075-12.353-2.967c2.771 2.916 5.5 5.559 7.962 8.455-2.334 3.541-5.328 6.902-7.771 10.308 4.517-1.529 9.11-2.891 13.627-4.456 3.268 3.31 6.761 6.919 9.992 10.092-0.558-4.316-1.839-8.639-2.248-12.719l10.257-3.488c-3.7-1.194-7.727-1.991-11.53-3.142z"/>
   </g>
   <g id="g6289">
    <path id="path6291" fill="#0d254c" d="m217.24 14.061s-25.859-8.74-45.176-8.876c-16.495-0.117-33.721 1.637-49.142 5.167 1.206 4.705 2.132 9.071 3.213 13.574 9.026-0.786 17.718-0.458 25.556 2.524-8.206 0.581-16.227 1.498-23.986 3.713 0 0 2.248 9.154 2.895 11.693 12.045-2.701 25.22-2.249 35.51 3.422-28.986-0.079-35.349 7.593-52.13 10.249 59.619 8.345 94.616 55.909 94.616 55.909 2.422-1.373 4.859-3.231 6.375-5.707 1.803-3.068 2.448-7.47 0.151-10.509l1.958-5.109-0.021-3.823 6.223-3.632c-1.252-5.252-2.006-10.938-3.395-16.217 3.974-2.199 7.988-4.26 12.074-6.218 0 0 11.811-40.82 13.092-46.418-8.909 2.677-19.068 2.684-27.813 0.258zm-7.101 66.42-1.506 1.888c1.679 0.62 3.553 1.731 5.199 2.39l-0.122 2.083-4.542 0.122c-2.073 1.53-3.701 3.014-5.772 4.542 0 0 4.446-0.755 6.753-1.384l4.281-0.002c-0.464 1.259-0.972 2.35-1.51 3.473l-4.229 0.176s2.568 3.056 4.339 5.021c1.989 3.373-3.478 7.512-3.478 7.512-9.785-10.926-20.419-22.401-33.402-29.785 1.318-2.043 3.28-3.133 5.6-2.886 4.828 0.937 8.979 4.194 10.137 5.419 1.502 1.598 4.238 5.695 5.054 6.281-0.408-3.288-1.581-6.615-2.372-9.923l-14.64-10.041c1.538-4.09 6.835-6.95 11.453-7.082 4.476-0.131 8.847-0.092 12.16 2.525-7.637-0.104-10.387 3.739-11.516 7.264-0.057 0.277 15.601-0.061 15.601-0.061 0.588-1.608 0.826-3.34 1.977-4.696 1.201-1.74 3.416-2.346 5.341-2.392 0.366 1.29 3.8 19.37 3.8 19.37-2.995 0.056-5.583-0.006-8.604 0.186zm13.736-29.259c-3.231-3.173-6.725-6.782-9.992-10.092-4.517 1.565-9.11 2.927-13.627 4.456 2.442-3.405 5.437-6.768 7.771-10.308-2.462-2.896-5.19-5.539-7.962-8.455 4.413 0.893 12.353 2.967 12.353 2.967l5.881-7.614c0.336 0.642 1.477 7.346 2.055 9.697 3.804 1.151 7.83 1.949 11.531 3.142l-10.257 3.488c0.408 4.081 1.69 8.403 2.247 12.719z"/>
   </g>
   <path id="path6293" fill="#d6d6d6" d="m209.6 63.318c-1.149 1.356-1.389 3.087-1.977 4.696 0 0-15.657 0.338-15.601 0.061 1.128-3.524 3.878-7.368 11.516-7.264-3.313-2.617-7.686-2.656-12.16-2.525-4.617 0.132-9.915 2.991-11.453 7.082l14.642 10.041c0.791 3.308 1.963 6.635 2.372 9.923-0.815-0.586-3.551-4.684-5.054-6.281-1.158-1.225-5.31-4.482-10.137-5.419-2.318-0.248-4.281 0.843-5.6 2.886 12.983 7.384 23.617 18.859 33.402 29.785 0 0 5.467-4.14 3.477-7.512-1.77-1.966-4.338-5.021-4.338-5.021l4.229-0.176c0.539-1.122 1.046-2.214 1.51-3.473l-4.281 0.002c-2.307 0.629-6.753 1.384-6.753 1.384 2.071-1.529 3.699-3.012 5.772-4.542l4.542-0.122 0.122-2.083c-1.646-0.658-3.521-1.77-5.199-2.39l1.506-1.888c3.021-0.192 5.608-0.13 8.601-0.186 0 0-3.433-18.08-3.799-19.37-1.924 0.046-4.138 0.652-5.339 2.392z"/>
   <g id="g6295" fill="#c0001d">
    <path id="path6297" d="m125.73 30.759c-16.209 3.405-33.502 14.063-62.116 18.235 0 0 22.573 4.668 65.123-6.911-0.807-3.235-2.05-7.333-3.007-11.324z"/>
    <path id="path6299" d="m120.4 10.869c-36.582 8.265-72.122 28.709-115.18 34.575 60.548 1.929 66.078-10.185 118.41-21.195 0 0-2.084-8.916-3.235-13.38z"/>
   </g>
  </g>
 </g>
</svg>
