<?xml version="1.0" encoding="UTF-8" standalone="no"?>
<!-- Created with Inkscape (http://www.inkscape.org/) -->
<svg id="svg3837" xmlns:rdf="http://www.w3.org/1999/02/22-rdf-syntax-ns#" xmlns="http://www.w3.org/2000/svg" height="256" width="256" version="1.1" xmlns:cc="http://creativecommons.org/ns#" xmlns:xlink="http://www.w3.org/1999/xlink" xmlns:dc="http://purl.org/dc/elements/1.1/">
 <defs id="defs3839">
  <linearGradient id="linearGradient4389" y2="924.36" gradientUnits="userSpaceOnUse" x2="255.5" gradientTransform="matrix(1.0039 0 0 1.0039 795.86 -1056)" y1="924.36" x1=".49805">
   <stop id="stop4393" offset="0"/>
   <stop id="stop4395" stop-color="#969696" offset="1"/>
  </linearGradient>
  <radialGradient id="radialGradient4421" gradientUnits="userSpaceOnUse" cy="208.25" cx="139" gradientTransform="matrix(1 0 0 .31871 0 141.88)" r="85.5">
   <stop id="stop4417" stop-opacity=".65179" offset="0"/>
   <stop id="stop4419" stop-opacity="0" offset="1"/>
  </radialGradient>
  <filter id="filter4515" height="1.5122" width="1.1632" y="-.25611" x="-.081624">
   <feGaussianBlur id="feGaussianBlur4517" stdDeviation="5.8157318"/>
  </filter>
 </defs>
 <metadata id="metadata3842">
  <rdf:RDF>
   <cc:Work rdf:about="">
    <dc:format>image/svg+xml</dc:format>
    <dc:type rdf:resource="http://purl.org/dc/dcmitype/StillImage"/>
    <dc:title/>
   </cc:Work>
  </rdf:RDF>
 </metadata>
 <g id="layer1" transform="translate(0 -796.36)">
  <rect id="rect3845" transform="rotate(90)" height="256" width="256" y="-256" x="796.36" fill="url(#linearGradient4389)"/>
  <path id="path4413" d="m224.5 208.25a85.5 27.25 0 1 1 -171 0 85.5 27.25 0 1 1 171 0z" transform="matrix(1.1228 0 0 1 -28.07 806.86)" filter="url(#filter4515)" fill="url(#radialGradient4421)"/>
  <g id="g9151" transform="matrix(.79854 0 0 .79854 16 844.51)">
   <path id="path9153" fill="#fff" d="m205.88 198.95c0.088-0.019 6.78-1.731 6.78-1.731 8.316-2.074 13.607-3.443 16.713-4.922 0-0.007 2.716-1.317 2.716-1.317l1.558-2.587c0.452-0.751 10.827-18.278 15.955-42.668 1.451-1.315 6.882-6.259 6.882-6.259l0.154-1.636 0.207-2.233c0.19-2.009 0.281-4.04 0.281-6.057 0-3.639-0.302-7.425-0.885-11.272 11.998-6.675 17.194-16.333 20.375-24.176 2.597-6.399 3.898-13.586 3.898-21.046 0-7.363-1.272-14.992-3.793-22.374-4.1-11.941-13.39-28.79-34.41-41.202-13.1-7.734-31.55-11.008-49.38-8.771-20.708 2.594-38.537 12.38-50.199 27.539-0.906 1.184-1.772 2.442-2.602 3.738-0.124 0.017-0.403 0.071-0.403 0.071-66.135 10.3-118.56 53.361-120.76 55.185l-18.98 15.755 24.586 1.979c43.333 3.486 74.008 18.647 92.107 30.749 19.826 13.263 29.369 25.855 29.463 25.983l6.397 8.713 8.228-7.058c1.396-1.204 2.656-2.573 3.798-4.086 0.031 0.038 0.283 0.252 0.283 0.252l1.857 1.551c1.227 0.989 2.228 1.836 3.5 3.268 0.309 0.699 0.497 1.479 0.497 2.369 0 2.216-0.271 2.849-0.861 4.228l-0.291 0.666c-0.704 1.686-2.033 4.124-2.055 4.152l-2.012 3.686 36.607 20.566"/>
   <path id="path9155" fill="#13264b" d="m168.69 149.5c0.138 0.126 0.286 0.245 0.428 0.378l-0.019-0.124c0 0.001-0.15-0.085-0.409-0.254z"/>
   <g id="g9157">
    <path id="path9159" fill="#13264b" d="m230.67 89.161c-0.202 0.207-0.404 0.409-0.611 0.614l0.364-0.352c0.081-0.086 0.164-0.181 0.247-0.262z"/>
   </g>
   <path id="path9161" fill="#c9af74" d="m240.14 13.123c-23.43-13.843-69.68-13.955-94.03 17.703-1.218 1.593-2.347 3.258-3.386 4.98-1.051 0.209-1.847 0.356-2.311 0.435-64.926 10.112-116.55 52.463-118.71 54.261l-10.933 9.077 14.164 1.139c85.832 6.904 124.26 57.917 124.64 58.44l3.705 5.027 4.732-4.069c2.592-2.229 4.371-4.849 5.626-7.401 1.158 1.058 2.464 2.214 4.041 3.605 2.157 1.881 3.788 2.846 6.192 5.709 0.811 1.513 1.111 3.139 1.111 4.671 0 3.489-0.671 4.613-1.477 6.533-0.799 1.919-2.242 4.556-2.242 4.556l31.408 17.634 2.119-0.587 6.825-1.752c7.843-1.945 13.196-3.334 15.924-4.633l1.572-0.761 0.901-1.489c0.447-0.761 10.873-18.431 15.71-42.692 1.717-1.57 6.692-6.088 6.692-6.088l0.212-2.226c0.169-1.91 0.254-3.795 0.254-5.66 0-4.718-0.519-9.327-1.341-13.622 12.452-5.888 17.736-15.015 21.148-23.427 9.047-22.324 1.829-59.073-32.53-79.363z"/>
   <path id="path9163" fill="#13264b" d="m264.55 48.847c-19.862-48.019-74.42-38.43-74.42-38.43s0.152-0.015 0.43-0.041c2.794-0.224 18.961-1.158 35.161 5.529 14.223 5.872 30.111 20.495 33.955 39.819 0.913 4.59 1.268 8.842 1.268 12.689l-0.005 0.973c-0.178 11.836-3.738 19.791-4.944 22.285-1.617 3.358-5.607 8.291-8.302 10.255-2.262 1.66-4.35 2.356-5.943 2.356-0.309 0-0.59-0.031-0.854-0.083h-0.017c-0.269-0.043-0.528-0.124-0.756-0.224-1.505-0.688-2.021-2.49-5.463-7.32-2.278-3.215-5.175-6.316-5.175-6.316 0.286-0.247 0.545-0.519 0.811-0.78 0.124-0.138 0.25-0.274 0.38-0.409 0.314-0.335 0.606-0.718 0.904-1.113 0.833-1.137 1.543-2.461 2.107-3.958 0.021-0.066 0.041-0.109 0.06-0.171 0.183-0.48 0.335-0.975 0.485-1.475 2.792-9.95-0.292-25.355-12.816-35.377-13.313-10.659-27.703-11.541-39.362-6.868-19.62 7.867-31.491 31.481-17.479 50.792 6.792 9.367 17.835 9.969 24.696 4.716 6.423-4.93 10.737-20.007-5.075-28.083 12.702-1.075 28.116 14.076 20.53 33.633-0.557 1.43-1.213 2.764-1.94 4.012-10.999 18.542-41.022 16.485-55.453-0.759-14.059-16.796-16.447-39.315-9.697-58.059 0.491-1.36 1.036-2.718 1.627-4.041-57.993 12.535-95.515 47.61-95.515 47.61 81.086 16.828 110.48 65.726 110.48 65.726 3.006-2.583 4.638-6.05 5.553-8.903-5.625-9.21-3.161-17.841-3.161-17.841 1.229 6.202 3.496 10.749 5.757 14.009 0.97 1.354 5.437 5.736 6.309 6.502 0.259 0.169 0.409 0.254 0.409 0.254l0.019 0.124c4.064 3.594 8.889 7.648 9.746 9.191 4.364 7.846-0.193 16.754-0.193 16.754l24.542 13.446c5.472-1.545 18.28-4.347 21.814-6.04 0 0 10.88-18.19 15.396-42.735l6.431-5.848c2.38-6.742-1.827-21.479-1.827-21.479 0.519-0.133 1.056-0.288 1.591-0.474 1.277-0.423 2.554-0.994 3.833-1.698 13.898-7.701 26.678-31.786 14.102-62.15z"/>
   <path id="path9165" fill="#fff" d="m260.94 68.414c0-3.848-0.354-8.1-1.268-12.689-3.84-19.325-19.73-33.948-33.95-39.819-16.2-6.687-32.366-5.752-35.161-5.529-0.659 0.083-1.327 0.164-1.981 0.254-22.074 3.125-35.491 18.892-35.491 18.892 19.976-15.617 49.969-17.46 69.814-9.325 19.827 8.141 34.243 24.645 38.036 49.189 0-0.081 0.005-0.15 0.005-0.221-0.004-0.243-0.004-0.488 0.001-0.752z"/>
   <g id="g9167">
    <g id="g9169">
     <path id="path9171" fill="#fff" d="m196.5 164.79c0.209-0.989 3.058-1.189 3.058-1.189 2.023 7.158-1.113 11.752-1.303 12.435-0.153-3.254 0.425-9.275-1.755-11.246z"/>
    </g>
    <path id="path9173" fill="#fff" d="m147.33 104.5c-14.059-16.796-16.447-39.315-9.697-58.059-4.033 6.209-13.29 24.63-1.834 50 13.895 30.764 51.926 31.981 64.718 12.726 0.866-1.306 1.615-2.614 2.267-3.907-11 18.541-41.023 16.484-55.454-0.76z"/>
   </g>
   <g id="g9175">
    <path id="path9177" fill="#fff" d="m220.31 132.5c0-2.535 2.05-4.595 4.59-4.595 0.088 0 0.162 0.014 0.242 0.014-0.542-2.544-1.674-5.322-3.81-8.052 0 0 0.171 2.721-0.414 5.051-2.342 1.241-3.943 3.686-3.943 6.53 0 4.066 3.311 7.367 7.382 7.367 0 0 0.271-0.632 0.561-1.722h-0.019c-2.539 0.002-4.589-2.057-4.589-4.593z"/>
    <path id="path9179" fill="#13264b" d="m225.41 134.51c-0.05 0.124-0.09 0.233-0.152 0.352-0.928 0.38-2.502 0.043-3.113-1.427 1.715 1.008 3.032-0.069 3.384-0.395 0.069-0.057 0.104-0.095 0.104-0.095s0.072 0.719-0.223 1.565z"/>
    <path id="path9181" fill="#fff" d="m225.64 132.95s-0.036 0.038-0.104 0.095c-0.352 0.326-1.669 1.403-3.384 0.395 0.611 1.47 2.186 1.807 3.113 1.427 0.062-0.119 0.102-0.228 0.152-0.352 0.294-0.847 0.223-1.565 0.223-1.565z"/>
   </g>
   <path id="path9183" fill="#fff" d="m239.84 131.73c0.571-23.315-18.896-38.825-18.896-38.825s14.269 17.789 12.609 38.707l-3.881 3.619c0.062 5.679-0.205 16.457-5.703 28.538-5.698-10.302-18.262-17.123-23.441-18.35-3.522 1.983-11.339 6.283-15.896 11.339 0.797 1.094 1.915 4.057 2.085 5.022 1.035 5.731 0.255 9.888-0.635 12.892 0.012 0.01 8.702 4.863 8.578 4.623 2.38-8.233-0.785-11.947-3.199-16.173 2.347-1.427 7.807-4.485 10.352-5.546 2.575 3.546 3.9 9.415 1.132 17.767-0.833 2.501-2.036 5.049-2.761 6.809 0.01 0.09 3.394 1.897 3.373 1.788 4.397-0.885 8.416-3.891 9.971-8.109 0.464-1.253 0.259-2.221 0.107-3.206-0.433 0.552-1.025 1.427-1.738 1.912-1.127-2.611-1.142-4.692 0.285-6.259 0.737-0.809 1.563-1.106 2.55-1.139 1.46-0.05 2.635 0.894 3.099 2.009 2.183 5.365-2.88 11.006-2.88 11.006s4.844-0.224 6.24-0.906c2.854-5.762 11.682-24.549 14.188-43.51l4.461-4.008z"/>
  </g>
 </g>
</svg>
