<?xml version="1.0" encoding="UTF-8" standalone="no"?>
<!-- Created with Inkscape (http://www.inkscape.org/) -->
<svg id="svg3837" xmlns:rdf="http://www.w3.org/1999/02/22-rdf-syntax-ns#" xmlns="http://www.w3.org/2000/svg" height="256" width="256" version="1.1" xmlns:cc="http://creativecommons.org/ns#" xmlns:xlink="http://www.w3.org/1999/xlink" xmlns:dc="http://purl.org/dc/elements/1.1/">
 <defs id="defs3839">
  <linearGradient id="linearGradient4389" y2="924.36" gradientUnits="userSpaceOnUse" x2="255.5" gradientTransform="matrix(1.0039 0 0 1.0039 795.86 -1056)" y1="924.36" x1=".49805">
   <stop id="stop4393" offset="0"/>
   <stop id="stop4395" stop-color="#969696" offset="1"/>
  </linearGradient>
  <radialGradient id="radialGradient4421" gradientUnits="userSpaceOnUse" cy="208.25" cx="139" gradientTransform="matrix(1 0 0 .31871 0 141.88)" r="85.5">
   <stop id="stop4417" stop-opacity=".65179" offset="0"/>
   <stop id="stop4419" stop-opacity="0" offset="1"/>
  </radialGradient>
  <filter id="filter4515" height="1.5122" width="1.1632" y="-.25611" x="-.081624">
   <feGaussianBlur id="feGaussianBlur4517" stdDeviation="5.8157318"/>
  </filter>
 </defs>
 <metadata id="metadata3842">
  <rdf:RDF>
   <cc:Work rdf:about="">
    <dc:format>image/svg+xml</dc:format>
    <dc:type rdf:resource="http://purl.org/dc/dcmitype/StillImage"/>
    <dc:title/>
   </cc:Work>
  </rdf:RDF>
 </metadata>
 <g id="layer1" transform="translate(0 -796.36)">
  <rect id="rect3845" transform="rotate(90)" height="256" width="256" y="-256" x="796.36" fill="url(#linearGradient4389)"/>
  <path id="path4413" d="m224.5 208.25a85.5 27.25 0 1 1 -171 0 85.5 27.25 0 1 1 171 0z" transform="matrix(1.1228 0 0 1 -28.07 806.86)" filter="url(#filter4515)" fill="url(#radialGradient4421)"/>
  <g id="g4636" transform="matrix(.55415 0 0 .55415 16 868.93)">
   <path id="path4638" fill="#d1b336" d="m300.82 37.704c0 7.914-3.198 12.797-3.198 12.797-3.529-12.935-21.719-29.97-21.719-29.97 3.198 4.041 2.188 12.123 2.188 12.123-1.18-1.01-10.128-6.894-10.128-6.894-17.7-12.645-46.82-25.76-91.45-25.76-112.88 0-160.59 72.587-162.56 75.678-0.005 0-11 15.773-13.95 24.622l24.061-14.39c0.196-0.123 19.998-12.159 50.673-12.159 2.381 0 8.055 0.279 9.322 2.872 3.025 6.191-6.402 25.066-17.105 38.81l-22.974 29.5 32.486-18.584c0.129-0.073 13.123-7.365 34.654-7.365 4.347 0 6.213 0.705 6.847 1.029-0.072 1.177-1.184 3.69-2.426 5.37l-15.921 21.524 24.689-10.309c0.151-0.063 15.317-6.305 36.961-6.305 12.741 0 21.46 2.486 23.922 6.822 2.278 4.011-0.545 10.509-1.715 12.468l-5.087 8.527 9.61 2.446c1.082 0.271 2.455 0.6 8.007-0.523-0.049 0.788-0.115 1.583-0.115 2.35 0 12.463 6.027 22.003 6.38 22.552l9.723 15.065 3.693-17.544c3.268-15.525 15.699-22.247 23.44-24.976 0.005 0.02 2.22 8.317 2.22 8.317l7.722-3.088c6.936-2.774 18.348-11.103 22.462-14.187 3.356-0.609 12.193-2.004 22.981-2.004 6.375 0 13.84 0.602 21.742 1.24 9.928 0.801 21.18 1.71 33.326 1.71 17.34 0 33.231-2.976 39.846-4.397 1.613 1.076 14.096 9.398 14.096 9.398l0.625-13.004c0.053-1.101 0.079-2.186 0.079-3.255 0-27.229-16.846-44.457-35.108-54.375 0.106-0.007 1.149-0.063 1.149-0.063l-19.728-12.34c-2.731-1.707-8.075-3.018-13.409-3.98 0.355-0.714 0.975-1.95 0.975-1.95l-8.764-2.321c-8.637-2.286-16.044-2.557-21.606-2.182 2.688-14.035-6.908-23.295-6.908-23.295z"/>
   <path id="path4640" d="m20.158 79.651s46.217-72.276 156.35-72.276c81.125 0 108.17 45.233 108.17 45.233s1.475-6.882-0.493-10.325c0 0 9.343 9.835 9.834 21.636 0 0 5.409-5.409 5.409-7.375 0 0 2.458 8.357 0 13.275 0 0 11.309-3.935 28.025 0.49l-1.475 2.95s16.718 1.967 20.65 4.425c0 0-9.343 0.493-9.343 2.95 0 0 61.952 9.344 59.493 60.477l-5.9-3.934s-19.667 4.917-41.3 4.917c-21.634 0-40.318-2.95-55.068-2.95s-26.058 2.459-26.058 2.459-14.75 11.309-22.125 14.259l-1.968-7.375s-29.992 4.425-35.892 32.45c0 0-9.833-15.241-2.459-30.975 0 0-14.257 3.932-16.224 3.441 0 0 18.693-30.484-28.518-30.484-23.6 0-39.825 6.884-39.825 6.884s13.766-18.193-10.325-18.193-38.35 8.359-38.35 8.359 41.819-53.591 1.967-53.591c-33.43 0.005-54.572 13.28-54.572 13.28z"/>
   <path id="path4642" fill="#fff" d="m266.98 85.551s-32.45-5.9-46.463 2.213c0 0 36.138 0 50.15 8.112 0 0-64.163-8.85-90.713 12.538 0 0 39.088-9.587 69.326-6.638 0 0-11.063 4.425 0.738 11.8 11.8 7.375 19.175 8.85 16.225 21.388l6.145-9.096 6.885 6.884s17.699-1.475 29.99 0c12.292 1.475 29.009 2.95 38.35 2.95 9.343 0 34.911-3.441 34.911-3.441s-53.59-21.142-101.78-21.142c-5.411 0-11.311 0.982-7.868 6.883 0 0-16.718-8.241-16.718-12.666s12.785-2.084 12.785-2.084c5.9 0 112.1 10.816 122.92 29.992 0 0 0-43.759-88.008-52.609l9.833 8.36-15.732-1.475 9.343 8.357c0.01 0.001-24.58-8.356-40.31-10.324z"/>
   <path id="path4644" fill="#2d2062" d="m44.988 63.426s48.676-48.676 131.28-48.676c72.276 0 103.25 40.563 103.25 40.563s13.275 19.913 5.9 27.288-8.85-18.438-27.288-24.338l15.488 5.163s-16.962-22.125-45.726-16.963c0 0 16.225 3.688 20.65 8.85 0 0-36.138 3.688-37.613 6.638 0 0 28.025 5.9 29.5 10.325 0 0-26.55 0.737-33.925 7.375 0 0 49.413 2.212 60.476 5.9 0 0-32.45-5.9-46.463 2.213 0 0 36.138 0 50.15 8.112 0 0-64.163-8.85-90.713 12.538 0 0 39.088-9.587 69.326-6.638 0 0-11.063 4.425 0.738 11.8 11.8 7.375 19.175 8.85 16.225 21.388 0 0-5.9 8.85-14.75 12.538l-0.738-10.325s-28.025 2.213-40.563 28.025c0 0 2.213-21.388 8.113-26.55l-16.225 5.163s16.225-26.55-24.338-28.763-42.775 4.425-42.775 4.425 5.163-19.913-40.563-11.8c0-0.001 43.513-71.539-49.413-44.251z"/>
   <path id="path4646" fill="#fff" d="m210.66 32.6c-4.483-6.553-15.492-9.737-33.657-9.737-51.367 0-80.457 14.615-81.67 15.237l-19.771 10.881 22.751-2.623c0.383-0.085 32.271-7.094 57.629-7.748-34.125 4.315-46.178 60.506-46.696 63.005l-1.161 5.601 52.787-2.597s1.104-1.494 1.276-1.727c2.164-2.409 17.521-9.51 30.513-14.707l1.649-0.66 4.694-10.328 0.086-0.648c0.072-0.539 0.107-1.072 0.107-1.599 0-2.752-0.974-5.325-2.861-7.516-2.353-2.731-6.053-4.644-10.074-5.991 19.876-4.937 25.571-18.599 25.825-19.236 0.206-0.526 1.773-4.931-1.425-9.607zm-66.31 60.006c2.672-7.345 8.385-20.127 9.776-23.949 2.796 0 17.12-0.807 17.12 7.552-0.001 3.933-6.576 16.475-26.896 16.397zm14.36-34.736c2.578-5.156 7.334-17.424 8.382-19.52 3.418 0.478 16.367 1.773 15.566 7.375-0.984 6.884-8.072 12.218-9.834 13.029l-14.11-0.884z"/>
   <path id="path4648" fill="#d1b336" d="m165.94 62.688-13.158-0.737 7.995-19.175c-34.663-0.737-47.2 59.738-47.2 59.738l44.988-2.212c2.95-4.425 32.45-16.226 32.45-16.226l3.688-8.112c1.69-12.79-28.77-13.274-28.77-13.274zm9.588 15.488c-7.057 19.139-33.188 19.175-37.613 19.175l14.168-33.103s29.056-1.29 23.445 13.928zm1.475-50.888c-50.888 0-79.651 14.75-79.651 14.75s46.463-10.325 73.013-7.375c34.646 3.849 8.85 23.6 8.85 23.6 22.863-2.95 28.763-17.7 28.763-17.7s5.163-13.275-30.975-13.275z"/>
   <ellipse id="ellipse4650" d="m 263.58499,70.515999 c 0,4.276893 -3.76394,7.744 -8.407,7.744 -4.64305,0 -8.407,-3.467107 -8.407,-7.744 0,-4.276893 3.76395,-7.744 8.407,-7.744 4.64306,0 8.407,3.467107 8.407,7.744 z" cx="255.18" rx="8.407" ry="7.744" cy="70.516" fill="#c6332c"/>
   <ellipse id="ellipse4652" d="m 264.52099,71.785004 c 0,4.344272 -3.41249,7.866 -7.622,7.866 -4.20952,0 -7.622,-3.521728 -7.622,-7.866 0,-4.344272 3.41248,-7.866001 7.622,-7.866001 4.20951,0 7.622,3.521729 7.622,7.866001 z" cx="256.9" rx="7.622" ry="7.866" cy="71.785" fill="#fff"/>
   <ellipse id="ellipse4654" d="m 264.51999,72.276001 c 0,3.25848 -2.75166,5.9 -6.146,5.9 -3.39434,0 -6.146,-2.64152 -6.146,-5.9 0,-3.25848 2.75166,-5.9 6.146,-5.9 3.39434,0 6.146,2.64152 6.146,5.9 z" cx="258.37" rx="6.146" ry="5.9" cy="72.276" fill="#c6332c"/>
   <ellipse id="ellipse4656" d="m 265.01099,72.028999 c 0,3.122618 -2.31155,5.654 -5.163,5.654 -2.85144,0 -5.163,-2.531382 -5.163,-5.654 0,-3.122618 2.31156,-5.653999 5.163,-5.653999 2.85145,0 5.163,2.531381 5.163,5.653999 z" cx="259.85" rx="5.163" ry="5.654" cy="72.029"/>
  </g>
 </g>
</svg>
