<?xml version="1.0" encoding="UTF-8" standalone="no"?>
<!-- Created with Inkscape (http://www.inkscape.org/) -->
<svg id="svg3837" xmlns:rdf="http://www.w3.org/1999/02/22-rdf-syntax-ns#" xmlns="http://www.w3.org/2000/svg" height="256" width="256" version="1.1" xmlns:cc="http://creativecommons.org/ns#" xmlns:xlink="http://www.w3.org/1999/xlink" xmlns:dc="http://purl.org/dc/elements/1.1/">
 <defs id="defs3839">
  <linearGradient id="linearGradient4389" y2="924.36" gradientUnits="userSpaceOnUse" x2="255.5" gradientTransform="matrix(1.0039 0 0 1.0039 795.86 -1056)" y1="924.36" x1=".49805">
   <stop id="stop4393" offset="0"/>
   <stop id="stop4395" stop-color="#969696" offset="1"/>
  </linearGradient>
  <radialGradient id="radialGradient4421" gradientUnits="userSpaceOnUse" cy="208.25" cx="139" gradientTransform="matrix(1 0 0 .31871 0 141.88)" r="85.5">
   <stop id="stop4417" stop-opacity=".65179" offset="0"/>
   <stop id="stop4419" stop-opacity="0" offset="1"/>
  </radialGradient>
  <filter id="filter4515" height="1.5122" width="1.1632" y="-.25611" x="-.081624">
   <feGaussianBlur id="feGaussianBlur4517" stdDeviation="5.8157318"/>
  </filter>
 </defs>
 <metadata id="metadata3842">
  <rdf:RDF>
   <cc:Work rdf:about="">
    <dc:format>image/svg+xml</dc:format>
    <dc:type rdf:resource="http://purl.org/dc/dcmitype/StillImage"/>
    <dc:title/>
   </cc:Work>
  </rdf:RDF>
 </metadata>
 <g id="layer1" transform="translate(0 -796.36)">
  <rect id="rect3845" transform="rotate(90)" height="256" width="256" y="-256" x="796.36" fill="url(#linearGradient4389)"/>
  <path id="path4413" d="m224.5 208.25a85.5 27.25 0 1 1 -171 0 85.5 27.25 0 1 1 171 0z" transform="matrix(1.1228 0 0 1 -28.07 806.86)" filter="url(#filter4515)" fill="url(#radialGradient4421)"/>
  <g id="layer1-7" transform="matrix(.76820 0 0 .76820 -8.9656 592.68)">
   <g id="g2570" transform="matrix(1.2227 0 0 1.2227 118.5 369.27)">
    <g id="g4" transform="matrix(2.1043 0 0 1.9409 -50.301 -46.989)">
     <path id="path6" fill="#fff" d="m29.188 77.197c-0.332 0.109-1.014-0.074-1.014-0.074 0.229 1.798 0.48 2.412 0.48 2.412l-0.397 0.485 0.476 0.368c-0.512 3.558 0.998 6.006 1.696 8.391-0.551 0.184-1.18 0.152-1.653-0.105 0.186 2.019 0.016 5.905-1.615 7.592-0.31-0.199-0.536-0.256-0.657-0.44-0.242 0.567-0.429 0.789-0.922 2.237-0.276 0.97-0.515 2.329-0.643 3.795-1.342-0.689-2.806-1.411-4.125-3.635-0.294-0.527-0.5-0.951-1.217-1.655-0.166 0.333-0.194 0.431-0.525 0.741-0.35 0.33-1.258 0.733-1.264 0.7-0.184-0.895-0.404-1.724-0.935-2.732-0.509-1.118-2.257-2.604-3.686-6.234-0.586-1.393-0.879-2.635-1.123-4.068-0.109 0.053-0.185 0.089-0.257 0.106-0.531 0.149-0.913 0.111-1.096-0.29-0.449 1.209-1.008 1.885-1.485 2.213-0.219 0.697-0.184 0.882-0.661 1.449-0.437 0.658-0.586 0.826-0.891 2.072-0.494 1.265-1.234 1.89-1.346 2.217-0.184-0.401-0.256-0.326-0.439-0.623-1.797 2.385-2.018 3.007-6.087 3.854 1.025-2.021 1.722-5.393 1.649-6.088-0.514-4.732-0.991-5.722-1.25-9.39-0.152-1.834-0.584-6.344-0.18-12.356 0.438-7.26 2.492-13.532 4.254-18.264 2.273-6.599 7.479-17.233 11.278-23.731l0.015-5.896h1.467l1.541-3.521 0.695 0.515 2.64-7.042 1.87 5.317 3.198-2.018c1.278-1.171 10.371-14.299 29.628-14.272 18.662-0.027 37.879 14.568 37.879 37.89 0 21.193-17.312 37.549-37.29 37.549-15.483-0.001-25.454-7.885-30.742-15.109 0.337 3.631-0.367 10.856 2.734 17.64z"/>
    </g>
    <g id="g8" transform="matrix(2.1043 0 0 1.9409 -49.913 -46.936)">
     <path id="path10" d="m29.003 77.17-0.299 0.034-0.333-0.03-0.271-0.052-0.111-0.026 0.171 1.135 0.154 0.746 0.111 0.407 0.043 0.125-0.397 0.485 0.476 0.368-0.05 2.476 0.444 2.159 0.671 1.939 0.632 1.817-0.856 0.112-0.797-0.218 0.055 1.801-0.182 2.119-0.522 2.058-0.966 1.614-0.4-0.226-0.257-0.214-0.178 0.385-0.189 0.403-0.237 0.568-0.317 0.881-0.377 1.71-0.266 2.084-1.025-0.546-1.046-0.697-1.042-0.983-1.012-1.409-0.214-0.382-0.236-0.38-0.315-0.412-0.451-0.481-0.201 0.379-0.324 0.362-0.345 0.253-0.416 0.233-0.353 0.165-0.15 0.049-0.338-1.324-0.597-1.408-0.59-0.936-0.908-1.24-1.081-1.709-1.107-2.349-0.691-2.02-0.432-2.049-0.257 0.106-0.679 0.062l-0.417-0.344-0.734 1.437-0.753 0.777-0.129 0.441-0.105 0.332-0.153 0.309-0.274 0.367-0.281 0.426-0.214 0.388-0.189 0.5-0.206 0.758-0.403 0.834-0.413 0.626-0.342 0.45-0.187 0.307-0.22-0.352-0.219-0.271-0.611 0.815-0.526 0.673-0.506 0.556-0.549 0.459-0.655 0.388-0.825 0.339-1.059 0.313-1.355 0.312 0.7-1.706 0.536-1.835 0.329-1.587 0.084-0.96-0.377-2.949-0.345-2.147-0.298-1.946-0.231-2.349-0.15-1.859-0.149-2.752-0.045-3.536 0.164-4.208 0.602-5.252 1.028-4.829 1.277-4.355 1.347-3.828 0.981-2.648 1.206-2.93 1.378-3.117 1.502-3.209 1.572-3.203 1.594-3.103 1.564-2.906 1.482-2.614 0.015-5.896h1.467l1.541-3.521 0.695 0.515 2.64-7.042 1.87 5.317 3.198-2.018 0.331-0.355 0.518-0.597 0.708-0.804 0.901-0.974 1.099-1.106 1.299-1.203 1.503-1.263 1.711-1.285 1.921-1.272 2.135-1.221 2.353-1.133 2.574-1.008 2.798-0.848 3.026-0.649 3.257-0.414 3.492-0.142 3.5 0.164 3.485 0.499 3.439 0.824 3.366 1.142 3.263 1.449 3.131 1.749 2.971 2.039 2.781 2.322 2.562 2.596 2.314 2.86 2.037 3.117 1.732 3.364 1.399 3.604 1.034 3.834 0.641 4.055 0.221 4.27-0.2 3.914-0.583 3.783-0.946 3.638-1.288 3.473-1.608 3.292-1.906 3.094-2.184 2.88-2.438 2.649-2.673 2.399-2.886 2.135-3.077 1.853-3.246 1.554-3.396 1.237-3.521 0.905-3.627 0.556-3.71 0.19-5.55-0.353-5.042-0.992-4.545-1.531-4.058-1.97-3.58-2.307-3.111-2.547-2.652-2.686-2.204-2.723 0.087 1.522 0.046 1.811 0.062 2.054 0.136 2.249 0.265 2.397 0.45 2.497 0.694 2.551 0.995 2.558" stroke="#fff" stroke-width="2.584" fill="none"/>
    </g>
    <g id="g12" transform="matrix(2.1043 0 0 1.9409 -5.9745 -43.559)">
     <path id="path14" fill="#f1c817" d="m35.59 71.143c19.868 0 35.974-16.103 35.974-35.971 0-19.867-16.106-35.972-35.974-35.972-19.867 0-35.972 16.105-35.972 35.972 0 19.868 16.105 35.971 35.972 35.971z"/>
    </g>
    <g id="g16" transform="matrix(2.1043 0 0 1.9409 4.5925 -33.811)">
     <path id="path18" fill="#fff" d="m30.569 61.101c17.092 0 30.952-13.857 30.952-30.951s-13.86-30.95-30.952-30.95c-17.093 0-30.95 13.857-30.95 30.95-0.001 17.094 13.857 30.951 30.95 30.951z"/>
    </g>
    <g id="g20" transform="matrix(2.1043 0 0 1.9409 14.218 -25.765)">
     <path id="path22" fill="#010101" d="m6.51 23.072s-2.529 6.125-2.42 10.965c0 0 0.787-1.813 1.065-1.503 0 0-2.274 7.627-0.551 11.992 0 0 0.367-1.211 0.989-1.946 0 0 0.953-1.503 1.323-2.713 0 0 0.181 0.513 0.29 1.43 0 0 0.845-1.063 1.026-1.798 0.143-0.573 0.514-1.208 0.771-1.943l0.292 0.149s1.725-2.092 2.384-4c0 0 0.513-0.071 0.258 1.432 0 0 1.43-1.394 1.467-3.558l0.291 0.332c1.21 1.503 1.21 3.814 1.176 5.243-0.293 4.583-2.642 7.039-5.575 9.717l0.259 0.22c4.362-0.805 7.236-1.277 11.662 0 1.684 0.489 5.755 2.347 7.734 3.595 0 0 4.4 1.906 7.48 1.906 0 0 0.147 0.072 0.147-0.092 0 0-0.331-1.136-0.037-5.409 0 0 0.331-1.978 0.588-3.336 0 0 0.33-0.916 0.367-2.786 0.004-0.154-0.149-1.285 0.622-1.175 1.67 0.237 2.603-0.146 3.887-0.366 0 0 1.359-0.402 1.911-0.441 0 0 1.287 0.206 1.684 0.073 0.438-0.146 0.916-0.515 1.504-1.063 0 0 0.658-0.698 0.218-2.274 0 0-0.439-1.431-0.184-1.871 0 0 0.388-0.972 0.954-1.542 0 0 0.404-0.657-0.146-0.987 0 0-0.292-0.332 0.2-0.46 0 0 0.369 0.036 0.604-0.092 0 0 0.128-0.054 0.147-0.329 0.023-0.296 0.149-1.724-0.805-2.972 0 0 0.276 0.075 0.478 0.149 0 0 1.172 0.109 1.779-0.185 0.531-0.293 1.301-0.659 1.193-2.421-0.299-1.465-0.883-2.347-1.471-3.996-0.695-1.76-0.804-2.641-2.27-3.848-0.881-0.405-1.285-1.064-0.625-1.725 0.513-0.772 0.329-2.163-0.584-3.117-0.882-0.881-1.541-2.237-1.874-2.935-0.438-0.732-0.916-1.54-1.354-2.017-0.443-0.55-1.101-0.878-2.271-2.274 0 0-0.702-0.623-0.81-1.281-0.991-1.54-3.742-3.705-6.895-3.925-0.92-0.111-0.92-0.111-1.579-0.184-1.098-0.403-4.546-0.515-6.893 0.147-0.758 0.162-2.273 0.439-2.273 0.439-0.805 0.257-1.942 0.479-3.189 1.247-0.916 0.476-2.272 1.613-3.299 2.346-1.103 1.102-3.558 2.716-4.915 3.632-2.64 1.942-4.914 4.51-6.234 6.125 0 0-3.335 4.178-4.985 11.403-0.11 1.1-0.402 2.163-0.222 3.374 0 0 1.47-3.19 2.827-4.183 0 0-0.187 0.589-0.295 1.54 0 0 0.695-1.282 0.987-1.503 0 0 0.514-0.55 1.249-1.428 0 0 1.542-2.018 1.98-2.238-0.567 1.064-0.696 1.76-0.751 2.859 0.238-0.218 0.385-0.386 0.459-0.513 0 0 0.143-0.294 0.292-0.221 0.075 0.191-0.037 0.335-0.037 0.335z"/>
    </g>
    <g id="g24" transform="matrix(2.1043 0 0 1.9409 72.57 -18.714)">
     <path id="path26" fill="#57211b" d="m23.023 22.649c0.383-0.807 0.311-1.596-0.239-2.549-0.331-0.55-0.549-1.173-0.807-1.942-0.109-0.313-0.329-0.954-0.584-1.503-0.017-0.222-0.479-1.247-0.772-1.652-0.736-1.063-1.338-1.155-1.741-1.595 0 0.002-0.146-0.01-0.153-0.004-0.426 0.285-0.433 0.912-0.796 1.389-0.037 0.052-0.159 0.115-0.243 0.077-0.115-0.059-0.162-0.16-0.295-0.348-0.121-0.179-0.217-0.051-0.349 0.097-0.084 0-0.147 0.067-0.213 0.134-0.114 0.119-0.025 0.181 0.066 0.315 0.092 0.138 0 0.138 0.058 0.209-0.017 0.057-0.033 0.079-0.051 0.105-0.048 0.073-0.166 0.055-0.253 0.039-0.243-0.039-0.188-0.022-0.405-0.125-0.266-0.127-0.394-0.476-0.6-0.584-0.061-0.036-0.27-0.074-0.429 0.031-0.118 0.079-0.17 0.252-0.07 0.344 0.173 0.157 0.308 0.342 0.492 0.481 0.25 0.187 0.523 0.325 0.556 0.587 0.044 0.334-0.449 0.455-0.682 0.279-0.121-0.09-0.263-0.192-0.392-0.329-0.021-0.019-0.041-0.131-0.069-0.151-0.104-0.079-0.226-0.174-0.284-0.256-0.104-0.157-0.242-0.323-0.43-0.397-0.045-0.016-0.081-0.079-0.114-0.135-0.086-0.151 0.007-0.327-0.055-0.467-0.052-0.114-0.077-0.3-0.238-0.228-0.15 0.148-0.13 0.148-0.298 0.133-0.215-0.019-0.044-0.415-0.044-0.362 0.004 0.022-0.009-0.008 0.063-0.138-0.147-0.047-0.368-0.166-0.199-0.383 0.145-0.183 0.287 0.086 0.342-0.024 0.019-0.042 0.144-0.272 0.191-0.304 0.165-0.096 0.213 0.034 0.236 0.07-0.071 0.201 0.139 0.334 0.342 0.225 0.02-0.011 0.013-0.165 0.033-0.202 0.187-0.326 0.477-0.497 0.772-0.722 0.028-0.021 0.109-0.043 0.12-0.061 0.089-0.177 0.191-0.433 0.004-0.514-0.157-0.066-0.479-0.006-0.412-0.283 0.03-0.13 0.2-0.18 0.296-0.223 0.348-0.163 0.709-0.325 1.071-0.467 0.087-0.035 0.236-0.168 0.346-0.176 0.457-0.036 0.35-0.026 0.909 0.072 0.099 0.016 0.29 0.121 0.387 0.154 0.296 0.105 0.72 0.071 0.915-0.25 0.194-0.314 0.139-0.846-0.058-1.215-0.232-0.447-0.589-0.833-0.898-1.14-0.393-0.395-0.904-0.597-1.007-1.139-0.126-0.663-0.639-1.541-0.93-2.066-0.306-0.542-0.576-0.903-0.964-1.406-0.091-0.116-0.657-0.693-0.754-0.788-0.646-0.63-0.925-0.839-1.613-1.087-0.353-0.126-1.728-0.045-2.444-0.136-0.225-0.03-0.916-0.046-1.104-0.413-0.169-0.332-0.383-0.807-0.739-1.033-0.129-0.08-0.325-0.164-0.46-0.233-0.645-0.324-1.312-0.867-2.008-0.839-0.257 0.009-0.011 0.286 0.055 0.317 0.316 0.166 0.458 0.352 0.632 0.553 0.18 0.211 0.571 0.219 0.908 0.358 0.32 0.132 0.585 0.337 0.884 0.494 0.282 0.148 0.66 0.637 0.348 0.838-0.283 0.181-0.581-0.039-0.955 0.055-0.075 0.02-0.188 0.07-0.622 0.07-0.578 0.079-0.779-0.199-1.224-0.515-0.445-0.318-0.725-0.805-1.154-1.108-0.527-0.372-1.06-0.681-1.663-0.893-0.133-0.047-0.308 0.027-0.426-0.036-0.207-0.116-0.366-0.365-0.628-0.386-0.446-0.031-0.446-0.068-0.891 0-0.062 0.013-0.226 0.199-0.28 0.198-0.263-0.01-0.568-0.083-0.701 0.062-0.203 0.233 0.047 0.207 0.308 0.334 0.147 0.067 0.456 0.235 0.633 0.231 0.742-0.014 1.217-0.02 1.798 0.295 0.062 0.036 0.323 0.292 0.337 0.388-0.551-0.01-1.422-0.228-2.059-0.176 1.072-0.087-1.094 0.029-1.566 0.011-0.142-0.005-0.142 0.285 0.079 0.446 0.058 0.041 0.386-0.019 0.429 0.086 0.192-0.102 0.742-0.053 0.901 0.008 0.276 0.098 0.12 0.056 0.361 0.183 0.147 0.078 0.288 0.184 0.46 0.164 0.224-0.026 0.238-0.357 0.463-0.251 0.077 0.037 0.249 0.142 0.286 0.14 1.272-0.024 1.301 0.374 1.894 0.365 0.154 0 0.382-0.062 0.49 0.012 0.238 0.166 0.462 0.186 0.829 0.038 0 0 0.845 2.273 0.624 6.417-0.22 1.76-0.329 2.092-0.734 3.522 0 0-0.584 2.272-0.367 3.848 0.223 5.318-1.394 9.719-3.151 12.653-0.661 0.806-1.029 1.245-0.367 1.83 1.394 1.285 2.532 1.578 4.508 2.02 0.701 0.219 1.139 0.292 1.797 0.292 1.026 0 2.644 0.439 3.375 0.991 0.695 0.368 2.567 1.064 3.702 0.879 0.989 0.074 1.284 0.148 1.764 0.331 0.328 0.144 0.661 0.144 1.027 0.036 0.309-0.22 0.164-0.129 0.566-0.422 0.073-0.181 0.605-0.42 0.496-1.155-0.037-0.549-0.257-1.119-0.364-1.631-0.317-0.453-0.297-0.789-0.187-1.264 0.331-0.662 0.716-0.991 0.919-1.321 0.438-0.496 0.184-0.842-0.423-1.01-0.293-0.127-0.86-0.073-1.448-0.127-0.312 0-0.569-0.129-1.008-0.038 0 0-0.297 0.202-0.458 0.351l-0.223-0.13s0.205-0.587 0.622-0.935c0.422 0.073 1.04 0.122 1.36 0.038 0.379-0.173 0.816-0.244 1.136-0.369 0.552-0.053 0.809-0.018 1.468 0.02 0 0 0.329-1.43-0.825-2.513-0.275-0.254-0.499-0.586-0.896-0.603-1.4 0.166-2.166-0.403-2.389-0.551-0.345-0.018-0.453 0.13-0.64 0.351-0.479 0.804-1.045 1.08-1.045 1.08l-0.293-0.037s0.257-0.439 0.841-1.174c0.262-0.587 0.625-1.319 0.955-1.687 0.2-0.348 0.258-1.136 0.751-1.356 0.24 0 0.279-0.056 0.457 0.055-0.362 0.347-1.391 1.594-0.325 2.363 0.438 0.368 1.1 0.368 1.262-0.018 0.08-0.211 0.257-0.347 0.349-0.422 0.551-0.11 1.01 0.165 1.191 0.313 0.44 0.514 0.698 0.751 0.915 0.86 0.241 0.185 0.683 0.146 0.9 0.146 0.716-0.124 1.1-0.53 1.229-0.786z"/>
    </g>
    <g id="g28" transform="matrix(2.1043 0 0 1.9409 105.51 6.7982)">
     <path id="path30" fill="#57211b" d="m-0.294 0.903c0.221 0.112 0.311 0.077 0.761 0.141 0 0 0.394 0.063 0.75-0.248 0.058-0.05 0.357-0.201 0.347-0.322-0.038-0.558 0.047 0.363-0.063-0.476-0.025-0.178-0.016-0.34-0.088-0.529-0.033-0.098-0.188-0.269-0.416-0.19-0.042 0.016-0.405 0.312-0.412 0.326-0.2 0.384-0.512 0.429-0.651 0.689-0.12 0.226-0.192 0.283-0.258 0.426-0.025 0.066-0.058 0.135 0.03 0.183z"/>
    </g>
    <g id="g32" transform="matrix(2.1043 0 0 1.9409 112.46 20.426)">
     <path id="path34" fill="#0c130f" d="m-0.219-0.594c0.629-0.206 0.934 0.087 1.629 0.561 0.121 0.082 0.221 0.297 0.046 0.414-0.058 0.039-0.189 0.032-0.229-0.006-0.609-0.583-0.806-0.588-1.472-0.707-0.033-0.003-0.137-0.209 0.026-0.262z"/>
    </g>
    <g id="g36" transform="matrix(2.1043 0 0 1.9409 102.7 32.958)">
     <path id="path38" fill="#0c130f" d="m0.673-0.602c-0.096 0.287-0.191 0.542-0.314 0.816-0.125 0.285-0.066 0.637-0.26 0.893-0.085 0.114-0.32 0.07-0.356-0.064-0.125-0.501-0.063-1.029 0.176-1.488 0.128-0.237 0.445-0.355 0.717-0.265-0.027 0.058 0.057 0.088 0.037 0.148v-0.04z"/>
    </g>
    <g id="g40" transform="matrix(2.1043 0 0 1.9409 90.975 20.995)">
     <path id="path42" fill="#0c130f" d="m-0.061 2.19c-0.208-0.069-0.32-0.263-0.292-0.477 0.071 0.02 0.012-0.081 0.074-0.075 0.437 0.028 0.846 0.204 1.284 0.214 0.499 0.01 0.999-0.084 1.455-0.3 0.566-0.27 1.055-0.559 1.599-0.921 0.243-0.161 0.592-0.257 0.893-0.322 0.475-0.108 0.445-0.375 0.798-0.585 0.518-0.301 0.479-0.524 0.769-0.409 0.082 0.033-0.084 0.216-0.173 0.298-0.195 0.175-0.452 0.35-0.629 0.661-0.04 0.062-0.312 0.353-0.364 0.396-0.594 0.439-0.727 0.821-1.169 1.36-0.25 0.307-0.331 0.708-0.497 1.064-0.099 0.21-0.161 0.428-0.29 0.621-0.054 0.08-0.253 0.041-0.321 0.109-0.366 0.351-0.716 0.688-0.987 1.145-0.045 0.074-0.199 0.071-0.221 0.031-0.235-0.451-0.562-0.792-1.12-0.808-0.099-0.004-0.206-0.227-0.2-0.425 0.004-0.044-0.043-0.125-0.096-0.137-0.087-0.014-0.126-0.095-0.217-0.1-0.095-0.005-0.171-0.152-0.188-0.214-0.113-0.356-0.072-0.752-0.145-1.126h0.037z"/>
    </g>
    <g id="g44" transform="matrix(2.1043 0 0 1.9409 60.051 42.777)">
     <path id="path46" fill="#fff" d="m6.505 1.146c-0.093-0.367-0.684-0.334-1.108-0.291-0.643 0.069-1.23 0.179-1.854 0.508 0.411-0.622 0.917-0.66 1.877-1.029 0.218-0.084 0.165-0.468 0.026-0.693-0.162-0.258-0.372-0.271-0.454-0.287-0.792-0.154-1.046 0.029-1.466 0.137-1.452 0.374-2.88 1.471-3.676 2.521-0.232 0.307-0.155 0.63-0.107 0.697 0.148 0.199 0.378 0.753 0.441 0.686 0.589-0.637 1.303-1.224 2.075-1.04-0.329 0.106-1.486 0.693-1.853 1.542-0.023 0.054 0.149 0.363 0.367 0.528 0.295 0.495 0.404 0.696 0.57 0.788 0.103-0.01 0.319-0.225 0.378-0.316 0.809-1.077 1.618-1.737 3.854-2.03 0.642-0.109 1.008-0.294 1.065-0.881 0 0 0.126-0.292-0.129-0.88"/>
    </g>
    <g id="g48" transform="matrix(2.1043 0 0 1.9409 68.709 53.167)">
     <path id="path50" fill="#fff" d="m-0.28-0.8c0.038 0.551-0.042 0.799 0.112 1.158 0.151 0.339 0.463 0.633 0.58 0.984 0.092 0.267 0.407 0.608 0.407 0.793 0.151 0.144 0.167 0.275 0.167 0.275 0.194 0.257 0.775 0.565 0.57 0.714-0.24 0.186-0.954 0.055-1.384-0.016-0.554-0.092-0.234 0.411-0.115 0.462 0.562 0.232 1.742 0.311 2.128 0.524 0.234 0.129 0.54 0.324 0.639 0.554 0.074 0.172 0.205 0.322 0.32 0.47 0.371 0.5 0.504 0.716 0.889 1.032 0.191 0.157 0.412 0.425 0.345 0.666-0.08 0.282-0.259 0.342-0.528 0.305-0.085-0.013-0.353-0.093-0.61-0.204-0.512-0.161-0.622-0.35-0.99-0.161-0.198 0.102 0.092 0.439 0.317 0.561 0.92 0.489 2.032 0.5 2.926 1.019 0.764 0.444 1.23 0.985 1.189 2.128 0 0.021 0.276 0.172 0.292 0.147 0.262-0.411 0.924 0.099 1.246 0 0.03-0.01 0.038-0.183-0.006-0.254-0.152-0.233-0.482-0.24-0.621-0.465-0.148-0.237 0.065-0.492-0.008-0.7-0.077-0.209-0.433 0.155-0.566 0.017-0.587-0.61-0.97-1.334-1.761-1.686 0.331-0.915 0.475-1.942 0.401-2.42-0.218-0.182-0.309 0.111-0.364 0.147-0.181 0.173-0.11 0.55-0.321 0.838-0.037 0.048-0.321-0.009-0.4-0.079-0.54-0.461-1.044-1.007-1.296-1.661-0.008-0.024-0.116-0.158-0.14-0.19-0.396-0.556-0.372-1.332 0.088-1.89 0.048-0.061 0.124-0.403 0.077-0.442-0.083-0.065-0.267 0.067-0.342 0.142-0.251 0.257-0.467 0.77-0.891 0.724-0.48-0.051-0.662-0.535-0.955-0.852-0.092-0.311-0.266-0.51-0.221-0.551-0.403-0.586-0.438-1.063-0.812-1.795-0.083-0.165-0.199-0.244-0.362-0.294z"/>
    </g>
    <g id="g52" transform="matrix(2.1043 0 0 1.9409 37.288 41.71)">
     <path id="path54" fill="#57211b" d="m17.438 15.005c0.479 0.244-0.072-0.313-0.072-0.313-0.184-0.128-0.615-0.794-0.699-0.951-0.206-0.357-0.354-0.633-0.477-0.917-0.18-0.442-0.538-0.754-1.13-1.325-0.296-0.286-0.754-0.793-0.94-1.163-0.29-0.574-0.455-1.604-1.151-2.086-0.537-0.374-0.408-0.799-0.871-1.523-0.178-0.274-0.541-0.308-0.808-0.58-0.671-0.676-0.246-0.937-0.831-1.558-0.261-0.271-0.372-0.326-0.595-0.742-0.292-0.533-0.072-1.232-0.567-1.477-0.439-0.22-0.78-0.298-1.078-0.397-0.463-0.152-1.198-0.53-1.614-0.854-0.437-0.341-1.333-1.088-2.291-1.919 0.585 4.51-0.224 8.361-4.695 12.395 8.287-1.541 11.916 0.403 17.819 3.41z"/>
    </g>
    <g id="g56" transform="matrix(2.1043 0 0 1.9409 75.602 47.545)">
     <path id="path58" fill="#57211b" d="m2.365 6.242c0.025 0.369 0.151 0.302 0.356 0.809 0.102 0.254 0.39 0.699 0.54 0.825 0.849 0.712 1.434 1.811 1.375 2.944 0.041 0.553 0.07 0.519 0.612 0.903 0.092 0.068 0.147 0.074 0.436 0.346 0.111 0.093 0.902 0.937 1.011 1.028-0.019-0.332 0.033-0.89 0.026-1.065-0.049-1.73 0.285-3.517-0.303-5.03-0.439-1.132-1.429-2.406-1.818-3.591l-0.195-0.647c-0.203-0.919-0.223-1.878-0.223-1.878l-1.226-0.586c-0.966-0.386-2.053-0.741-3.025-1.1 0 0.514 0.071 0.878-0.312 1.392 0.258 0.625 0.474 2.001 0.768 2.331 0.641 0.603 1.155 1.08 1.578 2.529 0.095 0.345 0.384 0.532 0.4 0.79z"/>
    </g>
    <g id="g60" transform="matrix(2.1043 0 0 1.9409 19.461 -15.514)">
     <path id="path62" fill="#fff" d="m14.14-0.323s-0.732-0.072-2.457 1.247c-1.905 1.173-4.435 2.86-6.271 5.097-1.336 1.337-3.226 3.373-3.922 4.804 0 0-1.138 1.797-1.871 4.73 0 0 0.259 0.954 0.991-0.293 1.28-2.18 6.159-9.518 13.126-14.869l0.333-0.019c-3.45 2.968-7.921 6.968-12.268 13.771-0.162 0.252-0.371 0.701-0.391 0.735-0.195 0.364 0.303 0.42 0.049 0.358 0.397 0.097 0.543-0.454 0.798-0.563 0.157-0.069 0.224 0.402 0.474 0.281 0.888-0.43 1.545-1.347 1.909-1.897 0.02 0.157 0.224 0.624 0.224 0.624 0.401 0.111 1.65-1.612 2.309-2.786 0.185 0.218-0.044 0.756 0.198 0.526 0.754-0.711 1.427-1.473 1.827-2.169 0.468-0.814 0.983-1.18 1.166-2.609 0.293 0.183 0.287 0.261 0.367 0.328 0.184-0.22 0.196-0.451 0.489-0.779 0.316-0.358 0.379-0.637 0.766-0.89 0.139-0.092 0.442-0.665 0.504-0.964 0.058-0.284 0.688-1.205 0.734-1.511 0.512-0.954 1.394-1.467 2.016-2.2 0.587-0.511 0.146-1.429-1.1-0.952z"/>
    </g>
    <g id="g64" transform="matrix(2.1043 0 0 1.9409 26.405 -10.459)">
     <path id="path66" fill="#fff" d="m4.387 25.711c0.257 0.294 0.475-0.092 0.475-0.092 0.424-0.641 0.515-0.807 0.809-1.668 0.184-0.569 0.403-0.771 0.586-3.152 0.514 0.769 0.587 2.235 0.587 2.235l0.147-0.036s0.478-1.357 1.283-1.797c0 0 0.073-0.916 0.879-1.832-0.108-0.551-0.184-0.992-0.291-1.872-0.331-1.466-0.515-3.922-0.185-5.609 0.659 3.518 1.045 4.034 1.045 4.034l0.147 0.053c0.276-0.42 0.35-1.153 0.426-1.814 0.325-1.393 0.913-1.246 0.913-1.541-0.184-1.136-0.476-2.933-0.294-4.474 0.368 1.687 0.551 1.578 0.805 2.203 0.33 0.768 0.367-0.186 0.367-0.186-0.071-0.989 0.625-1.98-0.037-4.291-0.255-1.576-0.989-4.95-0.695-5.721 0.184-0.952-0.147-0.623-0.147-0.623s-0.955 0.22-2.383 4.255c-2.089 6.71-3.886 13.86-5.831 19.655 0.585-3.044 3.702-13.788 4.621-17.673 0 0-0.129-0.277-0.329 0.034-0.241 0.276-0.478 0.623-0.607 0.861 0.018-0.014-0.11 0.02-0.255 0.095l-0.462 0.695s-0.913 1.282-3.426 3.887c-0.424 0.662-0.605 0.964-1.063 2.017-0.166 0.385 0.091 0.441 0.366 0.221 0.677-0.66 0.714-0.66 1.65-1.376 0.041-0.031 0.795-0.303 0.795-0.316-0.119 0.152-0.278 0.251-0.336 0.31-0.26 0.245-0.895 0.959-1.067 1.262-0.428 0.737-0.892 1.653-1.505 2.763-0.769 1.391-1.353 3.004-1.353 3.004-0.404 1.137-0.294 1.247-0.294 1.247 0.549 0.22 0.25 0.498 0.25 0.498-0.25 0.456-0.36 0.821 0.063 0.657 0.277-0.056 0.423-0.196 0.536-0.338 0.217-0.267 0.399-0.451 0.549-0.636 0.246-0.307 0.198-0.4 0.464-0.702 0.341-0.396 0.558-0.726 0.908-0.889-0.607 0.823-0.642 1.41-0.642 1.41l0.148 0.182 0.106 0.074s-0.622 0.77-0.913 2.516c-0.142 0.829-0.113 0.932-0.241 1.392 0.062-0.059 0.424 0 0.746-0.328-0.14 0.51-0.168 0.767-0.168 0.767-0.062 0.421-0.062 0.348-0.062 0.826 0 0.441 0 0.254 0.146 0.768 0.659-0.293 0.805-0.256 1.427-0.988 0.295-0.276 0.52-0.946 0.61-0.9 0.163 0.075 0.025 0.448-0.049 0.612-0.1 0.231-0.19 0.403-0.226 0.569-0.02 0.085-0.104 0.209 0.03 0.324 0.058 0.052 0.017 0.044 0.205 0.039 0.112-0.003 0.216-0.174 0.216-0.174s0.059-0.014 0.117-0.141c0.042-0.108 0.126-0.168 0.199-0.22 0.001-0.001 0.111-0.111 0.24-0.076z"/>
    </g>
    <g id="g68" transform="matrix(2.1043 0 0 1.9409 -13.103 -16.369)">
     <path id="path70" fill="#0c130f" d="m6.182 6.168h-0.769l2.53-5.758-3.117 2.438-0.716-3.648-1.63 4.97-0.79-0.604-1.19 2.674h-0.882v2.897h5.391l1.173-2.969z"/>
    </g>
    <g id="g72" transform="matrix(2.1043 0 0 1.9409 -8.9315 2.5658)">
     <path id="path74" fill="#0c130f" d="m-0.382-0.764 2.859 1.906 0.293-0.844-1.687-1.098-1.465 0.036z"/>
    </g>
    <g id="g76" transform="matrix(2.1043 0 0 1.9409 -46.949 1.8531)">
     <path id="path78" fill="#0c130f" d="m18.489-0.8 1.539 1.577s-1.209 5.096-0.989 7.885c2.238 2.163 3.888 4.253 3.631 8.946 0 0 0.146 0.109-0.806-0.183 0.477 0.514 0.622 0.917 1.026 1.796 0.183 1.43 0.296 2.714 0.183 4.034 0 0 0.113 3.263 0.221 4.289 0.441 0.147 0.184 1.321 0.221 2.862 0 0-0.037 0.953-0.187 1.687-0.914-0.734-0.842-0.696-1.098-0.623 0.219 0.73 0.366 0.73 0.808 1.318 0 4.365 0.147 8.875 0.439 10.856 0.146 1.43 0.403 3.078 0.513 3.593 0.22 0.659 0.22 1.244 0.88 2.639-0.219 0-0.834 0.018-1.247-0.512 0.587 1.098 0.587 0.88 0.954 1.246l0.512 3.814-0.585 0.658 0.808 0.513s-0.184 1.725 0.036 3.3c0.108 0.734 0.33 1.468 0.845 2.494-1.065 0.039-1.248-0.841-1.248-0.841-0.293-0.332-0.807-1.067-0.954-1.067-0.073 1.067 0.514 1.47 0.77 2.093 0.747 1.791 0.846 3.521 0.184 6.855-0.734-0.695-0.77-1.321-1.321-1.649-0.072 1.904-0.146 2.492-0.512 3.333-0.77 1.504-0.991 2.279-1.027 3.745-1.284-1.067-1.614-2.532-2.494-3.375-0.624-0.623-1.869-1.798-2.31-2.567-0.074 0.914 0 1.248-0.367 2.125-0.294-1.018-0.329-1.319-1.027-2.161-0.916-1.285-2.971-4.144-3.446-7.188-0.112-0.514-0.404-2.017-0.733-4.071-0.258 0.699-0.696 1.248-1.137 1.358-0.221 0.112-0.221-0.182-0.221-0.182 0.183-0.662 0.257-1.394 0.183-1.944-0.108-0.809-0.329-2.604-0.733-3.044h-0.185c0.037 1.209-0.44 1.76-0.733 2.163-0.036-0.954 0-1.686-0.22-2.163-0.11-0.333-0.366-0.623-0.44-0.294-0.183 0.954-0.256 1.137-0.256 2.017-0.073 1.321-0.073 1.763-0.222 2.861-0.072 0.807-0.329 1.796-1.061 2.785-0.147-0.877-0.697-1.575-0.697-1.575 0 1.063 0.221 2.639-0.439 3.484-0.809 1.099-0.919 1.649-1.175 2.457-0.111-0.955-0.403-0.661-0.549-1.175-0.588 2.491-2.423 4.399-3.082 4.838 0.44-1.023 0.808-2.199 0.881-2.932 0 0-0.11-2.713-0.515-4.252-1.003-4.801-1.489-15.888-0.731-20.098 1.831-15.107 9.68-28.969 16.28-41.436l1.833-0.289z"/>
    </g>
    <g id="g80" transform="matrix(2.1043 0 0 1.9409 -26.103 3.9892)">
     <path id="path82" fill="#fff" d="m9.354-0.398s-1.138 4.877-0.917 8.288c1.541 1.32 3.191 3.117 3.264 6.82-0.128 0.056-0.146 0.019-0.258-0.074-0.438-0.565-1.612-0.752-2.492-2.18 0.129 0.899 2.716 4.493 2.898 5.188 0.035 2.238 0.365 5.483 0.181 6.124-0.624-0.311-0.95-1.026-0.88-0.587 0.478 1.228 0.88 2.311 1.449 3.209 0 0 0.056 3.171-0.056 2.731h-0.147c-0.513-0.368-1.026-0.807-1.41-1.173-0.24-0.128-0.276-0.439-0.717-0.864-0.658-0.604-1.026-1.117-1.301-1.228-0.698-0.493-1.174-0.659-1.577-0.786-0.127 0-0.385-0.037-0.385-0.037s1.321 1.118 2.164 2.383c1.009 1.21 1.43 1.924 1.776 2.655 0.387 0.737 0.937 1.469 1.377 2.092 0 1.01-0.074 4.363-0.019 4.932l-0.276-0.202c-0.658-0.403-1.374-1.304-1.98-2.476-0.329 1.689 1.467 3.667 2.292 4.328 0.275 3.136 0.275 4.6 0.79 7.9l-0.037 0.257c-0.735-0.512-1.504-1.321-2.421-2.638-0.073 1.282 1.21 2.969 2.568 4.582 0.178 0.216 0.13 0.498 0.227 0.742 0.161 0.406 0.322 0.909 0.523 1.183 0.166 0.714 0.239 1.669 0.202 2.072l-0.55 1.064 0.733 0.881c0.072 0.953-0.109 1.208 0 2.272 0 0-0.842-0.072-1.211-1.028-0.659 1.836 0.075 3.89 0.661 4.953 0.44 1.246 0.696 2.015 0.622 3.372l-0.146 0.402c-0.439-0.879-1.062-1.611-1.687-2.088l-0.255-0.071c0.617 3.858 0.404 5.132-0.768 7.592l-0.186-0.184c-0.659-1.286-1.905-2.276-2.784-3.19-0.148-0.036-1.687-1.981-1.799-3.558l-0.182 0.038c-0.074 0.55-0.295 1.725-0.147 1.943l-0.147-0.073c-0.879-0.405-2.475-3.519-2.749-5.315 0 0-0.058-0.351-0.184-1.066-0.056-0.696-0.421-2.823-0.496-3.117-0.128-0.788-0.463-1.784-0.603-2.309 0.019-0.184-0.109-0.239-0.202-0.091-0.202 0.289-0.365 0.567-0.477 0.384-0.092-0.182-0.017-0.476 0.056-0.879-0.147 0.109-0.476 0.155-0.514-0.11-0.404-1.797-0.623-4.034-0.623-5.868 0.184-0.475 0.696-1.354 1.101-2.311l-0.036-0.218c-0.441 0.218-1.175 0.953-1.321 1.354l-0.184-0.255c-0.146-0.736-0.292-2.165-0.292-3.667-0.074-0.276 0.035-0.439 0.147-0.661 0.292-0.695 0.624-1.474 0.879-2.237 0.221-0.772 1.449-3.151 1.817-3.704l-0.242 0.22c-0.675 0.24-2.418 2.348-2.638 2.495l-0.165 0.017c0.091-2.109 0.678-6.801 1.081-9.682 0.404-1.081 3.558-4.38 2.823-3.794-1.428 0.514-1.905 1.027-2.2 1.174l-0.439 0.147c0.438-2.047 1.349-9.446 2.311-11.441 0.695-1.21 1.393-1.54 1.906-2.86l-0.368 0.182c-0.256 0.259-1.394 1.102-2.089 2.056l-0.223 0.036c0.33-0.953 0.441-1.979 1.101-3.3 0.182-0.552 0.477-0.771 0.698-1.247 0.548-0.698 0.769-0.955 1.283-1.211 0.255-0.108 0.733-0.292 0.733-0.292-1.464 6.005-1.98 10.887-2.421 17.563-0.44 10.635 0.452 23.503 4.036 31.463-2.862-9.313-3.962-19.434-3.595-29.702 0.293-8.801 1.611-15.842 4.474-27.722l0.623 0.402z"/>
    </g>
    <g id="g84" transform="matrix(2.1043 0 0 1.9409 -44.894 2.9904)">
     <path id="path86" fill="#fff" d="m16.339-0.8c-0.916 1.248-7.224 13.129-7.847 15.293-5.571 11.183-8.874 22.33-8.654 33.297 0 4.802 0.515 8.103 1.1 11.622 0.258 1.356 0.623 3.19 0.55 4.362l0.185-0.109c0.256-0.477 0.952-1.979 1.174-3.225 0.074-0.477 0.33 0 0.33 0 0.107 0.328 0.329 0.476 0.366 0.805 0 0.295 0.144 0.259 0.219 0.036 0.403-0.805 0.514-1.284 0.366-2.126-0.146-0.696-0.255-3.593 0.074-4.657 0-0.295 0.256 0 0.256 0 0.185 0.441 0.478 1.248 1.136 1.908 0 0 0.276 0.182 0.294 0-0.07-0.77-0.145-5.794 1.028-6.346 0.439 0.109 0.477 0.405 0.806 0.734 0.369-0.404 0.515-2.127 0.405-3.447 0.036-2.053-0.258-4.108-0.441-5.389-0.154-0.405 0-0.479 0.22-0.553 0.054-0.039 0.88-1.063 0.88-1.611-0.694 0.476-0.88 0.586-1.54 1.028-0.073-1.579-0.77-4.071-1.539-6.018 0.807 0.737 1.318 1.578 1.576 2.276 0.293-1.613 0.403-2.569 0.44-3.339-0.402-1.43-1.172-4.545-1.1-6.857 0.477 1.688 0.916 3.521 1.394 4.622 0.22-0.809 0.403-2.239 0.696-3.449 0.402-0.293 0.88-0.587 1.026-0.841-0.147-0.259-0.772 0.22-0.88 0.254 0.073-1.136 0.256-3.336-0.513-6.93l0.108-0.11c0.33 0.148 0.733 0.807 0.88 1.505 0.661-0.77 1.101-4.583 1.284-6.086-0.697 0-1.026 0.769-1.504 0.694 0.073-0.477 0.11-0.255 0.293-0.694 0.184-0.515 0.625-1.03 0.808-1.725 0.403-0.587 0.403-1.284 0.44-1.943 0-0.624-0.073-1.54 0.439-2.347 0.112 0.327 0.038 0.55 0.292 1.246 0 0 1.029-2.237 1.579-2.749 0.731-3.191 2.492-6.785 4.144-9.133"/>
    </g>
    <g id="g88" transform="matrix(2.1043 0 0 1.9409 -14.338 6.3565)">
     <path id="path90" fill="#fff" d="m2.15-0.518c-1.211 1.726-2.091 4.438-2.532 6.382 0.55-0.294 0.587-0.259 1.101-0.44 0.184-0.918 1.63-6.224 1.431-5.942z"/>
    </g>
    <g id="g92" transform="matrix(2.1043 0 0 1.9409 -34.784 84.221)">
     <path id="path94" fill="#f1c817" d="m-0.264 1.241c0.022 0.106 0.192 0.04 0.102 0.146 0.22 0 0.449 0.043 0.653-0.02 0.103-0.03 0.173-0.191 0.191-0.279 0.06-0.307 0.211-0.698-0.065-0.913-0.242-0.197-0.2-0.507-0.371-0.658-0.079-0.069-0.247-0.116-0.361-0.23-0.085-0.087-0.239 0.107-0.238 0.194 0.004 0.24 0.163 0.484 0.159 0.742-0.005 0.394-0.188 0.504-0.07 1.018z"/>
    </g>
    <g id="g96" transform="matrix(2.1043 0 0 1.9409 -41.391 79.653)">
     <path id="path98" fill="#f1c817" d="m0.228 0.224c-0.025-0.425-0.165-1.024 0.468-0.856 0.199 0.051 0.244 0.346 0.249 0.489 0.01 0.384 0.098 0.691 0.261 1.028 0.093 0.191-0.064 0.356-0.16 0.492-0.245 0.363-0.75 0.568-1.038 0.21-0.176-0.217-0.39-0.543-0.231-0.84 0.125-0.233 0.225-0.36 0.414-0.563"/>
    </g>
    <g id="g100" transform="matrix(2.1043 0 0 1.9409 -39.471 87.422)">
     <path id="path102" fill="#f1c817" d="m-0.049 0.587c-0.333-0.479-0.177-0.925 0.212-1.209 0.246-0.178 0.544-0.058 0.615 0.152 0.136 0.441 0.308 0.809 0.444 1.248 0.139 0.447-0.427 0.88-0.825 0.685-0.284-0.145-0.264-0.614-0.446-0.876z"/>
    </g>
    <g id="g104" transform="matrix(2.1043 0 0 1.9409 -39.804 93.391)">
     <path id="path106" fill="#f1c817" d="m0.45-0.75c-0.159-0.05-0.174 0.087-0.253 0.158-0.165 0.141-0.166 0.439-0.31 0.634-0.269 0.362-0.188 0.873-0.082 1.218 0.071 0.237 0.425 0.582 0.726 0.556 0.476-0.04 0.828-0.925 0.465-1.135-0.472-0.28-0.306-0.985-0.48-1.367-0.013-0.028-0.126-0.01-0.2-0.01"/>
    </g>
    <g id="g108" transform="matrix(2.1043 0 0 1.9409 -31.952 90.609)">
     <path id="path110" fill="#f1c817" d="m-0.255-0.221c-0.122-0.162-0.127-0.381 0.013-0.485 0.128-0.094 0.351-0.049 0.48 0.063 0.039 0.033 0.172 0.12 0.211 0.151 0.394 0.313 0.635 0.732 0.422 1.212-0.058 0.135-0.292 0.262-0.456 0.14-0.127-0.095-0.304-0.101-0.392-0.264-0.141-0.265-0.084-0.565-0.278-0.817z"/>
    </g>
    <g id="g112" transform="matrix(2.1043 0 0 1.9409 -42.5 85.525)">
     <path id="path114" fill="#f1c817" d="m0.423-0.566c-0.071-0.234-0.269-0.119-0.379 0.051-0.259 0.402-0.389 0.792-0.426 1.379 0.073 0.328 0.546 0.391 0.777 0.245 0.525-0.329 0.149-1.592 0.124-1.418 0.016-0.113-0.096-0.282-0.096-0.257z"/>
    </g>
    <g id="g116" transform="matrix(2.1043 0 0 1.9409 -20.059 92.866)">
     <path id="path118" fill="#f1c817" d="m-0.042-0.719c-0.107-0.081-0.284 0-0.294 0.132-0.04 0.376-0.046 1.09 0.526 0.974 0.203-0.039 0.338-0.249 0.29-0.462-0.069-0.304-0.294-0.475-0.522-0.644z"/>
    </g>
    <g id="g120" transform="matrix(2.1043 0 0 1.9409 -18.091 95.351)">
     <path id="path122" fill="#f1c817" d="m0.393-0.662c-0.139-0.138-0.385-0.116-0.488-0.038-0.209 0.162-0.287 0.505-0.213 0.764 0.082 0.282 0.178 0.583 0.387 0.801 0.134 0.14 0.413 0.302 0.487 0.201 0.171-0.242 0.331-0.566 0.255-0.916-0.07-0.311-0.212-0.588-0.428-0.812z"/>
    </g>
    <g id="g124" transform="matrix(2.1043 0 0 1.9409 -6.4305 94.754)">
     <path id="path126" fill="#f1c817" d="m0.097-0.794c-0.102 0.009-0.232 0.023-0.273 0.086-0.205 0.322 0.019 0.696 0.291 0.83 0.285 0.146 0.645-0.335 0.433-0.6-0.134-0.173-0.347-0.322-0.597-0.316"/>
    </g>
    <g id="g128" transform="matrix(2.1043 0 0 1.9409 -11.291 99.555)">
     <path id="path130" fill="#f1c817" d="m-0.11 0.106c-0.106-0.054-0.272-0.394-0.191-0.621 0.075-0.203 0.307-0.285 0.504-0.251 0.227 0.043 0.373 0.203 0.501 0.371 0.336 0.432 0.431 1.107-0.005 1.468-0.177 0.15-0.496 0.114-0.621-0.097-0.16-0.264-0.042-0.477-0.164-0.76 0.024 0.001-0.052-0.11-0.024-0.11z"/>
    </g>
    <g id="g132" transform="matrix(2.1043 0 0 1.9409 -7.1582 99.708)">
     <path id="path134" fill="#f1c817" d="m0.972 0.264c-0.299-0.234-0.175-0.704-0.505-0.914-0.184-0.121-0.429-0.15-0.599-0.007-0.18 0.156-0.179 0.38-0.225 0.614-0.025 0.13 0.059 0.245 0.116 0.358 0.241 0.493 0.826 0.509 1.283 0.787 0.061 0.037 0.18-0.089 0.225-0.168 0.141-0.246-0.087-0.507-0.295-0.67z"/>
    </g>
    <g id="g136" transform="matrix(2.1043 0 0 1.9409 -16.311 100.52)">
     <path id="path138" fill="#f1c817" d="m0.469-0.614c-0.155-0.186-0.421-0.125-0.58-0.017-0.055 0.036-0.109 0.133-0.109 0.206-0.003 0.477-0.162 0.97 0.012 1.422 0.105 0.272 0.347 0.602 0.661 0.463 0.224-0.1 0.364-0.372 0.289-0.633-0.14-0.485 0.067-1.031-0.273-1.441z"/>
    </g>
    <g id="g140" transform="matrix(2.1043 0 0 1.9409 -22.269 99.352)">
     <path id="path142" fill="#f1c817" d="m11.598 0.131c-0.095-0.334-0.696 0.005-0.912-0.209-0.189-0.188-0.417-0.356-0.451-0.652-0.153 0.348-0.031 0.709 0.131 1.017 0.092 0.176 0.305 0.27 0.442 0.426 0.157 0.169 0.212 0.402 0.3 0.614 0.112 0.277-0.16 0.437-0.331 0.47-0.536 0.099-0.552-0.671-0.721-1.043-0.119-0.267-0.461-0.372-0.642-0.618-0.044-0.056-0.123-0.117-0.164-0.187-0.152-0.271-0.46-0.463-0.594-0.749-0.024 0.125 0.018 0.249 0.055 0.36 0.256 0.81 0.667 1.525 1.021 2.289 0.1 0.212 0.209 0.421 0.27 0.653 0.054 0.198 0.025 0.435-0.09 0.558-0.113 0.127-0.383-0.147-0.438-0.055-0.195 0.343 0.109 0.752 0.283 1.087 0.124 0.238 0.343 0.475 0.24 0.748-0.02 0.053-0.094 0.125-0.169 0.146-0.26 0.07-0.488-0.098-0.626-0.244-0.541-0.566-1.012-1.135-1.441-1.815-0.165-0.26-0.075-0.599-0.258-0.855-0.105-0.147-0.305-0.385-0.487-0.223-0.059 0.056-0.13 0.131-0.143 0.213-0.057 0.334-0.125 0.647-0.328 0.894-0.058 0.07-0.17 0.184-0.193 0.226-0.277 0.511-0.339 1.1-0.428 1.699-0.022 0.142-0.058 0.321-0.205 0.394-0.154 0.082-0.258-0.083-0.342-0.189-0.223-0.274-0.313-0.601-0.467-0.915-0.092-0.196-0.096-0.435-0.22-0.641-0.005-0.012-0.042-0.005-0.066-0.005 0.021 0.056-0.029 0.106-0.053 0.141-0.147 0.253-0.387 0.37-0.65 0.469-0.144 0.056-0.308-0.05-0.339-0.175-0.177-0.712-0.667-1.218-0.866-1.9-0.304 0.002-0.602 0.071-0.801-0.225-0.438-0.648-0.35-1.374-0.408-2.085-0.098 0.085-0.217 0.144-0.288 0.26-0.696 1.119-0.963 2.285-1.261 3.552-0.059 0.254-0.096 0.348-0.176 0.586-0.164 0.498 0.092 0.569 0.35 0.239 0.45-0.58 0.356-0.102 0.402 0.037 0.112 0.847 0.551 1.687 0.731 3.117 0.15 1.392 0.442 2.786 0.588 3.483 0.39 2.29 1.907 4.621 2.824 5.199-0.109-0.953 0.22-1.312 0.147-2.047l0.186-0.037c0.034 1.285 0.988 2.935 2.087 3.853 0.88 1.025 1.358 1.244 2.099 2.308 0.22 0.367 0.395 0.535 0.579 0.828 0.403-0.828 1.137-2.293 1.137-3.907v0c0-1.239-0.038-2.64-0.367-3.742 0.661 0.296 1.395 1.358 1.945 2.277 0.33-0.7 0.146-2.642-0.366-3.595-0.514-1.174-1.358-2.787-0.771-5.17 0.366 0.841 0.624 0.805 1.211 0.952 0.11-0.881-0.038-2.126 0-2.273-0.223-0.4-0.732-0.883-0.732-0.883l0.548-1.06c0.257-1.063-0.255-1.908-0.201-2.072-0.277-0.605-0.465-1.123-0.581-1.524z"/>
    </g>
    <g id="g144" transform="matrix(2.1043 0 0 1.9409 -11.04 88.251)">
     <path id="path146" fill="#f1c817" d="m-0.079-0.041c-0.08-0.227-0.303-0.395-0.184-0.621 0.033-0.063 0.154-0.047 0.243-0.068 0.261-0.07 0.57-0.029 0.742 0.156 0.136 0.146 0.228 0.319 0.341 0.5 0.114 0.187 0.145 0.411 0.22 0.618 0.084 0.228-0.009 0.481-0.187 0.589-0.207 0.125-0.295 0.233-0.599 0.097-0.114-0.051-0.184-0.296-0.238-0.391-0.07-0.127-0.065-0.486-0.158-0.604-0.085-0.101-0.131-0.137-0.18-0.276z"/>
    </g>
    <g id="g148" transform="matrix(2.1043 0 0 1.9409 -13.481 91.954)">
     <path id="path150" fill="#f1c817" d="m0.884-0.71c-0.089-0.085-0.207-0.081-0.299-0.088-0.045-0.002-0.174 0.008-0.169 0.09 0.03 0.444-0.485 0.653-0.641 1.003-0.157 0.363 0.165 0.707 0.431 0.952 0.213 0.196 0.55 0.063 0.808-0.016 0.426-0.128 0.48-0.725 0.381-1.127-0.076-0.303-0.268-0.575-0.511-0.814z"/>
    </g>
    <g id="g152" transform="matrix(2.1043 0 0 1.9409 -11.172 -1.0619)">
     <path id="path154" fill="#fff" d="m4.659-0.8h-5.041v1.173h4.602l0.439-1.173z"/>
    </g>
    <g id="g156" transform="matrix(2.1043 0 0 1.9409 -1.7595 -9.358)">
     <path id="path158" fill="#fff" d="m-0.382 0.192 0.184 0.862 0.954-1.854-1.138 0.992z"/>
    </g>
    <g id="g160" transform="matrix(2.1043 0 0 1.9409 -9.0876 -5.2641)">
     <path id="path162" fill="#fff" d="m-0.382 0.464 0.512-1.264 1.468 1.264h-1.98z"/>
    </g>
    <g id="g164" transform="matrix(2.1043 0 0 1.9409 -5.5387 -10.211)">
     <path id="path166" fill="#fff" d="m-0.382 1.62 0.679-2.42 0.474 3.409-1.153-0.989z"/>
    </g>
    <g id="g168" transform="matrix(2.1043 0 0 1.9409 -44.586 88.719)">
     <path id="path170" fill="#f1c817" d="m-0.199-0.728c0.038 0.329 0.032 0.128 0.192 0.403 0.147 0.247 0.065 0.579 0.177 0.863 0.094-0.123 0.275-0.179 0.291-0.365 0.139 0.568-0.272 1.114-0.072 1.685 0.224-0.201 0.556-0.247 0.733-0.515-0.015 0.228-0.078 0.446-0.11 0.667-0.057 0.382 0.097 0.766 0.142 1.165 0.054 0.503 0.679 0.882 0.501 1.376-0.29 0.806-0.444 1.659-0.182 2.419 0.055 0.16 0.136 0.427 0.321 0.513 0.14 0.064 0.352 0.068 0.489 0 0.075-0.038 0.139-0.159 0.153-0.272 0.057-0.354-0.1-0.684-0.036-1.022 0.079-0.439 0.156-0.878 0.435-1.23 0.057-0.071 0.271-0.048 0.32 0.062 0.184 0.413 0.11 0.906 0.354 1.286 0.084 0.128 0.373 0.219 0.526 0.077 0.342-0.319 0.218-0.817 0.262-1.232 0.073-0.688-0.25-1.057-0.341-1.758-0.085-0.656 0.037-0.753 0.246-1.024 0.22 0.615 0.222 1.284 0.666 1.829 0.095 0.115 0.269 0.119 0.343 0.058 0.321-0.277 0.256-0.88 0.022-1.272-0.356-0.595-0.646-1.536-0.004-2.082-0.041 0.301-0.037 0.642 0.118 0.866 0.213 0.309 0.608 0.943 0.664 1.552 0.022 0.217 0.332 0.304 0.523 0.133 0.033-0.031-0.008-0.176 0.092-0.188 0.308-0.043 0.453 0.321 0.438 0.572 0.122 0 0.284 0.042 0.346-0.021 0.296-0.303 0.224-1.025 0.243-1.444 0.032-0.774 0.217-0.479 0.344-0.554 0 0 0.055 0.369-0.017 1.431 0.11 1.322-0.036 3.046-0.405 3.447-0.329-0.328-0.366-0.623-0.805-0.734-1.173 0.552-1.099 5.577-1.028 6.345-0.017 0.184-0.294 0-0.294 0-0.658-0.659-0.951-1.467-1.136-1.905 0 0-0.256-0.295-0.256 0-0.329 1.063-0.22 3.959-0.074 4.658 0.147 0.841 0.037 1.318-0.366 2.124-0.074 0.222-0.219 0.259-0.219-0.036-0.037-0.328-0.259-0.474-0.366-0.807 0 0-0.256-0.474-0.33 0-0.222 1.246-0.918 2.751-1.174 3.228l-0.185 0.11c0.073-1.173-0.292-3.006-0.55-4.364-0.585-3.521-1.173-6.82-1.173-11.624 0-2.165 0.118-4.491 0.118-4.491l0.064 0.071z"/>
    </g>
    <g id="g172" transform="matrix(2.1043 0 0 1.9409 -12.191 105.26)">
     <path id="path174" fill="#f1c817" d="m-0.382-0.288c0.521 1.653 1.18 3.889 1.622 4.732-0.111-0.953-1.394-4.732-1.358-4.986 0.036-0.258-0.264 0.254-0.264 0.254z"/>
    </g>
    <g id="g176" transform="matrix(2.1043 0 0 1.9409 64.671 -15.474)">
     <path id="path178" fill="#fff" d="m3.522-0.173c-0.11-0.123-0.505-0.059-0.574-0.227-0.047-0.114-0.106-0.246-0.176-0.303-0.12-0.097-0.291 0.036-0.458 0.063-0.226 0.035-0.467-0.013-0.696-0.089-0.393 0.453-1.442 0.153-1.937 0.189-0.062 0.003 0.312 0.215 0.378 0.272 0.347 0.297 0.92 0.271 1.343 0.285 0.069 0.003 0.207-0.072 0.261-0.078 0.455-0.062 0.908 0.095 1.388 0.177 0.15 0.026 0.622-0.131 0.471-0.289z"/>
    </g>
    <g id="g180" transform="matrix(2.1043 0 0 1.9409 72.587 -18.979)">
     <path id="path182" fill="#fff" d="m6.889 2.268-1.088-0.622c-0.066-0.107-0.15-0.237-0.254-0.334-0.245-0.223-0.374-0.489-0.657-0.667-0.372-0.24-0.681-0.549-1.092-0.699-0.045-0.015-0.093 0.002-0.142-0.008-0.031-0.007-0.05-0.035-0.042-0.071-0.034 0-0.082 0.014-0.104-0.005-0.055-0.064-0.142-0.1-0.195-0.117-0.213-0.07-0.456 0.056-0.644-0.109-0.106-0.095-0.231-0.152-0.351-0.226-0.324-0.21-0.696-0.083-1.044-0.028-0.07 0.01-0.173 0.102-0.246 0.166-0.132 0.115-0.349-0.091-0.524-0.032-0.153 0.05-0.323 0.229-0.176 0.374 0.159 0.158 0.364 0.268 0.58 0.321 0.63 0.159 1.292 0.003 1.887 0.266 0.172 0.075 0.383 0.162 0.453 0.382-0.06 0.012-0.125 0.067-0.177 0.028-0.147-0.105-0.305-0.103-0.449-0.114-1.003-0.082-2.003-0.165-3.006-0.025 0 0.255 0.101 0.525 0.334 0.557 0.312 0.041 0.646-0.056 0.945-0.032 0.327 0.023 0.676 0.234 1.003 0.419 0.044 0.025 0.121 0.023 0.173 0 0.147-0.06 0.275-0.271 0.437-0.196 0.099 0.05 0.204 0.093 0.308 0.111 0.23 0.039 0.395-0.003 0.613 0.029 0.463 0.069 0.859 0.379 1.316 0.312 0.345-0.05 0.503 0.064 0.672 0.219-0.1-0.087 0.632 0.434 0.694 0.305 0.027-0.048 0.768-0.091 0.776-0.204z"/>
    </g>
    <g id="g184" transform="matrix(2.1043 0 0 1.9409 85.573 -18.361)">
     <path id="path186" fill="#fff" d="m3.372 1.725c-0.296-0.186-0.329-0.554-0.487-0.826-0.121-0.208-0.283-0.376-0.475-0.475-0.862-0.447-1.867-1.224-2.508-1.165-0.202 0.02-0.284 0.238-0.169 0.351 0.221 0.213 0.61 0.286 0.643 0.636 0.859 0.429 2.368 0.716 2.297 1.653-0.005 0.091 0.553-0.193 0.699-0.174z"/>
    </g>
    <g id="g188" transform="matrix(2.1043 0 0 1.9409 -11.172 -1.079)">
     <path id="path190" fill="#f1c817" d="m-0.382-0.791 5.407-0.009c-0.295 0.586-0.471 1.187-0.471 1.187l-4.935-0.006v-1.172z"/>
    </g>
   </g>
  </g>
 </g>
</svg>
