<?xml version="1.0" encoding="UTF-8" standalone="no"?>
<!-- Created with Inkscape (http://www.inkscape.org/) -->
<svg id="svg3837" xmlns:rdf="http://www.w3.org/1999/02/22-rdf-syntax-ns#" xmlns="http://www.w3.org/2000/svg" height="256" width="256" version="1.1" xmlns:cc="http://creativecommons.org/ns#" xmlns:xlink="http://www.w3.org/1999/xlink" xmlns:dc="http://purl.org/dc/elements/1.1/">
 <defs id="defs3839">
  <linearGradient id="linearGradient4389" y2="924.36" gradientUnits="userSpaceOnUse" x2="255.5" gradientTransform="matrix(1.0039 0 0 1.0039 795.86 -1056)" y1="924.36" x1=".49805">
   <stop id="stop4393" offset="0"/>
   <stop id="stop4395" stop-color="#969696" offset="1"/>
  </linearGradient>
  <radialGradient id="radialGradient4421" gradientUnits="userSpaceOnUse" cy="208.25" cx="139" gradientTransform="matrix(1 0 0 .31871 0 141.88)" r="85.5">
   <stop id="stop4417" stop-opacity=".65179" offset="0"/>
   <stop id="stop4419" stop-opacity="0" offset="1"/>
  </radialGradient>
  <filter id="filter4515" height="1.5122" width="1.1632" y="-.25611" x="-.081624">
   <feGaussianBlur id="feGaussianBlur4517" stdDeviation="5.8157318"/>
  </filter>
 </defs>
 <metadata id="metadata3842">
  <rdf:RDF>
   <cc:Work rdf:about="">
    <dc:format>image/svg+xml</dc:format>
    <dc:type rdf:resource="http://purl.org/dc/dcmitype/StillImage"/>
    <dc:title/>
   </cc:Work>
  </rdf:RDF>
 </metadata>
 <g id="layer1" transform="translate(0 -796.36)">
  <rect id="rect3845" transform="rotate(90)" height="256" width="256" y="-256" x="796.36" fill="url(#linearGradient4389)"/>
  <path id="path4413" d="m224.5 208.25a85.5 27.25 0 1 1 -171 0 85.5 27.25 0 1 1 171 0z" transform="matrix(1.1228 0 0 1 -28.07 806.86)" filter="url(#filter4515)" fill="url(#radialGradient4421)"/>
  <g id="g6337" transform="matrix(0.8 0 0 0.8 45.6 824.36)">
   <g id="g6339">
    <path id="path6341" d="m180.8 100.05c-17.668-10.268-35.042-7.878-48.226-2.009-0.588-4.337-1.715-9.091-3.602-14.654-2.794-8.282-5.857-16.197-8.553-23.181-3.553-9.177-6.255-17.031-7.737-22.287l-9.61-32.919-9.973 32.947c-1.531 5.231-4.153 13.134-7.688 22.324-2.683 6.972-5.722 14.899-8.497 23.182-1.869 5.575-2.996 10.329-3.572 14.666-13.19-5.844-30.576-8.172-48.219 2.12-14.403 8.442-22.128 23.083-20.149 38.24 1.82 13.771 11.242 24.627 24.603 28.303l9.949 2.721 2.438-10.022c0.349-1.348 3.939-13.895 15.242-13.674 7.829 0.146 14.354 7.082 17.601 11.566-1.054 3.161-1.618 6.959-1.079 11.052l-4.417-5.906-8.013 5.979c-7.205 5.366-17.68 18.624-11.205 34.282 2.824 6.837 8.883 11.492 17.074 13.11 5.005 1.004 10.703 0.784 15.971-0.393 2.07 6.665 5.863 14.728 12.736 21.932l7.253 7.572 7.235-7.597c6.873-7.204 10.622-15.267 12.705-21.956 5.269 1.151 10.954 1.372 15.965 0.367 8.173-1.642 14.226-6.322 17.043-13.159 6.433-15.683-4.08-28.915-11.284-34.282l-8.025-5.93-4.411 5.905c0.527-4.092-0.049-7.891-1.103-11.052 3.235-4.509 9.729-11.443 17.57-11.615 11.321-0.245 14.923 12.277 15.303 13.723l2.438 10.022c0-0.073 9.925-2.842 9.925-2.842 13.38-3.676 22.765-14.557 24.554-28.353 1.937-15.144-5.807-29.785-20.24-38.178"/>
   </g>
   <path id="path6343" fill="#fff" d="m99.763 39.355c-1.219 5.734-4.356 13.907-7.995 23.354-2.659 6.922-5.685 14.764-8.405 22.899-2.61 7.817-3.676 13.649-3.676 19.077 0 1.74 0.19 3.431 0.386 5.158-10.059-6.91-29.883-16.369-51.515-3.712-12.007 7.008-18.452 19.064-16.834 31.464 1.452 11.002 8.981 19.677 19.659 22.617l3.161 0.858 0.791-3.186c0.202-0.784 4.956-19.236 22.005-18.894 13.716 0.294 22.685 13.625 25.111 17.717-1.158 2.132-2.114 5.072-2.114 8.43 0 3.627 1.231 7.744 4.368 11.86-1.244 1.691-3.296 3.773-5.698 3.97-3.412 0.294-6.861-3.308-9.159-6.371l-1.917-2.573-2.561 1.937c-5.244 3.896-13.876 14.408-8.993 26.22 1.954 4.729 6.145 7.866 12.118 9.042 6.175 1.226 13.968 0.123 19.5-2.401 1.066 6.249 4.099 16.811 12.81 25.901l2.31 2.427 2.316-2.451c8.687-9.091 11.694-19.677 12.748-25.926 5.551 2.524 13.343 3.603 19.519 2.353 5.967-1.201 10.145-4.313 12.081-9.042 4.852-11.836-3.799-22.349-9.055-26.221l-2.562-1.911-1.911 2.549c-2.278 3.087-5.734 6.689-9.152 6.42-2.39-0.196-4.447-2.279-5.71-3.97 3.112-4.117 4.35-8.209 4.35-11.812 0-3.382-0.979-6.347-2.132-8.479 2.414-4.117 11.346-17.472 25.068-17.766 17.043-0.393 21.847 18.035 22.03 18.819l0.809 3.21 3.161-0.882c10.684-2.965 18.183-11.64 19.604-22.68 1.593-12.387-4.876-24.419-16.908-31.427-21.675-12.595-41.486-3.087-51.521 3.86 0.184-1.654 0.38-3.321 0.38-5.011 0-5.489-1.078-11.419-3.7-19.224-2.744-8.124-5.783-15.953-8.448-22.863-3.669-9.446-6.83-17.606-8.056-23.341l-3.149-14.703-3.114 14.704"/>
   <path id="path6345" d="m103.14 230.49c12.271-12.89 12.406-29.137 12.406-29.137 5.439 5.416 26.538 9.043 31.268-2.499 5.183-12.669-7.988-22.422-7.988-22.422-12.779 17.104-21.344 0.343-21.344 0.343 9.729-10.513 2.426-19.971 2.426-19.971 0.638-1.912 11.42-20.756 28.695-21.136 19.898-0.441 25.216 21.282 25.216 21.282 20.878-5.783 24.921-34.882 1.936-48.238-29.136-16.957-54.535 8.871-54.535 8.871 2.364-9.667 3.026-16.896-1.728-30.999-6.47-19.139-14.385-36.23-16.59-46.572-2.2 10.341-10.078 27.47-16.498 46.608-4.729 14.127-4.031 21.344-1.66 31.011 0 0-25.455-25.767-54.56-8.748-22.937 13.417-18.838 42.503 2.04 48.238 0 0 5.275-21.736 25.185-21.344 17.276 0.355 28.101 19.163 28.744 21.05 0 0-7.278 9.508 2.469 19.995 0 0-8.534 16.786-21.344-0.318 0 0-13.159 9.827-7.939 22.471 4.766 11.518 25.846 7.842 31.268 2.402 0 0 0.184 16.271 12.479 29.111"/>
   <path id="path6347" fill="#c6a876" d="m155.34 107.81c-23.709 0.024-43.172 26.955-43.172 26.955 0.84-4.398 10.997-24.235 1.819-47.943-9.183-23.708-11.063-33.253-11.063-33.253l-0.037 0.282v-0.27s-1.856 9.545-10.978 33.278c-9.122 23.721 1.066 43.532 1.917 47.943 0 0-19.512-26.894-43.232-26.869-23.714 0.024-43.465 27.017-21.546 42.969 0 0 6.414-19.922 28.518-19.972 16.265-0.024 32.548 17.424 33.234 26.073 0 0-7.437 10.513 2.916 19.285 0 0-11.18 23.525-26.686 6.592 0 0-11.921 14.899 3.664 18.502 12.369 2.866 24.547-9.68 24.547-9.68s-1.329 19.824 7.83 30.655v-0.098l0.055 0.098c9.134-10.855 7.762-30.68 7.762-30.68s12.203 12.521 24.566 9.63c15.585-3.651 3.626-18.525 3.626-18.525-15.45 16.957-26.686-6.519-26.686-6.519 10.316-8.797 2.849-19.31 2.849-19.31 0.668-8.626 16.915-26.122 33.186-26.122 22.104 0 28.573 19.898 28.573 19.898 21.883-16 2.059-42.956-21.662-42.919"/>
  </g>
 </g>
</svg>
