<?xml version="1.0" encoding="UTF-8" standalone="no"?>
<!-- Created with Inkscape (http://www.inkscape.org/) -->
<svg id="svg3837" xmlns:rdf="http://www.w3.org/1999/02/22-rdf-syntax-ns#" xmlns="http://www.w3.org/2000/svg" height="256" width="256" version="1.1" xmlns:cc="http://creativecommons.org/ns#" xmlns:xlink="http://www.w3.org/1999/xlink" xmlns:dc="http://purl.org/dc/elements/1.1/">
 <defs id="defs3839">
  <linearGradient id="linearGradient4389" y2="924.36" gradientUnits="userSpaceOnUse" x2="255.5" gradientTransform="matrix(1.0039 0 0 1.0039 795.86 -1056)" y1="924.36" x1=".49805">
   <stop id="stop4393" offset="0"/>
   <stop id="stop4395" stop-color="#969696" offset="1"/>
  </linearGradient>
  <radialGradient id="radialGradient4421" gradientUnits="userSpaceOnUse" cy="208.25" cx="139" gradientTransform="matrix(1 0 0 .31871 0 141.88)" r="85.5">
   <stop id="stop4417" stop-opacity=".65179" offset="0"/>
   <stop id="stop4419" stop-opacity="0" offset="1"/>
  </radialGradient>
  <filter id="filter4515" height="1.5122" width="1.1632" y="-.25611" x="-.081624">
   <feGaussianBlur id="feGaussianBlur4517" stdDeviation="5.8157318"/>
  </filter>
 </defs>
 <metadata id="metadata3842">
  <rdf:RDF>
   <cc:Work rdf:about="">
    <dc:format>image/svg+xml</dc:format>
    <dc:type rdf:resource="http://purl.org/dc/dcmitype/StillImage"/>
    <dc:title/>
   </cc:Work>
  </rdf:RDF>
 </metadata>
 <g id="layer1" transform="translate(0 -796.36)">
  <rect id="rect3845" transform="rotate(90)" height="256" width="256" y="-256" x="796.36" fill="url(#linearGradient4389)"/>
  <path id="path4413" d="m224.5 208.25a85.5 27.25 0 1 1 -171 0 85.5 27.25 0 1 1 171 0z" transform="matrix(1.1228 0 0 1 -28.07 806.86)" filter="url(#filter4515)" fill="url(#radialGradient4421)"/>
  <g id="g9045" transform="matrix(.81454 0 0 .81454 16.001 874.81)">
   <path id="path9047" fill="#fff" d="m230.47 99.775c-12.532-2.507-28.987-3.166-35.935-3.166l-165.38 0.03c-10.288 0-20.925 0-26.386-8.407-5.542-8.534-2.531-16.931 6.809-33.73 0.696-1.249 29.021-54.502 29.021-54.502s2.894 3.595 5.81 5.882c2.879 2.259 5.843 3.462 13.733 3.462 14.018 0 104.44-0.199 105.36-0.201 18.353 0 36.893 1.898 48.905 15.073 6.239 0.667 26.37 3.327 42.959 11.26 9.71 4.64 16.113 11.569 18.533 20.029 0.731 2.561 1.097 5.248 1.097 8.044 0 8.027-3.009 16.927-8.905 26.178-12.46 19.536-23.949 26.371-24.467 26.736-7.076 4.979-13.936 5.214-13.936 5.214s6.176-7.024 8.26-14.051c2.085-7.02-5.483-7.851-5.483-7.851z"/>
   <path id="path9049" fill="#06192e" d="m253.32 39.757c-18.91-9.042-43.2-10.996-43.2-10.996-10.6-12.952-28.51-14.874-46.61-14.874 0 0-91.175 0.204-105.36 0.204-16.508 0-18.168-6.55-18.168-6.55l-22.126 41.44h57.469c18.085 0 18.993-1.81 30.991-10.635 12.741-9.374 22.913-12.764 34.953-12.764 12.034 0 20.002 2.712 33.396 8.648 13.402 5.932 20.521 8.817 28.494 5.423 0 0-6.275 8.478-25.268 0.508-18.989-7.968-24.073-9.664-35.606-9.664-11.377 0-24.411 5.459-40.725 21.741l19.45 15.647s-4.5 6.948-7.459 11.387c-2.953 4.435-2.679 7.401-1.103 9.564 1.58 2.174 3.568 3.151 10.764 3.151 7.197 0 64.877-0.126 71.332-0.126 5.611 0 23.162 0.521 36.86 3.259 18.193 3.634 6.459 18.981 6.459 18.981s12.183-8.023 24.242-26.93c13.452-21.093 10.136-38.369-8.77-47.414z"/>
   <path id="path9051" fill="#fff" d="m219.91 43.157c-8.601-2.057-1.246-7.039-1.246-7.039-12.377 2.501-16.984 12.597-18.047 15.421-0.198 0.384-0.402 0.775-0.61 1.19-6.849 13.778-13.016 13.044-24.71 13.044h-20.026c-16.221 0-23.775 8.038-31.55 21.73h9.163c8.375-12.469 14.695-15.83 31.251-16.766 37.843 0.022 68.01 10.883 83.95 19.176 22.672-38.069-10.977-44.375-28.175-46.756z"/>
   <path id="path9053" fill="#fff" d="m149.48 87.354c4.229-6.396 12.837-8.57 26.71-7.773 34.238 1.985 53.926 8.65 69.219 14.35-18.86-11.041-52.468-18.997-75.828-18.923-11.417 0.038-21.387 2.033-27.243 12.347h7.142v-0.001z"/>
   <path id="path9055" fill="#fff" d="m186.23 49.586c-4.463 6.222-10.341 8.351-27.01 7.208-19.39-1.317-14.386-9.489-12.13-13.511 0 0-0.045 0-0.065-0.006 0.618-1.135 1.676-3.068 2.746-5.015-14.858-0.917-25.712 10.52-25.712 10.52 11.078 10.959 18.465 12.105 28.484 12.105h18.738c17.419 0 21.629-7.842 23.224-11.324-3.005 0.375-5.712 0.347-8.275 0.023z"/>
   <path id="path9057" fill="#4eae47" d="m177.77 47.728c-0.352-0.142-0.721-0.292-1.086-0.44-1.707 1.797-4.655 2.842-7.509 2.478-3.756-0.482-5.922-3.213-4.857-6.094 0.155-0.422 0.378-0.82 0.646-1.198-1.926-0.754-3.863-1.482-5.747-2.136-3.858 6.241-6.12 10.378 7.272 11.509 8.34 0.712 10.605-0.72 12.357-3.717-0.358-0.134-0.707-0.252-1.076-0.402z"/>
   <path id="path9059" fill="#3c5179" d="m110.5 71.449c-6.908 11.997-9.649 14.749-4.798 20.441h-76.547c-11.289 0-18.627-0.43-22.406-6.248-3.672-5.654-2.913-11.044 6.98-28.837h65.085c11.206 0 14.084 0.642 20.165 5.361 6.08 4.718 11.521 9.283 11.521 9.283z"/>
  </g>
 </g>
</svg>
