<?xml version="1.0" encoding="UTF-8" standalone="no"?>
<!-- Created with Inkscape (http://www.inkscape.org/) -->
<svg id="svg3837" xmlns:rdf="http://www.w3.org/1999/02/22-rdf-syntax-ns#" xmlns="http://www.w3.org/2000/svg" height="256" width="256" version="1.1" xmlns:cc="http://creativecommons.org/ns#" xmlns:xlink="http://www.w3.org/1999/xlink" xmlns:dc="http://purl.org/dc/elements/1.1/">
 <defs id="defs3839">
  <linearGradient id="linearGradient4389" y2="924.36" gradientUnits="userSpaceOnUse" x2="255.5" gradientTransform="matrix(1.0039 0 0 1.0039 795.86 -1056)" y1="924.36" x1=".49805">
   <stop id="stop4393" offset="0"/>
   <stop id="stop4395" stop-color="#969696" offset="1"/>
  </linearGradient>
  <radialGradient id="radialGradient4421" gradientUnits="userSpaceOnUse" cy="208.25" cx="139" gradientTransform="matrix(1 0 0 .31871 0 141.88)" r="85.5">
   <stop id="stop4417" stop-opacity=".65179" offset="0"/>
   <stop id="stop4419" stop-opacity="0" offset="1"/>
  </radialGradient>
  <filter id="filter4515" height="1.5122" width="1.1632" y="-.25611" x="-.081624">
   <feGaussianBlur id="feGaussianBlur4517" stdDeviation="5.8157318"/>
  </filter>
 </defs>
 <metadata id="metadata3842">
  <rdf:RDF>
   <cc:Work rdf:about="">
    <dc:format>image/svg+xml</dc:format>
    <dc:type rdf:resource="http://purl.org/dc/dcmitype/StillImage"/>
    <dc:title/>
   </cc:Work>
  </rdf:RDF>
 </metadata>
 <g id="layer1" transform="translate(0 -796.36)">
  <rect id="rect3845" transform="rotate(90)" height="256" width="256" y="-256" x="796.36" fill="url(#linearGradient4389)"/>
  <path id="path4413" d="m224.5 208.25a85.5 27.25 0 1 1 -171 0 85.5 27.25 0 1 1 171 0z" transform="matrix(1.1228 0 0 1 -28.07 806.86)" filter="url(#filter4515)" fill="url(#radialGradient4421)"/>
  <g id="PITTSBURGH_STEELERS" transform="matrix(1.4226 0 0 1.4226 32 828.36)">
   <path id="path8960" fill="#9babb6" d="m67.484 0c-37.27 0-67.484 30.213-67.484 67.482 0 37.27 30.214 67.484 67.484 67.484 37.268 0 67.482-30.214 67.482-67.484 0-37.269-30.22-67.482-67.486-67.482zm0.021 124.64c-31.584 0-57.19-25.603-57.19-57.187s25.605-57.188 57.19-57.188c31.583 0 57.188 25.604 57.188 57.188s-25.605 57.187-57.188 57.187z"/>
   <path id="path8962" fill="#fff" d="m38.03 66.165c-0.013-0.887-0.212-1.165-0.896-1.165-0.859 0-0.818 0.776-0.818 1.569v0.357h1.714v-0.761z"/>
   <path id="path8964" fill="#fff" d="m30.537 65c-0.856 0-0.818 0.776-0.818 1.569v0.357h1.716v-0.761c-0.013-0.887-0.213-1.165-0.898-1.165z"/>
   <path id="path8966" fill="#fff" d="m48.292 66.165c-0.015-0.887-0.21-1.165-0.898-1.165-0.858 0-0.819 0.776-0.819 1.569v0.357h1.717v-0.761z"/>
   <path id="path8968" fill="#fff" d="m67.505 10.27c-31.584 0-57.19 25.604-57.19 57.188s25.605 57.187 57.19 57.187c31.583 0 57.188-25.603 57.188-57.187s-25.605-57.188-57.188-57.188zm-47.53 62.447c-2.217 0-3.008-1.461-3.008-3.54v-0.855h1.846v0.682c-0.038 1.137 0.252 1.959 1.163 1.959 0.778 0 1.147-0.483 1.147-1.367 0-0.683-0.265-1.15-0.74-1.538-0.964-0.885-2.161-1.521-2.916-2.686-0.301-0.527-0.476-1.166-0.476-1.786 0-1.988 0.952-3.075 2.904-3.075 2.941 0 2.863 2.672 2.876 3.819h-1.782c0.015-1.041-0.065-2.064-1.082-2.064-0.62 0-1.014 0.295-1.014 1.086 0 0.885 0.475 1.228 1.055 1.661 0.608 0.45 1.728 1.32 2.242 1.911 0.633 0.729 0.833 1.426 0.833 2.438 0 2.206-1.243 3.355-3.048 3.355zm7.004-7.561h-0.728v5.433c0.04 0.375 0.517 0.328 0.728 0.296v1.583c-1.015 0.14-2.44 0.249-2.44-1.38v-5.932h-0.7v-1.476h0.685v-0.718l1.728-1.688v2.407h0.728v1.475zm6.169 3.322h-3.43v1.273c0.012 1.15 0.382 1.369 0.897 1.369 0.633 0 0.818-0.546 0.791-1.649h1.717c0.065 1.959-0.623 3.199-2.375 3.199-1.979 0-2.784-1.102-2.745-3.678v-2.301c-0.079-2.064 0.817-3.243 2.505-3.243 2.389 0 2.639 1.458 2.639 3.85v1.18zm1.451 0.514v-2.301c-0.079-2.064 0.818-3.243 2.508-3.243 2.387 0 2.638 1.458 2.638 3.85v1.181h-3.43v1.273c0.012 1.15 0.382 1.369 0.896 1.369 0.633 0 0.818-0.546 0.792-1.649h1.714c0.067 1.959-0.62 3.199-2.373 3.199-1.978-0.001-2.784-1.103-2.745-3.679zm32.288 55.55c-3.034-16.13-8.654-25.103-28.89-28.541 20.236-3.437 25.856-12.405 28.89-28.538-3.034-16.135-8.654-25.104-28.89-28.541 20.236-3.438 25.856-12.407 28.89-28.543 3.034 16.136 8.655 25.105 28.893 28.543-20.237 3.437-25.857 12.406-28.893 28.541 3.036 16.133 8.655 25.101 28.893 28.538-20.238 3.438-25.859 12.411-28.893 28.541zm-25.401-52.101v-11.647h1.715v11.647h-1.715zm5.988-1.319c0.632 0 0.818-0.546 0.791-1.649h1.716c0.065 1.959-0.62 3.199-2.376 3.199-1.978 0-2.783-1.102-2.742-3.678v-2.301c-0.08-2.064 0.815-3.243 2.504-3.243 2.388 0 2.639 1.458 2.639 3.85v1.181h-3.43v1.273c0.014 1.149 0.384 1.368 0.898 1.368zm5.763-5.887c0.212-0.636 0.423-0.994 0.674-1.243 0.487-0.482 0.817-0.45 1.069-0.465v2.39c-0.951-0.107-1.676 0.171-1.704 1.461v5.063h-1.714v-8.76h1.649v1.553h0.026zm4.799 5.887c0.488 0 0.833-0.421 0.714-0.979-0.026-0.497-0.514-0.776-0.844-1.04l-0.937-0.764c-0.858-0.697-1.413-1.505-1.413-2.763 0-1.351 0.909-2.126 2.558-2.126 1.664 0 2.428 1.024 2.389 2.904h-1.714c0.041-0.979-0.199-1.352-0.791-1.352-0.409 0-0.726 0.217-0.726 0.715 0 0.512 0.316 0.744 0.646 1.01l1.397 1.118c0.437 0.294 1.122 1.132 1.176 1.722 0.146 1.523-0.171 3.105-2.546 3.105-0.91 0-2.613-0.449-2.415-3.121h1.714c-0.13 1.616 0.398 1.571 0.792 1.571zm37.761 24.808c-3.034-16.133-8.654-25.104-28.893-28.541 20.239-3.439 25.858-12.406 28.893-28.543 3.034 16.137 8.654 25.104 28.892 28.543-20.238 3.437-25.857 12.407-28.892 28.541z"/>
   <path id="path8970" fill="#231f20" d="m19.948 65.015c-0.58-0.433-1.055-0.776-1.055-1.661 0-0.791 0.394-1.086 1.014-1.086 1.017 0 1.097 1.023 1.082 2.064h1.782c-0.014-1.147 0.065-3.819-2.876-3.819-1.952 0-2.904 1.086-2.904 3.075 0 0.62 0.174 1.258 0.476 1.786 0.755 1.164 1.952 1.8 2.916 2.686 0.475 0.388 0.74 0.855 0.74 1.538 0 0.884-0.37 1.367-1.147 1.367-0.911 0-1.2-0.823-1.163-1.959v-0.682h-1.846v0.855c0 2.079 0.791 3.54 3.008 3.54 1.805 0 3.048-1.148 3.048-3.353 0-1.012-0.2-1.709-0.833-2.438-0.514-0.593-1.634-1.463-2.242-1.913z"/>
   <path id="path8972" fill="#231f20" d="m26.251 61.273-1.728 1.688v0.718h-0.685v1.476h0.7v5.932c0 1.629 1.425 1.52 2.44 1.38v-1.583c-0.21 0.032-0.688 0.079-0.728-0.296v-5.433h0.728v-1.475h-0.728v-2.407z"/>
   <path id="path8974" fill="#231f20" d="m30.51 63.448c-1.688 0-2.584 1.179-2.505 3.243v2.301c-0.04 2.577 0.765 3.678 2.745 3.678 1.752 0 2.44-1.24 2.375-3.199h-1.717c0.027 1.103-0.158 1.649-0.791 1.649-0.516 0-0.885-0.218-0.897-1.369v-1.273h3.43v-1.181c-0.002-2.391-0.252-3.849-2.64-3.849zm0.925 3.478h-1.716v-0.357c0-0.793-0.038-1.569 0.818-1.569 0.685 0 0.885 0.279 0.897 1.166v0.76z"/>
   <path id="path8976" fill="#231f20" d="m39.718 69.471h-1.714c0.026 1.103-0.159 1.649-0.792 1.649-0.514 0-0.884-0.218-0.896-1.369v-1.273h3.43v-1.181c0-2.392-0.251-3.85-2.638-3.85-1.69 0-2.587 1.179-2.508 3.243v2.301c-0.04 2.577 0.767 3.678 2.746 3.678 1.753 0.001 2.439-1.239 2.372-3.198zm-3.402-2.903c0-0.793-0.041-1.569 0.818-1.569 0.684 0 0.882 0.279 0.896 1.166v0.761h-1.714v-0.358z"/>
   <g id="g8978" fill="#231f20">
    <rect id="rect8980" height="11.647" width="1.715" y="60.792" x="41.486"/>
    <path id="path8982" d="m42.345 66.615"/>
   </g>
   <path id="path8984" fill="#231f20" d="m50.005 68.478v-1.181c0-2.392-0.25-3.85-2.639-3.85-1.688 0-2.584 1.179-2.504 3.243v2.301c-0.041 2.577 0.764 3.678 2.742 3.678 1.756 0 2.441-1.24 2.376-3.199h-1.716c0.027 1.103-0.159 1.649-0.791 1.649-0.514 0-0.884-0.218-0.899-1.369v-1.273h3.431zm-3.43-1.91c0-0.793-0.039-1.569 0.819-1.569 0.688 0 0.883 0.279 0.898 1.166v0.761h-1.717v-0.358z"/>
   <path id="path8986" fill="#231f20" d="m51.563 63.68v8.76h1.714v-5.063c0.027-1.29 0.753-1.568 1.704-1.461v-2.39c-0.252 0.015-0.582-0.017-1.069 0.465-0.251 0.249-0.462 0.606-0.674 1.243h-0.026v-1.554h-1.649z"/>
   <path id="path8988" fill="#231f20" d="m55.53 69.549c-0.198 2.672 1.505 3.121 2.415 3.121 2.375 0 2.691-1.582 2.546-3.105-0.054-0.589-0.739-1.428-1.176-1.722l-1.397-1.118c-0.329-0.266-0.646-0.498-0.646-1.01 0-0.499 0.316-0.715 0.726-0.715 0.593 0 0.832 0.373 0.792 1.352h1.714c0.04-1.879-0.725-2.904-2.389-2.904-1.649 0-2.558 0.776-2.558 2.126 0 1.258 0.555 2.065 1.413 2.763l0.937 0.764c0.331 0.264 0.818 0.543 0.844 1.04 0.12 0.558-0.226 0.979-0.714 0.979-0.394 0-0.921 0.045-0.791-1.57h-1.716z"/>
   <path id="path8990" fill="#f1c817" d="m66.887 67.461c3.036-16.135 8.655-25.104 28.893-28.541-20.237-3.438-25.858-12.407-28.893-28.543-3.034 16.136-8.654 25.105-28.89 28.543 20.235 3.437 25.856 12.406 28.89 28.541v-0.003 0.003z"/>
   <path id="path8992" fill="#204182" d="m66.887 67.461v-0.003 0.001c-3.034 16.135-8.654 25.103-28.89 28.54 20.236 3.438 25.856 12.408 28.89 28.543 3.034-16.13 8.655-25.103 28.893-28.541-20.238-3.437-25.858-12.405-28.893-28.538z"/>
   <path id="path8994" fill="#bf2026" d="m95.797 38.844c-3.034 16.137-8.654 25.104-28.893 28.543 20.239 3.438 25.858 12.408 28.893 28.541 3.034-16.133 8.653-25.104 28.893-28.541-20.24-3.439-25.858-12.407-28.893-28.543z"/>
  </g>
 </g>
</svg>
