<?xml version="1.0" encoding="UTF-8" standalone="no"?>
<!-- Created with Inkscape (http://www.inkscape.org/) -->
<svg id="svg3837" xmlns:rdf="http://www.w3.org/1999/02/22-rdf-syntax-ns#" xmlns="http://www.w3.org/2000/svg" height="256" width="256" version="1.1" xmlns:cc="http://creativecommons.org/ns#" xmlns:xlink="http://www.w3.org/1999/xlink" xmlns:dc="http://purl.org/dc/elements/1.1/">
 <defs id="defs3839">
  <linearGradient id="linearGradient4389" y2="924.36" gradientUnits="userSpaceOnUse" x2="255.5" gradientTransform="matrix(1.0039 0 0 1.0039 795.86 -1056)" y1="924.36" x1=".49805">
   <stop id="stop4393" offset="0"/>
   <stop id="stop4395" stop-color="#969696" offset="1"/>
  </linearGradient>
  <radialGradient id="radialGradient4421" gradientUnits="userSpaceOnUse" cy="208.25" cx="139" gradientTransform="matrix(1 0 0 .31871 0 141.88)" r="85.5">
   <stop id="stop4417" stop-opacity=".65179" offset="0"/>
   <stop id="stop4419" stop-opacity="0" offset="1"/>
  </radialGradient>
  <filter id="filter4515" height="1.5122" width="1.1632" y="-.25611" x="-.081624">
   <feGaussianBlur id="feGaussianBlur4517" stdDeviation="5.8157318"/>
  </filter>
 </defs>
 <metadata id="metadata3842">
  <rdf:RDF>
   <cc:Work rdf:about="">
    <dc:format>image/svg+xml</dc:format>
    <dc:type rdf:resource="http://purl.org/dc/dcmitype/StillImage"/>
    <dc:title/>
   </cc:Work>
  </rdf:RDF>
 </metadata>
 <g id="layer1" transform="translate(0 -796.36)">
  <rect id="rect3845" transform="rotate(90)" height="256" width="256" y="-256" x="796.36" fill="url(#linearGradient4389)"/>
  <path id="path4413" d="m224.5 208.25a85.5 27.25 0 1 1 -171 0 85.5 27.25 0 1 1 171 0z" transform="matrix(1.1228 0 0 1 -28.07 806.86)" filter="url(#filter4515)" fill="url(#radialGradient4421)"/>
  <g id="g9359" transform="matrix(.79341 0 0 .79341 16 845.02)">
   <path id="path9361" fill="#fff" d="m91.155 116.68c0.277 3.31 1.455 9.909 5.277 17.265 4.704 9.094 14.583 21.209 34.941 28.067 3.233 5.082 7.036 9.818 11.339 14.104 15.479 15.436 36.042 23.912 57.901 23.886 21.853-0.032 42.391-8.575 57.83-24.051 15.42-15.48 23.912-36.039 23.881-57.903-0.03-21.864-8.58-42.396-24.06-57.83-12.26-12.223-27.64-20.094-44.56-22.825-22.91-20.746-49.67-13.31-50.8-12.975-0.389 0.109-0.959 0.278-1.683 0.484-8.228 2.741-12.479-0.397-15.239-2.558-3.059-2.393-6.388-4.827-9.606-6.641-10.93-6.145-26.47-6.366-39.548-1.096-8.616 2.947-12.955-0.853-15.533-2.628-17.06-11.775-38.047-14.585-60.31-9.681-14.99 3.296-20.979 6.354-20.979 6.354s10.266 1.485 20.991 5.965c8.81 3.686 15.817 8.41 21.119 16.886 0 0 3.334 4.91 1.166 6.354-2.421 1.618-4.961-2.344-4.961-2.344-0.08 2.844-0.074 5.688 0.109 7.835 1.238 22.627 5.852 36.224 16.77 46.606 4.96 4.73 13.336 9.322 26.289 14.411 5.907 2.365 9.096 5.387 9.672 12.31z"/>
   <path id="path9363" fill="#002d65" d="m254.58 63.918c-11.87-11.837-26.94-19.305-43.26-21.601-21.26-20.344-46.98-12.882-46.98-12.882 5.453 0.807 9.072 4.055 7.679 7.649-0.931 2.384-4.889 2.51-6.691 2.527-5.751 0.061-10.704-3.459-14.663-6.679-4.119-3.349-10.839-9.288-16.858-12.673-11.2-6.31-29-5.519-41.866 2.703 7.697 0.525 16.959 2.736 22.482 7.311 3.088 2.558 7.022 7.694 3.807 10.103-2.834 2.102-9.777 1.009-13.304-1.033-5.623-3.251-10.676-8.172-13.712-11.745-20.376-24.007-49.253-25.343-73.069-19.469 15.63 4.389 26.059 13.293 32.5 28.635 6.445 15.349 11.452 21.879 22.064 26.041 6.645 2.603 8.442 3.084 7.924 6.028-0.769 4.315-8.638 2.239-14.641-0.101-7.314-2.853-16.954-10.745-22.696-25.533 1.043 19.142 4.694 32.714 15.482 42.981 4.581 4.355 13.003 8.868 26.176 13.939 8.416 3.23 15.067 5.186 21.333 10.804 7.306 6.544 4.19 10.869-0.653 10.05-5.483-0.924-9.398-6.527-9.398-6.527s0.008 31.183 38.557 43.186c3.206 5.319 7.09 10.286 11.6 14.791 14.496 14.441 33.746 22.393 54.205 22.352 20.469-0.028 39.691-8.027 54.135-22.513 14.457-14.491 22.395-33.737 22.363-54.204-0.036-20.468-8.023-39.692-22.515-54.14z"/>
   <path id="path9365" fill="#648fcc" d="m250.51 67.8c-11.5-11.495-26.25-18.543-42.19-20.29-13.7-13.659-27.38-13.023-27.38-13.023 5.998 3.766 2.912 12.144-10.442 13.992-13.224 1.821-30.019-2.655-38.192-12.181-8.43-9.82-14.791-10.271-14.791-10.271 7.305 4.571 7.829 10.054 12.267 18.403 4.438 8.352 13.57 11.353 21.533 11.878 8.387 0.546 8.582 4.343 1.828 8.353-7.375 4.37-13.902 0.236-18.644-4.432-7.49-7.385-14.952-8.81-25.264-8.676-10.308 0.133-23.942 1.485-35.437-2.816-11.503-4.307-19.1-19.447-19.1-19.447 5.701 20.1 18.334 29.627 30.064 31.927 15.503 3.044 26.21 6.728 32.771 12.037 6.397 5.192 9.802 10.373 12.216 17.512 1.854 5.505 2.189 12.823 0.353 13.263-2.132 0.511-2.578-2.438-5.096-7.569-2.779-5.672-6.106-10.114-12.795-13.695-9.082-4.841-17.962-4.559-27.02-4.436-7.177 0.105-11.383-0.718-11.383-0.718s0.3 0.964 11.992 3.587c13.029 2.929 25.621 10.271 34.013 28.167 7.129 15.221 3.403 25.939-12.404 21.095 0 0 7.389 16.408 31.498 22.254 3.11 5.47 6.981 10.55 11.553 15.125 13.366 13.358 31.126 20.722 50.019 20.722 18.897 0 36.66-7.363 50.023-20.722 13.362-13.36 20.715-31.123 20.715-50.021 0-18.889-7.35-36.65-20.71-50.01z"/>
   <path id="path9367" fill="#fff" d="m200.48 50.54c17.974 0 34.871 6.998 47.576 19.705 12.707 12.705 19.705 29.603 19.705 47.575 0 37.104-30.187 67.285-67.281 67.285-17.963 0-34.864-7.006-47.575-19.713-12.704-12.707-19.706-29.599-19.706-47.572 0-17.972 7.002-34.87 19.706-47.575 12.712-12.707 29.612-19.705 47.575-19.705z"/>
   <g id="g9369">
    <g id="g9371">
     <g id="g9373">
      <g id="g9375">
       <g id="g9377">
        <g id="g9379">
         <path id="path9381" fill="#002d65" d="m200.58 179.3c-33.953 0.051-61.521-27.437-61.567-61.385-0.049-33.958 27.428-61.52 61.387-61.572 33.947-0.05 61.512 27.438 61.563 61.383 0.05 33.959-27.438 61.522-61.383 61.574z"/>
        </g>
       </g>
      </g>
     </g>
    </g>
    <path id="path9383" fill="#fff" d="m185.44 105.38h-18.207l-6.006 10.704-8.074-22.896h94.486l-8.065 22.896-5.953-10.704h-17.91l-15.169 66.36-15.102-66.36z"/>
    <polygon id="polygon9385" points="200.55 171.74 200.55 97.526 246.12 97.526 247.64 93.192 153.16 93.192 154.69 97.526 199.74 97.526 185.44 105.38" fill="#c5c9d1"/>
   </g>
   <path id="path9387" fill="#c0001d" d="m154.1 40.095c-13.703-0.396-19.287-5.822-27.792-12.66-10.421-8.364-21.969-6.04-21.969-6.04 6.917-3.954 20.519-4.12 30.319 4.474 8.752 7.675 13.053 11.837 19.442 14.226z"/>
   <path id="path9389" fill="#c0001d" d="m37.142 9.913s12.822-0.307 24.031 19.799c9.415 16.898 27.38 20.279 40.531 16.56 0 0-17.316-0.448-26.799-17.245-9.681-17.168-22.487-21.934-37.763-19.114z"/>
   <g id="g9391">
    <g id="g9393">
     <path id="path9395" fill="#c0001d" d="m109.73 107.27s-1.819-18.688-28.453-24.103c-26.807-5.461-30.263-19.412-30.263-19.412s0.178 20.126 23.251 26.307c16.112 4.313 27.927 6.796 35.461 17.204z"/>
    </g>
   </g>
   <g id="g9397" fill="#c0001d">
    <polygon id="polygon9399" points="196.91 69.938 185.54 70 194.81 76.593 191.35 87.423 200.48 80.649 209.72 87.28 206.1 76.506 215.26 69.772 203.89 69.883 200.32 59.085"/>
    <polygon id="polygon9401" points="160.54 145.15 166.28 154.96 167.35 143.65 178.46 141.22 168.03 136.7 169.15 125.39 161.63 133.91 151.22 129.34 157 139.12 149.44 147.62"/>
    <polygon id="polygon9403" points="243.86 139.05 249.49 129.17 239.15 133.9 231.5 125.48 232.79 136.78 222.43 141.47 233.58 143.71 234.83 155.02 240.41 145.11 251.55 147.42"/>
   </g>
  </g>
 </g>
</svg>
