<?xml version="1.0" encoding="UTF-8" standalone="no"?>
<!-- Created with Inkscape (http://www.inkscape.org/) -->

<svg
   xmlns:dc="http://purl.org/dc/elements/1.1/"
   xmlns:cc="http://creativecommons.org/ns#"
   xmlns:rdf="http://www.w3.org/1999/02/22-rdf-syntax-ns#"
   xmlns:svg="http://www.w3.org/2000/svg"
   xmlns="http://www.w3.org/2000/svg"
   xmlns:sodipodi="http://sodipodi.sourceforge.net/DTD/sodipodi-0.dtd"
   xmlns:inkscape="http://www.inkscape.org/namespaces/inkscape"
   width="297mm"
   height="210mm"
   viewBox="0 0 297 210"
   version="1.1"
   id="regiotv"
   sodipodi:docname="regiotv.svg"
   inkscape:version="0.92.2 (5c3e80d, 2017-08-06)">
  <defs
     id="defs2" />
  <sodipodi:namedview
     id="base"
     pagecolor="#396379"
     bordercolor="#666666"
     borderopacity="1.0"
     inkscape:pageopacity="0"
     inkscape:pageshadow="2"
     inkscape:zoom="1.0315789"
     inkscape:cx="487.89887"
     inkscape:cy="420.07287"
     inkscape:document-units="mm"
     inkscape:current-layer="layer1"
     showgrid="false"
     inkscape:window-width="1920"
     inkscape:window-height="977"
     inkscape:window-x="0"
     inkscape:window-y="28"
     inkscape:window-maximized="1"
     inkscape:pagecheckerboard="false" />
  <metadata
     id="metadata5">
    <rdf:RDF>
      <cc:Work
         rdf:about="">
        <dc:format>image/svg+xml</dc:format>
        <dc:type
           rdf:resource="http://purl.org/dc/dcmitype/StillImage" />
        <dc:title>RegioTV icon</dc:title>
      </cc:Work>
    </rdf:RDF>
  </metadata>
  <g
     inkscape:label="RegioTV"
     inkscape:groupmode="layer"
     id="layer1"
     transform="translate(0,-87)"
     style="display:inline">
    <path
       style="display:inline;opacity:0.997;fill:#d4aa00;fill-opacity:0.96265558;stroke:none;stroke-width:74.44989014;stroke-linecap:square;stroke-linejoin:round;stroke-miterlimit:4;stroke-dasharray:none;stroke-dashoffset:7.14241457;stroke-opacity:0.05394191;paint-order:markers fill stroke"
       d="m 623.03516,68.748047 c -4.46017,-0.0331 -8.93398,1.642904 -12.37696,5.035156 l -62.85547,61.929687 a 128.57143,90.459191 0 0 0 -2.08789,-0.0742 128.57143,90.459191 0 0 0 -2.02539,0.0508 L 481.8418,74.751953 c -6.88595,-6.784505 -17.89128,-6.702352 -24.67578,0.183594 -6.78451,6.885946 -6.70431,17.891276 0.18164,24.675781 l 42.60937,41.980472 a 128.57143,90.459191 0 0 0 -53.85937,27.41601 H 333.25391 c -68.98934,0 -124.5293,55.53997 -124.5293,124.5293 v 260.37891 c 0,68.98933 55.53996,124.52929 124.5293,124.52929 h 4.09375 v 5.71485 c 0,15.03714 12.10543,27.14257 27.14257,27.14257 15.03715,0 27.14258,-12.10543 27.14258,-27.14257 v -5.71485 h 306.38672 v 2.32227 c 0,15.03714 12.10739,27.14258 27.14453,27.14258 15.03715,0 27.14258,-12.10544 27.14258,-27.14258 v -2.32227 h 11.78711 c 68.98933,0 124.5293,-55.53996 124.5293,-124.52929 V 293.53711 c 0,-68.98933 -55.53997,-124.5293 -124.5293,-124.5293 H 645.35156 a 128.57143,90.459191 0 0 0 -53.87695,-27.33398 l 43.67773,-43.033205 c 6.88595,-6.784505 6.96615,-17.789835 0.18164,-24.675781 -3.39225,-3.442973 -7.83865,-5.183701 -12.29882,-5.216797 z"
       id="frame"
       inkscape:connector-curvature="0"
       transform="matrix(0.26458333,0,0,0.26458333,0,87)"
       inkscape:export-xdpi="72.290001"
       inkscape:export-ydpi="72.290001" />
    <rect
       transform="translate(0,87)"
       style="display:inline;opacity:0.997;fill:#4d4d4d;fill-opacity:0.99170125;stroke:none;stroke-width:14.21356678;stroke-linecap:round;stroke-linejoin:round;stroke-miterlimit:4;stroke-dasharray:none;stroke-dashoffset:7.14241457;stroke-opacity:0.56846475;paint-order:markers fill stroke"
       id="display"
       width="130.03731"
       height="107.21024"
       x="68.224701"
       y="58.674541"
       ry="22.07048"
       inkscape:export-xdpi="72.290001"
       inkscape:export-ydpi="72.290001" />
    <g
       id="buttons"
       transform="translate(0,15.875004)"
       inkscape:export-xdpi="72.290001"
       inkscape:export-ydpi="72.290001"
       style="fill:#aa8800">
      <ellipse
         transform="matrix(1,0,0.03067016,0.99952956,0,0)"
         ry="5.6383982"
         rx="5.5337782"
         cy="168.06769"
         cx="210.25519"
         id="button1"
         style="opacity:0.997;fill:#aa8800;fill-opacity:0.99170125;stroke:none;stroke-width:300.89208984;stroke-linecap:round;stroke-linejoin:round;stroke-miterlimit:4;stroke-dasharray:none;stroke-dashoffset:7.14241457;stroke-opacity:0.56846475;paint-order:markers fill stroke" />
      <ellipse
         transform="matrix(1,0,0.03067016,0.99952956,0,0)"
         ry="5.6383986"
         rx="5.5337782"
         cy="183.97717"
         cx="209.76724"
         id="button2"
         style="opacity:0.997;fill:#aa8800;fill-opacity:0.99170125;stroke:none;stroke-width:300.89208984;stroke-linecap:round;stroke-linejoin:round;stroke-miterlimit:4;stroke-dasharray:none;stroke-dashoffset:7.14241457;stroke-opacity:0.56846475;paint-order:markers fill stroke" />
      <ellipse
         transform="matrix(1,0,0.03067016,0.99952956,0,0)"
         ry="5.6383982"
         rx="5.5337782"
         cy="199.88666"
         cx="209.2793"
         id="button3"
         style="opacity:0.997;fill:#aa8800;fill-opacity:0.99170125;stroke:none;stroke-width:300.89208984;stroke-linecap:round;stroke-linejoin:round;stroke-miterlimit:4;stroke-dasharray:none;stroke-dashoffset:7.14241457;stroke-opacity:0.56846475;paint-order:markers fill stroke" />
      <ellipse
         transform="matrix(1,0,0.03067016,0.99952956,0,0)"
         ry="5.6383982"
         rx="5.5337782"
         cy="215.79614"
         cx="208.79135"
         id="button4"
         style="opacity:0.997;fill:#aa8800;fill-opacity:0.99170125;stroke:none;stroke-width:300.89208984;stroke-linecap:round;stroke-linejoin:round;stroke-miterlimit:4;stroke-dasharray:none;stroke-dashoffset:7.14241457;stroke-opacity:0.56846475;paint-order:markers fill stroke" />
    </g>
  </g>
</svg>
